<?xml version="1.0" standalone="no"?>
<!DOCTYPE svg PUBLIC "-//W3C//DTD SVG 1.1//EN" "http://www.w3.org/Graphics/SVG/1.1/DTD/svg11.dtd" >
<svg xmlns="http://www.w3.org/2000/svg" xmlns:xlink="http://www.w3.org/1999/xlink" version="1.1">
<metadata>
Created by FontForge 20170731 at Tue Aug 11 13:25:13 2020
 By Aleksey,,,
Typeface (c) (Michael Gilliam). 2020. All Rights Reserved
</metadata>
<defs>
<font id="CactusJack" horiz-adv-x="721" >
  <font-face 
    font-family="Cactus Jack"
    font-weight="400"
    font-stretch="normal"
    units-per-em="2048"
    panose-1="2 0 5 0 0 0 0 0 0 0"
    ascent="1638"
    descent="-410"
    x-height="390"
    cap-height="631"
    bbox="-148 -406 1426 1462.01"
    underline-thickness="150"
    underline-position="-442"
    unicode-range="U+001D-20AC"
  />
<missing-glyph horiz-adv-x="1024" 
 />
    <glyph glyph-name=".notdef" horiz-adv-x="1024" 
 />
    <glyph glyph-name=".null" horiz-adv-x="0" 
 />
    <glyph glyph-name=".null" horiz-adv-x="0" 
 />
    <glyph glyph-name="nonmarkingreturn" horiz-adv-x="508" 
 />
    <glyph glyph-name="space" unicode=" " horiz-adv-x="797" 
 />
    <glyph glyph-name="space" unicode="&#xa0;" horiz-adv-x="797" 
 />
    <glyph glyph-name="exclam" unicode="!" horiz-adv-x="410" 
d="M128 897q15 -2 25 -19l-10 -101q-17 -182 3 -495q-7 -81 -8 -127q19 -2 17 -25q-2 -21 -41 -26q-45 5 -33 132q8 89 -9 393l24 254q11 16 32 14zM122 16q47 -61 45 -80l-1 -18q-20 -70 -70 -65l-12 1q-62 6 -73 93l1 15q6 63 110 54zM71 -47v-8q-2 -20 15 -31l12 -1
q11 3 13 21l-28 25l-4 1q-7 -1 -8 -7z" />
    <glyph glyph-name="quotedbl" unicode="&#x22;" horiz-adv-x="391" 
d="M187 1085q47 12 72 -86l1 -3q41 -153 -95 -314l-19 -5q-5 -2 -23 10l-3 10q-3 13 67 122q33 79 14 152l-9 34l-13 -13l-23 -6q-22 4 -26 16q7 47 46 80zM27 1039q46 12 70 -78l1 -3q37 -142 -100 -294l-20 -6q-5 -1 -23 10l-2 9q-4 12 69 114q34 75 16 142l-8 32l-14 -13
l-23 -6q-21 4 -24 15q7 44 46 75z" />
    <glyph glyph-name="numbersign" unicode="#" horiz-adv-x="1204" 
d="M15 380l-1 16q6 20 23 22q6 0 6 -4l15 5l31 2q80 6 164 8q424 69 624 83q2 1 17 18l18 1q16 -9 17 -35q2 -33 -61 -48q-152 -11 -621 -80l-161 -11q-17 -1 -48 -7q-22 6 -23 30zM186 700h16q20 -7 20 -23q0 -5 -4 -5l4 -14v-28q0 -75 -4 -152q40 -395 40 -580
q0 -3 16 -17v-17q-10 -14 -36 -14q-33 0 -44 59q0 141 -36 577v149q0 17 -4 45q8 20 32 20zM580 -150h-16q-20 7 -20 23q0 5 4 5l-4 14v28q0 75 4 152q-40 395 -40 580q0 3 -16 17v17q10 14 36 14q33 0 44 -59q0 -141 36 -577v-149q0 -17 4 -45q-8 -20 -32 -20zM748 196
l1 -16q-5 -20 -17 -22q-5 0 -5 4l-11 -5l-23 -3q-59 -6 -122 -9q-315 -75 -463 -91q-2 0 -13 -17l-14 -2q-11 9 -13 35q-2 33 45 49q113 12 461 86l120 13q13 2 36 8q16 -6 18 -30z" />
    <glyph glyph-name="dollar" unicode="$" horiz-adv-x="839" 
d="M181 1066h20q20 -10 20 -32q-20 -71 -20 -128h4q79 28 136 28q111 0 148 -84q12 -37 28 -68q0 -26 -36 -32q-30 0 -56 92q-31 28 -88 28h-8q-45 0 -132 -36q-12 -140 -16 -468q38 -32 108 -32q55 12 80 12h16q144 -14 144 -96v-64q0 -63 -120 -164q-75 -44 -136 -44h-72
l-40 4l-4 -8v-200q0 -10 12 -48v-16q-3 -12 -28 -20q-42 0 -48 100v120q0 28 4 88q-21 11 -80 32q-16 23 -16 52q0 16 20 28h24q6 0 28 -36l28 -4q12 182 12 244v4q0 9 4 16q-92 110 -104 220v76q0 128 76 196q48 46 48 56q9 184 44 184zM73 566q0 -27 44 -128h4l8 336
q-56 -31 -56 -208zM177 290q0 -26 -16 -244l8 -4h112q91 0 180 128l8 28v12q0 64 -40 64q-26 8 -36 8h-24q-8 0 -76 -8h-12q-55 0 -104 16z" />
    <glyph glyph-name="percent" unicode="%" horiz-adv-x="714" 
d="M372 749h4q28 0 28 -28v-4q-95 -252 -208 -472q-66 -146 -120 -276q-26 -48 -48 -48h-4q-28 0 -28 28v4l44 92q107 256 208 452q68 173 100 240q4 12 24 12zM104 689l44 -12l20 4q100 -11 100 -64v-16q0 -93 -120 -168q-7 -4 -16 -4h-20q-56 0 -64 84v56q9 120 56 120z
M108 541q3 -52 12 -52q84 58 84 100v16q-4 12 -24 12h-12q-56 0 -60 -76zM312 285h12q7 0 24 -28q60 -12 60 -52v-16q0 -85 -100 -136l-20 -4q-64 9 -64 64q4 50 16 88l-8 16q0 32 80 68zM304 197q-16 -46 -16 -84h4q52 37 52 80q-7 4 -16 4h-24z" />
    <glyph glyph-name="ampersand" unicode="&#x26;" horiz-adv-x="1098" 
d="M408 645q88 -7 88 -72v-4q0 -65 -124 -156l-88 -92v-4l88 -172q7 0 312 80q57 12 80 12h12q28 0 28 -28v-12q0 -22 -88 -28l-308 -80q90 -136 184 -180q26 0 32 -36q-14 -28 -32 -28q-120 38 -224 192q-27 40 -32 40q-147 -20 -216 -20h-24q-77 0 -92 56v28q0 63 160 156
l40 36q-56 105 -56 152v16q0 91 232 144h28zM208 497q0 -35 44 -116h4q0 10 164 160q12 20 12 32q0 8 -8 8h-48q-168 -49 -168 -84zM64 129v-4q34 -8 60 -8q180 14 180 24q-67 132 -72 132q-44 -36 -160 -116z" />
    <glyph glyph-name="quotesingle" unicode="'" horiz-adv-x="114" 
d="M8 1066q46 12 70 -78l1 -3q37 -142 -100 -294l-20 -6q-5 -1 -23 10l-2 9q-4 12 69 114q34 75 16 142l-8 32l-14 -13l-23 -6q-21 4 -24 15q7 44 46 75z" />
    <glyph glyph-name="parenleft" unicode="(" horiz-adv-x="539" 
d="M204 945h12q28 0 28 -28v-4q0 -32 -40 -32q-117 -158 -144 -416q-8 -36 -8 -96v-204q0 -146 140 -244q32 -15 32 -40q-13 -28 -32 -28q-118 45 -188 208q-16 57 -16 112v172q0 246 112 496q60 104 104 104z" />
    <glyph glyph-name="parenright" unicode=")" horiz-adv-x="763" 
d="M335 913q69 0 120 -188q8 -70 8 -124q0 -170 -120 -404q-105 -173 -148 -236q-50 -72 -72 -72q-28 8 -28 32q0 16 92 140q184 289 200 436q12 63 12 104v28q0 141 -68 220q-23 0 -32 20v12q0 32 36 32z" />
    <glyph glyph-name="asterisk" unicode="*" horiz-adv-x="631" 
d="M387 1077q16 0 28 -20v-12q0 -11 -24 -44l-68 -184h4l108 36q32 -4 32 -32q0 -32 -168 -80v-4q27 -44 148 -160v-24q0 -6 -16 -16h-12q-35 0 -148 132h-4q-60 -174 -60 -240q0 -12 -16 -20h-24q-20 10 -20 32v24q0 44 68 244h-4l-120 -36q-32 0 -32 32t124 60q16 8 16 12
q-52 89 -160 180l-4 20q14 28 32 28q75 -29 184 -192l92 236q28 28 44 28z" />
    <glyph glyph-name="plus" unicode="+" horiz-adv-x="607" 
d="M266 625h8q28 0 28 -28v-12q-21 -22 -48 -100q58 -20 92 -24q16 -18 16 -28q0 -32 -36 -32l-100 24h-8q-71 -168 -112 -168q-16 0 -28 20v12q0 8 60 112q16 28 16 40q-112 0 -112 32v8q8 28 32 28q66 -4 112 -12q28 53 52 116q15 12 28 12z" />
    <glyph glyph-name="comma" unicode="," horiz-adv-x="433" 
d="M217 229q48 0 48 -124v-4q0 -195 -172 -344h-20q-5 0 -20 20v12q0 17 96 124q52 84 52 176v44l-16 -12h-24q-20 12 -20 28q18 54 64 80h12z" />
    <glyph glyph-name="hyphen" unicode="-" horiz-adv-x="597" 
d="M285 452q28 0 28 -28v-12q0 -25 -180 -60q-11 0 -64 -16h-12q-20 10 -20 32q0 41 152 56q61 28 96 28z" />
    <glyph glyph-name="hyphen" unicode="&#xad;" horiz-adv-x="597" 
d="M285 452q28 0 28 -28v-12q0 -25 -180 -60q-11 0 -64 -16h-12q-20 10 -20 32q0 41 152 56q61 28 96 28z" />
    <glyph glyph-name="period" unicode="." horiz-adv-x="311" 
d="M373 1144h6q0 -4 -4 -4h-2v4zM109 55q40 0 40 -44h-4l4 -8v-4q-5 -36 -36 -36q-36 0 -36 56q6 36 32 36z" />
    <glyph glyph-name="slash" unicode="/" horiz-adv-x="735" 
d="M405 816q36 -8 36 -38q0 -18 -36 -49q-256 -454 -296 -711q0 -87 -40 -87q-28 12 -28 48q30 312 328 813q0 14 36 24z" />
    <glyph glyph-name="zero" unicode="0" horiz-adv-x="771" 
d="M267 976q68 -18 68 -56q0 -28 -20 -28v-4q104 0 140 -236q8 -115 12 -292q0 -117 -28 -252q28 -20 28 -44v-12q0 -6 -16 -16h-8q-25 8 -36 8q-75 -128 -164 -128q-131 0 -216 224q-28 107 -28 236q0 384 232 588q25 12 36 12zM215 860h4q46 28 80 28v4q-14 0 -32 20
q-14 0 -52 -52zM223 792q-32 3 -32 32q-48 -60 -48 -84q14 -14 56 -180q41 -159 184 -384q16 0 20 180q0 389 -60 448q-14 24 -36 24q-14 0 -84 -36zM103 660q-40 -118 -40 -288v-8q0 -286 140 -372q20 -12 32 -12h12q55 0 116 116v8q-166 196 -256 556h-4z" />
    <glyph glyph-name="one" unicode="1" horiz-adv-x="543" 
d="M256 931q36 -5 36 -36v-20q0 -35 -92 -284q-40 -128 -64 -624h4q36 20 52 20q13 0 28 -28q0 -37 -148 -92q0 -9 -56 -20q-36 9 -36 36q0 29 56 32q36 20 36 24q24 526 68 676q76 206 76 212q-49 -68 -64 -68h-4q-16 0 -28 20v16q25 71 116 132z" />
    <glyph glyph-name="two" unicode="2" horiz-adv-x="733" 
d="M184 850q143 -9 160 -48q52 -18 92 -112q20 -51 20 -96v-12q0 -90 -76 -124q-92 0 -92 -56q-51 -107 -208 -312h4q93 48 264 48q72 0 72 -44q-13 -28 -32 -28q-25 8 -32 8q-180 0 -248 -44q-22 -4 -36 -4q-51 0 -76 36v16q0 13 72 100q168 223 168 288q0 30 132 56
q28 28 28 64q0 128 -128 192q-73 8 -92 8q-108 -47 -108 -184v-8q0 -120 68 -152l4 -20v-4q0 -28 -28 -28h-4q-24 0 -76 64q-24 73 -24 112v44q0 173 148 236z" />
    <glyph glyph-name="three" unicode="3" horiz-adv-x="850" 
d="M248 828h8q101 0 292 -216q20 -44 20 -76v-16q0 -166 -180 -248v-4q21 0 60 -240q0 -100 -160 -148q-41 -4 -64 -4h-8q-79 0 -140 88v20q0 5 20 20h20q63 -64 88 -64h40q99 0 140 80v8q-31 216 -60 216q-85 -16 -100 -16q-28 12 -28 36q0 35 160 60q152 75 152 196
q0 80 -152 188q-56 56 -96 56h-16q-116 0 -176 -144q-4 -7 -4 -20v-44q0 -106 24 -168v-20q-10 -20 -32 -20q-56 0 -56 260q6 74 96 164q79 56 152 56z" />
    <glyph glyph-name="four" unicode="4" horiz-adv-x="607" 
d="M228 980q16 0 28 -20v-28q0 -27 -4 -48q44 -252 80 -744q0 -37 -4 -104q4 -21 4 -48q-10 -32 -36 -32h-8q-5 0 -24 24l4 28q0 23 -4 28q4 34 4 56v52q0 69 -24 264h-4q-132 -48 -204 -48h-8q-36 5 -36 36q15 164 60 164q20 0 32 -20v-16q-24 -61 -24 -96q68 0 180 48
l-4 20q0 100 -44 364v32q0 88 32 88h4z" />
    <glyph glyph-name="five" unicode="5" horiz-adv-x="710" 
d="M292 964q24 0 28 -32v-12q0 -21 -212 -68q-48 -16 -48 -40q4 -41 4 -48q0 -20 -4 -148q0 -8 12 -80l-4 -64q0 -184 28 -184q75 -64 80 -64q153 28 188 28q84 0 84 -128v-8q0 -58 -72 -128q-129 -80 -168 -80q-89 18 -196 68q-12 15 -12 28q0 25 36 28q113 -45 168 -60h8
q164 71 164 124q4 0 12 28q-7 64 -20 64l-216 -28h-4q-17 0 -36 32q-88 72 -88 80q-16 64 -16 80l4 20q0 7 -8 80q4 52 4 84l-12 80q4 77 4 136v12q0 17 -4 44q0 102 212 132q73 24 84 24z" />
    <glyph glyph-name="six" unicode="6" horiz-adv-x="710" 
d="M57 923h12q20 -10 20 -32q-20 -51 -20 -88v-56q12 -568 40 -568q33 -144 68 -144q0 -4 4 -4h4v20q20 220 108 220h16q112 -24 112 -160q0 -95 -84 -160q-20 -12 -40 -12h-24q-91 0 -168 76q-92 130 -92 528q-3 0 -8 256q9 124 52 124zM245 39q0 -40 36 -40q58 0 76 112
q-8 100 -56 100q-33 0 -56 -168v-4z" />
    <glyph glyph-name="seven" unicode="7" horiz-adv-x="725" 
d="M373 861q120 -15 120 -92v-24q0 -84 -156 -376l-32 -96h4q12 0 72 20h20q12 -3 20 -28q0 -38 -136 -64q-60 -213 -108 -316l-24 -12q-21 0 -32 32q62 162 104 312q-36 0 -44 92q11 48 44 48h12l24 -20q20 63 160 352q12 47 12 76q0 20 -48 32q-111 -4 -184 -4h-144
q-52 0 -136 -4q-36 8 -36 36q0 18 28 32q8 0 8 -4q107 4 168 4h228q22 0 56 4z" />
    <glyph glyph-name="eight" unicode="8" horiz-adv-x="828" 
d="M215 876q84 -16 84 -56q-4 -8 -4 -12q136 -31 136 -204v-8q0 -110 -92 -168v-8q68 -14 184 -192q24 -71 24 -100v-40q0 -107 -128 -228q-68 -60 -104 -60h-76q-163 0 -220 160q-16 69 -16 132q0 247 152 332v4q-38 0 -72 124q-4 5 -4 28v56q0 174 108 240h28zM203 816
q-64 -68 -64 -212q0 -140 116 -140h8q73 0 104 112v48q0 109 -96 124h-4q-15 -12 -28 -12q-32 2 -32 32q5 17 28 36q-20 12 -32 12zM251 400q0 -20 -56 -24q-128 -67 -128 -280v-20q0 -159 100 -200q26 -16 136 -16q82 33 140 120q44 74 44 140q0 97 -156 240q-22 -4 -32 -4
q-24 0 -24 28v16h-24z" />
    <glyph glyph-name="nine" unicode="9" horiz-adv-x="474" 
d="M133 946q63 0 92 -76q-8 -28 -32 -28l32 -40l-4 -24q4 -69 4 -112q-12 -186 -64 -648q0 -59 -28 -72h-12q-36 5 -36 36q16 33 16 40v24q48 423 60 620v16q-24 -16 -48 -16h-28q-112 10 -112 108v8q0 115 144 164h16zM37 794v-28q0 -40 68 -40q29 6 52 36v8q0 16 -40 60v8
q0 25 40 28q-6 16 -28 16q-32 0 -80 -52q-12 -29 -12 -36z" />
    <glyph glyph-name="colon" unicode=":" horiz-adv-x="464" 
d="M154 513q44 -9 44 -24v-24q-18 -32 -40 -32q-30 0 -36 40v4q6 36 32 36zM126 245h16q5 0 20 -20v-8q0 -31 -24 -44h-28q-5 0 -20 20v12q6 40 36 40z" />
    <glyph glyph-name="semicolon" unicode=";" horiz-adv-x="524" 
d="M219 350q28 -12 28 -36v-12q-6 -52 -48 -52q-32 0 -36 40q0 60 56 60zM175 114q39 0 60 -108v-28q0 -144 -268 -280q-26 -8 -36 -8q-32 2 -32 32q0 24 108 64q168 112 168 204q0 34 -32 76q-4 7 -4 16q0 25 36 32z" />
    <glyph glyph-name="semicolon" unicode="&#x37e;" horiz-adv-x="524" 
d="M219 350q28 -12 28 -36v-12q-6 -52 -48 -52q-32 0 -36 40q0 60 56 60zM175 114q39 0 60 -108v-28q0 -144 -268 -280q-26 -8 -36 -8q-32 2 -32 32q0 24 108 64q168 112 168 204q0 34 -32 76q-4 7 -4 16q0 25 36 32z" />
    <glyph glyph-name="less" unicode="&#x3c;" horiz-adv-x="903" 
d="M534 744h24q20 -10 20 -36q-15 -36 -156 -136q-88 -56 -296 -180l-4 -8q69 -20 360 -332q50 -66 100 -112v-20q-10 -20 -32 -20q-33 0 -156 160q-237 232 -244 232q-103 65 -104 72v32q11 39 252 172q126 74 232 172q0 4 4 4z" />
    <glyph glyph-name="equal" unicode="=" horiz-adv-x="714" 
d="M347 490l12 -16v-24q0 -26 -188 -40q-13 0 -68 4q-13 -8 -20 -8q-32 0 -32 40q0 28 56 28h56q152 16 184 16zM387 378q28 -14 28 -32q0 -39 -180 -72q-58 -23 -176 -36q-15 0 -32 24v8q0 28 36 40l20 -4q57 0 304 72z" />
    <glyph glyph-name="greater" unicode="&#x3e;" horiz-adv-x="1131" 
d="M92 692h24q327 -97 412 -164q66 -46 256 -148q76 -52 76 -60v-20q-3 -17 -116 -56q-381 -196 -480 -260q-14 -24 -36 -24q-24 0 -32 28q0 53 300 196q77 46 264 132q-67 49 -204 116q-200 136 -280 140q-86 36 -176 48q-32 15 -32 40q0 15 24 32z" />
    <glyph glyph-name="question" unicode="?" horiz-adv-x="794" 
d="M211 1168h8q218 0 316 -200q28 -85 28 -138v-44q0 -127 -252 -201q-32 -7 -68 -7h-12v-41q-12 -173 -12 -286v-66q0 -28 12 -64q-8 -25 -36 -25q-40 0 -40 111q0 189 16 334l-16 52q0 44 120 44q228 56 228 167q0 205 -168 282q-39 15 -108 26l-20 -3q-25 7 -28 18v22
q10 19 32 19zM247 -120q64 0 88 -63l4 -37q0 -89 -56 -89q-50 0 -108 74l-4 22v4q43 89 76 89zM235 -216q34 -30 40 -30v37l-8 26h-4q-4 0 -28 -33z" />
    <glyph glyph-name="at" unicode="@" horiz-adv-x="1072" 
d="M529 812h8q133 0 188 -172q12 -69 40 -312q0 -157 -116 -220q-7 -4 -20 -4q-51 0 -100 128q-36 60 -40 88q-92 -12 -144 -12q-49 -191 -76 -268q-17 -16 -32 -16q-35 0 -52 60v8q0 36 32 36h8l8 -4q120 504 236 504q40 0 40 -148q18 -68 24 -68q29 16 32 16q26 0 32 -36
q0 -23 -52 -44q27 -83 88 -172l8 -4q60 66 60 132v28q-35 348 -60 348q-44 68 -96 68h-24q-181 -52 -236 -128q-152 -220 -152 -304q-7 0 -12 -280q25 -108 76 -108h56q62 0 452 76q25 -8 28 -20v-12q0 -41 -132 -52q-293 -56 -364 -56h-28q-114 0 -148 156v196
q0 199 104 332q101 183 216 216q105 48 148 48zM437 528q-32 -65 -72 -156h4q100 4 100 12q-28 125 -28 144h-4z" />
    <glyph glyph-name="A" unicode="A" horiz-adv-x="915" 
d="M316 611h12q56 0 136 -232q44 -77 44 -84h32q5 0 20 -20l-4 -40q88 -94 88 -160q0 -29 -40 -36q-18 7 -28 24v4l4 24q-8 32 -92 128q-140 -48 -264 -48q-4 0 -64 8q-91 -320 -108 -320h-12q-32 0 -32 36q68 210 92 304q-68 19 -68 48q0 26 36 32q6 0 52 -20
q125 327 164 344q15 8 32 8zM316 547q-28 -28 -132 -304v-4q27 -4 44 -4q220 18 220 40q-53 98 -108 244q-18 28 -24 28z" />
    <glyph glyph-name="B" unicode="B" horiz-adv-x="657" 
d="M155 758q91 -19 144 -78q80 -98 84 -173q0 -57 -168 -89l-40 -3l-36 3l-72 -7q25 -78 32 -78h8q113 0 272 -99q40 -50 40 -78v-18q0 -105 -132 -166q-53 -46 -92 -71q0 -7 -20 -7h-12q-24 0 -40 140q-16 47 -52 192l-72 181q-29 0 -36 26q0 13 20 33q-19 87 -52 148
q0 25 -16 63q0 29 32 29h8q20 -10 20 -22q82 74 180 74zM3 625q32 -119 48 -159q20 6 180 11q67 20 88 37q-20 94 -112 166q-57 19 -64 19q-68 0 -140 -74zM119 274q36 -98 76 -299q33 27 128 89q31 38 36 81q0 60 -192 122q0 7 -40 7h-8z" />
    <glyph glyph-name="C" unicode="C" horiz-adv-x="782" 
d="M215 630h24q185 0 260 -144q18 -16 36 -68q25 0 28 -32q0 -16 -20 -28h-16q-44 0 -72 88q-58 83 -76 84q-67 36 -120 36h-52q-85 0 -140 -76q-8 -13 -8 -24v-16q0 -136 164 -324q9 0 120 -100q136 -88 172 -88q8 -13 8 -24v-4q-4 -32 -32 -32q-113 33 -248 152
q-111 88 -140 152q-94 119 -104 244q-4 16 -4 28q0 144 220 176z" />
    <glyph glyph-name="D" unicode="D" horiz-adv-x="680" 
d="M58 777q24 -8 24 -32v-8l-4 -8q164 -58 228 -152q37 -12 112 -132q48 -129 48 -184q0 -155 -108 -208q-96 -80 -216 -80h-4q-7 4 -16 4q0 -8 -24 -12q-32 0 -32 56q-53 48 -64 104v12q0 28 28 28h4q32 0 32 -40h4v4q-20 247 -64 572q0 76 48 76h4zM78 661v-4
q56 -490 56 -564v-48q1 -8 8 -8q91 0 144 44q116 53 116 156v16q0 139 -116 264q-130 127 -176 128q-1 6 -32 16z" />
    <glyph glyph-name="E" unicode="E" horiz-adv-x="723" 
d="M449 800q44 0 44 -32v-12q0 -5 -20 -20h-20q-261 -40 -336 -40q8 -51 8 -60q-8 -125 -28 -236q368 6 368 16q36 -8 36 -32q0 -40 -116 -40q-58 -4 -296 -8q-12 -127 -12 -224l28 8q22 -4 36 -4h8q28 0 148 32h8q28 0 28 -28v-12q0 -25 -176 -56q-2 0 -52 4q-13 -8 -24 -8
h-36q-32 18 -32 76l12 212q-32 0 -40 20v24q0 18 52 24q24 169 24 240v4q0 16 -28 64v8q0 44 144 44q196 20 272 36z" />
    <glyph glyph-name="F" unicode="F" horiz-adv-x="801" 
d="M637 855q24 -8 24 -31q0 -36 -124 -42l-324 -50v-4q0 -78 -64 -317h200q14 0 68 8q28 -13 28 -31q0 -38 -108 -38h-196q-17 0 -40 -378l20 15h20q16 -6 16 -27v-4q-18 -77 -64 -77q-52 0 -56 62q16 286 32 397l-40 -12h-16q-20 10 -20 31q0 31 92 51q64 248 64 316v4h-36
q-5 0 -20 19v12q0 34 60 34q0 23 28 27q12 0 40 -23z" />
    <glyph glyph-name="G" unicode="G" horiz-adv-x="630" 
d="M71 692q56 -13 56 -56q-12 -28 -36 -28q-4 0 -28 20q-44 -43 -44 -204v-4q0 -300 72 -300h12q66 0 88 204q0 50 -36 76q-4 7 -4 16q0 35 104 44q50 4 52 4q132 0 132 -40v-4q0 -13 -28 -28q-58 8 -104 8q-6 0 -64 -4q8 -39 8 -44v-12q0 -211 -104 -272q-19 -12 -52 -12
q-140 0 -140 328q0 308 116 308z" />
    <glyph glyph-name="H" unicode="H" horiz-adv-x="624" 
d="M69 721q32 -3 32 -28q0 -9 -4 -16q8 -44 8 -100v-184q46 -12 104 -16q73 12 144 28v124q0 25 4 60q-4 12 -4 48v16q0 40 32 40t32 -32q0 -16 -4 -16l4 -40v-256q-13 -272 -76 -272q-21 0 -32 32q44 92 44 224v8h-4q-34 -12 -136 -24h-16q-24 0 -92 8v-136q0 -17 4 -44
q-14 -28 -32 -28q-36 0 -36 64v176q-32 36 -32 40v8q0 32 32 32q0 10 4 108q0 69 -12 132q7 44 36 44z" />
    <glyph glyph-name="I" unicode="I" horiz-adv-x="311" 
d="M8 631h24q24 -17 24 -32q-3 -16 -8 -16q20 -188 80 -344q16 -110 20 -228q-20 -18 -32 -20q-36 8 -36 40v56q0 108 -68 320q-16 77 -28 192q0 15 24 32z" />
    <glyph glyph-name="J" unicode="J" horiz-adv-x="775" 
d="M478 581h20q56 0 72 -400v-32q0 -155 -96 -204q-59 -28 -108 -28h-32q-115 0 -252 124q-68 82 -68 172q8 44 40 44q22 0 28 -20q0 -2 -4 -52q33 -108 100 -144q103 -64 168 -64q160 0 160 152v76q0 210 -48 344v12q0 5 20 20z" />
    <glyph glyph-name="K" unicode="K" horiz-adv-x="797" 
d="M123 828q28 -8 28 -32v-12q-20 -9 -20 -96v-288h8q48 28 48 40q-12 21 -12 40v12q5 36 36 36q28 -12 28 -36v-20h8q210 124 264 144q16 0 28 -20v-12q0 -28 -104 -76q-131 -74 -168 -100q48 -197 164 -460q28 -36 28 -52v-8q0 -28 -28 -28q-64 0 -220 508h-8
q-59 -37 -68 -52v-312q0 -132 -36 -132h-4q-9 1 -28 24q4 54 4 80v284q-25 -24 -40 -24q-24 0 -28 32v12q0 8 64 68q4 7 4 16v380q0 84 52 84z" />
    <glyph glyph-name="L" unicode="L" horiz-adv-x="535" 
d="M70 647q25 -8 28 -20q0 -38 4 -52q-4 -108 -4 -172v-100q0 -140 -28 -284q232 -8 232 -28l4 -8v-20q-7 -14 -24 -20q-264 11 -264 32q-12 17 -12 32q28 166 28 260v104q0 88 4 212q-4 16 -4 32q0 25 36 32z" />
    <glyph glyph-name="M" unicode="M" horiz-adv-x="820" 
d="M65 818h16q5 0 20 -20l-4 -36q0 -67 52 -120q82 -182 104 -196q32 169 112 292q18 22 32 28h4q40 0 40 -76q32 -167 72 -300q24 -64 68 -320q0 -32 -32 -32q-40 0 -40 104l-60 256q-32 90 -64 240h-4q-44 -83 -68 -212q-28 -52 -60 -52q-61 0 -136 196h-4q4 -54 4 -80
v-72q0 -179 12 -268q0 -24 -32 -28q-36 0 -36 84q-8 132 -8 156q0 16 4 72q-9 288 -32 288q-24 35 -24 48v4q0 31 44 36q0 7 20 8z" />
    <glyph glyph-name="N" unicode="N" horiz-adv-x="752" 
d="M486 589q25 0 28 -32q-49 -136 -80 -380q-16 -236 -36 -236q-7 -4 -16 -4h-12q-16 1 -80 168q-148 330 -148 344h-4l-68 -448q12 -20 12 -32q-14 -32 -44 -32q-32 11 -32 40q80 580 88 588q7 16 28 16q42 0 100 -168q136 -304 136 -316q10 0 24 168q24 177 76 312
q15 12 28 12z" />
    <glyph glyph-name="O" unicode="O" horiz-adv-x="896" 
d="M218 656h16q307 0 412 -200q16 -35 16 -76v-32q0 -191 -152 -248q-195 -116 -232 -116h-32q-88 0 -116 72v8l4 20q-78 84 -100 200q-32 178 -32 220q0 93 100 128q82 24 116 24zM66 516v-16q26 -261 72 -316q34 -72 120 -112q14 0 36 -20q222 120 268 156q40 42 40 168
q0 135 -232 204q-28 8 -140 16q-164 -22 -164 -80z" />
    <glyph glyph-name="P" unicode="P" horiz-adv-x="539" 
d="M111 762q20 0 32 -32q152 -66 152 -212q0 -121 -188 -180q0 -173 32 -284v-12q0 -5 -20 -20h-20q-43 0 -52 260v40q0 21 -36 32q-52 47 -52 80v12q0 5 20 20h12q23 0 48 -56h8v4q8 191 20 268h-4l-16 -4q-25 8 -28 20v16q0 36 68 36q0 8 24 12zM127 666v-4l-20 -256
q124 38 124 112v4q0 102 -104 144z" />
    <glyph glyph-name="Q" unicode="Q" horiz-adv-x="1079" 
d="M378 695q54 0 144 -120q120 -157 140 -220l160 32q25 -8 28 -20v-12q0 -39 -116 -48q-30 -12 -56 -12v-76q0 -141 -236 -260q-47 -16 -96 -16h-44q-99 0 -188 88q-112 193 -112 292q0 97 68 224q83 92 160 92h16l28 -4q41 60 104 60zM342 615q72 -22 72 -40v-20
q-10 -20 -32 -20q-122 40 -144 40h-20q-50 0 -120 -104q-32 -99 -32 -148q0 -107 120 -276q71 -40 112 -40h64q108 0 236 152q20 41 20 96q0 20 -8 20q-119 -28 -144 -28q-40 4 -40 36t88 32q84 22 84 28q-57 121 -172 248q-30 40 -52 40h-12q-20 -10 -20 -16z" />
    <glyph glyph-name="R" unicode="R" horiz-adv-x="687" 
d="M188 760q80 0 100 -212q0 -105 -64 -208q172 -201 172 -336q4 0 4 -36q0 -21 -20 -32h-24q-24 0 -24 96q-21 93 -80 168q-61 89 -72 92q-65 -77 -120 -80v-232q36 -5 36 -36q-28 -56 -64 -56q-32 0 -36 64v180q21 406 60 456q52 172 132 172zM68 280q33 11 64 52
q-16 7 -16 28v12q10 20 32 20l28 -8h4q44 91 44 152v32q0 48 -36 128h-4q-40 -22 -84 -172q-32 -161 -32 -244z" />
    <glyph glyph-name="S" unicode="S" horiz-adv-x="812" 
d="M280 633q148 0 228 -248q5 0 20 -20v-12q-2 -32 -32 -32q-39 0 -92 156q-60 92 -108 92h-24q-54 0 -68 -48q0 -15 108 -132q80 -109 80 -300v-56q0 -84 -100 -84h-4q-109 18 -268 204q-12 34 -12 44q0 24 32 28q26 0 44 -56q146 -145 208 -160q40 0 40 44q0 248 -108 340
q-84 79 -84 136q0 79 132 104h8z" />
    <glyph glyph-name="T" unicode="T" horiz-adv-x="835" 
d="M517 667q17 -5 24 -20v-12q0 -40 -140 -64q0 -4 4 -4q12 -582 44 -636v-12q0 -24 -28 -24h-12q-52 0 -60 456q-4 148 -8 212h-28q-42 0 -240 24h-52q-5 0 -20 20v12q0 32 36 32h36q186 -24 236 -24h28q55 0 176 40h4z" />
    <glyph glyph-name="U" unicode="U" horiz-adv-x="718" 
d="M412 524q39 0 48 -64q-13 -212 -24 -292q0 -96 -68 -132q-39 -16 -56 -16h-8q-114 18 -248 268q-24 88 -56 168v4q10 24 36 24q35 0 80 -180q119 -204 192 -220h4q64 0 64 108q8 71 20 276q-12 4 -12 24q0 19 28 32z" />
    <glyph glyph-name="V" unicode="V" horiz-adv-x="706" 
d="M12 604h16q16 -5 32 -60q25 -32 120 -220q27 -45 76 -176q39 -51 44 -52q0 112 72 320q39 60 64 60t28 -36q-50 -65 -84 -212q-23 -228 -44 -228q-7 -4 -16 -4q-50 0 -148 184q0 33 -168 344q-24 27 -24 52q8 28 32 28z" />
    <glyph glyph-name="W" unicode="W" horiz-adv-x="892" 
d="M25 762h24q16 0 80 -180l60 -232h4q57 252 136 252q50 0 116 -188q61 -129 120 -220h4q-8 44 -8 100v8q8 408 40 408h16q22 0 32 -24q-14 0 -24 -376v-28q0 -25 12 -148v-4q0 -41 -36 -48q-74 12 -212 304q-47 125 -68 144q-36 -58 -92 -284q-15 -48 -24 -248
q-14 -68 -48 -68q-16 0 -28 20v32q0 74 20 180q0 164 -120 512q-24 31 -24 48v20q0 5 20 20z" />
    <glyph glyph-name="X" unicode="X" horiz-adv-x="1071" 
d="M36 492h8q42 0 132 -108q133 -136 148 -136q0 6 140 212q3 20 32 20h4q22 0 32 -20v-24q-32 -26 -48 -64q-60 -77 -108 -160q123 -50 252 -140q76 -40 240 -156q8 -15 8 -32q-8 -18 -16 -20h-28q-166 118 -280 180q-57 47 -208 116q0 -6 -128 -208q0 -44 -40 -44
q-15 0 -32 24v16q0 16 120 200q13 16 24 48q-16 0 -244 232q-44 0 -44 36q12 28 36 28z" />
    <glyph glyph-name="Y" unicode="Y" horiz-adv-x="858" 
d="M588 826h24q20 -10 20 -32q-132 -262 -180 -348l-72 -120q11 -43 28 -224q28 -137 28 -184q0 -68 -44 -68q-32 2 -32 32q12 26 12 36v8q-36 247 -52 396q-53 27 -140 140q-146 138 -208 176v16q0 28 28 28h4q63 -12 260 -220q49 -72 76 -72q106 155 204 380q29 48 44 56z
" />
    <glyph glyph-name="Z" unicode="Z" horiz-adv-x="1044" 
d="M226 645h112q44 -7 44 -44v-28q0 -29 -64 -128q-46 -87 -72 -176q-104 -149 -128 -260q-28 -52 -28 -64q171 24 244 24h12q26 0 492 -88q40 0 40 -32v-8q-14 -24 -36 -24q-18 0 -476 88h-56l-268 -24h-20q-24 14 -24 40q0 11 32 48q32 69 64 172l52 88q56 75 64 140
q58 122 108 200v16h-44q-111 0 -212 -56q0 -4 -12 -4q-16 0 -32 24v28q0 17 92 40q68 28 116 28z" />
    <glyph glyph-name="bracketleft" unicode="[" horiz-adv-x="630" 
d="M312 939h16q20 -10 20 -32q0 -32 -76 -36q-49 -16 -128 -28q-76 -599 -76 -824q-7 0 -8 -80v-8q124 8 180 8q136 -12 136 -40v-24q-6 -16 -28 -16q-72 16 -108 16h-28q-92 0 -136 -8q-4 0 -4 4l-20 -4h-12q-48 5 -48 36q20 168 24 380l68 596q0 23 228 60z" />
    <glyph glyph-name="backslash" unicode="\" horiz-adv-x="811" 
d="M57 799q22 0 44 -56q149 -193 316 -456l88 -208v-12q0 -5 -20 -20h-12q-39 0 -60 92q-59 147 -152 272q-77 117 -236 332q0 13 -4 20q6 36 36 36z" />
    <glyph glyph-name="bracketright" unicode="]" horiz-adv-x="794" 
d="M233 1041h92q272 -20 272 -68v-16q-28 -56 -52 -172q-60 -513 -116 -628q-8 -40 -8 -72v-68q8 -58 8 -64q0 -49 -108 -72q-27 -15 -240 -32q-44 -12 -84 -12q-26 0 -36 20v12q0 42 312 60q91 32 92 36q-8 36 -8 52v64q0 67 60 248q60 442 100 608q8 0 8 16h-4
q-168 28 -228 28h-12q-22 0 -56 -4q-24 0 -28 32q0 32 36 32z" />
    <glyph glyph-name="asciicircum" unicode="^" horiz-adv-x="638" 
d="M20 1035q-16 2 -26 23l1 12q2 22 142 135q43 60 70 57q33 -3 88 -85q47 -48 45 -72l-1 -8q-2 -22 -27 -30l-16 2q-35 3 -31 51l-61 70q-20 -38 -176 -155h-8z" />
    <glyph glyph-name="underscore" unicode="_" horiz-adv-x="886" 
d="M63 -41h8q53 -19 468 -40q44 -11 44 -36q0 -18 -28 -32q-116 16 -416 28q-56 12 -56 16l-20 -8q-27 0 -32 40q3 32 32 32z" />
    <glyph glyph-name="grave" unicode="`" horiz-adv-x="474" 
d="M45 1246q42 0 56 -48q21 -21 76 -52q4 -7 4 -16v-4q0 -28 -28 -28q-54 0 -116 84q-36 0 -36 36q0 23 44 28z" />
    <glyph glyph-name="a" unicode="a" horiz-adv-x="729" 
d="M254 645h8q33 0 64 -240q3 0 16 -60q47 4 68 4h16q20 -10 20 -32q0 -32 -76 -32h-8l-8 -4q48 -213 68 -280v-4q-4 -32 -32 -32q-37 0 -64 168q-4 6 -36 148q-152 -3 -152 -20l-76 -208v-4l4 -8q0 -26 -36 -32q-25 0 -32 44q16 67 216 568q19 24 40 24zM238 517
q0 -13 -68 -176h100l8 4q-20 74 -32 172h-8z" />
    <glyph glyph-name="b" unicode="b" horiz-adv-x="718" 
d="M109 841q152 0 304 -103q112 -90 112 -154q0 -88 -240 -168q-48 -17 -104 -17q5 -5 100 -41q112 -63 112 -148v-24q0 -101 -140 -236q-33 -20 -76 -24q-96 16 -96 62v7q0 8 12 24q-24 57 -24 311v76q0 64 -44 264l-24 140q0 31 108 31zM69 786v-3q20 -124 60 -316
q0 -27 8 -27q48 13 124 24q200 71 200 123v4q0 49 -152 147q-103 45 -196 48h-44zM133 354v-72q0 -225 32 -274q8 0 8 -27q74 0 152 175q3 7 8 37q0 108 -200 161z" />
    <glyph glyph-name="c" unicode="c" horiz-adv-x="853" 
d="M217 690q99 0 272 -124q40 -46 40 -56q0 -21 -32 -32q-19 0 -68 56q-148 92 -208 92h-8q-111 0 -144 -88q-8 -16 -8 -44v-16q0 -152 96 -272q101 -160 236 -160h16q172 34 172 104q4 0 4 16v36q0 4 -8 32v12q0 5 20 20h12q40 0 40 -76v-8q0 -134 -160 -184
q-42 -12 -64 -12h-56q-190 0 -352 340q-20 70 -20 172q0 114 116 172q62 20 104 20z" />
    <glyph glyph-name="d" unicode="d" horiz-adv-x="611" 
d="M69 598q27 -20 120 -36q73 -44 120 -100q31 0 88 -156q0 -38 4 -76q-24 -116 -76 -168q-99 -72 -236 -72v-8q12 -37 12 -52q-13 -28 -32 -28q-32 0 -56 80q-32 11 -32 40q8 28 16 28l-4 36q8 126 20 208q0 10 -4 60q12 108 12 132v44l-8 -4h-20q-24 14 -24 36q0 28 64 28
q6 0 36 8zM85 518v-16q-12 -149 -12 -168q0 -17 4 -44q-16 -69 -20 -216l4 -24q86 0 188 36q56 28 80 112q8 30 8 36q0 82 -36 136q0 21 -64 72q0 24 -96 68q-8 0 -56 8z" />
    <glyph glyph-name="e" unicode="e" horiz-adv-x="740" 
d="M240 619q24 -10 26 -22l-1 -16q-10 -21 -13 -55q117 -83 212 -106q82 -31 79 -67q-2 -21 -35 -29q-42 36 -158 69q-42 17 -115 70l-8 1q-6 -69 -47 -181q196 -107 193 -144q-16 -27 -35 -26q-36 19 -148 93l-35 19l-72 -187q96 -61 265 -106q47 -11 44 -44
q-14 -27 -38 -25q-146 45 -207 70q-74 42 -85 43h-4q-1 -16 -25 -14l-12 1q-15 1 -20 50q-27 14 -25 42l1 12q12 19 34 17l20 -5q40 90 66 175q-18 22 -16 41q18 31 46 28q37 101 42 166q-25 2 -25 38q1 16 46 28q13 67 50 64z" />
    <glyph glyph-name="f" unicode="f" horiz-adv-x="866" 
d="M48 744l224 -32l140 24q28 0 28 -28v-12q0 -21 -144 -44h-32l-224 28v-4q48 -137 72 -232q82 -24 156 -24h8q57 0 288 40q46 36 60 36q24 0 32 -28q0 -69 -224 -92q-75 -16 -116 -16h-104q-34 0 -84 16v-4q24 -196 52 -280q4 0 4 -4v-24q-12 -20 -28 -20q-58 0 -80 268
q-52 237 -100 360q0 9 -4 16q0 45 76 56z" />
    <glyph glyph-name="g" unicode="g" horiz-adv-x="734" 
d="M184 727q56 -7 56 -44q0 -25 -36 -28q-13 8 -24 8q-92 -77 -92 -152q-20 -54 -20 -96v-52q0 -190 116 -320l28 -8q26 0 64 136v64q-108 19 -108 44v24q10 20 32 20q48 -24 80 -24q52 0 180 60q29 40 48 40q24 0 32 -28q0 -69 -204 -128l4 -8v-28q0 -152 -104 -232l-28 -4
q-133 0 -200 328q-4 46 -4 88v28q13 133 72 236q64 76 108 76z" />
    <glyph glyph-name="h" unicode="h" horiz-adv-x="626" 
d="M396 813h12q20 -10 20 -32v-36q0 -87 4 -236q-12 -147 -36 -288q4 -44 4 -76q0 -22 -4 -76l4 -24q-8 -24 -32 -24q-26 0 -36 40q4 47 4 68v80q0 57 12 112h-4q-85 -28 -244 -48q-28 -6 -28 -28q-9 -156 -24 -156l-20 -4h-8q-5 0 -20 20q0 117 64 540q0 72 44 72
q13 0 28 -28l-52 -356h4q104 20 180 28q29 17 92 28v20q0 43 12 132q-8 64 -8 128v108q0 36 32 36z" />
    <glyph glyph-name="i" unicode="i" horiz-adv-x="374" 
d="M57 843q21 0 48 -40v-12q0 -36 -52 -36q-36 19 -36 44v4q8 40 40 40zM97 587q36 -5 36 -36v-12q8 -118 8 -128v-4q0 -31 -4 -56q20 -207 48 -360l-20 -16h-12q-35 0 -44 100q-32 187 -32 276v80q0 52 -8 72q-13 -8 -24 -8q-21 0 -32 32q0 29 60 60h24z" />
    <glyph glyph-name="j" unicode="j" horiz-adv-x="752" 
d="M527 568q17 -5 24 -20v-12q0 -40 -112 -40v-4q12 -88 12 -148v-12q0 -363 -76 -424q-30 -8 -40 -8q-107 0 -160 140q-8 30 -8 40q8 28 32 28q30 0 40 -60q34 -84 96 -84h4q44 68 48 304v108q0 32 -12 108q-124 -44 -184 -44h-60q-136 13 -136 40v24q27 32 52 32h16
q23 -28 32 -28q5 -4 28 -4h60q53 0 228 52q20 0 116 12z" />
    <glyph glyph-name="k" unicode="k" horiz-adv-x="642" 
d="M57 794h8q30 0 40 -212q4 0 4 -72v-52h4q229 172 252 172h12q15 -7 20 -24q0 -33 -96 -88q-98 -64 -100 -84v-12q0 -8 80 -140q13 -53 88 -184v-16q0 -5 -20 -20q-46 0 -84 100q-59 133 -128 236q-28 -15 -28 -36v-28q-18 -356 -64 -356h-20q-20 12 -20 28q40 172 40 308
v12l-20 -8q-26 0 -32 36q0 16 56 60v8q0 146 -24 344q0 25 32 28z" />
    <glyph glyph-name="l" unicode="l" horiz-adv-x="592" 
d="M0 634h20q80 -64 80 -308q16 -71 36 -284q8 0 8 -40v-12l28 -4q85 4 100 4q21 -4 24 -4q5 4 28 4q5 0 20 -20v-20q-14 -24 -36 -24h-36q-42 0 -88 -4q-22 4 -44 4l-16 -4q-48 0 -48 108q-40 307 -52 464q-16 61 -44 104v16q0 5 20 20z" />
    <glyph glyph-name="m" unicode="m" horiz-adv-x="774" 
d="M65 940h4q25 0 36 -40q37 -55 108 -232q50 -54 76 -164h4q16 82 84 356q15 12 28 12q56 0 72 -232q40 -94 60 -428q0 -11 32 -88v-4q-4 -32 -32 -32q-70 0 -80 360l-52 248h-4l-56 -228q-24 -33 -36 -36h-40q-25 0 -72 152q-58 70 -108 220h-4q-11 0 -20 -284
q0 -50 4 -124q-4 -55 -4 -176v-16q8 -28 8 -32v-12q0 -5 -20 -20h-12q-40 8 -40 60q0 62 4 204q0 6 -4 144q0 161 40 384q13 8 24 8z" />
    <glyph glyph-name="n" unicode="n" horiz-adv-x="718" 
d="M385 645q15 0 32 -24q-12 -76 -12 -100v-348q0 -88 -40 -88t-160 244q-48 86 -48 116h-4l-88 -380l8 -20q-10 -32 -32 -32q-36 5 -36 36v16q0 46 112 480q17 16 40 16q32 0 84 -172q61 -123 100 -176v8q0 115 4 256l-4 56q9 108 36 108z" />
    <glyph glyph-name="o" unicode="o" 
d="M235 698q99 0 188 -128q68 -167 68 -288q0 -139 -100 -184q-37 -16 -68 -16h-16q-48 0 -116 56q-24 32 -64 132q-53 0 -124 232q-4 4 -8 48q0 110 172 144q47 4 68 4zM59 554q0 -66 68 -196h4q13 8 24 8q26 0 40 -96q42 -124 116 -124q0 -4 4 -4q112 0 112 152
q0 144 -88 288q-67 52 -100 52q-145 0 -176 -64q-4 -7 -4 -16z" />
    <glyph glyph-name="p" unicode="p" horiz-adv-x="558" 
d="M130 598q139 0 196 -96q12 -49 12 -56q0 -117 -200 -192v-4q0 -39 108 -276q0 -24 -32 -28q-37 0 -80 132q-70 134 -100 364q-32 84 -32 104q0 33 128 52zM74 518q24 -75 48 -204q152 64 152 128v4q0 88 -152 88q-48 -5 -48 -16z" />
    <glyph glyph-name="q" unicode="q" horiz-adv-x="853" 
d="M372 673q82 0 152 -160q80 -213 80 -252v-44q0 -70 -76 -148v-4q60 -77 60 -92q-4 -32 -28 -32q-25 4 -92 96h-4q-114 -45 -132 -56q8 -13 8 -24q-13 -32 -52 -32h-64q-51 0 -164 108q-56 102 -56 172q15 122 132 336q89 128 184 128q26 4 52 4zM68 209v-4
q0 -100 80 -168l28 -20h4l32 24h24q18 -16 20 -16q172 59 172 68q-12 17 -12 32q12 28 36 28q9 0 36 -32q56 52 56 112q0 53 -76 248q-51 128 -100 128q-111 0 -144 -60q-109 -141 -156 -340z" />
    <glyph glyph-name="r" unicode="r" horiz-adv-x="729" 
d="M163 810q167 -18 207 -236q0 -34 -2 -56l-2 -16q-6 -55 -83 -128v-4q169 -219 167 -236l-2 -19q-1 -6 -22 -18l-12 1q-23 3 -39 49l-137 176l-92 -99q78 -136 75 -157q-3 -32 -35 -28q-23 2 -42 61q-109 175 -148 475q-5 26 3 137q33 101 107 92q0 6 57 6zM62 701
q-21 -193 68 -406q1 8 70 84q-49 82 -56 83l-2 20q4 32 40 28q23 -2 55 -78l8 -5l4 -1q55 59 59 98q-8 207 -156 223q-76 8 -90 -42v-4z" />
    <glyph glyph-name="s" unicode="s" horiz-adv-x="797" 
d="M311 753h8q141 0 224 -224q4 -40 4 -60q-4 -106 -44 -132h-20q-5 0 -20 20v16q20 50 20 84v28q0 95 -120 200l-52 8q-134 0 -212 -96q154 -50 192 -120q52 -110 52 -180q0 -150 -96 -224q-18 -8 -60 -12q-69 0 -112 132q-76 161 -76 212v32q0 5 20 20h8q36 0 36 -72
q94 -251 124 -260h8q72 0 84 180q0 75 -64 168q-45 36 -148 68q-32 17 -32 44v8q0 94 196 152q40 8 80 8z" />
    <glyph glyph-name="t" unicode="t" horiz-adv-x="934" 
d="M621 598q17 -5 24 -20v-12q0 -28 -88 -60q-40 -28 -164 -60q24 -252 28 -456q4 0 12 -40v-8q0 -28 -28 -28h-12q-44 0 -44 328q-16 122 -16 192l-8 4h-80q-134 0 -216 -36q-15 0 -32 24v24q0 32 228 52h108q0 27 20 36h24q16 -6 16 -24h4q42 0 208 84h16z" />
    <glyph glyph-name="u" unicode="u" horiz-adv-x="592" 
d="M35 690q16 0 28 -20v-16q0 -12 -4 -12l4 -24q28 -418 92 -464q19 -24 40 -24q44 40 64 132q16 143 16 256v68q0 31 20 40h24q20 -10 20 -32v-60q0 -353 -88 -440q-25 -20 -60 -28q-151 0 -184 452q-8 41 -8 128v8q5 36 36 36z" />
    <glyph glyph-name="v" unicode="v" 
d="M36 549q60 -16 60 -32v-24q-8 -16 -20 -16q14 -41 140 -232q31 -53 88 -204h4q36 278 76 356q45 96 72 96h4q28 0 28 -28v-4l-72 -156q-56 -294 -56 -368q-11 -16 -28 -16h-8q-54 0 -144 264q-184 277 -184 316v8q5 40 40 40z" />
    <glyph glyph-name="w" unicode="w" horiz-adv-x="885" 
d="M617 724h8q5 0 20 -20v-20q-48 -380 -48 -456v-112q-5 -52 -40 -52q-122 0 -224 192q-16 37 -16 44h-8q0 -232 -56 -232h-24q-47 0 -112 112q-35 95 -64 212q-52 98 -52 124q12 28 36 28q27 0 36 -56q42 -56 80 -228q38 -101 80 -128h4q9 296 68 296h4q42 0 64 -108
q37 -95 108 -160q37 -28 52 -28v80q0 127 56 500q15 12 28 12z" />
    <glyph glyph-name="x" unicode="x" horiz-adv-x="679" 
d="M393 390h16q28 0 28 -28q0 -17 -164 -220q105 -158 156 -220v-24q-11 -20 -32 -20q-46 25 -108 128q-11 27 -60 84q-111 -135 -152 -204l-20 -4q-16 0 -28 20v16q0 28 164 228q-100 116 -176 160q-16 17 -16 32v4q0 24 28 32q12 0 68 -48q30 -19 140 -128
q139 180 156 192z" />
    <glyph glyph-name="y" unicode="y" horiz-adv-x="844" 
d="M42 878q18 0 108 -116q64 -83 112 -208h4q245 184 260 184h4q32 0 32 -36q-10 -19 -128 -100q-31 -32 -148 -108q28 -15 28 -36q-3 -40 -24 -40q40 -188 52 -448q4 0 4 -4q0 -25 -36 -32q-40 0 -40 144q0 108 -40 324q-15 35 -52 56l-4 20q7 28 36 28q-52 160 -136 248
q-64 73 -64 92q0 21 32 32z" />
    <glyph glyph-name="z" unicode="z" horiz-adv-x="1124" 
d="M386 708h4q24 -14 24 -40q-44 -128 -44 -220q-17 -564 -44 -564l-4 -20h4q379 196 476 196h24q5 0 20 -20v-12q0 -32 -56 -32q-74 -8 -372 -156q-108 -56 -124 -56h-16q-32 0 -32 32q48 180 48 268q0 148 20 472q4 0 16 56q-84 -50 -264 -232q-6 -36 -32 -36
q-32 0 -32 40q0 34 80 100q225 216 304 224z" />
    <glyph glyph-name="braceleft" unicode="{" horiz-adv-x="683" 
d="M255 1185q32 0 32 -32q0 -15 -112 -184q-56 -114 -56 -180q0 -40 104 -128q8 -28 8 -48q0 -58 -152 -200l-4 -8v-16q0 -7 80 -28q69 -37 76 -52l4 -40q-36 -87 -36 -184q-4 -41 -4 -64q0 -58 136 -232q57 -84 188 -84q64 -9 64 -40q0 -25 -36 -28q-215 0 -300 164
q-112 134 -112 208v16q0 186 36 248v8q-53 28 -128 48q-32 25 -32 60q0 65 108 152q48 52 48 76q0 18 -64 68q-48 64 -48 104q0 134 164 364q13 32 36 32z" />
    <glyph glyph-name="bar" unicode="|" horiz-adv-x="508" 
d="M135 997h16q20 -10 20 -32q0 -8 -4 -8l4 -20v-40q0 -105 -4 -216q40 -561 40 -824q0 -4 16 -24v-24q-10 -20 -36 -20q-33 0 -44 84q0 200 -36 820v212q0 23 -4 64q8 28 32 28z" />
    <glyph glyph-name="braceright" unicode="}" horiz-adv-x="790" 
d="M50 1226h12q71 -4 160 -88q140 -187 140 -364q0 -151 -112 -308q0 -4 4 -4q156 -16 156 -44q5 0 8 -24q0 -16 -68 -88q140 -53 140 -132v-16q0 -52 -136 -296q-99 -171 -168 -264l-20 -4h-12q-16 7 -16 28t100 164q155 270 188 364q4 7 4 16q0 42 -120 84q-28 25 -28 60
q2 26 40 68q-144 8 -144 72q0 48 76 164q40 89 40 168v28q0 117 -112 256q-132 92 -152 92q-19 0 -24 32q0 27 44 36z" />
    <glyph glyph-name="asciitilde" unicode="~" horiz-adv-x="858" 
d="M520 1276q28 -13 28 -32q0 -77 -100 -156q-60 -28 -80 -28h-28q-42 0 -120 84q-107 -59 -144 -104q0 -19 -36 -24q-27 0 -32 40q12 36 116 104q67 48 104 48q20 0 108 -84q7 -4 16 -4q56 0 116 76q19 80 52 80z" />
    <glyph glyph-name="exclamdown" unicode="&#xa1;" horiz-adv-x="418" 
d="M63 -147q-15 1 -25 19l10 101q16 182 -4 494q7 81 8 128q-19 2 -17 25q2 21 40 26q46 -5 34 -132q-8 -89 10 -393l-24 -254q-11 -16 -32 -14zM67 734q-47 60 -45 79l2 19q20 69 70 65l11 -1q63 -6 74 -93l-2 -15q-6 -63 -110 -54zM118 797l1 7q2 21 -16 32l-11 1
q-12 -3 -13 -21l27 -25l4 -1q8 1 8 7z" />
    <glyph glyph-name="cent" unicode="&#xa2;" horiz-adv-x="971" 
d="M440 897h12q20 -10 20 -32q0 -8 -40 -52q-56 -110 -56 -140q136 -61 172 -136q0 -21 -32 -32q-19 0 -72 60q-66 40 -84 40q-53 -318 -56 -504q53 -28 120 -28h4q172 34 172 104q4 0 4 16v36q0 4 -8 32v12q0 5 20 20h12q40 0 40 -76v-8q0 -134 -160 -184q-42 -12 -64 -12
h-56q-32 0 -84 20l-4 -8v-36q-4 -48 -40 -48q-15 4 -24 28q4 52 4 84v8q-87 83 -168 216q-56 93 -56 248q0 114 116 172q62 20 104 20q23 0 84 -16q56 196 120 196zM80 521v-16q0 -162 112 -292q44 -62 52 -64q0 135 56 492h-4q-26 12 -56 12h-8q-111 0 -144 -88
q-8 -16 -8 -44z" />
    <glyph glyph-name="sterling" unicode="&#xa3;" horiz-adv-x="1094" 
d="M573 806q142 0 168 -108q16 -15 16 -48q-5 -16 -20 -24h-24q-15 8 -52 96q-34 20 -80 20h-4q-97 0 -236 -152q-25 -37 -80 -140h8q92 12 220 44q32 -6 32 -32v-8q0 -27 -148 -48q-5 -4 -160 -32q-112 -163 -128 -280q-12 -9 -12 -44q222 44 248 44h212q64 0 196 -16l36 4
q28 -14 28 -32q0 -26 -36 -32h-48q-138 16 -364 16q-34 0 -272 -48h-8q-46 0 -60 56v12q39 165 108 284q4 0 12 16v4h-56q-20 12 -20 28q0 31 40 36h24q72 0 84 40q113 254 308 328q25 12 68 16z" />
    <glyph glyph-name="currency" unicode="&#xa4;" horiz-adv-x="1215" 
d="M105 884h12l136 -148q94 36 144 36h16q199 0 324 -92q15 25 136 120h24q16 -6 16 -28q0 -28 -92 -96q-32 -27 -32 -32v-12q52 -62 52 -136v-32q0 -113 -44 -172q0 -17 112 -128l4 -20q-14 -28 -32 -28t-112 104q-27 20 -40 20q-233 -140 -272 -140h-32q-88 0 -116 72v8
l4 20l-12 8q-96 -74 -264 -164h-8q-16 6 -24 20v20q0 16 180 120q19 7 80 56q-39 61 -68 224q-16 111 -16 136q0 40 20 72v4q-12 19 -124 140v20q0 28 28 28zM245 632v-16q36 -332 96 -332q11 -13 16 -44q68 -54 104 -60q0 -6 12 -12q222 120 268 156q40 42 40 168
q0 135 -232 204q-28 8 -140 16q-164 -22 -164 -80z" />
    <glyph glyph-name="yen" unicode="&#xa5;" horiz-adv-x="1048" 
d="M730 919q24 0 28 -32v-12q-13 -19 -76 -52q-97 -125 -284 -408q-7 -4 -16 -4v-12q0 -11 -8 -24q12 -52 24 -52q14 0 112 28h12q5 0 20 -20v-12q0 -29 -56 -44q0 -33 -92 -56v-96q0 -11 -8 -24q0 -12 28 -56v-4q0 -26 -36 -32h-12q-26 0 -48 108v20q0 10 12 48v12l-88 -40
q-32 0 -32 40q0 20 64 44v4q-24 8 -24 32q16 40 44 40h12l12 -8h8v4q-21 99 -28 100q-151 57 -212 192q-25 15 -80 28l-4 20v12q0 5 20 20h20q88 0 144 -128q91 -80 140 -80q20 0 20 -16h4l256 372q64 73 124 88z" />
    <glyph glyph-name="brokenbar" unicode="&#xa6;" horiz-adv-x="433" 
d="M59 1160h16q36 -6 36 -32t-36 -32v-16q12 -123 12 -148v-84q0 -22 4 -56q-10 -36 -32 -36q-18 0 -32 28q-4 195 -16 304q0 72 48 72zM51 592h20q28 0 28 -28v-12l-12 -16v-48q32 -161 32 -448l12 -92q-6 -32 -32 -32h-8q-40 0 -40 332q0 81 -28 248v44q0 35 28 52z" />
    <glyph glyph-name="section" unicode="&#xa7;" horiz-adv-x="869" 
d="M237 951h12q100 -1 136 -80v-60q-5 -36 -36 -36q-28 12 -28 36v44q-18 32 -72 32h-20q-56 0 -124 -80q-36 -86 -36 -120h4q24 0 116 12q240 -39 240 -116v-52q0 -78 -176 -112h-28l-28 4l-12 -16v-8q0 -28 192 -28h12q164 0 164 -156q0 -237 -172 -328q-30 -8 -56 -8h-12
q-105 0 -244 124q-36 38 -36 56v16q3 12 28 20q13 0 76 -68q70 -64 168 -84h40q53 0 112 112q32 60 32 128v44q0 76 -68 76q0 4 -16 4q-229 0 -252 36q-32 21 -32 52q0 16 12 56q-32 15 -32 80q32 96 104 96v8h-8q-16 0 -128 -12h-12q-52 0 -52 52q0 129 108 232
q75 44 124 44zM349 591q0 -37 -20 -44h-24q-53 28 -56 28q-60 0 -84 -48v-24q53 -20 68 -20h28q108 27 108 64q0 35 -20 44z" />
    <glyph glyph-name="dieresis" unicode="&#xa8;" horiz-adv-x="699" 
d="M362 1185q37 0 49 -43q0 -55 -73 -55q-26 8 -37 30v37q14 31 61 31zM56 1178q38 0 43 -49v-42q0 -9 -31 -31h-30q-37 21 -37 61q6 61 55 61z" />
    <glyph glyph-name="copyright" unicode="&#xa9;" horiz-adv-x="949" 
d="M385 722h24q111 0 176 -184q60 -127 60 -220v-4q0 -157 -144 -248q-84 -72 -152 -72h-48q-215 0 -264 76q-40 67 -40 136v80q0 239 136 348q25 0 116 16q25 0 28 -36q0 -29 -104 -40h-16q-96 -102 -96 -276v-100q0 -140 176 -140q23 0 100 -4q86 0 220 152q24 39 24 88
v36q0 98 -112 300q-27 32 -84 32q-6 0 -60 -24q-25 8 -28 20v12q0 42 88 52zM273 530q64 -11 64 -44q-8 -28 -32 -28q-5 0 -40 4q-60 -65 -60 -136v-44q8 -56 36 -56q14 0 128 92h4q21 0 32 -32q0 -36 -140 -120h-36q-68 0 -88 116v44q0 102 88 188q27 16 44 16z" />
    <glyph glyph-name="ordfeminine" unicode="&#xaa;" horiz-adv-x="1044" 
d="M323 695h44q148 -25 148 -68v-8l-4 -8q112 -28 168 -84q60 -72 60 -180q0 -225 -244 -380q-159 -148 -244 -148q-136 0 -176 128q-76 185 -76 340v4q0 227 184 324q115 80 140 80zM115 479v-4h4q78 38 120 76h12q13 0 28 -12q49 40 96 40h20q-8 13 -8 24v8l12 16
q-34 8 -60 8q-108 -47 -224 -156zM427 567q28 -27 28 -80v-28q0 -32 -44 -72q81 -49 112 -128q36 -25 36 -56q0 -26 -36 -32q-20 3 -68 84q-25 54 -104 88l-8 28q0 43 48 88v40q0 20 -8 20q-38 0 -64 -36l12 -24q-4 -105 -4 -176v-12q0 -14 4 -36q0 -21 -32 -32
q-38 0 -48 112q-12 37 -12 92v8q0 13 8 56q-48 -21 -48 -32l24 -268q-4 -40 -36 -40t-32 112q-16 144 -16 168h-4q-68 -13 -68 -52q-4 -1 -4 -40v-44q0 -172 100 -364q29 -28 72 -28h24q45 0 208 140q208 140 208 308v40q0 157 -248 196z" />
    <glyph glyph-name="guillemotleft" unicode="&#xab;" horiz-adv-x="1230" 
d="M519 744h24q20 -10 20 -36q-15 -36 -156 -136q-88 -56 -296 -180l-4 -8q69 -20 360 -332q50 -66 100 -112v-20q-10 -20 -32 -20q-33 0 -156 160q-237 232 -244 232q-103 65 -104 72v32q11 39 252 172q126 74 232 172q0 4 4 4zM732 -49q-4 1 -4 5q-90 112 -203 204
q-219 168 -224 208l5 31q1 8 113 56q7 -1 276 193q146 140 178 135q22 -3 29 -24l-3 -20q-56 -38 -116 -96q-334 -265 -405 -275l3 -8q186 -153 266 -222q124 -120 134 -158q-4 -26 -26 -33z" />
    <glyph glyph-name="registered" unicode="&#xae;" horiz-adv-x="873" 
d="M303 701h28q135 0 208 -140q32 -108 32 -180v-48q0 -209 -220 -332q-29 -16 -68 -16q-276 42 -276 276v68q0 123 92 248q74 32 92 32q15 -4 24 -28q0 -30 -80 -60q-68 -104 -68 -224q0 -144 64 -188q101 -60 148 -60h20q110 38 176 152q36 78 36 172q0 132 -68 220
q-69 48 -120 48q-22 -4 -32 -4q-19 0 -24 36q12 28 36 28zM279 501q50 0 72 -84v-32q0 -31 -40 -52q43 -41 72 -96v-12q0 -28 -28 -28h-4q-27 0 -56 64l-80 64q-4 7 -4 16v16q0 20 64 24l16 16v16q-15 24 -20 24h-24q-48 0 -48 -172q4 -16 4 -28q0 -21 -40 -24q-24 8 -24 32
v48q0 208 112 208h28z" />
    <glyph glyph-name="degree" unicode="&#xb0;" horiz-adv-x="459" 
d="M54 1118q15 0 112 -96q8 -13 8 -24v-16q0 -31 -52 -64q-7 -4 -16 -4q-104 24 -104 104q15 96 32 96zM66 1010q0 -12 32 -32q6 0 12 12q0 6 -24 24h-12z" />
    <glyph glyph-name="acute" unicode="&#xb4;" horiz-adv-x="421" 
d="M96 1214q32 -6 32 -32v-4q0 -14 -72 -100q0 -17 -28 -24q-32 3 -32 32v16q57 82 96 112h4z" />
    <glyph glyph-name="paragraph" unicode="&#xb6;" horiz-adv-x="1010" 
d="M407 904q173 0 280 -194q20 -40 20 -90q0 -132 -404 -194q20 -110 20 -172v-22q-15 -366 -56 -366l-16 -4q-33 0 -52 119q0 18 20 28h16l8 -3l4 7q0 32 16 212q-11 205 -36 205q-12 3 -12 21q0 20 20 29q-21 279 -36 334q-40 -11 -80 -25q52 -103 52 -489q0 -16 20 -43
q0 -100 -24 -100h-12q-48 0 -48 179q0 358 -48 428q-13 -7 -24 -7q-25 0 -32 32q2 16 48 40q0 4 20 18h8l24 -4q151 61 304 61zM259 829q19 -49 36 -345q348 53 348 140v3q0 101 -136 194q-48 26 -96 26h-16q-136 -5 -136 -18z" />
    <glyph glyph-name="cedilla" unicode="&#xb8;" horiz-adv-x="444" 
d="M86 40h24q17 0 40 -140v-28q-14 -100 -100 -100h-8q-44 8 -44 44q0 21 32 32l24 -12q36 0 36 52q-24 99 -24 128q6 17 20 24z" />
    <glyph glyph-name="guillemotright" unicode="&#xbb;" horiz-adv-x="1511" 
d="M457 692h24q327 -97 412 -164q66 -46 256 -148q76 -52 76 -60v-20q-3 -17 -116 -56q-381 -196 -480 -260q-14 -24 -36 -24q-24 0 -32 28q0 53 300 196q77 46 264 132q-67 49 -204 116q-200 136 -280 140q-86 36 -176 48q-32 15 -32 40q0 15 24 32zM127 -78q-26 15 -27 30
q-2 25 29 43q89 19 172 61q79 10 268 161q131 77 194 132q-192 71 -273 111q-310 120 -314 172q5 29 29 31q22 1 38 -22q103 -56 499 -221q115 -30 120 -47l1 -20q1 -8 -71 -66q-181 -116 -243 -167q-80 -74 -398 -196z" />
    <glyph glyph-name="questiondown" unicode="&#xbf;" horiz-adv-x="758" 
d="M382 -131l-8 1q-217 2 -313 219q-27 91 -27 148l1 48q1 137 254 213q32 8 68 8h12l1 44q14 186 15 307l1 72q0 30 -11 69q8 28 36 27q40 0 39 -120q-3 -205 -20 -360l15 -56q0 -48 -120 -47q-229 -57 -230 -177q-3 -221 164 -306q39 -17 108 -29l20 3q25 -8 28 -20v-24
q-11 -20 -33 -20zM361 1258q-63 0 -87 69l-3 40q1 96 57 95q50 0 107 -81l3 -24v-4q-43 -96 -77 -95zM375 1362q-34 32 -40 32l-1 -40l8 -28h4q4 0 29 36z" />
    <glyph glyph-name="AE" unicode="&#xc6;" horiz-adv-x="1264" 
d="M331 652q24 0 28 -32q-16 -68 -16 -76q0 -25 48 -176h8q28 46 64 168l24 12q36 0 36 -64h8q111 64 180 64h4q31 0 40 -20v-24q0 -19 -100 -28q-99 -47 -108 -60q20 -51 40 -144h32q30 0 228 -12h32q7 0 40 20h20q20 -9 20 -40v-16q0 -24 -76 -24h-60q-16 0 -192 8h-32
q23 -148 80 -148q228 -26 228 -72q-10 -32 -32 -32q-53 20 -268 56q-68 115 -68 180q0 23 -60 32q-20 11 -20 44q0 21 24 36h32q-16 80 -32 96q0 -22 -60 -100v-4l116 -260q4 -8 4 -12q-8 -28 -32 -28q-36 0 -88 152q-4 1 -52 100q-57 -52 -176 -52q-28 -12 -64 -96
q-46 -79 -68 -148q4 -35 4 -44q-6 -20 -28 -20h-4q-36 0 -36 48q0 60 156 352q80 172 152 356q16 8 24 8zM295 452l-80 -192h12q75 0 116 52q-40 140 -48 140z" />
    <glyph glyph-name="germandbls" unicode="&#xdf;" horiz-adv-x="782" 
d="M148 858h80q70 0 80 -92v-36q0 -97 -116 -184q177 -53 196 -80q92 -70 92 -188v-8q0 -136 -84 -288q-41 -132 -152 -132h-16q-72 0 -96 188q0 42 -12 188v4q10 20 32 20q36 0 36 -104q0 -166 44 -232h32q45 0 108 168q44 77 44 176v24q0 152 -208 188q-69 29 -84 40
q-24 16 -24 36q0 30 84 72q64 67 64 124q0 56 -24 56q-103 -3 -120 -12v-4q0 -9 4 -16q-10 -32 -32 -32q11 -57 24 -252q8 -23 28 -224q-8 -27 -24 -32h-8q-40 0 -40 112q-28 221 -36 368q-16 27 -16 64v28q0 44 36 44h4q20 -1 20 -8q42 24 84 24z" />
    <glyph glyph-name="agrave" unicode="&#xe0;" horiz-adv-x="736" 
d="M258 645h8q33 0 64 -240q3 0 16 -60q47 4 68 4h16q20 -10 20 -32q0 -32 -76 -32h-8l-8 -4q48 -213 68 -280v-4q-4 -32 -32 -32q-37 0 -64 168q-4 6 -36 148q-152 -3 -152 -20l-76 -208v-4l4 -8q0 -26 -36 -32q-25 0 -32 44q16 67 216 568q19 24 40 24zM242 517
q0 -13 -68 -176h100l8 4q-20 74 -32 172h-8zM212 924q42 0 56 -48q21 -21 76 -52q4 -7 4 -16v-4q0 -28 -28 -28q-54 0 -116 84q-36 0 -36 36q0 23 44 28z" />
    <glyph glyph-name="aacute" unicode="&#xe1;" horiz-adv-x="733" 
d="M287 970q32 -6 32 -32v-4q0 -14 -72 -100q0 -17 -28 -24q-32 3 -32 32v16q57 82 96 112h4zM258 645h8q33 0 64 -240q3 0 16 -60q47 4 68 4h16q20 -10 20 -32q0 -32 -76 -32h-8l-8 -4q48 -213 68 -280v-4q-4 -32 -32 -32q-37 0 -64 168q-4 6 -36 148q-152 -3 -152 -20
l-76 -208v-4l4 -8q0 -26 -36 -32q-25 0 -32 44q16 67 216 568q19 24 40 24zM242 517q0 -13 -68 -176h100l8 4q-20 74 -32 172h-8z" />
    <glyph glyph-name="acircumflex" unicode="&#xe2;" horiz-adv-x="744" 
d="M111 796q-16 2 -26 23l1 12q2 22 142 135q43 60 70 57q33 -3 88 -85q47 -48 45 -72l-1 -8q-2 -22 -27 -30l-16 2q-35 3 -31 51l-61 70q-20 -38 -176 -155h-8zM258 645h8q33 0 64 -240q3 0 16 -60q47 4 68 4h16q20 -10 20 -32q0 -32 -76 -32h-8l-8 -4q48 -213 68 -280v-4
q-4 -32 -32 -32q-37 0 -64 168q-4 6 -36 148q-152 -3 -152 -20l-76 -208v-4l4 -8q0 -26 -36 -32q-25 0 -32 44q16 67 216 568q19 24 40 24zM242 517q0 -13 -68 -176h100l8 4q-20 74 -32 172h-8z" />
    <glyph glyph-name="atilde" unicode="&#xe3;" horiz-adv-x="744" 
d="M516 1098q28 -13 28 -32q0 -77 -100 -156q-60 -28 -80 -28h-28q-42 0 -120 84q-107 -59 -144 -104q0 -19 -36 -24q-27 0 -32 40q12 36 116 104q67 48 104 48q20 0 108 -84q7 -4 16 -4q56 0 116 76q19 80 52 80zM262 645h8q33 0 64 -240q3 0 16 -60q47 4 68 4h16
q20 -10 20 -32q0 -32 -76 -32h-8l-8 -4q48 -213 68 -280v-4q-4 -32 -32 -32q-37 0 -64 168q-4 6 -36 148q-152 -3 -152 -20l-76 -208v-4l4 -8q0 -26 -36 -32q-25 0 -32 44q16 67 216 568q19 24 40 24zM246 517q0 -13 -68 -176h100l8 4q-20 74 -32 172h-8z" />
    <glyph glyph-name="adieresis" unicode="&#xe4;" horiz-adv-x="740" 
d="M400 869q37 0 49 -43q0 -55 -73 -55q-26 8 -37 30v37q14 31 61 31zM154 881q38 0 43 -49v-42q0 -9 -31 -31h-30q-37 21 -37 61q6 61 55 61zM258 645h8q33 0 64 -240q3 0 16 -60q47 4 68 4h16q20 -10 20 -32q0 -32 -76 -32h-8l-8 -4q48 -213 68 -280v-4q-4 -32 -32 -32
q-37 0 -64 168q-4 6 -36 148q-152 -3 -152 -20l-76 -208v-4l4 -8q0 -26 -36 -32q-25 0 -32 44q16 67 216 568q19 24 40 24zM242 517q0 -13 -68 -176h100l8 4q-20 74 -32 172h-8z" />
    <glyph glyph-name="aring" unicode="&#xe5;" horiz-adv-x="748" 
d="M221 792q15 0 112 -96q8 -13 8 -24v-16q0 -31 -52 -64q-7 -4 -16 -4q-104 24 -104 104q15 96 32 96zM233 684q0 -12 32 -32q6 0 12 12q0 6 -24 24h-12zM258 645h8q33 0 64 -240q3 0 16 -60q47 4 68 4h16q20 -10 20 -32q0 -32 -76 -32h-8l-8 -4q48 -213 68 -280v-4
q-4 -32 -32 -32q-37 0 -64 168q-4 6 -36 148q-152 -3 -152 -20l-76 -208v-4l4 -8q0 -26 -36 -32q-25 0 -32 44q16 67 216 568q19 24 40 24zM242 517q0 -13 -68 -176h100l8 4q-20 74 -32 172h-8z" />
    <glyph glyph-name="ccedilla" unicode="&#xe7;" horiz-adv-x="854" 
d="M426 39l23 6q17 4 72 -127l7 -27q10 -100 -74 -121l-7 -2q-45 -2 -54 33q-5 20 24 38l26 -6q35 9 23 59q-47 91 -54 119q2 17 14 28zM214 690q99 0 272 -124q40 -46 40 -56q0 -21 -32 -32q-19 0 -68 56q-148 92 -208 92h-8q-111 0 -144 -88q-8 -16 -8 -44v-16
q0 -152 96 -272q101 -160 236 -160h16q172 34 172 104q4 0 4 16v36q0 4 -8 32v12q0 5 20 20h12q40 0 40 -76v-8q0 -134 -160 -184q-42 -12 -64 -12h-56q-190 0 -352 340q-20 70 -20 172q0 114 116 172q62 20 104 20z" />
    <glyph glyph-name="egrave" unicode="&#xe8;" horiz-adv-x="744" 
d="M383 883q42 0 56 -48q21 -21 76 -52q4 -7 4 -16v-4q0 -28 -28 -28q-54 0 -116 84q-36 0 -36 36q0 23 44 28zM240 619q24 -10 26 -22l-1 -16q-10 -21 -13 -55q117 -83 212 -106q82 -31 79 -67q-2 -21 -35 -29q-42 36 -158 69q-42 17 -115 70l-8 1q-6 -69 -47 -181
q196 -107 193 -144q-16 -27 -35 -26q-36 19 -148 93l-35 19l-72 -187q96 -61 265 -106q47 -11 44 -44q-14 -27 -38 -25q-146 45 -207 70q-74 42 -85 43h-4q-1 -16 -25 -14l-12 1q-15 1 -20 50q-27 14 -25 42l1 12q12 19 34 17l20 -5q40 90 66 175q-18 22 -16 41q18 31 46 28
q37 101 42 166q-25 2 -25 38q1 16 46 28q13 67 50 64z" />
    <glyph glyph-name="eacute" unicode="&#xe9;" horiz-adv-x="752" 
d="M484 845q32 -6 32 -32v-4q0 -14 -72 -100q0 -17 -28 -24q-32 3 -32 32v16q57 82 96 112h4zM244 619q24 -10 26 -22l-1 -16q-10 -21 -13 -55q117 -83 212 -106q82 -31 79 -67q-2 -21 -35 -29q-42 36 -158 69q-42 17 -115 70l-8 1q-6 -69 -47 -181q196 -107 193 -144
q-16 -27 -35 -26q-36 19 -148 93l-35 19l-72 -187q96 -61 265 -106q47 -11 44 -44q-14 -27 -38 -25q-146 45 -207 70q-74 42 -85 43h-4q-1 -16 -25 -14l-12 1q-15 1 -20 50q-27 14 -25 42l1 12q12 19 34 17l20 -5q40 90 66 175q-18 22 -16 41q18 31 46 28q37 101 42 166
q-25 2 -25 38q1 16 46 28q13 67 50 64z" />
    <glyph glyph-name="ecircumflex" unicode="&#xea;" horiz-adv-x="752" 
d="M230 742q-15 6 -18 29l4 12q8 20 174 90q58 46 83 36q31 -12 61 -106q32 -60 23 -83l-3 -7q-8 -20 -34 -21l-15 6q-33 13 -16 58l-39 84q-30 -31 -212 -100zM244 619q24 -10 26 -22l-1 -16q-10 -21 -13 -55q117 -83 212 -106q82 -31 79 -67q-2 -21 -35 -29
q-42 36 -158 69q-42 17 -115 70l-8 1q-6 -69 -47 -181q196 -107 193 -144q-16 -27 -35 -26q-36 19 -148 93l-35 19l-72 -187q96 -61 265 -106q47 -11 44 -44q-14 -27 -38 -25q-146 45 -207 70q-74 42 -85 43h-4q-1 -16 -25 -14l-12 1q-15 1 -20 50q-27 14 -25 42l1 12
q12 19 34 17l20 -5q40 90 66 175q-18 22 -16 41q18 31 46 28q37 101 42 166q-25 2 -25 38q1 16 46 28q13 67 50 64z" />
    <glyph glyph-name="edieresis" unicode="&#xeb;" horiz-adv-x="748" 
d="M545 771q37 0 49 -43q0 -55 -73 -55q-26 8 -37 30v37q14 31 61 31zM254 890q38 0 43 -49v-42q0 -9 -31 -31h-30q-37 21 -37 61q6 61 55 61zM240 619q24 -10 26 -22l-1 -16q-10 -21 -13 -55q117 -83 212 -106q82 -31 79 -67q-2 -21 -35 -29q-42 36 -158 69q-42 17 -115 70
l-8 1q-6 -69 -47 -181q196 -107 193 -144q-16 -27 -35 -26q-36 19 -148 93l-35 19l-72 -187q96 -61 265 -106q47 -11 44 -44q-14 -27 -38 -25q-146 45 -207 70q-74 42 -85 43h-4q-1 -16 -25 -14l-12 1q-15 1 -20 50q-27 14 -25 42l1 12q12 19 34 17l20 -5q40 90 66 175
q-18 22 -16 41q18 31 46 28q37 101 42 166q-25 2 -25 38q1 16 46 28q13 67 50 64z" />
    <glyph glyph-name="igrave" unicode="&#xec;" horiz-adv-x="372" 
d="M-9 887q42 0 56 -48q21 -21 76 -52q4 -7 4 -16v-4q0 -28 -28 -28q-54 0 -116 84q-36 0 -36 36q0 23 44 28zM83 587q36 -5 36 -36v-12q8 -118 8 -128v-4q0 -31 -4 -56q20 -207 48 -360l-20 -16h-12q-35 0 -44 100q-32 187 -32 276v80q0 52 -8 72q-13 -8 -24 -8
q-21 0 -32 32q0 29 60 60h24z" />
    <glyph glyph-name="iacute" unicode="&#xed;" horiz-adv-x="376" 
d="M85 887q32 -6 32 -32v-4q0 -14 -72 -100q0 -17 -28 -24q-32 3 -32 32v16q57 82 96 112h4zM87 587q36 -5 36 -36v-12q8 -118 8 -128v-4q0 -31 -4 -56q20 -207 48 -360l-20 -16h-12q-35 0 -44 100q-32 187 -32 276v80q0 52 -8 72q-13 -8 -24 -8q-21 0 -32 32q0 29 60 60h24
z" />
    <glyph glyph-name="icircumflex" unicode="&#xee;" horiz-adv-x="368" 
d="M-117 675q-16 2 -26 23l1 12q2 22 142 135q43 60 70 57q33 -3 88 -85q47 -48 45 -72l-1 -8q-2 -22 -27 -30l-16 2q-35 3 -31 51l-61 70q-20 -38 -176 -155h-8zM83 587q36 -5 36 -36v-12q8 -118 8 -128v-4q0 -31 -4 -56q20 -207 48 -360l-20 -16h-12q-35 0 -44 100
q-32 187 -32 276v80q0 52 -8 72q-13 -8 -24 -8q-21 0 -32 32q0 29 60 60h24z" />
    <glyph glyph-name="idieresis" unicode="&#xef;" horiz-adv-x="365" 
d="M135 859q37 0 49 -43q0 -55 -73 -55q-26 8 -37 30v37q14 31 61 31zM-58 844q38 0 43 -49v-42q0 -9 -31 -31h-30q-37 21 -37 61q6 61 55 61zM80 587q36 -5 36 -36v-12q8 -118 8 -128v-4q0 -31 -4 -56q20 -207 48 -360l-20 -16h-12q-35 0 -44 100q-32 187 -32 276v80
q0 52 -8 72q-13 -8 -24 -8q-21 0 -32 32q0 29 60 60h24z" />
    <glyph glyph-name="ntilde" unicode="&#xf1;" horiz-adv-x="664" 
d="M452 1086q28 -13 28 -32q0 -77 -100 -156q-60 -28 -80 -28h-28q-42 0 -120 84q-107 -59 -144 -104q0 -19 -36 -24q-27 0 -32 40q12 36 116 104q67 48 104 48q20 0 108 -84q7 -4 16 -4q56 0 116 76q19 80 52 80zM385 645q15 0 32 -24q-12 -76 -12 -100v-348q0 -88 -40 -88
t-160 244q-48 86 -48 116h-4l-88 -380l8 -20q-10 -32 -32 -32q-36 5 -36 36v16q0 46 112 480q17 16 40 16q32 0 84 -172q61 -123 100 -176v8q0 115 4 256l-4 56q9 108 36 108z" />
    <glyph glyph-name="ograve" unicode="&#xf2;" 
d="M128 962q42 0 56 -48q21 -21 76 -52q4 -7 4 -16v-4q0 -28 -28 -28q-54 0 -116 84q-36 0 -36 36q0 23 44 28zM235 698q99 0 188 -128q68 -167 68 -288q0 -139 -100 -184q-37 -16 -68 -16h-16q-48 0 -116 56q-24 32 -64 132q-53 0 -124 232q-4 4 -8 48q0 110 172 144
q47 4 68 4zM59 554q0 -66 68 -196h4q13 8 24 8q26 0 40 -96q42 -124 116 -124q0 -4 4 -4q112 0 112 152q0 144 -88 288q-67 52 -100 52q-145 0 -176 -64q-4 -7 -4 -16z" />
    <glyph glyph-name="oacute" unicode="&#xf3;" horiz-adv-x="717" 
d="M218 1066q32 -6 32 -32v-4q0 -14 -72 -100q0 -17 -28 -24q-32 3 -32 32v16q57 82 96 112h4zM231 698q99 0 188 -128q68 -167 68 -288q0 -139 -100 -184q-37 -16 -68 -16h-16q-48 0 -116 56q-24 32 -64 132q-53 0 -124 232q-4 4 -8 48q0 110 172 144q47 4 68 4zM55 554
q0 -66 68 -196h4q13 8 24 8q26 0 40 -96q42 -124 116 -124q0 -4 4 -4q112 0 112 152q0 144 -88 288q-67 52 -100 52q-145 0 -176 -64q-4 -7 -4 -16z" />
    <glyph glyph-name="ocircumflex" unicode="&#xf4;" 
d="M-14 857q-16 2 -26 23l1 12q2 22 142 135q43 60 70 57q33 -3 88 -85q47 -48 45 -72l-1 -8q-2 -22 -27 -30l-16 2q-35 3 -31 51l-61 70q-20 -38 -176 -155h-8zM235 698q99 0 188 -128q68 -167 68 -288q0 -139 -100 -184q-37 -16 -68 -16h-16q-48 0 -116 56q-24 32 -64 132
q-53 0 -124 232q-4 4 -8 48q0 110 172 144q47 4 68 4zM59 554q0 -66 68 -196h4q13 8 24 8q26 0 40 -96q42 -124 116 -124q0 -4 4 -4q112 0 112 152q0 144 -88 288q-67 52 -100 52q-145 0 -176 -64q-4 -7 -4 -16z" />
    <glyph glyph-name="otilde" unicode="&#xf5;" horiz-adv-x="725" 
d="M364 1116q28 -13 28 -32q0 -77 -100 -156q-60 -28 -80 -28h-28q-42 0 -120 84q-107 -59 -144 -104q0 -19 -36 -24q-27 0 -32 40q12 36 116 104q67 48 104 48q20 0 108 -84q7 -4 16 -4q56 0 116 76q19 80 52 80zM239 698q99 0 188 -128q68 -167 68 -288q0 -139 -100 -184
q-37 -16 -68 -16h-16q-48 0 -116 56q-24 32 -64 132q-53 0 -124 232q-4 4 -8 48q0 110 172 144q47 4 68 4zM63 554q0 -66 68 -196h4q13 8 24 8q26 0 40 -96q42 -124 116 -124q0 -4 4 -4q112 0 112 152q0 144 -88 288q-67 52 -100 52q-145 0 -176 -64q-4 -7 -4 -16z" />
    <glyph glyph-name="odieresis" unicode="&#xf6;" 
d="M242 949q37 5 55 -36q8 -54 -65 -65q-26 5 -41 25l-5 36q9 33 56 40zM-60 898q38 6 50 -42l6 -43q1 -8 -26 -34l-30 -5q-40 16 -45 56q-3 61 45 68zM235 698q99 0 188 -128q68 -167 68 -288q0 -139 -100 -184q-37 -16 -68 -16h-16q-48 0 -116 56q-24 32 -64 132
q-53 0 -124 232q-4 4 -8 48q0 110 172 144q47 4 68 4zM59 554q0 -66 68 -196h4q13 8 24 8q26 0 40 -96q42 -124 116 -124q0 -4 4 -4q112 0 112 152q0 144 -88 288q-67 52 -100 52q-145 0 -176 -64q-4 -7 -4 -16z" />
    <glyph glyph-name="ugrave" unicode="&#xf9;" horiz-adv-x="596" 
d="M116 1042q42 0 56 -48q21 -21 76 -52q4 -7 4 -16v-4q0 -28 -28 -28q-54 0 -116 84q-36 0 -36 36q0 23 44 28zM35 690q16 0 28 -20v-16q0 -12 -4 -12l4 -24q28 -418 92 -464q19 -24 40 -24q44 40 64 132q16 143 16 256v68q0 31 20 40h24q20 -10 20 -32v-60
q0 -353 -88 -440q-25 -20 -60 -28q-151 0 -184 452q-8 41 -8 128v8q5 36 36 36z" />
    <glyph glyph-name="uacute" unicode="&#xfa;" horiz-adv-x="604" 
d="M233 1096q32 -6 32 -32v-4q0 -14 -72 -100q0 -17 -28 -24q-32 3 -32 32v16q57 82 96 112h4zM39 690q16 0 28 -20v-16q0 -12 -4 -12l4 -24q28 -418 92 -464q19 -24 40 -24q44 40 64 132q16 143 16 256v68q0 31 20 40h24q20 -10 20 -32v-60q0 -353 -88 -440
q-25 -20 -60 -28q-151 0 -184 452q-8 41 -8 128v8q5 36 36 36z" />
    <glyph glyph-name="ucircumflex" unicode="&#xfb;" horiz-adv-x="604" 
d="M5 925q-16 2 -26 23l1 12q2 22 142 135q43 60 70 57q33 -3 88 -85q47 -48 45 -72l-1 -8q-2 -22 -27 -30l-16 2q-35 3 -31 51l-61 70q-20 -38 -176 -155h-8zM39 690q16 0 28 -20v-16q0 -12 -4 -12l4 -24q28 -418 92 -464q19 -24 40 -24q44 40 64 132q16 143 16 256v68
q0 31 20 40h24q20 -10 20 -32v-60q0 -353 -88 -440q-25 -20 -60 -28q-151 0 -184 452q-8 41 -8 128v8q5 36 36 36z" />
    <glyph glyph-name="udieresis" unicode="&#xfc;" horiz-adv-x="596" 
d="M332 1018q37 0 49 -43q0 -55 -73 -55q-26 8 -37 30v37q14 31 61 31zM26 1011q38 0 43 -49v-42q0 -9 -31 -31h-30q-37 21 -37 61q6 61 55 61zM39 690q16 0 28 -20v-16q0 -12 -4 -12l4 -24q28 -418 92 -464q19 -24 40 -24q44 40 64 132q16 143 16 256v68q0 31 20 40h24
q20 -10 20 -32v-60q0 -353 -88 -440q-25 -20 -60 -28q-151 0 -184 452q-8 41 -8 128v8q5 36 36 36z" />
    <glyph glyph-name="thorn" unicode="&#xfe;" horiz-adv-x="663" 
d="M58 915h12q32 0 32 -44v-16q-13 0 -24 -344h4q70 36 124 36q61 0 132 -88q16 -34 16 -140q0 -97 -96 -208q-105 -84 -172 -84q0 -129 28 -276v-4q0 -5 -20 -20h-16q-45 0 -52 272q0 31 -8 64l4 16q-12 129 -12 184v136q16 508 36 508zM70 383v-28q0 -92 12 -260q4 0 4 -4
q60 0 144 84q60 74 60 156v44q0 80 -76 108h-12q-128 -22 -128 -72q-4 -5 -4 -28z" />
    <glyph glyph-name="ydieresis" unicode="&#xff;" horiz-adv-x="843" 
d="M465 1040q37 0 49 -43q0 -55 -73 -55q-26 8 -37 30v37q14 31 61 31zM144 1109q38 0 43 -49v-42q0 -9 -31 -31h-30q-37 21 -37 61q6 61 55 61zM41 878q18 0 108 -116q64 -83 112 -208h4q245 184 260 184h4q32 0 32 -36q-10 -19 -128 -100q-31 -32 -148 -108q28 -15 28 -36
q-3 -40 -24 -40q40 -188 52 -448q4 0 4 -4q0 -25 -36 -32q-40 0 -40 144q0 108 -40 324q-15 35 -52 56l-4 20q7 28 36 28q-52 160 -136 248q-64 73 -64 92q0 21 32 32z" />
    <glyph glyph-name="amacron" unicode="&#x101;" horiz-adv-x="740" 
d="M-31 -131h8q53 -19 468 -40q44 -11 44 -36q0 -18 -28 -32q-116 16 -416 28q-56 12 -56 16l-20 -8q-27 0 -32 40q3 32 32 32zM258 645h8q33 0 64 -240q3 0 16 -60q47 4 68 4h16q20 -10 20 -32q0 -32 -76 -32h-8l-8 -4q48 -213 68 -280v-4q-4 -32 -32 -32q-37 0 -64 168
q-4 6 -36 148q-152 -3 -152 -20l-76 -208v-4l4 -8q0 -26 -36 -32q-25 0 -32 44q16 67 216 568q19 24 40 24zM242 517q0 -13 -68 -176h100l8 4q-20 74 -32 172h-8z" />
    <glyph glyph-name="cacute" unicode="&#x107;" horiz-adv-x="866" 
d="M93 925q32 -6 32 -32v-4q0 -14 -72 -100q0 -17 -28 -24q-32 3 -32 32v16q57 82 96 112h4zM222 690q99 0 272 -124q40 -46 40 -56q0 -21 -32 -32q-19 0 -68 56q-148 92 -208 92h-8q-111 0 -144 -88q-8 -16 -8 -44v-16q0 -152 96 -272q101 -160 236 -160h16q172 34 172 104
q4 0 4 16v36q0 4 -8 32v12q0 5 20 20h12q40 0 40 -76v-8q0 -134 -160 -184q-42 -12 -64 -12h-56q-190 0 -352 340q-20 70 -20 172q0 114 116 172q62 20 104 20z" />
    <glyph glyph-name="Emacron" unicode="&#x112;" horiz-adv-x="733" 
d="M211 534q172 0 172 -20v-28q0 -4 -20 -20q-94 4 -140 4h-20q-51 0 -124 -8q20 -80 32 -152q40 -4 60 -4h16q108 0 220 24h4q20 -10 20 -32q0 -38 -148 -52q-61 -4 -112 -4q-10 0 -60 4l-4 -8v-4q-8 -85 -8 -196q21 -8 96 -12q132 11 188 32q17 -5 24 -20v-24
q0 -39 -232 -48h-36q-87 0 -108 56q0 65 16 228h-12q-22 0 -32 20v28q8 17 40 28l-24 140v4q0 64 180 64h12z" />
    <glyph glyph-name="emacron" unicode="&#x113;" horiz-adv-x="866" 
d="M56 671q98 -40 388 -68q44 0 64 -32v-8q0 -32 -32 -32q-42 12 -316 44q0 3 -68 20v-4q36 -120 36 -216l-4 -20q4 0 4 -4q187 0 372 56q16 16 44 16h12q20 -10 20 -32q0 -61 -368 -100h-72q-8 -1 -8 -8q0 -68 44 -144q210 -20 256 -48q8 -13 8 -24q0 -16 -20 -28h-16
q-120 32 -212 32h-12l-24 -4q-20 4 -20 8l-8 -4h-4q-32 0 -32 32q0 13 12 28q-36 110 -36 164q-64 6 -64 44q13 28 32 28l32 -8v8q0 121 -48 260v12q0 27 40 32z" />
    <glyph glyph-name="Ebreve" unicode="&#x114;" horiz-adv-x="748" 
d="M137 662q83 -6 176 -76l4 -20q-2 -32 -32 -32q-99 64 -156 64q-8 4 -12 4q-32 -36 -32 -116v-12q0 -53 8 -160q108 -28 160 -28h16q44 0 148 24h8q5 0 20 -20v-24q0 -24 -172 -44q-76 0 -180 28v-4q-24 -138 -24 -204q0 -15 8 -84h36q51 0 176 52q28 -12 28 -36
q0 -46 -208 -80h-44q-52 0 -52 76q-8 64 -8 80q0 29 24 204q-12 23 -12 32l12 24q-4 98 -4 156v64q0 85 76 132h36z" />
    <glyph glyph-name="ebreve" unicode="&#x115;" horiz-adv-x="972" 
d="M170 748q139 0 304 -112l8 -16q-7 -36 -32 -36q-165 95 -256 100q-27 4 -44 4q-84 0 -84 -44q-4 -5 -4 -28v-12q0 -33 96 -280q140 -408 280 -408h52q136 15 136 100v24q0 101 -68 260q-20 12 -40 12h-40l-180 -48q-32 3 -32 32q0 33 68 40q122 40 160 40h8q91 0 124 -68
q64 -181 64 -272v-8q0 -150 -188 -176h-36q-202 0 -316 320q-48 102 -100 268q-52 102 -52 176q14 132 100 132h72z" />
    <glyph glyph-name="Edotaccent" unicode="&#x116;" horiz-adv-x="778" 
d="M181 674q18 0 32 -28q-36 -195 -36 -312v-24q213 48 232 56v96q0 32 -4 84q12 40 40 40q25 -8 28 -20q0 -19 -4 -40q4 -56 4 -108v-28l-4 -20q6 0 16 -20v-8q0 -11 -20 -40q-32 -448 -104 -448h-4q-16 0 -28 20v12q52 118 52 228q4 0 20 180q-179 -32 -236 -52
q-36 -126 -36 -180v-20q26 0 32 -36q-12 -28 -36 -28q-60 0 -60 72v4q0 73 32 168q-4 0 -4 4q-18 -8 -52 -8h-8q-22 0 -32 20v12q0 36 92 36q20 0 20 52q0 139 44 324z" />
    <glyph glyph-name="edotaccent" unicode="&#x117;" horiz-adv-x="744" 
d="M412 666q32 -10 32 -64q-8 -120 -8 -172v-20q0 -60 20 -336q-5 -36 -36 -36q-19 0 -32 28q0 2 4 52q-20 204 -20 324q0 24 4 72v4h-4q-86 -163 -152 -360l-16 -12h-28q-39 0 -80 256h-4q-24 -166 -24 -256v-8q0 -28 -28 -28h-12q-24 13 -24 44q0 146 56 384q-4 28 -4 48
l48 56h8q32 0 32 -32q-16 -46 -16 -52q16 -31 52 -276q6 -20 12 -20q6 63 180 388q17 16 40 16z" />
    <glyph glyph-name="Eogonek" unicode="&#x118;" horiz-adv-x="831" 
d="M182 589q32 -3 32 -32q-16 -44 -16 -48v-4q79 -85 116 -196q33 -64 44 -64q48 336 116 336l24 4h16q5 0 20 -20v-12q0 -28 -48 -36q-30 -61 -72 -308q-21 -38 -32 -40h-20q-39 0 -100 100q-49 135 -88 164l-108 -312l-16 -12h-20q-32 0 -32 32q32 50 32 72q20 49 88 256
q-6 0 -12 12v24q35 31 40 44q12 40 36 40z" />
    <glyph glyph-name="eogonek" unicode="&#x119;" horiz-adv-x="1120" 
d="M281 850q130 0 324 -268q36 -56 36 -116v-172q0 -25 -20 -164v-4h4q49 68 116 212q32 56 52 56h12q20 -10 20 -32q0 -8 -72 -140q-13 -67 -140 -196q-132 -120 -272 -120q-225 0 -332 404q-4 21 -4 48v96q0 158 152 340q65 56 124 56zM65 406v-8q0 -190 160 -388
q49 -40 120 -40q119 0 236 112q-19 0 -24 32v8q24 170 24 204v60q0 158 -56 196q-57 94 -204 200l-20 4h-24q-102 0 -200 -260q-12 -55 -12 -120z" />
    <glyph glyph-name="Ecaron" unicode="&#x11a;" horiz-adv-x="778" 
d="M208 675h16q65 -6 196 -120q56 -78 56 -144q0 -239 -128 -280q-88 -15 -88 -24q40 -36 40 -56q-10 -32 -40 -32q-12 0 -68 72l-92 -12q-28 12 -28 36q20 64 48 64v4q-96 90 -120 208q0 19 -4 40q0 205 180 240q16 4 32 4zM60 419q9 -75 72 -164q84 -74 84 -92
q50 16 124 32q72 45 72 188v44q0 69 -128 156q-5 0 -64 32q-120 -21 -120 -52q-40 -45 -40 -144z" />
    <glyph glyph-name="ecaron" unicode="&#x11b;" horiz-adv-x="619" 
d="M149 592q93 0 160 -176q8 -16 8 -44v-56q0 -218 -192 -260h-8q-76 0 -104 80l-12 52l12 24q-8 13 -8 24v4q4 32 32 32q24 0 28 -32v-4q0 -11 -8 -24q21 -92 52 -92h16q16 0 76 36v4q-73 0 -180 184q-8 36 -8 52v36q0 117 104 156q22 4 32 4zM73 404q0 -69 120 -176
l44 -16q16 41 16 96v68q0 60 -84 148l-20 4h-4q-63 0 -72 -108v-16z" />
    <glyph glyph-name="lslash" unicode="&#x142;" horiz-adv-x="615" 
d="M222 266q28 0 28 -28v-12q0 -25 -180 -60q-11 0 -64 -16h-12q-20 10 -20 32q0 41 152 56q61 28 96 28zM26 634h20q80 -64 80 -308q16 -71 36 -284q8 0 8 -40v-12l28 -4q85 4 100 4q21 -4 24 -4q5 4 28 4q5 0 20 -20v-20q-14 -24 -36 -24h-36q-42 0 -88 -4q-22 4 -44 4
l-16 -4q-48 0 -48 108q-40 307 -52 464q-16 61 -44 104v16q0 5 20 20z" />
    <glyph glyph-name="omacron" unicode="&#x14d;" horiz-adv-x="729" 
d="M60 -70h8q53 -19 468 -40q44 -11 44 -36q0 -18 -28 -32q-116 16 -416 28q-56 12 -56 16l-20 -8q-27 0 -32 40q3 32 32 32zM239 698q99 0 188 -128q68 -167 68 -288q0 -139 -100 -184q-37 -16 -68 -16h-16q-48 0 -116 56q-24 32 -64 132q-53 0 -124 232q-4 4 -8 48
q0 110 172 144q47 4 68 4zM63 554q0 -66 68 -196h4q13 8 24 8q26 0 40 -96q42 -124 116 -124q0 -4 4 -4q112 0 112 152q0 144 -88 288q-67 52 -100 52q-145 0 -176 -64q-4 -7 -4 -16z" />
    <glyph glyph-name="OE" unicode="&#x152;" horiz-adv-x="1386" 
d="M860 648q26 0 32 -36v-8q0 -17 -80 -32q-217 -92 -228 -92v-4q36 -42 68 -148q131 -118 144 -180h4q0 23 20 32h20l24 -20q141 40 160 40q40 -3 40 -28q0 -40 -76 -40l-132 -44q0 -48 -36 -48q-19 0 -40 40q-29 0 -60 84q-18 34 -68 76h-4v-4q0 -134 -120 -228
q-93 -52 -172 -52h-4q-136 0 -192 56q-140 71 -140 196q-16 54 -16 108q0 223 160 296q64 28 84 28h32q116 -20 116 -84v-4l-4 -8h4q42 12 52 12h12q35 -2 68 -24q54 12 284 104q37 12 48 12zM68 312v-4q13 -179 68 -208q113 -76 144 -76q20 -4 52 -4h40q69 0 160 72
q56 76 56 176v24q-7 52 -160 144q-4 7 -4 16v12l8 12v12q-78 0 -136 -60h-20q-40 8 -40 40q0 25 104 64q0 40 -76 48q-81 -16 -148 -80q-48 -58 -48 -188zM840 468q24 0 24 -28v-12q-3 -16 -72 -36q-75 -52 -100 -52h-24q-24 16 -24 32q6 36 36 36q8 -4 12 -4q90 64 148 64z
" />
    <glyph glyph-name="sacute" unicode="&#x15b;" horiz-adv-x="725" 
d="M301 1115q32 -6 32 -32v-4q0 -14 -72 -100q0 -17 -28 -24q-32 3 -32 32v16q57 82 96 112h4zM216 753h8q141 0 224 -224q4 -40 4 -60q-4 -106 -44 -132h-20q-5 0 -20 20v16q20 50 20 84v28q0 95 -120 200l-52 8q-134 0 -212 -96q154 -50 192 -120q52 -110 52 -180
q0 -150 -96 -224q-18 -8 -60 -12q-69 0 -112 132q-76 161 -76 212v32q0 5 20 20h8q36 0 36 -72q94 -251 124 -260h8q72 0 84 180q0 75 -64 168q-45 36 -148 68q-32 17 -32 44v8q0 94 196 152q40 8 80 8z" />
    <glyph glyph-name="Utilde" unicode="&#x168;" horiz-adv-x="687" 
d="M168 774q172 0 172 -140q0 -134 -128 -228q99 -128 164 -128q8 -13 8 -24q0 -36 -44 -36q-114 48 -184 164h-4q-6 0 -12 -12v-40q0 -100 -12 -256q6 0 16 -16v-12q-2 -32 -32 -32q-42 0 -48 56q12 152 16 312q0 101 -84 328v8q0 36 64 36q2 0 108 20zM68 690
q68 -182 68 -244q140 47 140 196q0 68 -112 68q-8 0 -96 -20z" />
    <glyph glyph-name="utilde" unicode="&#x169;" horiz-adv-x="748" 
d="M192 738q65 0 176 -132q44 -67 44 -116v-12q0 -95 -120 -164q32 -65 104 -240q4 0 4 -8h24q5 0 20 -20v-12q0 -32 -40 -32q-68 0 -132 212q-31 66 -40 68q-72 -30 -72 -48q-43 -392 -124 -392q-26 0 -32 36q52 81 52 104q16 70 56 360h-4l-24 -20h-12q-36 5 -36 36
q0 37 80 52q0 7 4 96q0 12 -4 160q21 72 76 72zM176 646q8 -94 8 -108v-136q20 -4 64 -36h8q96 54 96 116q0 88 -152 192h-8q-10 0 -16 -28zM176 338l-4 -16q8 4 12 4v4q0 8 -8 8z" />
    <glyph glyph-name="Umacron" unicode="&#x16a;" horiz-adv-x="778" 
d="M16 714h12q28 0 36 -48l48 4q92 0 128 -60l4 -28v-12q0 -54 -108 -188q73 -7 292 -156q22 4 32 4q24 0 24 -28q-5 -52 -40 -52q-14 0 -208 124q-101 52 -132 52h-16v-4q10 -188 28 -188v-20q-10 -20 -32 -20q-56 0 -56 192q-17 343 -32 396q0 22 20 32zM72 602l4 -28v-24
q0 -42 4 -128h4q85 97 100 152q-9 32 -56 32h-48z" />
    <glyph glyph-name="umacron" unicode="&#x16b;" horiz-adv-x="881" 
d="M444 697q54 0 72 -160q20 -52 68 -108v-24q-3 -12 -28 -20q-47 0 -104 152q-16 92 -20 92q-151 -66 -276 -88v-4q91 -57 180 -96q88 -68 88 -164q0 -121 -204 -308q-59 -40 -92 -40h-20q-74 0 -100 180q-4 56 -4 96v76q0 31 24 44h20q20 -10 20 -32q0 -35 -4 -60
q10 -240 52 -240v-4q81 0 232 232q12 33 16 52q0 102 -144 152q-148 84 -148 120v12q0 33 188 72q164 68 184 68z" />
    <glyph glyph-name="Ubreve" unicode="&#x16c;" horiz-adv-x="839" 
d="M360 703q134 0 176 -204v-36q0 -32 -32 -32q-29 0 -32 44q0 9 4 16q-23 103 -76 140q-28 8 -48 8q-65 0 -148 -120q41 0 100 -128q15 -62 20 -128q0 -260 -100 -364q-29 -24 -56 -24q-78 0 -164 256l-8 52q6 28 28 28q39 0 52 -108q66 -148 96 -164q88 68 88 332
q0 145 -108 212q-12 25 -12 32q0 81 160 176z" />
    <glyph glyph-name="ubreve" unicode="&#x16d;" horiz-adv-x="809" 
d="M207 795q205 0 304 -292v-24q-4 -32 -32 -32q-23 0 -32 36l4 8q-88 240 -240 240h-8q-82 0 -128 -72q-7 -16 -12 -120q0 -116 108 -116q91 0 280 -112q52 -63 52 -128q0 -166 -176 -228h-24q-126 0 -152 36q-49 30 -72 128l-4 28q7 18 24 28h8q35 0 48 -96
q32 -60 112 -60h44q75 0 124 120l4 48q0 92 -152 136q-31 27 -204 52q-80 48 -80 164v48q0 137 92 176q52 32 112 32z" />
    <glyph glyph-name="Uring" unicode="&#x16e;" horiz-adv-x="1033" 
d="M708 873q28 -12 28 -36q0 -29 -124 -44q-128 -36 -216 -36v-20q16 -67 32 -192q36 -96 120 -380q20 -39 20 -76q0 -24 -28 -32q-33 0 -48 88q-144 427 -144 512l-16 76v12q-225 -44 -304 -68h-8q-20 10 -20 32q0 47 284 88q69 20 276 44q110 32 148 32z" />
    <glyph glyph-name="uring" unicode="&#x16f;" horiz-adv-x="774" 
d="M436 737q48 -3 48 -36v-8q0 -5 -20 -20q-83 0 -192 -28q-8 0 -32 -248v-24q0 -131 32 -324q-8 -28 -32 -28q-36 0 -36 80q-28 114 -28 288l24 236v20q-113 20 -132 20l4 -20q0 -16 -20 -28h-24q-28 18 -28 40v16q0 42 76 56q12 0 140 -24z" />
    <glyph glyph-name="Uhungarumlaut" unicode="&#x170;" horiz-adv-x="1484" 
d="M1155 708q25 -8 28 -20v-16q-128 -296 -128 -348q-45 -188 -68 -188l-20 -4h-12q-75 0 -200 172q-28 42 -28 52h-4q-9 -300 -52 -300q-15 -8 -32 -8q-66 0 -220 144q-176 136 -392 284q-28 28 -28 44q0 22 20 32h24q43 -48 256 -188l208 -164q86 -84 132 -84
q21 216 32 284q10 64 48 64q31 0 72 -100q77 -127 164 -168q135 512 200 512z" />
    <glyph glyph-name="uhungarumlaut" unicode="&#x171;" horiz-adv-x="1177" 
d="M32 943q34 0 244 -228l164 -120q60 36 156 104q111 67 176 92q50 16 84 16h8q20 -12 20 -28q0 -33 -64 -40q-64 -3 -332 -192q62 -88 108 -336q30 -100 60 -144v-12q-2 -32 -32 -32q-59 0 -136 384q-44 128 -140 180q-40 0 -284 256q-68 50 -68 72q8 28 36 28z" />
    <glyph glyph-name="Uogonek" unicode="&#x172;" horiz-adv-x="983" 
d="M331 818q32 0 36 -40q-161 -252 -176 -380q-12 -75 -28 -308q199 0 444 -124q27 -20 44 -20l28 8q22 0 32 -20v-24q-9 -24 -56 -24h-16q-18 0 -164 72q-178 72 -364 72l-16 20v8q28 396 76 500q42 86 92 172h-4l-224 -76q-31 10 -36 24v24q0 16 156 56q70 32 176 60z" />
    <glyph glyph-name="uogonek" unicode="&#x173;" horiz-adv-x="1568" 
d="M353 861q128 0 340 -160q59 -108 80 -108h12q263 48 440 96h16q20 -10 20 -32q0 -33 -140 -56v-20l112 -372q20 -125 20 -168q0 -39 -28 -56h-24q-24 17 -24 32q12 26 12 36q0 129 -108 432q-24 82 -24 96q-261 -52 -280 -52q-71 0 -124 120q-81 70 -188 120
q-55 28 -116 28q-91 0 -140 -116v-16q0 -45 184 -176q128 -157 160 -320q4 -14 4 -44v-28q0 -93 -128 -112h-92q-105 0 -336 184l-4 20q0 16 20 28h24q210 -172 328 -172h44q75 0 84 60v4q0 120 -128 312q-35 36 -180 148q-44 60 -44 104q0 93 124 168q52 20 84 20z" />
    <glyph glyph-name="zacute" unicode="&#x17a;" horiz-adv-x="1124" 
d="M225 985q32 -6 32 -32v-4q0 -14 -72 -100q0 -17 -28 -24q-32 3 -32 32v16q57 82 96 112h4zM386 708h4q24 -14 24 -40q-44 -128 -44 -220q-17 -564 -44 -564l-4 -20h4q379 196 476 196h24q5 0 20 -20v-12q0 -32 -56 -32q-74 -8 -372 -156q-108 -56 -124 -56h-16
q-32 0 -32 32q48 180 48 268q0 148 20 472q4 0 16 56q-84 -50 -264 -232q-6 -36 -32 -36q-32 0 -32 40q0 34 80 100q225 216 304 224z" />
    <glyph glyph-name="uni0197" unicode="&#x197;" horiz-adv-x="562" 
d="M220 767q28 0 28 -28v-4q-24 -48 -24 -148v-44q25 0 28 -32q0 -16 -32 -44q-12 -194 -12 -224q12 -105 12 -200v-32q0 -44 -32 -44h-12q-5 0 -20 20v96q-8 159 -8 172v16q0 59 8 188l-72 16h-52q-32 2 -32 32q8 28 24 28q22 0 76 4q39 -16 56 -16h4v40q0 204 48 204h12z
" />
    <glyph glyph-name="uni01C2" unicode="&#x1c2;" horiz-adv-x="691" 
d="M246 894q24 0 32 -28q-16 -39 -56 -216h4l132 48h16q6 0 16 -16v-16q0 -44 -184 -80q-12 -26 -12 -64h4l36 4q17 -5 24 -20v-24q-9 -24 -56 -24h-24q-12 -97 -12 -164q4 -314 4 -412q0 -44 28 -44q8 -13 8 -24q0 -36 -32 -52h-16q-48 0 -48 92v8q0 60 -8 396
q0 102 12 192q-25 0 -60 -44h-20q-36 6 -36 32q0 43 112 76q24 0 28 72h-24q-7 0 -60 -24q-8 -4 -12 -4q-28 12 -28 36q0 31 96 56h40q10 0 60 216q14 28 36 28z" />
    <glyph glyph-name="uni01C6" unicode="&#x1c6;" horiz-adv-x="930" 
d="M39 771h32q20 -10 20 -32q0 -9 -12 -24q0 -57 12 -168q0 -60 -16 -396q136 -36 168 -36v4q8 77 8 104q0 82 4 284q-8 51 -8 96v8q0 32 36 32q32 0 36 -40q-8 -16 -8 -24q0 -19 8 -84q-4 -139 -4 -252v-8q-8 -118 -8 -128v-32q0 -100 44 -132h104q55 0 136 44h4
q32 -2 32 -32q0 -51 -180 -76h-96q-76 0 -104 148q0 28 -32 28q-212 40 -212 68v12q0 13 12 28v72q0 37 12 220v96q-8 90 -8 96v104q0 5 20 20z" />
    <glyph glyph-name="uni01C9" unicode="&#x1c9;" horiz-adv-x="1735" 
d="M338 869h24q35 0 44 -136q8 -20 28 -152h4q21 66 116 228l20 4q32 -4 32 -28q4 -202 4 -316v-80q0 -41 40 -204h4q12 38 28 260q38 216 76 216q30 48 60 48h12q61 0 92 -120h4q0 37 192 144l36 4q81 0 96 -228q84 -498 176 -704q0 -16 -20 -28h-12q-41 0 -68 124
q-64 134 -160 752q-12 9 -12 20h-8q-50 -14 -148 -92q-52 -50 -52 -120q-17 -24 -36 -24q-36 0 -36 104q-33 96 -44 104h-4q-72 -63 -72 -176q-19 -76 -28 -260q-25 -112 -36 -136l4 -28v-16q-4 -44 -32 -44q-46 0 -76 216q-40 122 -40 212v248h-4q-52 -98 -92 -236
q-19 -16 -32 -16q-28 8 -28 32v24q0 31 -52 304v4h-4q-140 -352 -140 -420l-116 -324l-24 -24h-20q-32 0 -32 44v36q0 32 44 32q92 269 144 460l60 156q47 121 88 136z" />
    <glyph glyph-name="uni01CC" unicode="&#x1cc;" horiz-adv-x="1272" 
d="M136 814q28 -14 28 -32q-4 -7 -4 -16v-4q90 12 132 12q188 -29 188 -188v-28q0 -62 -88 -164q-28 -15 -28 -20q69 -163 116 -196q6 -19 80 -80q34 -62 60 -88q94 27 144 100q12 24 32 124v8q0 18 -80 148q-144 90 -144 144v64q24 172 92 172q102 0 232 -152l52 -116
q0 -16 -20 -28h-12q-31 0 -76 112q-106 120 -172 120q-36 -70 -36 -124v-16q0 -52 72 -88q94 -67 116 -148q40 -41 40 -96v-4q-36 -176 -64 -176q-43 -69 -148 -100q-15 -8 -32 -8q-44 3 -116 124q-24 8 -84 84q-28 14 -112 196q-62 -36 -124 -36q-50 4 -52 4
q-8 -99 -8 -180v-20q0 -32 4 -76q0 -19 -36 -24q-32 0 -32 76v4q0 142 12 240q-68 38 -68 72v4q0 22 24 32h4q21 0 44 -36q16 124 20 288q-20 0 -20 28v8q12 20 24 20q0 60 40 60zM140 382q22 -4 36 -4h24q23 0 80 32q-20 44 -40 112v16q10 20 32 20q29 0 56 -104q8 0 8 -16
h8q72 81 72 116v48q0 80 -116 108h-28q-116 0 -116 -28q-16 -215 -16 -300z" />
    <glyph glyph-name="uni01E1" unicode="&#x1e1;" horiz-adv-x="1534" 
d="M1208 757q20 -6 20 -28v-4q0 -31 -64 -40q-43 0 -368 -172q7 -17 20 -196q56 -256 56 -384q-7 -64 -52 -64q-18 7 -28 24v32q0 14 16 32q0 60 -60 420q-5 100 -12 100q-242 -156 -292 -156v-4q119 -139 144 -288q0 -102 -256 -168h-52q-63 0 -232 140q-44 27 -44 52
q0 21 32 32q23 -11 200 -148q50 -16 64 -16q86 0 216 88q8 13 8 24q-46 169 -140 248q-96 38 -176 96q-56 0 -100 60q-8 36 -8 52v32q25 116 88 156q92 76 208 76h36q73 0 100 -68q16 -31 36 -96v-24q-11 -20 -32 -20q-27 0 -56 108q-20 36 -28 36h-64q-127 0 -208 -116
q0 -8 -20 -64q0 -72 68 -72q114 -72 120 -72q122 0 408 204q14 0 276 136q121 52 176 52z" />
    <glyph glyph-name="uni01E3" unicode="&#x1e3;" horiz-adv-x="1188" 
d="M763 737q26 0 32 -36q-4 -12 -8 -12q20 -178 28 -220q13 8 24 8q28 -12 28 -36q0 -13 -48 -44v-4q17 -242 32 -276q16 0 28 -20v-88q0 -5 -20 -20h-12q-66 0 -88 380h-4q-83 -32 -188 -48l4 -20q0 -207 36 -252q4 0 4 -8q-3 -32 -32 -32h-16q-56 35 -56 308l-12 28
q8 16 8 24q-12 125 -12 152v128h-4q-140 -20 -180 -20v-64q0 -23 48 -344q4 -60 4 -88v-64q-10 -20 -36 -20q-24 0 -32 60l8 20q-20 200 -56 432v60h-4q-54 0 -212 -64q-28 12 -28 36q0 32 68 44q122 60 324 60q0 4 140 24q32 -3 32 -32q-8 -39 -8 -44v-124q0 -22 8 -132
q4 0 4 -4q68 0 184 56q-24 232 -24 268v4q15 24 36 24z" />
    <glyph glyph-name="uni01E5" unicode="&#x1e5;" horiz-adv-x="1223" 
d="M725 956q18 -8 20 -16v-12q0 -58 -388 -168q11 -55 24 -252q71 -404 96 -404q64 -148 112 -148q15 -4 36 -4h104q44 0 44 72q0 69 -56 104q-94 120 -152 172q-104 71 -104 108v4q0 26 56 180q0 9 80 124q26 60 88 60q68 0 140 -92q17 -77 88 -164v-24q-10 -20 -32 -20
q-41 0 -124 196q-49 40 -68 40q-33 0 -72 -84q-34 -19 -72 -152q-20 -36 -20 -60v-8q110 -69 216 -212q92 -79 92 -144v-48q0 -95 -92 -112h-152q-93 0 -160 172q-38 0 -112 460q-12 212 -28 212q-176 -56 -252 -56q-64 0 -64 36v12q12 20 28 20q58 -4 64 -4q58 0 504 148
q131 64 156 64z" />
    <glyph glyph-name="caron" unicode="&#x2c7;" horiz-adv-x="482" 
d="M34 1226q36 0 36 -56q36 -47 36 -52h4q49 84 76 88q32 -10 32 -32q0 -9 -56 -96q-15 -64 -48 -64q-22 0 -48 60q-63 69 -64 108v4q0 40 32 40z" />
    <glyph glyph-name="ogonek" unicode="&#x2db;" horiz-adv-x="475" 
d="M42 66q25 -8 28 -20v-16q-8 -28 -8 -32v-8q0 -124 32 -124q48 0 56 -24v-20q-10 -20 -32 -20h-12q-104 0 -104 132v68q0 64 40 64z" />
    <glyph glyph-name="Euro" unicode="&#x20ac;" horiz-adv-x="991" 
d="M456 769q113 0 148 -212v-4q0 -5 -20 -20h-12q-32 0 -44 88q-31 84 -76 84q-89 0 -236 -56q-24 -38 -24 -184v-20q27 12 88 28h16q20 -10 20 -32q0 -30 -104 -52q0 -4 -24 -12q4 -54 4 -80v-32h4l92 28q32 -7 32 -32q0 -36 -124 -60q-12 -118 -28 -172l8 -4h28
q274 9 304 32q116 51 116 64q0 18 20 28h12q32 0 32 -44q0 -58 -220 -124q0 -7 -192 -12q0 -8 -68 -8h-8q-70 0 -92 36v28l24 164q-32 6 -32 32v12q17 24 32 24l-4 48v52q-16 0 -32 -28q-7 -4 -16 -4h-8q-56 6 -56 40q0 31 112 60q0 231 40 264q0 22 220 76q31 4 68 4z" />
  </font>
</defs>
</svg>
