<?xml version="1.0" standalone="no"?>
<!DOCTYPE svg PUBLIC "-//W3C//DTD SVG 1.1//EN" "http://www.w3.org/Graphics/SVG/1.1/DTD/svg11.dtd" >
<svg xmlns="http://www.w3.org/2000/svg" xmlns:xlink="http://www.w3.org/1999/xlink" version="1.1">
<metadata>
Created by FontForge 20170731 at Fri Aug 25 00:43:57 2023
 By Aleksey,,,
Copyright 2022 Dalton Maag Ltd. Modification of this file requires prior written permission from Dalton Maag Ltd.
</metadata>
<defs>
<font id="Gardez-ExtraBoldItalic" horiz-adv-x="1228" >
  <font-face 
    font-family="Gardez"
    font-weight="800"
    font-style="italic"
    font-stretch="normal"
    units-per-em="2048"
    panose-1="4 3 9 5 6 3 2 2 15 2"
    ascent="1638"
    descent="-410"
    x-height="891"
    cap-height="1851"
    bbox="-1077 -1810 5114 2546"
    underline-thickness="342"
    underline-position="-745"
    slope="-26"
    unicode-range="U+000D-FB04"
  />
<missing-glyph horiz-adv-x="1024" 
d="M102 1536h820v-1536h-820v1536zM819 102v1332h-614v-1332h614z" />
    <glyph glyph-name="f_f.liga" unicode="ff" horiz-adv-x="1163" 
d="M215 -123q189 0 285 41q73 29 137 105q59 74 111 202q49 124 96 324h-461q-57 -224 -94 -338q-48 -148 -94 -246q-49 -101 -107 -174q-63 -76 -127 -129q-74 -56 -172 -111q-95 -50 -190 -77l26 403q189 0 285 41q73 29 137 105q59 74 111 202q49 124 96 324h-191
l173 342h90q55 238 206 362q150 123 379 123q70 0 146 -12q66 -11 153 -37q160 92 400 92q46 0 73 -2q77 -6 95 -8l-213 -377q-186 86 -289 86q-181 0 -227 -227h272l-174 -342h-174q-57 -224 -94 -338q-46 -141 -95 -246q-51 -105 -106 -174q-63 -76 -127 -129
q-79 -61 -170 -111q-92 -48 -193 -77zM963 1038q-158 76 -267 76q-188 0 -237 -223h456q14 62 48 147z" />
    <glyph glyph-name="f_f_i.liga" unicode="ffi" horiz-adv-x="1744" 
d="M188 -526l27 403q90 0 168 10q67 9 117 31q75 35 135 107q56 68 110 200q52 124 99 324h-461q-57 -224 -94 -338q-48 -148 -94 -246q-49 -101 -107 -174q-63 -76 -127 -129q-74 -56 -172 -111q-95 -50 -190 -77l26 403q90 0 168 10q67 9 117 31q75 35 135 107
q58 70 111 200q49 118 98 324h-191l173 342h90q51 232 204 360q149 125 377 125q75 0 152 -12q70 -11 153 -37q162 90 398 90q66 0 137 -6q100 -13 149 -22l-219 -406q-125 67 -227 104q-90 33 -168 33q-181 0 -233 -229h567q72 0 72 -37q0 -16 -13 -45q-1 -2 -41 -80
q-131 -223 -131 -301q0 -35 41 -35q16 0 58 10q63 17 86 23l-177 -350q-77 -53 -151 -82q-82 -29 -135 -29q-58 0 -58 41q0 19 15 49q28 50 49 86q75 121 127 232q39 79 39 125q0 51 -66 51h-358q-57 -224 -94 -338q-46 -141 -95 -246q-51 -105 -106 -174q-63 -76 -127 -129
q-79 -61 -170 -111q-92 -48 -193 -77zM696 1114q-188 0 -237 -223h456q14 62 48 147q-158 76 -267 76z" />
    <glyph glyph-name="f_f_l.liga" unicode="ffl" horiz-adv-x="1728" 
d="M215 -123q189 0 285 41q73 29 137 105q59 74 111 202q49 124 96 324h-461q-57 -224 -94 -338q-48 -148 -94 -246q-49 -101 -107 -174q-63 -76 -127 -129q-74 -56 -172 -111q-95 -50 -190 -77l26 403q90 0 168 10q67 9 117 31q75 35 135 107q58 70 111 200q49 118 98 324
h-191l173 342h90q51 232 204 360q149 125 377 125q77 0 154 -12t156 -39q163 94 411 94q33 0 64 -2q64 -4 98 -10q51 -9 92 -27q37 -18 37 -51q0 -21 -23 -65q-108 -212 -127 -246q-47 -88 -90 -166q-12 -23 -34.5 -67t-34.5 -66q-13 -25 -74 -144q-26 -50 -39 -88
q-12 -38 -12 -57q0 -37 45 -37q41 0 141 33l-176 -350q-78 -51 -162 -82q-89 -29 -139 -29q-80 0 -80 45q0 36 51 135q39 80 109 205q21 39 56.5 104t49.5 91q40 73 68 127q8 17 24 49.5t23 48.5q46 100 59 143q17 53 17 74q0 69 -70 103q-69 34 -178 34q-124 0 -184 -51
q-63 -54 -90 -182h272l-174 -342h-174q-57 -224 -94 -338q-46 -141 -95 -246q-51 -105 -106 -174q-63 -76 -127 -129q-79 -61 -170 -111q-92 -48 -193 -77zM915 891q14 62 48 147q-155 76 -267 76q-188 0 -237 -223h456z" />
    <glyph glyph-name="f_i.liga" unicode="fi" horiz-adv-x="1155" 
d="M1087 983q-118 70 -213 102q-98 33 -178 33q-94 0 -151 -51q-63 -53 -86 -176h575q70 0 70 -37q0 -14 -10 -37q-2 -4 -10 -18t-18.5 -32.5t-21.5 -37.5q-51 -90 -96 -190q-35 -78 -35 -111q0 -35 41 -35t144 33l-176 -350q-76 -52 -152 -82q-82 -29 -133 -29
q-66 0 -66 41q0 18 15 45q12 21 55 90q90 146 131 230q39 79 39 125q0 28 -25 41q-24 12 -86 12h-317q-57 -224 -94 -338q-48 -148 -94 -246q-49 -101 -107 -174q-63 -76 -127 -129q-74 -56 -172 -111q-95 -50 -190 -77l26 403q90 0 168 10q67 9 117 31q75 35 135 107
q58 70 111 200q49 118 98 324h-191l173 342h90q61 266 235 397q171 131 463 131q64 0 131 -6q75 -10 152 -24z" />
    <glyph glyph-name="f_l.liga" unicode="fl" horiz-adv-x="1138" 
d="M-375 -123q189 0 285 41q73 29 137 105q59 74 111 202q49 124 96 324h-191l173 342h90q64 271 247 401q183 127 465 127q33 0 64 -2q64 -4 98 -10q51 -9 92 -27q37 -18 37 -51q0 -23 -22 -65q-108 -212 -127 -246q-47 -88 -90 -166q-12 -22 -35 -66.5t-35 -66.5
q-13 -25 -74 -144q-26 -50 -39 -88q-12 -37 -12 -57q0 -37 45 -37q41 0 141 33l-176 -350q-78 -51 -162 -82q-89 -29 -139 -29q-80 0 -80 45q0 36 51 135q39 80 109 205q22 41 58 105.5t49 89.5q12 22 23.5 45l23.5 47t18 35q39 76 49 98q49 106 60 143q16 50 16 74
q0 69 -70 103q-69 34 -178 34q-124 0 -184 -51q-63 -54 -90 -182h272l-174 -342h-174q-57 -224 -94 -338q-48 -148 -94 -246q-49 -101 -107 -174q-63 -76 -127 -129q-74 -56 -172 -111q-95 -50 -190 -77z" />
    <glyph glyph-name=".notdef" horiz-adv-x="1024" 
d="M102 1536h820v-1536h-820v1536zM819 102v1332h-614v-1332h614z" />
    <glyph glyph-name=".null" horiz-adv-x="0" 
 />
    <glyph glyph-name="uni000D" horiz-adv-x="368" 
 />
    <glyph glyph-name="uni000D" horiz-adv-x="368" 
 />
    <glyph glyph-name="CR" unicode="&#xd;" horiz-adv-x="512" 
 />
    <glyph glyph-name="space" unicode=" " horiz-adv-x="368" 
 />
    <glyph glyph-name="exclam" unicode="!" horiz-adv-x="409" 
d="M281 440h-152q75 171 168 398q40 97 121 309q44 116 92 272h336q-156 -232 -275 -436q-133 -231 -290 -543zM-37 -35q-92 0 -92 86q0 62 43 123q44 59 109 100t133 41q94 0 94 -84q0 -59 -43 -120q-43 -63 -109 -105q-65 -41 -135 -41z" />
    <glyph glyph-name="quotedbl" unicode="&#x22;" horiz-adv-x="1079" 
d="M465 825h-150q46 86 95 205q40 106 77 230q40 134 52 221h372q-116 -206 -213 -348q-119 -177 -233 -308zM899 825h-149q42 78 94 205q45 117 78 230q38 128 51 221h373q-116 -206 -213 -348q-115 -172 -234 -308z" />
    <glyph glyph-name="numbersign" unicode="#" 
d="M221 0h-180q103 142 147 205h-192l166 252h200q13 20 39.5 61.5t40.5 61.5h-204l165 251h193q77 131 117 205h180q-80 -107 -148 -205h220q63 107 116 205h181q-80 -107 -148 -205h193l-166 -251h-201l-78 -123h203l-166 -252h-192q-56 -93 -117 -205h-180
q103 142 147 205h-219q-56 -93 -117 -205zM811 580h-240l-77 -123h237q13 20 40 61.5t40 61.5z" />
    <glyph glyph-name="dollar" unicode="$" 
d="M1083 629q-92 32 -194 57q-93 19 -148 19q-102 0 -102 -58q0 -20 8 -33q10 -20 37 -47l86 -86q70 -66 92 -110q25 -48 25 -105q0 -132 -115 -209q-119 -81 -323 -90l-179 -370h-202l221 372q-63 2 -152 17q-75 12 -131 30l195 408q71 -47 166 -74q98 -28 182 -28
q143 0 143 63q0 21 -20 47q-14 17 -101 98q-70 67 -94 113q-28 51 -28 102q0 123 116 205q118 82 314 103l182 379h203l-224 -371q40 0 138 -4q70 -6 114 -15z" />
    <glyph glyph-name="percent" unicode="%" horiz-adv-x="1789" 
d="M868 745q194 194 346 365q141 159 267 322h286q-231 -195 -415 -365q-233 -216 -396 -379q-186 -186 -346 -366q-149 -168 -268 -322h-287q242 204 416 365q233 216 397 380zM1044 592q90 84 211 143q115 53 230 53q217 0 217 -194q0 -108 -57 -213q-58 -107 -156 -199
q-96 -90 -211 -143q-113 -55 -229 -55q-215 0 -215 196q0 110 57 215q59 109 153 197zM1333 272q37 64 62 140q24 73 24 137q0 98 -61 98q-36 0 -80 -41q-41 -36 -82 -106q-36 -57 -63 -140q-25 -77 -25 -137q0 -98 61 -98q35 0 82 41q37 35 82 106zM328 1251q92 86 211 144
q115 53 229 53q217 0 217 -195q0 -108 -57 -213t-156 -198q-98 -92 -211 -144q-113 -55 -229 -55q-215 0 -215 197q0 110 57 215t154 196zM616 932q38 65 62 139q24 73 24 137q0 99 -61 99q-36 0 -80 -41q-40 -35 -82 -107q-37 -58 -63 -139q-25 -77 -25 -137q0 -99 62 -99
q35 0 82 41q33 31 81 107z" />
    <glyph glyph-name="ampersand" unicode="&#x26;" horiz-adv-x="2209" 
d="M1944 1311q-68 13 -156 20q-83 6 -164 6q-168 0 -321 -24q-150 -23 -277 -66q-122 -41 -190 -92q-72 -54 -72 -108q0 -86 168 -86q58 0 125 12q60 8 137 31l-135 -267q-146 -3 -273 -35q-142 -36 -254 -90q-116 -58 -186 -125t-70 -139q0 -68 82 -102q76 -33 258 -33
q215 0 424 43q213 44 396 125q182 79 319 197h-575l219 434h997l-221 -434h-317l-281 -558q-225 -159 -481 -241t-547 -82q-324 0 -486 98q-163 97 -163 279q0 140 96 286q100 145 274 273q175 128 416 231q-34 50 -45 88q-18 46 -18 113q0 131 84 256q82 120 231 223
q138 97 336 174q196 75 405 115q217 41 435 41q80 0 129 -6z" />
    <glyph glyph-name="quotesingle" unicode="'" horiz-adv-x="645" 
d="M440 825h-149q42 78 94 205q45 117 78 230q38 128 51 221h373q-116 -206 -213 -348q-115 -172 -234 -308z" />
    <glyph glyph-name="parenleft" unicode="(" horiz-adv-x="886" 
d="M416 -403q-232 179 -232 507q0 174 66 363q66 185 178 352q117 174 268 316q154 145 334 249q188 105 373 150l-227 -444q-117 0 -230 -43q-115 -43 -221 -117q-102 -74 -184 -172q-82 -94 -129 -203t-47 -213q0 -120 71 -197t207 -104z" />
    <glyph glyph-name="parenright" unicode=")" horiz-adv-x="886" 
d="M-182 41q115 0 231 43q117 45 219 119q99 69 187 170q82 97 127 202q47 109 47 213q0 121 -72 199q-70 76 -207 103l228 444q231 -179 231 -508q0 -180 -64 -360q-64 -182 -180 -355q-115 -171 -268 -315q-157 -147 -334 -250q-185 -104 -373 -149z" />
    <glyph glyph-name="asterisk" unicode="*" horiz-adv-x="1173" 
d="M1087 889q-83 63 -200 125q-111 56 -195 80q71 -93 123 -193q50 -98 66 -184l-328 -94q33 102 55 219q21 114 21 200v23q-69 -97 -150 -178t-149 -117l-191 285q122 0 248 18q114 16 201 47q-116 35 -215 86q-103 53 -160 107l211 272q36 -111 90 -223q58 -119 100 -174
v26q0 115 21 220q19 108 51 168l320 -117q-101 -72 -189 -160q-90 -90 -135 -158q86 33 182 52q94 16 162 16q40 0 74 -6z" />
    <glyph glyph-name="plus" unicode="+" 
d="M492 16h-199l164 322h-316l138 266h315l158 311h198l-157 -311h315l-137 -266h-316z" />
    <glyph glyph-name="comma" unicode="," horiz-adv-x="471" 
d="M94 418q170 -99 170 -258q0 -97 -65 -209q-67 -107 -189 -217q-121 -106 -291 -201l-36 223q161 26 276 88q107 58 107 125q0 44 -50 82q-52 34 -145 55z" />
    <glyph glyph-name="hyphen" unicode="-" horiz-adv-x="608" 
d="M209 666l432 61l-176 -344l-432 -61z" />
    <glyph glyph-name="period" unicode="." horiz-adv-x="471" 
d="M117 10q-68 -45 -144 -45q-98 0 -98 88q0 67 45 129q47 65 115 107q67 43 139 43q100 0 100 -88q0 -63 -45 -125q-50 -69 -112 -109z" />
    <glyph glyph-name="slash" unicode="/" horiz-adv-x="747" 
d="M371 549q168 204 366 471q165 223 283 412h352q-237 -210 -448 -435q-228 -238 -418 -471q-212 -259 -363 -477q-168 -246 -280 -452h-350q245 248 438 464q234 261 420 488z" />
    <glyph glyph-name="zero" unicode="0" horiz-adv-x="1024" 
d="M1034 696q0 -105 -45 -207q-43 -96 -125 -198q-84 -99 -180 -166q-104 -75 -211 -117q-113 -43 -223 -43q-258 0 -258 236q0 101 47 207q46 104 125 198q77 95 178 168q109 75 213 115q110 43 221 43q258 0 258 -236zM655 772q-38 0 -80 -39q-47 -41 -88 -102
q-43 -64 -77 -139q-36 -73 -58 -154q-22 -80 -22 -143q0 -70 41 -70q37 0 82 39q46 43 86 102q38 56 79 140q41 91 58 153q20 73 20 143t-41 70z" />
    <glyph glyph-name="one" unicode="1" horiz-adv-x="1093" 
d="M35 342h434l135 264q-81 -12 -229 -51q-132 -35 -264 -78l145 289q149 67 317 108q178 44 357 58q-38 -53 -94 -146q-36 -61 -93 -168q-38 -69 -75 -157q-23 -58 -23 -74q0 -28 33 -37q38 -10 123 -10h125q46 0 69 2l-172 -342h-960z" />
    <glyph glyph-name="two" unicode="2" horiz-adv-x="1116" 
d="M834 0h-1043q250 134 473 266q176 105 264 180q82 70 82 109q0 49 -98 49q-158 0 -434 -117l172 340q87 51 205 76q123 27 241 27q153 0 236 -47q84 -50 84 -138q0 -101 -115 -196q-113 -98 -364 -207h469z" />
    <glyph glyph-name="three" unicode="3" horiz-adv-x="1024" 
d="M-268 -104q181 6 348 30q172 28 289 66q128 41 196 86q70 46 70 92q0 55 -121 55q-49 0 -127 -10q-51 -7 -158 -29l103 189q354 77 354 160q0 30 -35 45q-32 14 -98 14q-78 0 -207 -29q-114 -29 -229 -78l172 340q77 47 203 74q132 29 241 29q152 0 238 -47
q84 -50 84 -133q0 -96 -113 -203t-311 -201q162 -107 162 -246q0 -95 -78 -196q-78 -97 -226 -191q-158 -95 -348 -168q-205 -79 -446 -133z" />
    <glyph glyph-name="four" unicode="4" horiz-adv-x="1159" 
d="M428 -446h-231q27 55 70.5 140.5t54.5 106.5q25 51 100 199h-576q165 257 418 473q260 221 623 416h164q-178 -259 -322 -547h334l-174 -342h-311q-85 -216 -150 -446zM600 342q6 12 17 34.5t21.5 42.5t20.5 38q31 60 68 127q-67 -15 -168 -52q-77 -31 -143 -75
q-83 -54 -156 -115h340z" />
    <glyph glyph-name="five" unicode="5" horiz-adv-x="944" 
d="M342 891h743l-172 -342h-618l-66 -121q217 -47 334 -139q117 -94 117 -223q0 -133 -117 -256q-126 -126 -342 -224q-220 -100 -543 -174l35 484q150 3 301 28q143 24 256 64q111 40 174 86q64 46 64 96q0 45 -82 72q-82 24 -221 24q-87 0 -201 -12z" />
    <glyph glyph-name="six" unicode="6" horiz-adv-x="1044" 
d="M1278 1012h-61q-348 0 -601 -125q-257 -127 -387 -352q91 101 205 182q103 73 217 119q109 41 201 41q89 0 141 -43q51 -42 51 -148q0 -102 -45 -201q-46 -101 -127 -194q-82 -97 -180 -168q-105 -76 -213 -115q-113 -43 -221 -43q-119 0 -186 58q-68 59 -68 178
q0 124 72 274q71 147 198 299q138 164 291 291q173 143 359 250q194 110 389 170zM350 518q-81 -30 -129 -65q-49 -37 -49 -74q0 -64 176 -64q95 0 195 19q91 17 172 49q73 26 123 66q45 36 45 73q0 35 -39 49q-40 15 -123 15q-95 0 -195 -19q-93 -18 -176 -49z" />
    <glyph glyph-name="seven" unicode="7" horiz-adv-x="1007" 
d="M729 549h-620l174 342h895l-86 -176q-158 -138 -203 -178q-95 -85 -152 -142q-84 -84 -123 -125q-329 -350 -520 -858l-450 174z" />
    <glyph glyph-name="eight" unicode="8" horiz-adv-x="1097" 
d="M-16 223q0 154 176 295q179 141 549 268q-53 69 -78 129q-31 67 -31 132q0 106 70 188q69 84 184 133q118 47 256 47q153 0 242 -59q88 -61 88 -164q0 -133 -150 -250q-148 -118 -422 -199q77 -107 105 -170q28 -70 28 -133q0 -97 -49 -182q-56 -92 -139 -152
q-87 -64 -207 -102q-113 -39 -248 -39q-178 0 -276 70t-98 188zM809 416q43 46 43 102q0 29 -8 53q-10 30 -25 60q-30 45 -53 78q-17 -6 -58 -22t-61 -23q-57 -21 -149 -66q-83 -44 -129 -82q-54 -48 -54 -94q0 -42 50 -72q44 -33 153 -33q96 0 172 27q74 27 119 72z
M1135 1014q0 43 -43 67q-48 25 -121 25q-100 0 -156 -39q-59 -41 -59 -102q0 -62 55 -144q142 49 197 76q68 29 98 59q29 29 29 58z" />
    <glyph glyph-name="nine" unicode="9" horiz-adv-x="1003" 
d="M-285 -588l35 473h62q347 0 600 125q257 127 387 352q-86 -96 -205 -180q-115 -82 -215 -119q-107 -43 -203 -43q-87 0 -139 43q-53 44 -53 148q0 106 47 203q45 99 125 194q81 93 182 166q105 76 213 117q112 41 219 41q119 0 186 -58q68 -59 68 -178q0 -122 -72 -272
q-72 -154 -196 -301q-133 -159 -293 -291q-171 -141 -357 -250q-198 -110 -391 -170zM315 516q-76 -30 -122 -67q-48 -39 -48 -74q0 -33 39 -47q46 -17 123 -17q95 0 195 19q91 17 178 49q81 30 129 67q47 35 47 72q0 64 -176 64q-93 0 -193 -19q-84 -16 -172 -47z" />
    <glyph glyph-name="colon" unicode=":" horiz-adv-x="471" 
d="M117 10q-68 -45 -144 -45q-98 0 -98 88q0 67 45 129q47 65 115 107q67 43 139 43q100 0 100 -88q0 -63 -45 -125q-50 -69 -112 -109zM430 627q-68 -45 -143 -45q-99 0 -99 88q0 67 45 129q46 63 115 106q67 43 139 43q101 0 101 -88q0 -63 -45 -125q-47 -66 -113 -108z
" />
    <glyph glyph-name="semicolon" unicode=";" horiz-adv-x="471" 
d="M94 418q170 -99 170 -258q0 -97 -65 -209q-67 -107 -189 -217q-121 -106 -291 -201l-36 223q161 26 276 88q107 58 107 125q0 44 -50 82q-52 34 -145 55zM432 627q-68 -45 -143 -45q-99 0 -99 88q0 65 46 129t114 106q67 43 139 43q101 0 101 -88q0 -63 -45 -125
q-47 -66 -113 -108z" />
    <glyph glyph-name="less" unicode="&#x3c;" 
d="M1077 551q-180 -18 -362 -47q-146 -23 -275 -60q163 -29 295 -65q124 -35 215 -78l-110 -217q-131 89 -301 160q-177 70 -385 123l131 256q208 91 452 159q250 69 514 109z" />
    <glyph glyph-name="equal" unicode="=" 
d="M174 406h830l-138 -267h-829zM373 793h829l-137 -267h-829z" />
    <glyph glyph-name="greater" unicode="&#x3e;" 
d="M166 420q175 17 364 47q153 24 273 59q-156 28 -293 66q-125 34 -217 78l110 217q130 -88 304 -158q166 -70 383 -125l-132 -256q-214 -94 -452 -160q-242 -67 -514 -108z" />
    <glyph glyph-name="question" unicode="?" horiz-adv-x="768" 
d="M279 440h-158q17 50 45 92q22 37 63 78q42 42 103 86q16 12 69 51t88 64q113 81 158 123t45 80q0 31 -28 47q-25 14 -78 14q-81 0 -191 -35q-115 -40 -198 -92l186 369q98 58 203 78q113 22 200 22q171 0 254 -59q84 -60 84 -162q0 -70 -39 -129q-39 -63 -129 -131
q-94 -72 -237 -152q-37 -21 -109.5 -63t-101.5 -59q-84 -49 -123 -80q-45 -34 -68 -66q-27 -45 -38 -76zM225 111q-43 -65 -108 -105q-65 -41 -135 -41q-93 0 -93 86q0 62 43 123q44 59 109 100t133 41q94 0 94 -84q0 -59 -43 -120z" />
    <glyph glyph-name="at" unicode="@" horiz-adv-x="1380" 
d="M887 -317q-75 -48 -174 -68q-102 -21 -193 -21q-162 0 -278 64q-117 63 -183 180q-63 114 -63 273q0 186 92 381q89 195 252 358t358 258q192 94 377 94q171 0 266 -80q93 -84 93 -225q0 -97 -39 -201q-41 -109 -105 -200q-75 -105 -170 -193q-112 -103 -207 -162
q-61 -35 -100 -49q-47 -20 -96 -20t-49 30q0 16 12 43q7 16 33 66l114 203q-116 -159 -239 -248q-125 -94 -232 -94q-50 0 -86 28q-34 27 -34 99q0 91 61 192q57 100 164 193q105 92 237 159q139 68 277 91l16 53h154q-98 -161 -154 -277q-29 -63 -37 -86q-16 -43 -16 -69
q0 -45 43 -45q35 0 86 26q107 55 170 146q61 88 61 184q0 108 -79 166q-77 57 -236 57q-172 0 -324 -63q-156 -63 -284 -185q-116 -110 -178 -237q-66 -135 -66 -252q0 -155 115 -250q113 -94 299 -94q144 0 295 59q147 57 274 166zM788 588q-90 0 -176 -25
q-80 -23 -131 -65q-49 -40 -49 -90q0 -56 84 -56q100 0 201 64q103 62 172 162q-8 1 -24.5 4t-24.5 4q-18 2 -52 2z" />
    <glyph glyph-name="A" unicode="A" horiz-adv-x="3813" 
d="M100 -256l-59 786q236 -71 463 -108q228 -37 459 -37q848 0 1603 358q39 18 121 64q93 55 135 82q22 14 174 119q154 107 240 170q39 29 149 109.5t179 131.5q-189 0 -379 -35q-186 -34 -410 -112l227 448q64 47 193 90q116 39 268 64q154 22 293 22q155 0 240 -26
q86 -27 86 -78q0 -29 -43 -102q-165 -294 -275 -496q-91 -166 -174 -332q-60 -120 -90 -205q-27 -76 -27 -118q0 -84 101 -84q70 0 190 32l-252 -491q-64 -38 -139 -66q-104 -34 -164 -45q-88 -16 -153 -16q-75 0 -123 31q-45 29 -45 86q0 52 37 110l145 238h-899
q-556 -303 -1061 -445q-517 -145 -1010 -145zM3316 733l444 723q-482 -408 -940 -723h496z" />
    <glyph glyph-name="B" unicode="B" horiz-adv-x="2762" 
d="M1108 -135q-166 0 -246 18q-82 18 -82 74q0 27 21 70q15 33 55 96q149 229 356 559q192 302 408 670q-525 -70 -1116 -301l125 526q230 75 372 117q185 52 314 78q185 34 291 45q164 17 297 20l92 160h297l-154 -160q319 -15 500 -117q180 -101 180 -270
q0 -296 -346 -510q116 -47 180 -129t64 -186q0 -174 -123 -312q-124 -139 -344 -239q-216 -100 -512 -156q-295 -53 -629 -53zM1507 371q226 0 402 20q190 22 321 60q139 39 211 88q76 52 76 112t-70 94q-77 38 -227 52q-146 14 -422 14q-170 0 -268 -2l-227 -430
q36 -3 86 -6q33 -2 118 -2zM2431 1343q-127 39 -383 39q-118 0 -217 -8l-158 -299h96q33 -2 101 -2q333 0 512 43q182 41 182 117q0 69 -133 110z" />
    <glyph glyph-name="C" unicode="C" horiz-adv-x="2009" 
d="M1694 -35q-159 -116 -342 -198q-174 -78 -379 -127q-194 -43 -389 -43q-317 0 -465 124q-154 127 -154 379q0 198 82 402q84 206 229 397q144 193 340 365q200 175 416 299q227 130 459 202q239 74 467 74q198 0 297 -57q102 -58 102 -174q0 -105 -76 -215t-202 -215
q-130 -106 -291 -187q-172 -87 -336 -133q-174 -49 -338 -49h-43q-16 0 -22 2l186 375q85 -45 170 -64q91 -24 186 -24q106 0 183 26q76 23 124 68q46 40 46 92t-58 82q-60 31 -205 31q-162 0 -329 -37q-174 -42 -328 -107q-158 -65 -301 -157q-136 -90 -246 -197
q-110 -110 -166 -219q-61 -113 -61 -225q0 -162 127 -242t346 -80q151 0 319 33q171 30 349 86q160 51 329 127q154 71 260 149z" />
    <glyph glyph-name="D" unicode="D" horiz-adv-x="2990" 
d="M1090 -135q-150 0 -232 16q-78 18 -78 76q0 29 21 70q19 43 55 96q213 315 373 575q219 356 379 629q-293 -37 -590 -121q-281 -83 -569 -213l133 551q128 61 284 111q138 46 340 94q215 48 363 70q182 27 344 36l82 142h297l-127 -135q325 -9 551 -78q228 -69 352 -203
q121 -133 121 -334q0 -195 -92 -393q-89 -194 -269 -377q-177 -177 -432 -315q-253 -137 -584 -217t-722 -80zM2580 573q185 90 285 205q103 118 103 250q0 165 -213 248q-210 82 -672 82q-143 0 -258 -8l-502 -944q165 -19 315 -19q278 0 519 49q241 50 423 137z" />
    <glyph glyph-name="E" unicode="E" horiz-adv-x="2934" 
d="M526 492q-239 193 -239 364q0 44 14 90q17 53 55 119q46 80 119 182q82 116 199 219q111 94 252 160t342 113q178 42 463 71q283 26 616 37q433 11 807 11l-254 -498l-969 10q-102 -156 -166 -266h1008l-209 -406h-997l-23 -51q-21 -56 -26 -78q-11 -50 -11 -63
q0 -52 37 -82q32 -32 125 -45q83 -14 252 -14q243 0 483 43q239 40 502 129l-240 -469q-108 -40 -258 -78q-165 -41 -323 -66q-194 -30 -348 -43q-187 -16 -326 -16q-155 0 -244 12q-86 12 -127 41q-39 29 -39 82q0 44 48 152t131 251q130 225 295 502q142 243 274 465
q-277 0 -483 -14q-209 -14 -383 -43q-161 -27 -254 -66q-90 -38 -90 -80q0 -38 79 -84q75 -44 195 -69z" />
    <glyph glyph-name="F" unicode="F" horiz-adv-x="2525" 
d="M1761 1362q-277 0 -487 -14q-212 -14 -387 -43q-162 -26 -256 -66q-92 -38 -92 -80q0 -40 79 -80q80 -41 195 -65l-287 -522q-239 193 -239 364q0 44 14 90q17 53 55 119q46 80 119 182q82 116 199 219q111 94 252 160t342 113q178 42 463 71q283 26 616 37
q433 11 807 11l-258 -506l-946 10q-79 -124 -219 -369h919l-252 -487h-934q-134 -261 -213 -438q-105 -235 -155 -371h-385q68 83 159 215q73 108 211 326q100 161 289 469q84 139 391 655z" />
    <glyph glyph-name="G" unicode="G" horiz-adv-x="1990" 
d="M1724 141q-149 -286 -303 -483q-162 -207 -329 -330q-175 -126 -383 -188q-211 -60 -457 -60q-171 0 -383 31q-214 31 -465 94l315 615q152 -59 318 -99q148 -36 334 -59q161 -20 315 -20q167 0 285 26q121 27 223 88q103 67 188 168q105 124 187 260l186 303
q-108 -126 -252 -237q-147 -116 -307 -197q-173 -87 -332 -131q-171 -47 -323 -47q-216 0 -336 105q-121 106 -121 333q0 195 86 387q82 183 244 365q158 175 370 317q217 148 471 254q265 111 547 168q292 60 590 60q90 0 176 -6l-305 -607q-146 45 -291 64
q-156 20 -323 20q-262 0 -492 -53q-220 -51 -397 -143q-169 -91 -264 -209q-97 -123 -97 -250q0 -149 127 -217t389 -68q130 0 295 19q158 15 293 49q139 30 226 76h-777l205 405h989z" />
    <glyph glyph-name="H" unicode="H" horiz-adv-x="3426" 
d="M3559 2175h379q-318 -483 -544 -881q-223 -393 -318 -653q-29 -89 -29 -123q0 -82 101 -82q80 0 237 49l-250 -491q-109 -68 -194 -98q-95 -29 -180 -29q-77 0 -123 24q-45 26 -45 72q0 48 37 129l239 537h-872l-416 -932h-379q155 238 232 364q117 191 225 381
q103 178 199 363q95 183 161 317q63 131 101 236q-23 1 -67.5 4t-65.5 4q-45 2 -132 2q-205 0 -380 -14q-162 -13 -353 -41q-158 -26 -291 -62q-136 -37 -198 -73q-72 -41 -72 -80t82 -82q77 -45 195 -70l-291 -526q-244 191 -244 368q0 46 14 89q11 41 54 120
q53 92 118 183q111 153 291 284q182 135 410 228q238 97 493 151q267 53 545 53q159 0 221 -16q58 -18 58 -68q0 -26 -15 -63q-18 -49 -55 -135l-223 -498h872z" />
    <glyph glyph-name="I" unicode="I" horiz-adv-x="1460" 
d="M1526 1356q-85 6 -176 6q-147 0 -301 -16q-141 -14 -265 -43q-123 -28 -186 -60q-70 -34 -70 -72t82 -81q77 -45 195 -70l-291 -526q-121 91 -184 186q-60 91 -60 180q0 40 15 90q12 50 53 121q46 80 119 182q90 124 237 234q140 105 330 190q180 82 389 129
q199 45 418 45q108 0 108 -67q0 -14 -6 -35q-8 -18 -30 -61q-19 -34 -97 -191q-45 -90 -120 -250q-85 -176 -166 -356q-32 -72 -109.5 -240.5t-120.5 -263.5q-208 -461 -313 -690h-379q299 428 535 854q238 429 393 805z" />
    <glyph glyph-name="J" unicode="J" horiz-adv-x="1460" 
d="M1206 197q-267 -568 -631 -842q-366 -275 -845 -275q-88 0 -244 17q-103 11 -287 45q-124 23 -276 63l315 615q485 -178 860 -178q171 0 287 26q120 27 221 94q103 73 195 193q104 138 213 319q58 102 129 234q91 179 139 278q83 174 139 295q77 173 119 275
q-14 1 -42.5 2t-43.5 2q-31 2 -92 2q-144 0 -301 -16q-139 -14 -264 -43q-115 -26 -189 -62q-71 -35 -71 -70q0 -38 81 -81q77 -45 195 -70l-291 -526q-243 156 -243 362q0 45 14 94q12 48 53 123q48 84 119 180q94 126 240 238q143 107 325 190q177 77 387 125
q199 45 422 45q107 0 107 -67q0 -28 -15 -55z" />
    <glyph glyph-name="K" unicode="K" horiz-adv-x="2740" 
d="M2324 -424q-71 -22 -143 -22q-206 0 -336 219q-36 59 -82 164q-29 68 -69 208q-24 85 -66 293q-41 206 -76 420q-17 -33 -102.5 -205.5t-140.5 -283.5q-240 -486 -332 -672h-379q207 272 399 565q177 269 342 561q159 286 269 533q-92 6 -191 6q-159 0 -325 -16
q-154 -15 -287 -43q-135 -29 -201 -60q-76 -34 -76 -72t82 -81q77 -45 195 -70l-291 -526q-121 91 -184 186q-60 91 -60 180q0 38 13 88q13 51 51 117q42 76 110 170q91 125 248 240q151 109 350 196q203 85 420 133q227 47 451 47q106 0 106 -65q0 -13 -2 -23
q-1 -7 -14 -32q-21 -37 -80 -148q-13 -22 -100 -188q-68 -130 -142 -281q280 6 476 41q188 34 313 107q119 72 170 182q53 115 53 276q0 47 -2 70q-3 40 -6 74h584q-125 -201 -295 -389q-180 -199 -369 -347q-201 -158 -412 -274q-212 -117 -424 -182q45 -144 144 -264
q97 -117 225 -181q127 -65 270 -65q66 0 125 12q57 9 121 37z" />
    <glyph glyph-name="L" unicode="L" horiz-adv-x="2330" 
d="M801 2009h502q-103 -133 -158 -270q-58 -137 -58 -266q0 -151 78 -261q76 -107 221 -163q280 400 562 598q278 196 573 196q153 0 242 -74q90 -78 90 -215q0 -136 -86 -260q-86 -126 -236 -221q-152 -96 -348 -151q-198 -56 -418 -56q-124 0 -254 19q-25 -34 -79 -113
q-54 -76 -113 -164q-107 -161 -176 -270q-67 -104 -160 -236q214 -11 377 -28q107 -11 430 -54q361 -55 448 -71l-288 -576q-287 117 -396 158q-153 60 -331 125q-156 56 -303 102q-64 21 -170 47q-202 -230 -388 -333q-186 -101 -387 -101q-144 0 -204 51q-62 53 -62 127
q0 102 62 185q64 85 151 149q94 69 178 107q124 59 306 86t380 30q104 151 213 330q35 59 140 226q62 104 86 141q21 32 51 82q28 42 33 49q-275 89 -430 278q-158 193 -158 449q0 177 80 348zM1733 991q134 0 260 27q124 27 231 74q109 50 164 102q59 59 59 117
q0 37 -37 61q-44 23 -98 23q-366 0 -708 -398q62 -6 129 -6zM-78 -287q0 -45 129 -45q139 0 279 41q129 38 262 125q-122 16 -217 16q-131 0 -228 -20q-101 -21 -163 -51t-62 -66z" />
    <glyph glyph-name="M" unicode="M" horiz-adv-x="3317" 
d="M-141 125q232 -64 397 -64q143 0 268 23q110 21 203 74q94 54 184 135q74 71 152 180q95 130 176 270q103 178 174 324q86 176 148 334q-12 1 -41.5 4t-46.5 4q-33 2 -113 2q-137 0 -291 -16q-121 -13 -258 -45q-104 -24 -186 -64q-70 -34 -70 -69q0 -39 82 -82
q78 -46 194 -70l-290 -526q-244 191 -244 368q0 41 12 90q13 49 53 119q49 85 121 182q88 119 230 228q136 106 311 190q180 86 358 133q190 47 367 47q167 0 258 -143q92 -145 119 -448q3 -41 6 -99q2 -39 2 -135q0 -244 -27 -481q346 459 627 749q283 292 504 420
q226 131 430 131q102 0 184 -26l-309 -594q-59 15 -117 24q-62 9 -121 9q-21 0 -94 -5q-162 -323 -227 -487q-70 -177 -70 -266q0 -113 117 -113q79 0 240 53l-252 -491q-76 -62 -180 -100q-101 -37 -193 -37q-78 0 -125 30t-47 82q0 84 63 258q56 162 177 430
q101 220 272 551q-143 -106 -258 -215q-119 -110 -244 -254q-136 -155 -256 -321q-181 -249 -291 -416h-243q15 179 24 330q6 153 6 301q0 180 -8 313q-10 169 -26 301q-61 -142 -142 -307q-73 -151 -157 -307q-89 -159 -156 -268q-86 -135 -135 -199q-249 -329 -568 -516
q-327 -190 -737 -236z" />
    <glyph glyph-name="N" unicode="N" horiz-adv-x="2650" 
d="M-244 125q232 -64 398 -64q139 0 264 23q114 22 205 72q95 54 186 137q72 65 156 184q88 123 178 277q118 208 174 323q83 168 141 322q-7 1 -37.5 4t-50.5 4q-70 4 -104 4q-141 0 -295 -16q-122 -13 -262 -45q-114 -26 -187 -62q-69 -34 -69 -71q0 -39 82 -82
q78 -46 194 -70l-291 -526q-243 191 -243 368q0 41 12 88q13 49 53 119q47 81 121 184q93 125 229 230q142 111 314 192q174 82 366 131q193 47 377 47q161 0 256 -83t139 -275q41 -193 41 -510q0 -57 -4 -229q-6 -127 -18 -307q180 534 360 856q182 329 393 495
q210 160 453 160q39 0 57 -2q36 -4 50 -6l-285 -559q-8 1 -21 4t-18 4q-14 2 -43 2q-180 0 -346 -172q-169 -172 -328 -526q-68 -153 -133 -322q-75 -186 -162 -428h-366q0 372 -27 694q-27 318 -80 547q-90 -202 -139 -299q-76 -156 -156 -303q-86 -159 -155 -270
q-78 -126 -138 -203q-501 -663 -1304 -752z" />
    <glyph glyph-name="O" unicode="O" horiz-adv-x="2080" 
d="M1919 1368q117 -54 180 -154q66 -104 66 -233q0 -125 -62 -258q-66 -136 -172 -256q-101 -115 -256 -231q-150 -110 -313 -191q-171 -83 -344 -129q-173 -45 -350 -45q-279 0 -428 125q-152 131 -152 358q0 148 57 297q58 161 162 305q109 152 256 281q170 147 385 266
q210 114 465 199q249 80 516 123q264 43 539 43q90 0 125 -2q54 -3 80 -6l-306 -584q-113 36 -219 59q-143 26 -229 33zM1569 1333q-169 0 -332 -39q-181 -43 -326 -106q-152 -66 -282 -154q-127 -86 -197 -180q-74 -95 -74 -186q0 -105 107 -160q102 -57 315 -57
q178 0 346 36q172 34 328 99q161 65 275 143q121 83 190 176q70 91 70 187q0 114 -107 178q-105 63 -313 63z" />
    <glyph glyph-name="P" unicode="P" horiz-adv-x="2488" 
d="M1049 -305h-400q128 185 152 223q55 86 153 248q29 49 91 150t88 145q34 58 108 184.5t111 190.5q154 264 282 487q-585 -67 -1145 -330l134 553q314 134 651 211q329 73 659 82l92 158h297l-153 -164q309 -24 483 -145q170 -120 170 -320q0 -192 -115 -375
q-110 -175 -321 -329q-198 -144 -483 -256q-273 -106 -605 -150zM2009 1343q-58 0 -168 -4l-285 -512q298 3 535 47q228 40 363 115q131 70 131 164q0 89 -150 141q-148 49 -426 49z" />
    <glyph glyph-name="Q" unicode="Q" horiz-adv-x="1931" 
d="M2212 -1358q-157 -37 -326 -37q-221 0 -444 66q-225 67 -414 184q-194 118 -360 277q-160 153 -285 348q-124 196 -186 395q-68 210 -68 418q0 205 61 397q57 189 168 369q109 177 252 323q144 147 318 256q170 108 358 170q192 60 375 60q269 0 405 -127
q134 -131 134 -373q0 -172 -62 -346q-67 -180 -174 -330q-115 -165 -254 -295q-134 -129 -311 -237q-165 -100 -344 -156q-171 -57 -346 -57q-145 0 -250 45q-113 50 -178 160q86 -243 241 -424q147 -175 357 -299q204 -121 434 -179q225 -57 471 -57q228 0 434 49
q212 53 381 146zM1935 944q52 85 52 162q0 109 -109 168t-309 59q-132 0 -273 -24q-144 -24 -276 -70q-144 -48 -256 -106q-118 -61 -209 -136q-92 -74 -147 -161q-54 -88 -54 -164q0 -107 109 -166q111 -60 311 -60q124 0 268 25q139 21 275 68q143 46 256 104
q127 65 213 137q96 78 149 164z" />
    <glyph glyph-name="R" unicode="R" horiz-adv-x="2750" 
d="M2177 -446q-167 0 -287 159q-121 161 -215 518q-32 126 -47 201q-30 131 -43 205q-26 146 -31 182l-505 -1124h-400q34 48 109 158q20 31 58 91t50 79q6 9 125 202q92 149 160 264q30 50 98 168.5t107 184.5q104 178 270 467q-156 -22 -389 -76q-180 -44 -395 -109
q-203 -65 -353 -131l134 553q320 136 643 207q339 75 667 84l92 160h297l-151 -162q330 -18 512 -135q180 -116 180 -316q0 -190 -123 -366q-124 -177 -352 -316q-231 -141 -549 -235q100 -158 246 -240q148 -86 325 -86q117 0 230 43l-316 -608q-58 -22 -147 -22zM2148 944
q231 35 355 92q123 58 123 140q0 80 -154 124q-154 43 -444 43q-74 0 -191 -10l-240 -426q324 3 551 37z" />
    <glyph glyph-name="S" unicode="S" horiz-adv-x="2215" 
d="M2568 1253q-357 127 -540 127q-256 0 -256 -239q0 -53 12 -117q9 -48 35 -143l65 -217q48 -160 62 -213q23 -86 36 -154q15 -82 19 -125q4 -78 4 -123q0 -206 -94 -375q-91 -164 -273 -288q-180 -121 -424 -185q-243 -63 -552 -63q-229 0 -414 37q-199 43 -326 108
q-137 70 -213 164q-74 95 -74 211q0 121 82 225q79 104 234 189q152 82 356 131q208 50 449 59l-187 -350q-113 21 -186 27q-113 10 -199 10q-92 0 -157 -10q-60 -9 -60 -29q0 -23 56 -47q60 -28 145 -47q113 -27 203 -41q133 -21 233 -31q133 -10 234 -10q347 0 555 51
q214 53 315 160q100 109 100 282q0 55 -8 107q-4 24 -33 139q-18 61 -65 199l-51 153q-54 160 -72 248q-25 106 -25 158q0 194 109 336q108 142 305 217q198 76 473 76q85 0 207 -7q137 -12 211 -22z" />
    <glyph glyph-name="T" unicode="T" horiz-adv-x="2514" 
d="M1976 -389q-103 -103 -231 -182q-137 -79 -266 -121q-133 -43 -256 -43q-150 0 -228 84q-80 86 -80 245q0 152 78 381q76 225 226 506q111 213 227 414q112 199 274 467q-247 0 -479 -16q-212 -15 -379 -43q-162 -27 -250 -64q-90 -38 -90 -80q0 -39 80 -80t195 -65
l-287 -522q-240 194 -240 364q0 40 15 90q17 53 55 119q46 80 119 182q83 119 198 219q111 94 252 160t342 113q178 42 463 71q282 26 617 37q433 11 807 11l-259 -506l-960 10q-143 -220 -262 -442q-140 -257 -232 -463q-102 -234 -102 -351q0 -96 57 -135q56 -41 185 -41
q104 0 229 45q129 47 264 123q130 75 246 176z" />
    <glyph glyph-name="U" unicode="U" horiz-adv-x="2803" 
d="M2443 641q-12 -33 -20 -72q-8 -27 -8 -51q0 -82 100 -82q35 0 98 13q57 9 140 36l-250 -491q-112 -68 -197 -98q-95 -29 -178 -29q-78 0 -125 24q-47 27 -47 72q0 48 37 129l258 576q-157 -276 -332 -471q-172 -195 -358 -306q-180 -104 -357 -104q-137 0 -217 80
q-80 83 -80 219q0 89 37 201q32 104 115 268q86 166 211 363q160 254 315 483q-15 1 -45.5 4t-46.5 4q-33 2 -102 2q-140 0 -297 -16q-132 -16 -269 -47q-120 -26 -196 -62q-74 -35 -74 -69q0 -39 82 -82q78 -46 194 -70l-290 -526q-244 191 -244 368q0 44 14 90
q11 47 54 121q52 90 118 180q94 128 254 246q159 117 363 203q198 84 424 119q122 18 170 22q68 6 116 6q92 0 132 -18q38 -20 38 -66q0 -32 -20 -73q-24 -53 -72 -123q-158 -236 -268 -432q-106 -188 -150 -314q-47 -133 -47 -229q0 -100 54 -154q52 -55 151 -55
q124 0 264 88q145 91 291 250q154 171 285 385l409 913h357q-597 -923 -791 -1425z" />
    <glyph glyph-name="V" unicode="V" horiz-adv-x="2555" 
d="M522 494q-243 190 -243 368q0 44 14 90q12 50 53 121q48 84 119 180q93 128 237 236q140 105 330 190q184 81 389 127q199 45 418 45q103 0 103 -69q0 -3 -1 -7.5t-2 -11t-2 -12.5q-2 -13 -22 -72q-49 -142 -141 -346q-101 -216 -213 -432q-111 -214 -256 -465
q27 -6 88 -10q62 -4 96 -4q225 0 426 53q189 50 348 150q150 94 234 223q83 127 83 268q0 151 -59 316q-57 154 -192 337h432q53 -174 53 -331q0 -199 -70 -391q-75 -205 -194 -371q-126 -176 -297 -324q-176 -150 -375 -256q-202 -111 -426 -172q-227 -59 -455 -59
q-99 0 -137 12q-39 12 -39 45q0 23 19 66q25 56 75 137q155 262 238 410q86 152 168 313q56 115 119 262q29 65 96 248q-36 4 -63 4h-97q-149 0 -309 -16q-138 -14 -268 -43q-127 -28 -191 -60q-71 -35 -71 -72q0 -38 81 -81q77 -45 195 -70z" />
    <glyph glyph-name="W" unicode="W" horiz-adv-x="3510" 
d="M524 494q-243 190 -243 368q0 52 18 105q12 41 57 120q43 75 111 166q94 131 244 242q151 111 333 188q180 77 390 125q200 43 407 43q103 0 103 -69q0 -26 -27 -103q-37 -102 -102 -252q-39 -88 -152 -323q-59 -125 -176 -346q-90 -172 -180 -322q77 -14 161 -14
q232 0 418 57q192 56 330 158q141 104 217 244q76 137 76 305q0 261 -160 583h305q168 0 168 -188q0 -141 -65 -330q-64 -188 -185 -399q-125 -217 -278 -412q28 -6 86 -10q62 -4 104 -4q294 0 520 86q219 80 349 238q122 149 122 354q0 147 -73 321q-77 177 -213 344h432
q78 -251 78 -444q0 -182 -64 -356q-63 -174 -180 -342q-118 -165 -272 -301q-160 -141 -342 -242q-178 -101 -385 -162q-197 -57 -410 -57q-86 0 -121 14q-39 14 -39 53q0 23 23 74q25 52 71 119q50 71 105 160q-247 -203 -524 -312q-285 -108 -564 -108q-97 0 -135 12
q-39 12 -39 45q0 23 19 66q22 50 76 137q138 230 227 393q102 183 166 311q54 105 125 267q49 119 102 262q-15 1 -33.5 1.5t-30.5 1t-20 1.5h-41h-35q-149 0 -309 -16q-138 -14 -268 -43q-127 -28 -191 -60q-71 -35 -71 -72q0 -38 82 -81q78 -46 194 -70z" />
    <glyph glyph-name="X" unicode="X" horiz-adv-x="3026" 
d="M2134 707q-48 -49 -144.5 -147.5t-144.5 -147.5q-137 -143 -299 -273q-148 -119 -323 -198q-171 -74 -363 -74h-112l360 575q54 -15 104 -24q58 -10 103 -10q146 0 280 61q136 59 265 164q139 110 256 227l-60 467q-111 8 -164 10q-110 4 -161 4q-242 0 -467 -18
q-225 -21 -398 -55q-169 -33 -274 -78q-103 -47 -103 -92q0 -39 82 -82q77 -45 195 -70l-291 -526q-244 191 -244 368q0 37 13 91q12 48 53 120q52 91 121 181q132 175 319 307q189 133 408 221q231 93 454 137q224 45 453 45q96 0 129 -39t39 -159q3 -64 8 -161t6 -126
q1 -23 5.5 -99.5t5.5 -111.5q2 -59 10 -193q144 147 291 297q138 141 303 271q154 118 329 196q174 74 365 74h113l-299 -573q-85 21 -119 26q-52 8 -115 8q-164 0 -307 -61q-151 -63 -283 -166q-130 -101 -266 -231q53 -443 447 -443q52 0 104 9q61 7 117 20l-266 -516
q-99 -45 -201 -45q-162 0 -223 131q-56 123 -111 709z" />
    <glyph glyph-name="Y" unicode="Y" horiz-adv-x="2504" 
d="M2210 141q-136 -293 -281 -489q-153 -204 -332 -328q-187 -130 -403 -186q-223 -58 -504 -58q-187 0 -395 33q-224 36 -447 92l316 615q132 -46 325 -94q175 -43 342 -70q177 -25 297 -25q144 0 273 29q120 27 223 92q108 68 197 170q94 107 192 262q34 52 62 103
q37 68 63 121q31 62 86 186q57 125 135 301q-227 -358 -450 -535q-232 -182 -453 -182q-139 0 -221 82q-82 79 -82 217q0 99 45 221q42 122 139 299q77 141 248 404q-10 1 -38.5 4t-45.5 4q-31 2 -110 2q-140 0 -297 -16q-133 -16 -271 -47q-122 -27 -194 -62
q-74 -35 -74 -69q0 -39 82 -82q78 -46 194 -70l-290 -526q-244 191 -244 368q0 75 43 162q39 82 143 229q67 96 187 193q116 93 254 168q129 72 293 131q164 56 307 76q26 4 166 22q71 6 122 6q86 0 127 -18q39 -20 39 -64q0 -61 -90 -198q-190 -284 -280 -469
q-88 -180 -88 -285q0 -87 57 -135q55 -49 152 -49q190 0 413 186q226 192 434 527l301 677h357q-205 -295 -465 -780q-241 -449 -559 -1145z" />
    <glyph glyph-name="Z" unicode="Z" horiz-adv-x="1597" 
d="M289 215q111 -129 254 -223q147 -93 305 -144q162 -49 328 -49q196 0 358 70l-291 -565q-193 -99 -389 -99q-289 0 -573 211q-281 209 -551 627l1786 1288h-969l260 508h1460l-158 -307z" />
    <glyph glyph-name="bracketleft" unicode="[" horiz-adv-x="886" 
d="M850 1536h549l-187 -369h-403l-610 -1200h432l-187 -370h-581z" />
    <glyph glyph-name="backslash" unicode="\" horiz-adv-x="747" 
d="M76 872q-165 285 -379 560h352q82 -275 184 -545q91 -247 199 -465q104 -215 232 -418q127 -205 278 -407h-350q-108 391 -225 682q-123 304 -291 593z" />
    <glyph glyph-name="bracketright" unicode="]" horiz-adv-x="886" 
d="M143 -403h-549l187 368h403l611 1200h-433l187 371h581z" />
    <glyph glyph-name="asciicircum" unicode="^" 
d="M803 915h201l-89 -747h-280l184 553l-452 -553h-320z" />
    <glyph glyph-name="underscore" unicode="_" horiz-adv-x="1024" 
d="M-164 -61h1022l-172 -342h-1028z" />
    <glyph glyph-name="grave" unicode="`" horiz-adv-x="430" 
d="M291 1481h311l111 -430h-103z" />
    <glyph glyph-name="a" unicode="a" horiz-adv-x="1060" 
d="M817 55q-45 -37 -119 -65q-73 -25 -133 -25q-57 0 -57 39t55 137l152 262q-94 -131 -203 -231q-111 -101 -209 -152q-104 -55 -192 -55q-69 0 -109 37q-43 37 -43 123q0 98 51 197q44 91 140 198q101 108 206 180q135 93 256 144q143 61 283 84l23 65h194
q-67 -107 -108 -186q-19 -35 -51 -93.5t-38 -68.5q-69 -132 -69 -194q0 -56 51 -56q36 0 109 31zM207 391q0 -69 106 -69q87 0 172 36q89 36 164 99q77 65 135 147q-64 12 -131 12q-117 0 -219 -30q-109 -37 -164 -84q-63 -51 -63 -111z" />
    <glyph glyph-name="b" unicode="b" horiz-adv-x="1058" 
d="M262 461q105 137 225 250q113 104 228 163q110 58 211 58q172 0 172 -176q0 -101 -54 -215q-51 -109 -145 -213q-92 -102 -209 -185q-120 -83 -246 -129q-125 -49 -249 -49q-203 0 -203 150q0 87 67 221l244 493q26 53 39 89q14 38 14 67q0 53 -65 53q-47 0 -127 -24
l137 274q186 131 346 131q76 0 76 -47q0 -11 -10 -41q-4 -8 -11.5 -22.5t-22 -42t-26.5 -49.5zM725 377q75 27 123 65q45 36 45 76q0 57 -115 57q-89 0 -194 -30q-108 -34 -205 -86q-98 -52 -172 -123q74 -23 162 -23q86 0 186 19q79 13 170 45z" />
    <glyph glyph-name="c" unicode="c" horiz-adv-x="868" 
d="M614 80q-84 -59 -174 -86q-101 -29 -188 -29q-126 0 -199 58q-73 55 -73 180q0 107 51 209t141 198q87 90 211 166q126 74 256 115q140 41 283 41q52 0 104 -6l-184 -361q-95 15 -109 17q-74 4 -100 4q-111 0 -227 -29q-108 -27 -173 -74t-65 -96q0 -38 41 -53
q43 -19 117 -19q76 0 166 19q64 11 167 45q78 27 140 63z" />
    <glyph glyph-name="d" unicode="d" horiz-adv-x="1126" 
d="M977 647q-54 -107 -66 -137q-18 -47 -18 -72q0 -39 49 -39q34 0 129 27l-176 -350q-82 -52 -164 -82q-89 -29 -137 -29q-84 0 -84 45q0 24 12 51q1 2 41 80l152 262q-94 -131 -203 -231q-111 -101 -209 -152q-104 -55 -192 -55q-69 0 -109 37q-43 37 -43 125q0 98 55 205
t154 209q97 100 227 186q127 81 277 141q145 55 303 70q12 30 12 51q0 49 -69 49q-50 0 -136 -24l138 274q186 131 346 131q75 0 75 -47q0 -11 -10 -41q-5 -11 -59 -114zM207 391q0 -69 106 -69q91 0 179 36q94 39 174 101q81 63 139 145q-65 12 -135 12q-120 0 -228 -30
q-110 -35 -170 -84q-65 -53 -65 -111z" />
    <glyph glyph-name="e" unicode="e" horiz-adv-x="948" 
d="M698 86q-195 -121 -419 -121q-302 0 -302 230q0 98 52 202q51 108 135 201q81 93 190 170q103 73 221 121q113 43 222 43q198 0 198 -166q0 -115 -92 -207q-93 -93 -254 -145q-168 -54 -373 -54q-16 0 -118 5q6 -78 192 -78q152 0 285 39q142 39 227 86zM283 532
q-68 -45 -103 -98q148 3 271 25q119 21 182 55q65 35 65 76q0 47 -92 47q-76 0 -168 -29q-85 -30 -155 -76z" />
    <glyph glyph-name="f" unicode="f" horiz-adv-x="573" 
d="M1020 1419q47 0 74 -2q73 -6 94 -8l-213 -377q-186 86 -289 86q-181 0 -227 -227h272l-174 -342h-174q-57 -224 -94 -338q-48 -148 -94 -246q-49 -101 -107 -174q-63 -76 -127 -129q-74 -56 -172 -111q-95 -50 -190 -77l26 403q189 0 285 41q73 29 137 105q59 74 111 202
q49 124 96 324h-191l173 342h90q123 528 694 528z" />
    <glyph glyph-name="g" unicode="g" horiz-adv-x="917" 
d="M-360 -395l167 329q108 -44 195 -67q84 -19 156 -19q84 0 155 27q67 26 140 105q68 73 145 219l84 155q-141 -182 -293 -291q-153 -108 -276 -108q-69 0 -111 31q-43 34 -43 118q0 96 51 195q49 100 137 199q99 106 207 180q126 89 254 143q136 59 281 86l22 66h189
q-13 -21 -26 -43.5t-27.5 -47.5t-22.5 -38q-28 -47 -61 -119q-29 -60 -64 -137q-38 -85 -78 -178l-102 -238q-83 -192 -168 -311q-88 -123 -180 -189q-97 -66 -195 -92t-209 -26q-83 0 -160 12q-81 13 -167 39zM653 596q-114 0 -219 -31q-109 -37 -164 -84q-63 -51 -63 -110
q0 -70 106 -70q85 0 172 37q92 37 164 98q80 67 137 148q-65 12 -133 12z" />
    <glyph glyph-name="h" unicode="h" horiz-adv-x="980" 
d="M262 457q102 149 201 248q103 103 209 167q105 60 186 60q69 0 109 -43q39 -45 39 -123q0 -91 -37 -195q-35 -99 -103 -206q-63 -103 -149 -195q-80 -89 -178 -162q-87 -65 -189 -102l82 375q111 15 203 49q90 33 133 76q49 55 49 102q0 67 -102 67q-88 0 -176 -32
q-102 -37 -183 -88q-93 -62 -159 -133l-138 -322h-194q30 46 106 176q39 61 88 160l244 493q53 106 53 156q0 53 -65 53q-47 0 -127 -24l137 274q186 131 346 131q76 0 76 -47q0 -16 -12 -43q-5 -9 -24 -46.5t-34 -65.5z" />
    <glyph glyph-name="i" unicode="i" horiz-adv-x="608" 
d="M90 -35q-65 0 -65 41q0 17 12 41q16 31 57 94q90 146 131 230q39 79 39 125q0 55 -69 55q-27 0 -64 -6q-15 -4 -41 -11t-31 -8l140 275q27 31 86 63q66 32 118 49q65 19 109 19q70 0 70 -37q0 -11 -11 -37q-1 -1 -17.5 -31.5t-31.5 -56.5q-63 -104 -114 -215
q-41 -90 -41 -127q0 -35 41 -35q40 0 143 33l-176 -350q-76 -52 -152 -82q-82 -29 -133 -29zM489 993q-92 0 -92 86q0 62 43 123q45 61 109 101t133 40q94 0 94 -83q0 -60 -43 -121q-43 -65 -108 -105q-65 -41 -136 -41z" />
    <glyph glyph-name="j" unicode="j" horiz-adv-x="454" 
d="M-440 -526l26 383q135 12 228 37q96 29 151 71q61 47 111 123q20 27 37 66q10 22 49 98q28 61 43 100q29 73 37 99q8 24 8 45q0 55 -68 55q-13 0 -49 -4q-33 -7 -78 -21l140 275q27 30 84 61t116 51q65 19 105 19q67 0 67 -41q0 -13 -10 -43q-9 -28 -51 -119l-326 -719
q-66 -144 -151 -252q-79 -98 -199 -172q-107 -63 -270 -112zM621 1034q-65 -41 -136 -41q-92 0 -92 86q0 62 43 123q45 61 109 101t133 40q94 0 94 -83q0 -60 -43 -121q-43 -65 -108 -105z" />
    <glyph glyph-name="k" unicode="k" horiz-adv-x="976" 
d="M254 442q119 159 219 256q114 111 221 172q109 62 199 62q67 0 108 -35q41 -38 41 -102q0 -41 -14 -84q-15 -46 -51 -95q-52 -70 -146 -127q-96 -56 -213 -90q-124 -36 -247 -47q86 -51 225 -51q85 0 168 25q79 21 137 61l-178 -350q-62 -42 -121 -57q-58 -15 -106 -15
q-132 0 -209 86q-78 87 -105 240l-123 -291h-194q13 22 54 93.5t61 107.5q18 32 52 94.5t52 93.5q46 88 102 203q18 37 57 115.5t60 121.5q51 102 51 156q0 53 -63 53q-41 0 -127 -24l137 274q186 131 346 131q76 0 76 -47q0 -11 -10 -41q-4 -8 -11.5 -22.5t-22 -42
t-26.5 -49.5zM750 582q0 36 -66 36q-56 0 -121 -26q-57 -22 -139 -76q-68 -45 -123 -106q51 8 127 24q62 13 135 37q34 10 103 35q84 35 84 76z" />
    <glyph glyph-name="l" unicode="l" horiz-adv-x="509" 
d="M276 76q-83 -53 -163 -82q-89 -29 -138 -29q-79 0 -79 45q0 38 51 137q35 68 55 103q26 50 53 100q22 41 58 105.5t49 89.5q25 46 67 127q8 17 24 49.5t23 48.5q47 101 62 141q16 50 16 74q0 51 -67 51q-13 0 -49 -4q-31 -7 -74 -18l137 274q186 131 346 131q76 0 76 -47
q0 -17 -14 -45q-10 -24 -56 -110q-148 -282 -178 -338q-71 -136 -102 -199q-10 -19 -29.5 -55.5t-26.5 -49.5q-51 -102 -51 -145q0 -37 45 -37q42 0 142 33z" />
    <glyph glyph-name="m" unicode="m" horiz-adv-x="1665" 
d="M397 465q143 237 279 354q131 113 260 113q123 0 123 -107q0 -38 -17 -84q-6 -18 -41 -94l-90 -186q150 243 283 358q131 113 260 113q59 0 96 -29q35 -27 35 -80q0 -67 -65 -176q-99 -167 -99 -217q0 -37 45 -37q42 0 142 33l-176 -350q-76 -52 -152 -82
q-82 -29 -135 -29q-66 0 -66 41q0 18 15 45q13 30 51 90q88 144 131 232q39 79 39 125q0 53 -70 53q-76 0 -182 -62q-114 -65 -203 -161l-119 -328h-204l90 141q97 158 131 232q39 82 39 125q0 53 -70 53q-79 0 -186 -64q-111 -66 -205 -163l-137 -324h-195q141 226 193 330
q57 114 57 168q0 53 -66 53q-43 0 -129 -25l140 275q27 30 84 61t116 51q65 19 105 19q67 0 67 -39q0 -10 -2 -16q-9 -27 -10 -29z" />
    <glyph glyph-name="n" unicode="n" horiz-adv-x="1146" 
d="M397 465q143 237 279 354q131 113 260 113q59 0 96 -29q35 -27 35 -80q0 -65 -66 -176q-98 -165 -98 -217q0 -37 45 -37q42 0 142 33l-177 -350q-77 -53 -151 -82q-82 -29 -135 -29q-66 0 -66 41q0 20 14 45q11 25 52 90q88 144 131 232q39 79 39 125q0 53 -70 53
q-79 0 -186 -64q-111 -66 -205 -163l-137 -324h-195q141 226 193 330q57 114 57 168q0 53 -66 53q-43 0 -129 -25l140 275q27 30 84 61t116 51q65 19 105 19q67 0 67 -39q0 -10 -2 -16q-9 -27 -10 -29z" />
    <glyph glyph-name="o" unicode="o" horiz-adv-x="1024" 
d="M-8 201q0 105 45 207q46 104 125 198q74 92 180 168q105 76 213 117q112 41 221 41q258 0 258 -236q0 -105 -45 -207t-123 -198q-82 -97 -180 -168q-105 -76 -213 -115q-113 -43 -223 -43q-258 0 -258 236zM324 313q90 0 194 19q91 17 178 49q78 30 129 68q49 34 49 69
q0 66 -174 66q-90 0 -190 -19q-93 -17 -178 -49q-79 -29 -131 -65q-49 -37 -49 -72q0 -66 172 -66z" />
    <glyph glyph-name="p" unicode="p" horiz-adv-x="1003" 
d="M315 -117l-110 -241q-53 -27 -94 -43q-61 -22 -115 -33q-58 -12 -102 -12q-97 0 -97 53q0 12 2 18q5 18 11 29q78 171 122 262q26 53 148 295q27 52 90 175t100 194q-102 -24 -209 -70l80 330q141 57 310 82q9 17 29 53.5t30 56.5q8 16 18 35.5t22 43t19 36.5h219
q-21 -27 -53.5 -70t-40.5 -53q-25 -32 -65 -88h20q395 0 395 -231q0 -73 -34 -148q-37 -82 -92 -151q-59 -75 -134 -134q-120 -93 -284 -163q-181 -76 -383 -115q-15 -38 -15 -57q0 -70 93 -70q15 0 55 4q28 3 65 12zM418 610q-39 -67 -56 -104q-21 -43 -73 -156
q180 3 307 29q134 27 203 70q71 44 71 92q0 46 -59 67q-64 23 -168 23q-105 0 -225 -21z" />
    <glyph glyph-name="q" unicode="q" horiz-adv-x="937" 
d="M831 -117l-110 -241q-49 -25 -98 -43q-56 -20 -119 -33q-58 -12 -105 -12q-45 0 -69 12q-27 12 -27 39q0 22 12 49q60 122 88 174q27 54 115 223q140 261 166 309q-137 -173 -297 -288q-149 -107 -274 -107q-71 0 -111 37q-43 37 -43 123q0 96 51 192q47 93 140 193
q90 97 206 176q123 83 254 139q137 58 281 82l20 66h191q-18 -31 -45 -82t-37 -70q-4 -8 -28.5 -52.5t-35.5 -66.5q-55 -114 -59 -122q-58 -131 -76 -170l-104 -238q-41 -91 -53 -127q-21 -53 -23 -70q-6 -21 -6 -34q0 -33 18 -54q17 -20 66 -20q13 0 49 4q24 3 63 12z
M313 311q121 0 256 78q129 76 217 205q-65 12 -133 12q-114 0 -219 -31q-111 -37 -164 -83q-63 -51 -63 -111q0 -70 106 -70z" />
    <glyph glyph-name="r" unicode="r" horiz-adv-x="800" 
d="M741 502q-32 4 -61 4q-94 0 -178 -41q-83 -44 -166 -133l-141 -332h-195q141 220 193 326q57 117 57 172q0 53 -66 53q-43 0 -129 -25l140 275q24 30 84 63q66 32 118 49q65 19 107 19q63 0 63 -39q0 -18 -12 -45l-162 -379q143 241 281 358q139 118 301 136z" />
    <glyph glyph-name="s" unicode="s" horiz-adv-x="761" 
d="M8 381q68 -46 142 -72q76 -30 145 -30q102 0 102 55q0 19 -16 45q-14 20 -76 88q-41 47 -63 92q-23 48 -23 92q0 125 141 201q141 78 381 78q57 0 109 -6q20 -2 46 -6t30 -5l-185 -364q-100 38 -157 51q-72 16 -111 16q-86 0 -86 -57q0 -26 21 -53q60 -77 71 -90
q49 -55 72 -99q18 -40 18 -88q0 -78 -39 -129q-41 -53 -102 -80q-68 -32 -135 -43q-70 -12 -137 -12q-82 0 -170 12q-94 13 -156 33z" />
    <glyph glyph-name="t" unicode="t" horiz-adv-x="786" 
d="M492 59q-41 -33 -140 -67q-88 -27 -172 -27q-188 0 -188 150q0 57 41 157q47 110 141 277h-102l178 342h106l131 256h215l-182 -256h406l-172 -342h-451q-33 -68 -45 -100q-14 -38 -14 -68q0 -68 110 -68q62 0 148 27q96 30 170 72z" />
    <glyph glyph-name="u" unicode="u" horiz-adv-x="1148" 
d="M915 76q-76 -52 -149 -82q-82 -29 -131 -29q-78 0 -78 45q0 16 10 39q2 5 9.5 23.5t13.5 31.5l168 338q-152 -244 -289 -360q-138 -117 -266 -117q-131 0 -131 109q0 67 65 176q81 126 103 170q24 50 24 74q0 57 -80 57q-48 0 -125 -25l140 275q41 38 94 65q72 33 119 47
q65 19 108 19q34 0 55 -6q19 -10 19 -31q0 -19 -12 -43q-10 -21 -60 -96q-14 -21 -39 -63t-37 -60q-35 -56 -67 -125q-27 -62 -27 -109q0 -53 68 -53q77 0 180 62t201 163l139 326h195q-138 -225 -144 -235q-58 -101 -76 -146q-22 -55 -22 -82q0 -41 49 -41q50 0 150 33z
" />
    <glyph glyph-name="v" unicode="v" horiz-adv-x="1101" 
d="M197 817q61 48 163 82q100 33 228 33q137 0 137 -58q0 -13 -10 -36q-27 -48 -51 -82q-27 -40 -74 -117q-38 -61 -66 -121q-26 -56 -26 -104q0 -40 28 -56q27 -18 97 -18q102 0 186 35q85 35 131 90q47 59 47 131q0 73 -43 166q-44 93 -115 170h238q55 -110 55 -227
q0 -109 -43 -216t-114 -202q-75 -97 -168 -166q-98 -76 -199 -115q-106 -41 -207 -41q-100 0 -143 43q-45 42 -45 119q0 103 71 227q71 123 201 224q-52 0 -153 -11q-79 -9 -158 -28q-62 -15 -123 -41z" />
    <glyph glyph-name="w" unicode="w" horiz-adv-x="1497" 
d="M197 817q59 47 143 82q79 33 192 33q71 0 101 -12q31 -16 31 -43q0 -11 -11 -37q-8 -23 -51 -84q-166 -242 -166 -344q0 -72 123 -72q86 0 160 45q81 49 119 115q34 58 34 149q0 79 -20 152q-20 74 -59 131h245q101 0 101 -55q0 -25 -21 -72q-7 -17 -33 -66
q-7 -13 -24.5 -42t-22.5 -38q-38 -65 -43 -77q-21 -41 -34 -70q-27 -58 -27 -100q0 -40 29 -56t98 -16q87 0 162 35q70 34 116 92q43 58 43 125q0 77 -43 170q-45 96 -114 170h237q56 -112 56 -227q0 -129 -54 -265q-50 -126 -141 -237q-89 -109 -195 -172
q-106 -66 -217 -66q-151 0 -151 205q0 35 2 51q-85 -110 -199 -184q-109 -72 -201 -72q-86 0 -131 45q-47 44 -47 125q0 95 62 213q58 116 166 230q-45 0 -131 -11q-66 -8 -136 -28q-54 -15 -104 -41z" />
    <glyph glyph-name="x" unicode="x" horiz-adv-x="1038" 
d="M729 20q-30 -13 -49 -16q-32 -4 -43 -4q-59 0 -90 31q-30 27 -45 80q-15 54 -21 114q-14 93 -20 129q-124 -127 -238 -219q-94 -76 -176 -104q-82 -31 -168 -31q-14 0 -24 2q-4 1 -12 2t-11 2l176 346q27 -9 55 -12q32 -4 56 -4q160 0 315 119q-23 55 -72 92
q-47 33 -141 33q-47 0 -106 -15l174 342q30 15 57 21q32 4 45 4q60 0 88 -31q29 -32 43 -82q13 -57 21 -114q7 -70 18 -132q59 57 176 166q85 79 185 138q94 55 206 55q34 0 68 -6l-176 -346q-28 9 -53 12q-36 4 -62 4q-83 0 -162 -31q-88 -38 -153 -90q25 -60 74 -90
q47 -33 135 -33q21 0 49 4q7 1 57 13z" />
    <glyph glyph-name="y" unicode="y" horiz-adv-x="880" 
d="M160 -268q-278 -169 -590 -178l184 360q143 -47 252 -47q157 0 252 86q94 88 94 233q0 125 -71 252q-71 122 -201 213l330 291q129 -228 129 -461q0 -215 -105 -393q141 157 232 375q89 222 116 469h250q-144 -422 -368 -725q-222 -304 -504 -475z" />
    <glyph glyph-name="z" unicode="z" horiz-adv-x="897" 
d="M541 569h-435l168 322h744l-92 -180l-604 -420q191 6 321 43q128 34 205 78l-180 -353q-70 -52 -183 -73q-114 -21 -235 -21q-131 0 -227 8q-86 7 -183 27l31 61z" />
    <glyph glyph-name="braceleft" unicode="{" horiz-adv-x="927" 
d="M1243 1141q-36 15 -94 24q-61 9 -123 9q-123 0 -205 -54q-77 -54 -149 -188l-31 -60q-50 -104 -96 -165q-47 -63 -86 -82q-48 -25 -105 -25q62 -44 62 -111q0 -59 -47 -151l-29 -57q-41 -90 -41 -142q0 -151 272 -151h52q6 1 17.5 2t16.5 2l-190 -375q-10 -2 -31 -2h-45
q-175 0 -258 47q-84 50 -84 150q0 103 86 270q52 99 72 158q20 56 20 98q0 54 -37 84q-43 31 -120 45l172 342q8 -2 28 -2q10 -2 37 -2q103 0 176 55q76 58 140 182q79 155 141 250q67 103 125 150q66 56 135 76q70 20 172 20q54 0 119 -6q48 -4 119 -16z" />
    <glyph glyph-name="bar" unicode="|" horiz-adv-x="362" 
d="M-117 -403h-278q125 174 256 395q119 201 254 461q126 249 231 491q113 260 195 488h276q-117 -165 -246 -388q-136 -235 -249 -458q-116 -225 -236 -496q-121 -271 -203 -493z" />
    <glyph glyph-name="braceright" unicode="}" horiz-adv-x="927" 
d="M-209 -8q38 -16 94 -25q55 -8 123 -8q128 0 207 55q74 51 147 187l31 59q58 113 99 168q41 59 86 82q49 22 102 22q-62 44 -62 111q0 58 48 152l28 57q41 90 41 141q0 152 -272 152h-49q-6 -1 -19 -2t-18 -2l190 375q10 2 33 2h43q175 0 260 -48q82 -49 82 -149
q0 -103 -86 -270q-47 -89 -70 -154q-22 -64 -22 -102q0 -52 37 -82q40 -32 121 -47l-172 -342q-4 1 -13 2t-14 2h-39q-102 0 -176 -56q-75 -56 -139 -182q-82 -162 -140 -250q-69 -101 -125 -149q-70 -57 -137 -76q-74 -21 -172 -21q-44 0 -119 7q-45 4 -118 16z" />
    <glyph glyph-name="asciitilde" unicode="~" 
d="M238 514q42 79 88 109q48 28 131 28q63 0 137 -18q120 -31 147 -37q77 -21 148 -21q118 0 239 68l-131 -246q-40 -75 -88 -106t-131 -31q-64 0 -135 21q-98 24 -149 36q-81 19 -148 19q-113 0 -240 -68z" />
    <glyph glyph-name="uni00A0" unicode="&#xa0;" horiz-adv-x="368" 
 />
    <glyph glyph-name="exclamdown" unicode="&#xa1;" horiz-adv-x="409" 
d="M-102 -522h-336q148 220 274 436q141 244 291 543h152q-60 -137 -168 -396q-50 -119 -121 -311q-44 -116 -92 -272zM252 582q-94 0 -94 84q0 61 43 122q45 64 110 103q65 41 133 41q93 0 93 -86q0 -60 -43 -121q-44 -63 -107 -102q-65 -41 -135 -41z" />
    <glyph glyph-name="cent" unicode="&#xa2;" 
d="M1049 1432h202l-309 -514q77 14 162 14q52 0 104 -6l-184 -361q-89 15 -104 17q-74 4 -105 4q-107 0 -223 -29q-105 -26 -174 -74q-68 -47 -68 -96q0 -72 158 -72q63 0 160 17q69 12 168 45q76 25 145 65l-184 -362q-171 -115 -363 -115l-176 -368h-203l236 393
q-129 53 -129 213q0 106 49 207q45 99 133 190q93 97 199 162q115 73 239 115z" />
    <glyph glyph-name="sterling" unicode="&#xa3;" 
d="M260 707h121q115 189 258 274q147 84 354 84q59 0 131 -10q46 -9 170 -43l-170 -334q-219 145 -372 145q-139 0 -240 -116h424l-172 -342h-459l-39 -76h797l-158 -289h-977q70 70 152 180q62 83 119 185h-117z" />
    <glyph glyph-name="currency" unicode="&#xa4;" 
d="M750 -4l-93 223q-73 -34 -122 -45q-69 -16 -125 -16q-45 0 -76 8l-195 -170l-147 211l215 129q9 92 59 176q52 90 129 158l-133 174l242 129l69 -185q64 30 119 43q59 15 119 15q57 0 100 -15l164 140l154 -178l-213 -125q-6 -91 -55 -172q-54 -88 -130 -158l158 -201z
M756 475q43 55 43 113q0 74 -97 74q-69 0 -133 -37q-66 -39 -106 -93q-43 -58 -43 -116q0 -74 98 -74q69 0 131 39q65 38 107 94z" />
    <glyph glyph-name="yen" unicode="&#xa5;" 
d="M684 639l412 389h424l-500 -334h135l-129 -252h-391l-21 -53h385l-129 -252h-360l-55 -137h-199l86 137h-332l129 252h363l33 53h-369l129 252h149l-204 334h389z" />
    <glyph glyph-name="brokenbar" unicode="&#xa6;" horiz-adv-x="362" 
d="M-117 -403h-278q115 157 229 348q110 182 223 397h144q-89 -184 -168 -375q-75 -177 -150 -370zM233 696q125 275 164 367q96 231 144 369h276q-203 -290 -438 -736h-146z" />
    <glyph glyph-name="section" unicode="&#xa7;" horiz-adv-x="1181" 
d="M-365 -383l213 422q256 -92 396 -92q89 0 139 47q47 47 47 133q0 57 -29 152l-18 55q-25 75 -47 168q-14 60 -14 127q0 317 354 399q21 189 196 297q174 107 461 107q15 0 142 -5q51 -4 153 -16l-213 -422q-256 92 -395 92q-90 0 -137 -47q-49 -46 -49 -133
q0 -59 28 -151l19 -56q32 -94 49 -168q12 -64 12 -127q0 -317 -354 -399q-21 -189 -197 -297q-172 -106 -461 -106q-64 0 -141 6q-105 8 -154 14zM788 479q0 39 -8 80q-12 58 -28 105l-13 38h-41q-118 0 -170 -34q-53 -38 -53 -119q0 -39 8 -78q9 -49 29 -106l12 -39h41
q122 0 172 36q51 34 51 117z" />
    <glyph glyph-name="dieresis" unicode="&#xa8;" horiz-adv-x="430" 
d="M326 1047q-62 -41 -127 -41q-43 0 -66 20q-24 18 -24 61q0 56 41 115q40 55 102 94q59 39 125 39q41 0 65 -18q25 -22 25 -62q0 -56 -39 -112q-37 -53 -102 -96zM621 1296q59 39 124 39q42 0 66 -18q25 -22 25 -62q0 -56 -39 -112q-36 -52 -103 -96q-62 -41 -127 -41
q-42 0 -65 20q-25 19 -25 61q0 56 41 115q39 54 103 94z" />
    <glyph glyph-name="copyright" unicode="&#xa9;" horiz-adv-x="1900" 
d="M674 25q-233 0 -350 114q-119 113 -119 326q0 157 61 319q63 164 170 312q112 155 250 282q140 128 305 228q160 97 334 153q171 56 334 56q234 0 352 -115q117 -114 117 -326q0 -157 -62 -317q-64 -169 -168 -314q-110 -153 -249 -280q-144 -132 -306 -230
q-158 -96 -333 -153q-168 -55 -336 -55zM549 1032q-97 -120 -148 -237q-53 -121 -53 -240q0 -155 96 -227q95 -74 277 -74q147 0 295 43q143 42 291 121q150 81 264 176q126 105 217 217q92 114 145 236q54 123 54 237q0 143 -91 225q-93 78 -280 78q-145 0 -293 -43
q-154 -45 -291 -119q-143 -76 -266 -178q-124 -103 -217 -215zM1006 776q91 0 219 23q114 21 221 67l-176 -338q-74 -29 -156 -47q-75 -16 -158 -16q-150 0 -221 51q-76 49 -76 164q0 106 58 213q55 107 153 205q100 100 222 174q119 72 264 121q136 43 276 43q37 0 51 -2
q7 -1 25 -2t27 -2l-179 -347q-41 11 -67 13q-25 2 -72 2q-156 0 -280 -37q-132 -39 -201 -94q-76 -58 -76 -123q0 -36 31 -51q34 -17 115 -17z" />
    <glyph glyph-name="ordfeminine" unicode="&#xaa;" horiz-adv-x="989" 
d="M600 985q-60 0 -98 35q-37 34 -37 108q0 109 70 222q69 117 186 219q119 101 270 178q145 74 318 102l18 60h174q-10 -17 -31 -53t-30 -50q-52 -89 -66 -114q-17 -32 -51 -97q-32 -66 -43 -100q-18 -46 -18 -76q0 -47 47 -47q37 0 96 27l-168 -334q-52 -38 -109 -57
q-71 -23 -116 -23q-22 0 -37 6q-17 7 -17 27q0 39 50 125l137 235q-124 -168 -279 -284q-145 -109 -266 -109zM1049 891l-172 -342h-566l172 342h566zM1085 1571q-96 0 -194 -29q-92 -27 -148 -74q-57 -45 -57 -100q0 -63 98 -63q110 0 228 71q116 70 196 185q-11 1 -31 4
t-28 4q-20 2 -64 2z" />
    <glyph glyph-name="guillemotleft" unicode="&#xab;" horiz-adv-x="1269" 
d="M817 897l-233 -461l-346 -121l219 -125l-115 -225l-301 404zM1384 897l-233 -461l-346 -121l219 -125l-115 -225l-301 404z" />
    <glyph glyph-name="logicalnot" unicode="&#xac;" 
d="M848 119h-199l164 321h-631l137 267h830z" />
    <glyph glyph-name="uni00AD" unicode="&#xad;" horiz-adv-x="608" 
d="M209 666l432 61l-176 -344l-432 -61z" />
    <glyph glyph-name="registered" unicode="&#xae;" horiz-adv-x="1386" 
d="M944 1759q145 56 283 56q165 0 248 -80q81 -81 81 -230q0 -132 -59 -268q-63 -138 -166 -256q-107 -125 -235 -217q-137 -98 -277 -152q-143 -55 -284 -55q-164 0 -246 82q-84 81 -84 227q0 135 61 269q58 134 164 258q109 125 238 217t276 149zM715 1499
q-118 -76 -207 -168q-97 -97 -148 -196q-55 -104 -55 -205q0 -108 70 -160q68 -53 192 -53q117 0 242 41q123 42 231 110q-10 -2 -28 -2q-139 0 -240 291l-125 -256h-151q16 23 44.5 65t41.5 60q38 53 67 104q49 82 64 105q1 1 73 127q-33 -3 -71 -12q-13 -3 -42 -10
t-44 -11zM1272 1057q84 93 135 192q49 98 49 193q0 103 -63 157q-65 56 -197 56q-105 0 -221 -35q-106 -35 -219 -96q49 8 82 10q62 4 88 4q139 0 223 -41q82 -40 82 -123q0 -60 -45 -117q-44 -56 -125 -100q-81 -46 -187 -67q56 -35 168 -35q32 0 72 4q31 3 55 12l-92 -180
q110 75 195 166zM936 1370h-43l-74 -121q153 3 232 21q77 15 77 47q0 26 -51 41q-53 12 -141 12z" />
    <glyph glyph-name="macron" unicode="&#xaf;" horiz-adv-x="634" 
d="M377 1356h588l-154 -301h-588z" />
    <glyph glyph-name="degree" unicode="&#xb0;" horiz-adv-x="673" 
d="M262 958q0 79 47 162q46 78 125 148q78 66 172 106q96 41 187 41q174 0 174 -147q0 -80 -47 -160q-46 -78 -125 -145q-78 -69 -172 -109q-96 -41 -187 -41q-174 0 -174 145zM565 1032q32 0 68 19q33 17 55 49q23 30 23 57q0 39 -47 39q-32 0 -66 -18q-33 -17 -57 -48
q-23 -30 -23 -59q0 -39 47 -39z" />
    <glyph glyph-name="plusminus" unicode="&#xb1;" 
d="M590 205h-199l164 321h-315l137 267h315l158 311h199l-158 -311h315l-137 -267h-315zM113 266h829l-137 -266h-830z" />
    <glyph glyph-name="uni00B2" unicode="&#xb2;" horiz-adv-x="921" 
d="M606 1522q63 37 166 61q112 23 197 23q276 0 276 -154q0 -55 -37 -104q-36 -51 -123 -107q-76 -49 -237 -125h387l-143 -285h-869q199 107 410 232q149 90 211 143q61 52 61 88q0 41 -76 41q-64 0 -157 -22q-93 -25 -209 -76z" />
    <glyph glyph-name="uni00B3" unicode="&#xb3;" horiz-adv-x="921" 
d="M311 807q306 27 463 74q158 44 158 100q0 51 -105 51q-42 0 -94 -8q-45 -7 -139 -25l86 156q146 32 227 64q68 27 68 61q0 47 -115 47q-74 0 -176 -24q-95 -22 -184 -66l143 285q62 36 168 61q112 23 203 23q130 0 198 -39q70 -40 70 -111q0 -79 -90 -166
q-92 -86 -252 -166q80 -54 115 -98q30 -44 30 -98q0 -144 -180 -260q-181 -120 -524 -209z" />
    <glyph glyph-name="acute" unicode="&#xb4;" horiz-adv-x="430" 
d="M485 1481h332l-520 -430h-133z" />
    <glyph glyph-name="mu" unicode="&#xb5;" horiz-adv-x="1148" 
d="M778 446q-17 -27 -71 -110q-46 -70 -84 -121q-5 -6 -36.5 -47t-47.5 -59q-46 -53 -68 -70q-94 -76 -168 -76q-39 0 -63 27q-27 27 -27 82q0 29 10 84q9 44 37 106q-139 -239 -139 -332q0 -65 76 -65q41 0 108 18l-110 -241q-41 -23 -97 -43q-62 -21 -123 -33t-106 -12
q-84 0 -84 47q0 24 25 69q23 40 102 177t111 194q70 122 133 231q50 86 73 131q27 56 29 62q6 18 6 29q0 57 -80 57q-48 0 -125 -25l140 275q45 42 102 71q80 37 115 46q55 14 96 14q55 0 55 -43q0 -23 -14 -51q-4 -10 -11 -22.5t-17 -30t-17 -29.5q-156 -261 -156 -357
q0 -53 68 -53q77 0 180 62t203 165l137 324h195q-138 -225 -144 -235q-58 -101 -76 -146q-22 -55 -22 -82q0 -39 49 -39q26 0 57 8q10 2 93 23l-177 -350q-76 -52 -149 -82q-82 -29 -131 -29q-66 0 -66 39q0 7 4 27q3 14 11 28z" />
    <glyph glyph-name="paragraph" unicode="&#xb6;" horiz-adv-x="1193" 
d="M1141 1155h-125l-277 -545q-57 -41 -155 -71q-89 -27 -181 -27q-135 0 -213 66q-77 65 -77 192q0 146 100 264q103 125 283 211q181 87 440 137q258 50 563 50q-43 -64 -145 -232q-100 -169 -154 -266q-77 -139 -143 -268q-49 -92 -121 -248q-55 -120 -84 -199
q-31 -85 -31 -121q0 -32 27 -53q23 -20 76 -20q62 0 153 30l-174 -348q-117 -76 -223 -113q-116 -40 -213 -40q-102 0 -102 59q0 20 16 63q22 63 59 134q59 113 129 251z" />
    <glyph glyph-name="periodcentered" unicode="&#xb7;" horiz-adv-x="471" 
d="M301 322q-70 -46 -143 -46q-99 0 -99 89q0 67 45 129q46 63 115 106q67 43 139 43q101 0 101 -88q0 -63 -45 -125q-47 -66 -113 -108z" />
    <glyph glyph-name="cedilla" unicode="&#xb8;" horiz-adv-x="430" 
d="M-197 -322q132 0 234 29q92 30 92 76q0 35 -86 35h-23q-7 0 -43 -4l146 274h100l-108 -205q127 -47 127 -153t-123 -205q-124 -95 -330 -154z" />
    <glyph glyph-name="uni00B9" unicode="&#xb9;" horiz-adv-x="921" 
d="M424 1116h362l113 221q-53 -9 -201 -45q-123 -32 -211 -63l121 241q117 53 262 91q119 31 299 47q-60 -91 -77 -119q-49 -86 -66 -119q-35 -68 -43 -88l-17.5 -37.5t-13.5 -30.5q-20 -44 -20 -61q0 -19 29 -29q30 -10 102 -10h92q47 0 70 2l-144 -285h-800z" />
    <glyph glyph-name="ordmasculine" unicode="&#xba;" horiz-adv-x="927" 
d="M952 1815q96 38 201 38q109 0 172 -51q64 -52 64 -160q0 -92 -39 -180q-41 -97 -111 -178q-68 -82 -162 -154q-87 -64 -192 -106q-98 -39 -203 -39q-110 0 -170 51q-61 52 -61 160q0 89 41 182q45 102 108 178q74 86 160 152q84 64 192 107zM969 891l-172 -342h-607
l172 342h607zM1196 1409q49 34 49 72q0 34 -41 49q-44 12 -102 12q-80 0 -160 -14q-88 -15 -168 -39q-86 -29 -129 -59q-51 -34 -51 -70q0 -33 45 -45q44 -15 106 -15q75 0 160 15q83 12 164 37q82 26 127 57z" />
    <glyph glyph-name="guillemotright" unicode="&#xbb;" horiz-adv-x="1267" 
d="M119 426l346 121l-219 125l114 225l302 -403l-777 -529zM684 426l346 121l-219 125l115 225l301 -403l-776 -529z" />
    <glyph glyph-name="onequarter" unicode="&#xbc;" horiz-adv-x="2267" 
d="M1307 745q194 194 346 365q134 151 266 322h287q-242 -204 -416 -365q-219 -203 -395 -379q-186 -186 -346 -366q-157 -176 -269 -322h-286q231 195 415 365q247 229 398 380zM1636 -373h-192q15 30 46.5 92.5t47.5 92.5q12 23 43.5 88t50.5 100h-479q135 212 348 395
q204 174 518 346h138q-158 -237 -269 -456h279l-146 -285h-260q-79 -203 -125 -373zM1780 285q7 15 51 100q45 82 55 102q-80 -21 -141 -45q-66 -26 -121 -61q-80 -56 -129 -96h285zM336 944h362l113 221q-53 -9 -201 -45q-123 -32 -211 -63l121 241q117 53 262 91
q119 31 299 47q-60 -91 -77 -119q-49 -86 -66 -119q-35 -68 -43 -88l-17.5 -37.5t-13.5 -30.5q-20 -44 -20 -61q0 -20 28 -29q30 -10 103 -10h92q47 0 70 2l-144 -285h-800z" />
    <glyph glyph-name="onehalf" unicode="&#xbd;" horiz-adv-x="2267" 
d="M1235 745q194 194 346 365q134 151 266 322h287q-242 -204 -416 -365q-219 -203 -395 -379q-186 -186 -346 -366q-149 -168 -268 -322h-287q242 204 416 365q233 216 397 380zM1534 690q66 39 166 62q107 22 196 22q277 0 277 -153q0 -56 -37 -105q-35 -49 -123 -106
q-76 -49 -237 -125h387l-144 -285h-868q219 118 410 231q145 87 211 144q61 52 61 88q0 41 -76 41q-61 0 -158 -23q-96 -26 -208 -75zM336 944h362l113 221q-53 -9 -201 -45q-123 -32 -211 -63l121 241q117 53 262 91q119 31 299 47q-60 -91 -77 -119q-49 -86 -66 -119
q-35 -68 -43 -88l-17.5 -37.5t-13.5 -30.5q-20 -44 -20 -61q0 -20 28 -29q30 -10 103 -10h92q47 0 70 2l-144 -285h-800z" />
    <glyph glyph-name="threequarters" unicode="&#xbe;" horiz-adv-x="2267" 
d="M1327 745q194 194 346 365q134 151 266 322h287q-242 -204 -416 -365q-219 -203 -395 -379q-186 -186 -346 -366q-149 -168 -268 -322h-287q242 204 416 365q233 216 397 380zM1636 -373h-192q15 30 46.5 92.5t47.5 92.5q12 23 43.5 88t50.5 100h-479q135 212 348 395
q204 174 518 346h138q-158 -237 -269 -456h279l-146 -285h-260q-79 -203 -125 -373zM1780 285q7 15 51 100q45 82 55 102q-80 -21 -141 -45q-66 -26 -121 -61q-80 -56 -129 -96h285zM223 635q306 27 463 74q158 44 158 100q0 51 -105 51q-42 0 -94 -8q-45 -7 -139 -25
l86 156q146 32 227 64q68 27 68 61q0 47 -115 47q-70 0 -176 -25q-99 -23 -184 -65l143 285q62 36 168 61q112 23 203 23q130 0 198 -39q70 -40 70 -111q0 -79 -90 -166q-92 -86 -252 -166q80 -54 115 -98q30 -44 30 -98q0 -144 -180 -260q-181 -120 -524 -209z" />
    <glyph glyph-name="questiondown" unicode="&#xbf;" horiz-adv-x="768" 
d="M588 -51l-187 -369q-100 -58 -200 -78q-113 -22 -203 -22q-171 0 -254 59q-84 60 -84 162q0 72 39 131q41 62 129 129q91 70 238 152q40 23 112.5 64.5t100.5 58.5q71 43 122 81q50 40 66 66q27 38 39 74h158q-16 -46 -43 -92q-24 -36 -66 -78q-43 -43 -100 -86
q-107 -77 -160 -115q-105 -75 -156 -123q-47 -44 -47 -80q0 -31 29 -47q25 -14 78 -14q82 0 192 35q113 39 197 92zM852 725q-44 -63 -107 -102q-65 -41 -135 -41q-94 0 -94 84q0 61 43 122q45 63 111 103q65 41 133 41q92 0 92 -86q0 -60 -43 -121z" />
    <glyph glyph-name="Agrave" unicode="&#xc0;" horiz-adv-x="3813" 
d="M100 -256l-59 786q236 -71 463 -108q228 -37 459 -37q848 0 1603 358q39 18 121 64q93 55 135 82q22 14 174 119q154 107 240 170q39 29 149 109.5t179 131.5q-189 0 -379 -35q-186 -34 -410 -112l227 448q64 47 193 90q116 39 268 64q154 22 293 22q155 0 240 -26
q86 -27 86 -78q0 -29 -43 -102q-165 -294 -275 -496q-91 -166 -174 -332q-60 -120 -90 -205q-27 -76 -27 -118q0 -84 101 -84q70 0 190 32l-252 -491q-64 -38 -139 -66q-104 -34 -164 -45q-88 -16 -153 -16q-75 0 -123 31q-45 29 -45 86q0 52 37 110l145 238h-899
q-556 -303 -1061 -445q-517 -145 -1010 -145zM3316 733l444 723q-482 -408 -940 -723h496zM3510 2410h426l117 -450h-133z" />
    <glyph glyph-name="Aacute" unicode="&#xc1;" horiz-adv-x="3813" 
d="M100 -256l-59 786q236 -71 463 -108q228 -37 459 -37q848 0 1603 358q39 18 121 64q93 55 135 82q22 14 174 119q154 107 240 170q39 29 149 109.5t179 131.5q-189 0 -379 -35q-186 -34 -410 -112l227 448q64 47 193 90q116 39 268 64q154 22 293 22q155 0 240 -26
q86 -27 86 -78q0 -29 -43 -102q-165 -294 -275 -496q-91 -166 -174 -332q-60 -120 -90 -205q-27 -76 -27 -118q0 -84 101 -84q70 0 190 32l-252 -491q-64 -38 -139 -66q-104 -34 -164 -45q-88 -16 -153 -16q-75 0 -123 31q-45 29 -45 86q0 52 37 110l145 238h-899
q-556 -303 -1061 -445q-517 -145 -1010 -145zM3316 733l444 723q-482 -408 -940 -723h496zM4090 1960h-195l338 450h453z" />
    <glyph glyph-name="Acircumflex" unicode="&#xc2;" horiz-adv-x="3813" 
d="M100 -256l-59 786q236 -71 463 -108q228 -37 459 -37q848 0 1603 358q39 18 121 64q93 55 135 82q22 14 174 119q154 107 240 170q39 29 149 109.5t179 131.5q-189 0 -379 -35q-186 -34 -410 -112l227 448q64 47 193 90q116 39 268 64q154 22 293 22q155 0 240 -26
q86 -27 86 -78q0 -29 -43 -102q-165 -294 -275 -496q-91 -166 -174 -332q-60 -120 -90 -205q-27 -76 -27 -118q0 -84 101 -84q70 0 190 32l-252 -491q-64 -38 -139 -66q-104 -34 -164 -45q-88 -16 -153 -16q-75 0 -123 31q-45 29 -45 86q0 52 37 110l145 238h-899
q-556 -303 -1061 -445q-517 -145 -1010 -145zM3316 733l444 723q-482 -408 -940 -723h496zM4436 2546h59l-34 -586h-95l-139 166l-459 -166h-194z" />
    <glyph glyph-name="Atilde" unicode="&#xc3;" horiz-adv-x="3813" 
d="M100 -256l-59 786q236 -71 463 -108q228 -37 459 -37q848 0 1603 358q39 18 121 64q93 55 135 82q22 14 174 119q154 107 240 170q39 29 149 109.5t179 131.5q-189 0 -379 -35q-186 -34 -410 -112l227 448q64 47 193 90q116 39 268 64q154 22 293 22q155 0 240 -26
q86 -27 86 -78q0 -29 -43 -102q-165 -294 -275 -496q-91 -166 -174 -332q-60 -120 -90 -205q-27 -76 -27 -118q0 -84 101 -84q70 0 190 32l-252 -491q-64 -38 -139 -66q-104 -34 -164 -45q-88 -16 -153 -16q-75 0 -123 31q-45 29 -45 86q0 52 37 110l145 238h-899
q-556 -303 -1061 -445q-517 -145 -1010 -145zM3316 733l444 723q-482 -408 -940 -723h496zM3795 2269q44 84 106 127q56 39 127 39q65 0 121 -20l113 -43q61 -23 119 -23q106 0 219 88l-166 -299q-45 -85 -105 -127q-56 -39 -131 -39q-57 0 -118 23l-111 43q-53 20 -121 20
q-106 0 -219 -88z" />
    <glyph glyph-name="Adieresis" unicode="&#xc4;" horiz-adv-x="3813" 
d="M100 -256l-59 786q236 -71 463 -108q228 -37 459 -37q848 0 1603 358q39 18 121 64q93 55 135 82q22 14 174 119q154 107 240 170q39 29 149 109.5t179 131.5q-189 0 -379 -35q-186 -34 -410 -112l227 448q64 47 193 90q116 39 268 64q154 22 293 22q155 0 240 -26
q86 -27 86 -78q0 -29 -43 -102q-165 -294 -275 -496q-91 -166 -174 -332q-60 -120 -90 -205q-27 -76 -27 -118q0 -84 101 -84q70 0 190 32l-252 -491q-64 -38 -139 -66q-104 -34 -164 -45q-88 -16 -153 -16q-75 0 -123 31q-45 29 -45 86q0 52 37 110l145 238h-899
q-556 -303 -1061 -445q-517 -145 -1010 -145zM3316 733l444 723q-482 -408 -940 -723h496zM3729 2281q60 53 115 76q66 29 123 29q115 0 115 -102q0 -55 -31 -115q-38 -64 -84 -105q-53 -50 -115 -77q-69 -29 -125 -29q-110 0 -110 104q0 56 30 115q29 57 82 104zM4225 2281
q60 53 115 76q66 29 123 29q114 0 114 -102q0 -56 -30 -115q-38 -64 -84 -105q-53 -50 -115 -77q-69 -29 -125 -29q-111 0 -111 104q0 55 31 115q29 57 82 104z" />
    <glyph glyph-name="Aring" unicode="&#xc5;" horiz-adv-x="3813" 
d="M100 -256l-59 786q236 -71 463 -108q228 -37 459 -37q848 0 1603 358q39 18 121 64q93 55 135 82q22 14 174 119q154 107 240 170q39 29 149 109.5t179 131.5q-189 0 -379 -35q-186 -34 -410 -112l227 448q64 47 193 90q116 39 268 64q154 22 293 22q155 0 240 -26
q86 -27 86 -78q0 -29 -43 -102q-165 -294 -275 -496q-91 -166 -174 -332q-60 -120 -90 -205q-27 -76 -27 -118q0 -84 101 -84q70 0 190 32l-252 -491q-64 -38 -139 -66q-104 -34 -164 -45q-88 -16 -153 -16q-75 0 -123 31q-45 29 -45 86q0 52 37 110l145 238h-899
q-556 -303 -1061 -445q-517 -145 -1010 -145zM3316 733l444 723q-482 -408 -940 -723h496zM3957 2335q54 48 119 78q67 28 133 28q75 0 118 -37q41 -41 41 -106q0 -67 -32 -121q-37 -63 -86 -109q-54 -51 -121 -79q-67 -31 -133 -31q-76 0 -115 39q-43 40 -43 106
q0 64 33 123q31 60 86 109zM4053 2093q38 0 82 23q36 19 65 59q27 35 27 72q0 61 -72 61q-40 0 -82 -22q-39 -20 -65 -58q-27 -34 -27 -71q0 -64 72 -64z" />
    <glyph glyph-name="AE" unicode="&#xc6;" horiz-adv-x="4894" 
d="M100 -256l-59 786q236 -71 463 -108q228 -37 459 -37q848 0 1603 358q2 1 109 56q39 20 118 71q57 36 158 107q98 69 225 160q52 37 318 233q-194 -3 -367 -37q-191 -38 -370 -100l227 448q92 43 203 72q125 30 276 49q166 21 391 33q228 12 539 18q517 5 721 5
l-254 -498l-991 10q-73 -108 -164 -266h1028l-209 -406h-1018l-22 -51q-24 -64 -27 -78q-10 -45 -10 -63q0 -79 96 -109q88 -32 338 -32q243 0 483 43q239 40 502 129l-240 -469q-108 -40 -258 -78q-165 -41 -323 -66q-194 -30 -348 -43q-187 -16 -326 -16q-155 0 -244 12
q-86 12 -127 41q-39 29 -39 82q0 43 37 127q34 85 103 207h-930q-556 -303 -1061 -445q-517 -145 -1010 -145zM3557 1114q85 145 203 340q-488 -410 -940 -721h512q114 193 225 381z" />
    <glyph glyph-name="Ccedilla" unicode="&#xc7;" horiz-adv-x="2009" 
d="M1694 -35q-159 -116 -342 -198q-174 -78 -379 -127q-194 -43 -389 -43q-317 0 -465 124q-154 127 -154 379q0 198 82 402q84 206 229 397q144 193 340 365q200 175 416 299q227 130 459 202q239 74 467 74q198 0 297 -57q102 -58 102 -174q0 -105 -76 -215t-202 -215
q-130 -106 -291 -187q-172 -87 -336 -133q-174 -49 -338 -49h-43q-16 0 -22 2l186 375q85 -45 170 -64q91 -24 186 -24q106 0 183 26q76 23 124 68q46 40 46 92t-58 82q-60 31 -205 31q-162 0 -329 -37q-174 -42 -328 -107q-158 -65 -301 -157q-136 -90 -246 -197
q-110 -110 -166 -219q-61 -113 -61 -225q0 -162 127 -242t346 -80q151 0 319 33q171 30 349 86q160 51 329 127q154 71 260 149zM166 -805q119 0 219 19q92 17 150 49q55 30 55 69q0 45 -113 45q-37 0 -86 -6l191 357h129l-140 -265q164 -59 164 -200q0 -92 -71 -181
q-72 -87 -205 -161q-130 -72 -312 -125z" />
    <glyph glyph-name="Egrave" unicode="&#xc8;" horiz-adv-x="2934" 
d="M526 492q-239 193 -239 364q0 44 14 90q17 53 55 119q46 80 119 182q82 116 199 219q111 94 252 160t342 113q178 42 463 71q283 26 616 37q433 11 807 11l-254 -498l-969 10q-102 -156 -166 -266h1008l-209 -406h-997l-23 -51q-21 -56 -26 -78q-11 -50 -11 -63
q0 -52 37 -82q32 -32 125 -45q83 -14 252 -14q243 0 483 43q239 40 502 129l-240 -469q-108 -40 -258 -78q-165 -41 -323 -66q-194 -30 -348 -43q-187 -16 -326 -16q-155 0 -244 12q-86 12 -127 41q-39 29 -39 82q0 44 48 152t131 251q130 225 295 502q142 243 274 465
q-277 0 -483 -14q-209 -14 -383 -43q-161 -27 -254 -66q-90 -38 -90 -80q0 -38 79 -84q75 -44 195 -69zM2054 2410h426l117 -450h-133z" />
    <glyph glyph-name="Eacute" unicode="&#xc9;" horiz-adv-x="2934" 
d="M526 492q-239 193 -239 364q0 44 14 90q17 53 55 119q46 80 119 182q82 116 199 219q111 94 252 160t342 113q178 42 463 71q283 26 616 37q433 11 807 11l-254 -498l-969 10q-102 -156 -166 -266h1008l-209 -406h-997l-23 -51q-21 -56 -26 -78q-11 -50 -11 -63
q0 -52 37 -82q32 -32 125 -45q83 -14 252 -14q243 0 483 43q239 40 502 129l-240 -469q-108 -40 -258 -78q-165 -41 -323 -66q-194 -30 -348 -43q-187 -16 -326 -16q-155 0 -244 12q-86 12 -127 41q-39 29 -39 82q0 44 48 152t131 251q130 225 295 502q142 243 274 465
q-277 0 -483 -14q-209 -14 -383 -43q-161 -27 -254 -66q-90 -38 -90 -80q0 -38 79 -84q75 -44 195 -69zM2634 1960h-195l338 450h453z" />
    <glyph glyph-name="Ecircumflex" unicode="&#xca;" horiz-adv-x="2934" 
d="M526 492q-239 193 -239 364q0 44 14 90q17 53 55 119q46 80 119 182q82 116 199 219q111 94 252 160t342 113q178 42 463 71q283 26 616 37q433 11 807 11l-254 -498l-969 10q-102 -156 -166 -266h1008l-209 -406h-997l-23 -51q-21 -56 -26 -78q-11 -50 -11 -63
q0 -52 37 -82q32 -32 125 -45q83 -14 252 -14q243 0 483 43q239 40 502 129l-240 -469q-108 -40 -258 -78q-165 -41 -323 -66q-194 -30 -348 -43q-187 -16 -326 -16q-155 0 -244 12q-86 12 -127 41q-39 29 -39 82q0 44 48 152t131 251q130 225 295 502q142 243 274 465
q-277 0 -483 -14q-209 -14 -383 -43q-161 -27 -254 -66q-90 -38 -90 -80q0 -38 79 -84q75 -44 195 -69zM2980 2546h59l-35 -586h-94l-139 166l-459 -166h-194z" />
    <glyph glyph-name="Edieresis" unicode="&#xcb;" horiz-adv-x="2934" 
d="M526 492q-239 193 -239 364q0 44 14 90q17 53 55 119q46 80 119 182q82 116 199 219q111 94 252 160t342 113q178 42 463 71q283 26 616 37q433 11 807 11l-254 -498l-969 10q-102 -156 -166 -266h1008l-209 -406h-997l-23 -51q-21 -56 -26 -78q-11 -50 -11 -63
q0 -52 37 -82q32 -32 125 -45q83 -14 252 -14q243 0 483 43q239 40 502 129l-240 -469q-108 -40 -258 -78q-165 -41 -323 -66q-194 -30 -348 -43q-187 -16 -326 -16q-155 0 -244 12q-86 12 -127 41q-39 29 -39 82q0 44 48 152t131 251q130 225 295 502q142 243 274 465
q-277 0 -483 -14q-209 -14 -383 -43q-161 -27 -254 -66q-90 -38 -90 -80q0 -38 79 -84q75 -44 195 -69zM2273 2281q60 53 115 76q66 29 123 29q115 0 115 -102q0 -55 -31 -115q-38 -64 -84 -105q-53 -50 -115 -77q-69 -29 -125 -29q-110 0 -110 104q0 56 30 115
q29 57 82 104zM2769 2281q60 53 115 76q66 29 122 29q115 0 115 -102q0 -55 -31 -115q-38 -64 -84 -105q-53 -50 -114 -77q-69 -29 -125 -29q-111 0 -111 104q0 55 31 115q29 57 82 104z" />
    <glyph glyph-name="Igrave" unicode="&#xcc;" horiz-adv-x="1460" 
d="M1526 1356q-85 6 -176 6q-147 0 -301 -16q-141 -14 -265 -43q-123 -28 -186 -60q-70 -34 -70 -72t82 -81q77 -45 195 -70l-291 -526q-121 91 -184 186q-60 91 -60 180q0 40 15 90q12 50 53 121q46 80 119 182q90 124 237 234q140 105 330 190q180 82 389 129
q199 45 418 45q108 0 108 -67q0 -14 -6 -35q-8 -18 -30 -61q-19 -34 -97 -191q-45 -90 -120 -250q-85 -176 -166 -356q-32 -72 -109.5 -240.5t-120.5 -263.5q-208 -461 -313 -690h-379q299 428 535 854q238 429 393 805zM1403 2410h426l117 -450h-134z" />
    <glyph glyph-name="Iacute" unicode="&#xcd;" horiz-adv-x="1460" 
d="M1526 1356q-85 6 -176 6q-147 0 -301 -16q-141 -14 -265 -43q-123 -28 -186 -60q-70 -34 -70 -72t82 -81q77 -45 195 -70l-291 -526q-121 91 -184 186q-60 91 -60 180q0 40 15 90q12 50 53 121q46 80 119 182q90 124 237 234q140 105 330 190q180 82 389 129
q199 45 418 45q108 0 108 -67q0 -14 -6 -35q-8 -18 -30 -61q-19 -34 -97 -191q-45 -90 -120 -250q-85 -176 -166 -356q-32 -72 -109.5 -240.5t-120.5 -263.5q-208 -461 -313 -690h-379q299 428 535 854q238 429 393 805zM1982 1960h-194l338 450h452z" />
    <glyph glyph-name="Icircumflex" unicode="&#xce;" horiz-adv-x="1460" 
d="M1526 1356q-85 6 -176 6q-147 0 -301 -16q-141 -14 -265 -43q-123 -28 -186 -60q-70 -34 -70 -72t82 -81q77 -45 195 -70l-291 -526q-121 91 -184 186q-60 91 -60 180q0 40 15 90q12 50 53 121q46 80 119 182q90 124 237 234q140 105 330 190q180 82 389 129
q199 45 418 45q108 0 108 -67q0 -14 -6 -35q-8 -18 -30 -61q-19 -34 -97 -191q-45 -90 -120 -250q-85 -176 -166 -356q-32 -72 -109.5 -240.5t-120.5 -263.5q-208 -461 -313 -690h-379q299 428 535 854q238 429 393 805zM2329 2546h59l-35 -586h-94l-139 166l-459 -166h-195
z" />
    <glyph glyph-name="Idieresis" unicode="&#xcf;" horiz-adv-x="1460" 
d="M1526 1356q-85 6 -176 6q-147 0 -301 -16q-141 -14 -265 -43q-123 -28 -186 -60q-70 -34 -70 -72t82 -81q77 -45 195 -70l-291 -526q-121 91 -184 186q-60 91 -60 180q0 40 15 90q12 50 53 121q46 80 119 182q90 124 237 234q140 105 330 190q180 82 389 129
q199 45 418 45q108 0 108 -67q0 -14 -6 -35q-8 -18 -30 -61q-19 -34 -97 -191q-45 -90 -120 -250q-85 -176 -166 -356q-32 -72 -109.5 -240.5t-120.5 -263.5q-208 -461 -313 -690h-379q299 428 535 854q238 429 393 805zM1622 2281q60 53 115 76q66 29 123 29
q114 0 114 -102q0 -56 -30 -115q-38 -64 -84 -105q-53 -50 -115 -77q-69 -29 -125 -29q-111 0 -111 104q0 55 31 115q29 57 82 104zM2118 2281q61 54 114 76q66 29 123 29q115 0 115 -102q0 -55 -31 -115q-38 -64 -84 -105q-53 -50 -114 -77q-69 -29 -125 -29
q-111 0 -111 104q0 55 31 115q29 57 82 104z" />
    <glyph glyph-name="Eth" unicode="&#xd0;" horiz-adv-x="2990" 
d="M901 696l207 406h367q5 8 133 225q-293 -37 -590 -121q-281 -83 -569 -213l133 551q128 61 284 111q138 46 340 94q215 48 363 70q182 27 344 36l82 142h297l-127 -135q325 -9 551 -78q228 -69 352 -203q121 -133 121 -334q0 -195 -92 -393q-89 -194 -269 -377
q-177 -177 -432 -315q-253 -137 -584 -217t-722 -80q-150 0 -232 16q-78 18 -78 76q0 29 21 70q19 43 55 96q157 232 371 573h-326zM1694 1102h549l-207 -406h-557l-156 -290q165 -19 315 -19q278 0 519 49q241 50 423 137q185 90 285 205q103 118 103 250q0 165 -213 248
q-210 82 -672 82q-143 0 -258 -8z" />
    <glyph glyph-name="Ntilde" unicode="&#xd1;" horiz-adv-x="2650" 
d="M-244 125q232 -64 398 -64q139 0 264 23q114 22 205 72q95 54 186 137q72 65 156 184q88 123 178 277q118 208 174 323q83 168 141 322q-7 1 -37.5 4t-50.5 4q-70 4 -104 4q-141 0 -295 -16q-122 -13 -262 -45q-114 -26 -187 -62q-69 -34 -69 -71q0 -39 82 -82
q78 -46 194 -70l-291 -526q-243 191 -243 368q0 41 12 88q13 49 53 119q47 81 121 184q93 125 229 230q142 111 314 192q174 82 366 131q193 47 377 47q161 0 256 -83t139 -275q41 -193 41 -510q0 -57 -4 -229q-6 -127 -18 -307q180 534 360 856q182 329 393 495
q210 160 453 160q39 0 57 -2q36 -4 50 -6l-285 -559q-8 1 -21 4t-18 4q-14 2 -43 2q-180 0 -346 -172q-169 -172 -328 -526q-68 -153 -133 -322q-75 -186 -162 -428h-366q0 372 -27 694q-27 318 -80 547q-90 -202 -139 -299q-76 -156 -156 -303q-86 -159 -155 -270
q-78 -126 -138 -203q-501 -663 -1304 -752zM2177 2269q44 83 107 127q56 39 126 39q65 0 121 -20l113 -43q61 -23 119 -23q106 0 219 88l-166 -299q-45 -86 -104 -127q-56 -39 -132 -39q-57 0 -118 23l-111 43q-53 20 -121 20q-106 0 -219 -88z" />
    <glyph glyph-name="Ograve" unicode="&#xd2;" horiz-adv-x="2080" 
d="M1919 1368q117 -54 180 -154q66 -104 66 -233q0 -125 -62 -258q-66 -136 -172 -256q-101 -115 -256 -231q-150 -110 -313 -191q-171 -83 -344 -129q-173 -45 -350 -45q-279 0 -428 125q-152 131 -152 358q0 148 57 297q58 161 162 305q109 152 256 281q170 147 385 266
q210 114 465 199q249 80 516 123q264 43 539 43q90 0 125 -2q54 -3 80 -6l-306 -584q-113 36 -219 59q-143 26 -229 33zM1569 1333q-169 0 -332 -39q-181 -43 -326 -106q-152 -66 -282 -154q-127 -86 -197 -180q-74 -95 -74 -186q0 -105 107 -160q102 -57 315 -57
q178 0 346 36q172 34 328 99q161 65 275 143q121 83 190 176q70 91 70 187q0 114 -107 178q-105 63 -313 63zM1612 2410h426l116 -450h-133z" />
    <glyph glyph-name="Oacute" unicode="&#xd3;" horiz-adv-x="2080" 
d="M1919 1368q117 -54 180 -154q66 -104 66 -233q0 -125 -62 -258q-66 -136 -172 -256q-101 -115 -256 -231q-150 -110 -313 -191q-171 -83 -344 -129q-173 -45 -350 -45q-279 0 -428 125q-152 131 -152 358q0 148 57 297q58 161 162 305q109 152 256 281q170 147 385 266
q210 114 465 199q249 80 516 123q264 43 539 43q90 0 125 -2q54 -3 80 -6l-306 -584q-113 36 -219 59q-143 26 -229 33zM1569 1333q-169 0 -332 -39q-181 -43 -326 -106q-152 -66 -282 -154q-127 -86 -197 -180q-74 -95 -74 -186q0 -105 107 -160q102 -57 315 -57
q178 0 346 36q172 34 328 99q161 65 275 143q121 83 190 176q70 91 70 187q0 114 -107 178q-105 63 -313 63zM2191 1960h-194l338 450h452z" />
    <glyph glyph-name="Ocircumflex" unicode="&#xd4;" horiz-adv-x="2080" 
d="M1919 1368q117 -54 180 -154q66 -104 66 -233q0 -125 -62 -258q-66 -136 -172 -256q-101 -115 -256 -231q-150 -110 -313 -191q-171 -83 -344 -129q-173 -45 -350 -45q-279 0 -428 125q-152 131 -152 358q0 148 57 297q58 161 162 305q109 152 256 281q170 147 385 266
q210 114 465 199q249 80 516 123q264 43 539 43q90 0 125 -2q54 -3 80 -6l-306 -584q-113 36 -219 59q-143 26 -229 33zM1569 1333q-169 0 -332 -39q-181 -43 -326 -106q-152 -66 -282 -154q-127 -86 -197 -180q-74 -95 -74 -186q0 -105 107 -160q102 -57 315 -57
q178 0 346 36q172 34 328 99q161 65 275 143q121 83 190 176q70 91 70 187q0 114 -107 178q-105 63 -313 63zM2537 2546h60l-35 -586h-94l-139 166l-459 -166h-195z" />
    <glyph glyph-name="Otilde" unicode="&#xd5;" horiz-adv-x="2080" 
d="M1919 1368q117 -54 180 -154q66 -104 66 -233q0 -125 -62 -258q-66 -136 -172 -256q-101 -115 -256 -231q-150 -110 -313 -191q-171 -83 -344 -129q-173 -45 -350 -45q-279 0 -428 125q-152 131 -152 358q0 148 57 297q58 161 162 305q109 152 256 281q170 147 385 266
q210 114 465 199q249 80 516 123q264 43 539 43q90 0 125 -2q54 -3 80 -6l-306 -584q-113 36 -219 59q-143 26 -229 33zM1569 1333q-169 0 -332 -39q-181 -43 -326 -106q-152 -66 -282 -154q-127 -86 -197 -180q-74 -95 -74 -186q0 -105 107 -160q102 -57 315 -57
q178 0 346 36q172 34 328 99q161 65 275 143q121 83 190 176q70 91 70 187q0 114 -107 178q-105 63 -313 63zM1896 2269q44 83 107 127q56 39 127 39q65 0 121 -20l112 -43q61 -23 119 -23q106 0 219 88l-166 -299q-45 -86 -104 -127q-56 -39 -131 -39q-58 0 -119 23
l-110 43q-53 20 -121 20q-106 0 -219 -88z" />
    <glyph glyph-name="Odieresis" unicode="&#xd6;" horiz-adv-x="2080" 
d="M1919 1368q117 -54 180 -154q66 -104 66 -233q0 -125 -62 -258q-66 -136 -172 -256q-101 -115 -256 -231q-150 -110 -313 -191q-171 -83 -344 -129q-173 -45 -350 -45q-279 0 -428 125q-152 131 -152 358q0 148 57 297q58 161 162 305q109 152 256 281q170 147 385 266
q210 114 465 199q249 80 516 123q264 43 539 43q90 0 125 -2q54 -3 80 -6l-306 -584q-113 36 -219 59q-143 26 -229 33zM1569 1333q-169 0 -332 -39q-181 -43 -326 -106q-152 -66 -282 -154q-127 -86 -197 -180q-74 -95 -74 -186q0 -105 107 -160q102 -57 315 -57
q178 0 346 36q172 34 328 99q161 65 275 143q121 83 190 176q70 91 70 187q0 114 -107 178q-105 63 -313 63zM1831 2281q60 53 115 76q66 29 122 29q115 0 115 -102q0 -55 -31 -115q-38 -64 -84 -105q-53 -50 -114 -77q-69 -29 -125 -29q-111 0 -111 104q0 55 31 115
q29 57 82 104zM2327 2281q61 54 114 76q66 29 123 29q115 0 115 -102q0 -55 -31 -115q-38 -64 -84 -105q-53 -50 -115 -77q-69 -29 -125 -29q-110 0 -110 104q0 55 31 115q29 57 82 104z" />
    <glyph glyph-name="multiply" unicode="&#xd7;" 
d="M604 375l-395 -346l-133 186l461 272l-222 291l215 113l125 -324l379 322l137 -156l-452 -272l242 -309l-213 -123z" />
    <glyph glyph-name="Oslash" unicode="&#xd8;" horiz-adv-x="2080" 
d="M-338 -111l442 326q-16 69 -16 139q0 148 57 297q58 161 162 305q109 152 256 281q188 167 434 293q237 121 533 207q283 82 594 112l317 303l326 -108l-240 -176q14 -1 42 -2t42 -2q10 -1 32 -2t30 -2l-306 -584q-113 36 -219 59q-143 26 -229 33q117 -54 180 -154
q66 -104 66 -233q0 -125 -62 -258q-67 -138 -174 -256q-101 -115 -256 -231q-147 -110 -313 -191q-171 -83 -344 -129q-173 -45 -352 -45q-290 0 -439 137l-237 -227zM766 430q179 0 352 37q181 39 334 102q155 64 277 148q121 83 190 176q70 94 70 188q0 184 -201 246
l-1108 -893q54 -4 86 -4zM358 666q0 -124 125 -185l1080 873q-171 -3 -338 -43q-176 -44 -328 -113q-156 -70 -276 -156q-119 -88 -191 -184q-72 -101 -72 -192z" />
    <glyph glyph-name="Ugrave" unicode="&#xd9;" horiz-adv-x="2803" 
d="M2443 641q-12 -33 -20 -72q-8 -27 -8 -51q0 -82 100 -82q35 0 98 13q57 9 140 36l-250 -491q-112 -68 -197 -98q-95 -29 -178 -29q-78 0 -125 24q-47 27 -47 72q0 48 37 129l258 576q-157 -276 -332 -471q-172 -195 -358 -306q-180 -104 -357 -104q-137 0 -217 80
q-80 83 -80 219q0 89 37 201q32 104 115 268q86 166 211 363q160 254 315 483q-15 1 -45.5 4t-46.5 4q-33 2 -102 2q-140 0 -297 -16q-132 -16 -269 -47q-120 -26 -196 -62q-74 -35 -74 -69q0 -39 82 -82q78 -46 194 -70l-290 -526q-244 191 -244 368q0 44 14 90
q11 47 54 121q52 90 118 180q94 128 254 246q159 117 363 203q198 84 424 119q122 18 170 22q68 6 116 6q92 0 132 -18q38 -20 38 -66q0 -32 -20 -73q-24 -53 -72 -123q-158 -236 -268 -432q-106 -188 -150 -314q-47 -133 -47 -229q0 -100 54 -154q52 -55 151 -55
q124 0 264 88q145 91 291 250q154 171 285 385l409 913h357q-597 -923 -791 -1425zM1868 2410h426l116 -450h-133z" />
    <glyph glyph-name="Uacute" unicode="&#xda;" horiz-adv-x="2803" 
d="M2443 641q-12 -33 -20 -72q-8 -27 -8 -51q0 -82 100 -82q35 0 98 13q57 9 140 36l-250 -491q-112 -68 -197 -98q-95 -29 -178 -29q-78 0 -125 24q-47 27 -47 72q0 48 37 129l258 576q-157 -276 -332 -471q-172 -195 -358 -306q-180 -104 -357 -104q-137 0 -217 80
q-80 83 -80 219q0 89 37 201q32 104 115 268q86 166 211 363q160 254 315 483q-15 1 -45.5 4t-46.5 4q-33 2 -102 2q-140 0 -297 -16q-132 -16 -269 -47q-120 -26 -196 -62q-74 -35 -74 -69q0 -39 82 -82q78 -46 194 -70l-290 -526q-244 191 -244 368q0 44 14 90
q11 47 54 121q52 90 118 180q94 128 254 246q159 117 363 203q198 84 424 119q122 18 170 22q68 6 116 6q92 0 132 -18q38 -20 38 -66q0 -32 -20 -73q-24 -53 -72 -123q-158 -236 -268 -432q-106 -188 -150 -314q-47 -133 -47 -229q0 -100 54 -154q52 -55 151 -55
q124 0 264 88q145 91 291 250q154 171 285 385l409 913h357q-597 -923 -791 -1425zM2447 1960h-194l338 450h452z" />
    <glyph glyph-name="Ucircumflex" unicode="&#xdb;" horiz-adv-x="2803" 
d="M2443 641q-12 -33 -20 -72q-8 -27 -8 -51q0 -82 100 -82q35 0 98 13q57 9 140 36l-250 -491q-112 -68 -197 -98q-95 -29 -178 -29q-78 0 -125 24q-47 27 -47 72q0 48 37 129l258 576q-157 -276 -332 -471q-172 -195 -358 -306q-180 -104 -357 -104q-137 0 -217 80
q-80 83 -80 219q0 89 37 201q32 104 115 268q86 166 211 363q160 254 315 483q-15 1 -45.5 4t-46.5 4q-33 2 -102 2q-140 0 -297 -16q-132 -16 -269 -47q-120 -26 -196 -62q-74 -35 -74 -69q0 -39 82 -82q78 -46 194 -70l-290 -526q-244 191 -244 368q0 44 14 90
q11 47 54 121q52 90 118 180q94 128 254 246q159 117 363 203q198 84 424 119q122 18 170 22q68 6 116 6q92 0 132 -18q38 -20 38 -66q0 -32 -20 -73q-24 -53 -72 -123q-158 -236 -268 -432q-106 -188 -150 -314q-47 -133 -47 -229q0 -100 54 -154q52 -55 151 -55
q124 0 264 88q145 91 291 250q154 171 285 385l409 913h357q-597 -923 -791 -1425zM2793 2546h60l-35 -586h-94l-139 166l-459 -166h-195z" />
    <glyph glyph-name="Udieresis" unicode="&#xdc;" horiz-adv-x="2803" 
d="M2443 641q-12 -33 -20 -72q-8 -27 -8 -51q0 -82 100 -82q35 0 98 13q57 9 140 36l-250 -491q-112 -68 -197 -98q-95 -29 -178 -29q-78 0 -125 24q-47 27 -47 72q0 48 37 129l258 576q-157 -276 -332 -471q-172 -195 -358 -306q-180 -104 -357 -104q-137 0 -217 80
q-80 83 -80 219q0 89 37 201q32 104 115 268q86 166 211 363q160 254 315 483q-15 1 -45.5 4t-46.5 4q-33 2 -102 2q-140 0 -297 -16q-132 -16 -269 -47q-120 -26 -196 -62q-74 -35 -74 -69q0 -39 82 -82q78 -46 194 -70l-290 -526q-244 191 -244 368q0 44 14 90
q11 47 54 121q52 90 118 180q94 128 254 246q159 117 363 203q198 84 424 119q122 18 170 22q68 6 116 6q92 0 132 -18q38 -20 38 -66q0 -32 -20 -73q-24 -53 -72 -123q-158 -236 -268 -432q-106 -188 -150 -314q-47 -133 -47 -229q0 -100 54 -154q52 -55 151 -55
q124 0 264 88q145 91 291 250q154 171 285 385l409 913h357q-597 -923 -791 -1425zM2087 2281q60 53 115 76q66 29 122 29q115 0 115 -102q0 -55 -31 -115q-38 -64 -84 -105q-53 -50 -114 -77q-69 -29 -125 -29q-111 0 -111 104q0 55 31 115q29 57 82 104zM2583 2281
q61 54 114 76q66 29 123 29q115 0 115 -102q0 -55 -31 -115q-38 -64 -84 -105q-53 -50 -115 -77q-69 -29 -125 -29q-110 0 -110 104q0 55 31 115q29 57 82 104z" />
    <glyph glyph-name="Yacute" unicode="&#xdd;" horiz-adv-x="2504" 
d="M2210 141q-136 -293 -281 -489q-153 -204 -332 -328q-187 -130 -403 -186q-223 -58 -504 -58q-187 0 -395 33q-224 36 -447 92l316 615q132 -46 325 -94q175 -43 342 -70q177 -25 297 -25q144 0 273 29q120 27 223 92q108 68 197 170q94 107 192 262q34 52 62 103
q37 68 63 121q31 62 86 186q57 125 135 301q-227 -358 -450 -535q-232 -182 -453 -182q-139 0 -221 82q-82 79 -82 217q0 99 45 221q42 122 139 299q77 141 248 404q-10 1 -38.5 4t-45.5 4q-31 2 -110 2q-140 0 -297 -16q-133 -16 -271 -47q-122 -27 -194 -62
q-74 -35 -74 -69q0 -39 82 -82q78 -46 194 -70l-290 -526q-244 191 -244 368q0 75 43 162q39 82 143 229q67 96 187 193q116 93 254 168q129 72 293 131q164 56 307 76q26 4 166 22q71 6 122 6q86 0 127 -18q39 -20 39 -64q0 -61 -90 -198q-190 -284 -280 -469
q-88 -180 -88 -285q0 -87 57 -135q55 -49 152 -49q190 0 413 186q226 192 434 527l301 677h357q-205 -295 -465 -780q-241 -449 -559 -1145zM2410 1960h-194l338 450h452z" />
    <glyph glyph-name="Thorn" unicode="&#xde;" horiz-adv-x="2488" 
d="M1823 1649q119 210 239 409h297l-315 -411q317 -21 496 -140q174 -116 174 -311q0 -184 -111 -354q-116 -175 -311 -316t-471 -245t-588 -150l-184 -436h-400q78 114 139 205q139 216 142 221q103 163 160 260q31 52 95.5 162t92.5 157q102 173 233 408
q-581 -71 -1130 -328l133 553q322 150 649 228q329 79 660 88zM1901 1130q-61 0 -179 -4l-237 -430q294 6 516 43q221 34 350 97q125 58 125 135q0 76 -149 119q-148 40 -426 40z" />
    <glyph glyph-name="germandbls" unicode="&#xdf;" horiz-adv-x="1056" 
d="M-375 -123q190 0 285 39q77 29 143 104q61 73 117 203q49 119 104 326h-211l173 342h116q33 159 129 280q92 120 230 185q135 63 305 63q252 0 252 -129q0 -31 -19 -67q-18 -35 -67 -78q-39 -37 -144 -115q-127 -95 -178 -164q-51 -68 -51 -155q0 -41 16 -97
q11 -39 58 -131q71 -145 71 -231q0 -83 -47 -148q-49 -64 -133 -102q-84 -37 -196 -37q-100 0 -222 43l111 346q100 -75 211 -75q100 0 100 96q0 31 -16 74q-11 27 -60 100q-75 115 -75 201q0 102 82 190q88 94 227 168q-65 18 -131 18q-107 0 -172 -30q-67 -31 -107 -113
q-37 -76 -80 -244q-54 -231 -112 -424q-52 -174 -109 -297q-57 -127 -119 -206q-74 -94 -145 -150q-74 -56 -172 -111q-95 -50 -190 -77z" />
    <glyph glyph-name="agrave" unicode="&#xe0;" horiz-adv-x="1060" 
d="M817 55q-45 -37 -119 -65q-73 -25 -133 -25q-57 0 -57 39t55 137l152 262q-94 -131 -203 -231q-111 -101 -209 -152q-104 -55 -192 -55q-69 0 -109 37q-43 37 -43 123q0 98 51 197q44 91 140 198q101 108 206 180q135 93 256 144q143 61 283 84l23 65h194
q-67 -107 -108 -186q-19 -35 -51 -93.5t-38 -68.5q-69 -132 -69 -194q0 -56 51 -56q36 0 109 31zM207 391q0 -69 106 -69q87 0 172 36q89 36 164 99q77 65 135 147q-64 12 -131 12q-117 0 -219 -30q-109 -37 -164 -84q-63 -51 -63 -111zM565 1542h312l110 -430h-102z" />
    <glyph glyph-name="aacute" unicode="&#xe1;" horiz-adv-x="1060" 
d="M817 55q-45 -37 -119 -65q-73 -25 -133 -25q-57 0 -57 39t55 137l152 262q-94 -131 -203 -231q-111 -101 -209 -152q-104 -55 -192 -55q-69 0 -109 37q-43 37 -43 123q0 98 51 197q44 91 140 198q101 108 206 180q135 93 256 144q143 61 283 84l23 65h194
q-67 -107 -108 -186q-19 -35 -51 -93.5t-38 -68.5q-69 -132 -69 -194q0 -56 51 -56q36 0 109 31zM207 391q0 -69 106 -69q87 0 172 36q89 36 164 99q77 65 135 147q-64 12 -131 12q-117 0 -219 -30q-109 -37 -164 -84q-63 -51 -63 -111zM1169 1542h332l-520 -430h-133z" />
    <glyph glyph-name="acircumflex" unicode="&#xe2;" horiz-adv-x="1060" 
d="M817 55q-45 -37 -119 -65q-73 -25 -133 -25q-57 0 -57 39t55 137l152 262q-94 -131 -203 -231q-111 -101 -209 -152q-104 -55 -192 -55q-69 0 -109 37q-43 37 -43 123q0 98 51 197q44 91 140 198q101 108 206 180q135 93 256 144q143 61 283 84l23 65h194
q-67 -107 -108 -186q-19 -35 -51 -93.5t-38 -68.5q-69 -132 -69 -194q0 -56 51 -56q36 0 109 31zM207 391q0 -69 106 -69q87 0 172 36q89 36 164 99q77 65 135 147q-64 12 -131 12q-117 0 -219 -30q-109 -37 -164 -84q-63 -51 -63 -111zM1237 1563h45l-27 -451h-71l-109 127
l-348 -127h-154z" />
    <glyph glyph-name="atilde" unicode="&#xe3;" horiz-adv-x="1060" 
d="M817 55q-45 -37 -119 -65q-73 -25 -133 -25q-57 0 -57 39t55 137l152 262q-94 -131 -203 -231q-111 -101 -209 -152q-104 -55 -192 -55q-69 0 -109 37q-43 37 -43 123q0 98 51 197q44 91 140 198q101 108 206 180q135 93 256 144q143 61 283 84l23 65h194
q-67 -107 -108 -186q-19 -35 -51 -93.5t-38 -68.5q-69 -132 -69 -194q0 -56 51 -56q36 0 109 31zM207 391q0 -69 106 -69q87 0 172 36q89 36 164 99q77 65 135 147q-64 12 -131 12q-117 0 -219 -30q-109 -37 -164 -84q-63 -51 -63 -111zM717 1343q65 127 182 127
q42 0 88 -16q13 -4 42 -16t46 -17q50 -16 94 -16q83 0 166 68l-121 -234q-65 -127 -182 -127q-42 0 -88 16q-13 4 -42 16t-46 17q-53 17 -94 17q-83 0 -166 -68z" />
    <glyph glyph-name="adieresis" unicode="&#xe4;" horiz-adv-x="1060" 
d="M817 55q-45 -37 -119 -65q-73 -25 -133 -25q-57 0 -57 39t55 137l152 262q-94 -131 -203 -231q-111 -101 -209 -152q-104 -55 -192 -55q-69 0 -109 37q-43 37 -43 123q0 98 51 197q44 91 140 198q101 108 206 180q135 93 256 144q143 61 283 84l23 65h194
q-67 -107 -108 -186q-19 -35 -51 -93.5t-38 -68.5q-69 -132 -69 -194q0 -56 51 -56q36 0 109 31zM207 391q0 -69 106 -69q87 0 172 36q89 36 164 99q77 65 135 147q-64 12 -131 12q-117 0 -219 -30q-109 -37 -164 -84q-63 -51 -63 -111zM821 1108q-62 -41 -127 -41
q-42 0 -65 20q-25 19 -25 62q0 56 41 115q39 54 103 94q59 39 124 39q41 0 66 -19q25 -22 25 -61q0 -57 -39 -113q-36 -52 -103 -96zM1116 1358q59 39 125 39q41 0 66 -19q24 -21 24 -61q0 -57 -39 -113q-37 -53 -102 -96q-62 -41 -127 -41q-43 0 -66 20q-24 18 -24 62
q0 56 41 115q40 55 102 94z" />
    <glyph glyph-name="aring" unicode="&#xe5;" horiz-adv-x="1060" 
d="M817 55q-45 -37 -119 -65q-73 -25 -133 -25q-57 0 -57 39t55 137l152 262q-94 -131 -203 -231q-111 -101 -209 -152q-104 -55 -192 -55q-69 0 -109 37q-43 37 -43 123q0 98 51 197q44 91 140 198q101 108 206 180q135 93 256 144q143 61 283 84l23 65h194
q-67 -107 -108 -186q-19 -35 -51 -93.5t-38 -68.5q-69 -132 -69 -194q0 -56 51 -56q36 0 109 31zM207 391q0 -69 106 -69q87 0 172 36q89 36 164 99q77 65 135 147q-64 12 -131 12q-117 0 -219 -30q-109 -37 -164 -84q-63 -51 -63 -111zM979 1102q-65 -41 -135 -41
q-57 0 -88 31q-33 29 -33 82q0 64 43 122q44 58 108 99q62 39 134 39q53 0 90 -29q32 -25 32 -82q0 -63 -43 -121q-41 -58 -108 -100zM889 1165q48 0 90 39q43 40 43 80q0 47 -55 47q-47 0 -90 -37t-43 -80q0 -49 55 -49z" />
    <glyph glyph-name="ae" unicode="&#xe6;" horiz-adv-x="1570" 
d="M1321 86q-195 -121 -420 -121q-301 0 -301 230q0 35 6 75q-126 -144 -254 -223q-131 -82 -241 -82q-69 0 -109 37q-43 37 -43 123q0 98 51 197q44 91 140 198q101 108 206 180q135 93 256 144q143 61 283 84l23 65h194q-10 -17 -33.5 -56t-36.5 -60q-35 -56 -61 -107
q105 70 219 117q110 45 219 45q199 0 199 -166q0 -115 -92 -207q-93 -93 -254 -145q-168 -54 -373 -54q-17 0 -119 5q6 -78 193 -78q151 0 284 39q144 39 228 86zM270 502q-63 -51 -63 -111q0 -69 106 -69q87 0 172 36q89 36 164 99q77 65 135 147q-64 12 -131 12
q-117 0 -219 -30q-109 -37 -164 -84zM1255 514q66 35 66 76q0 47 -92 47q-76 0 -168 -29q-87 -31 -156 -76q-66 -44 -102 -98q147 3 270 25q119 21 182 55z" />
    <glyph glyph-name="ccedilla" unicode="&#xe7;" horiz-adv-x="868" 
d="M614 80q-84 -59 -174 -86q-101 -29 -188 -29q-126 0 -199 58q-73 55 -73 180q0 107 51 209t141 198q87 90 211 166q126 74 256 115q140 41 283 41q52 0 104 -6l-184 -361q-95 15 -109 17q-74 4 -100 4q-111 0 -227 -29q-108 -27 -173 -74t-65 -96q0 -38 41 -53
q43 -19 117 -19q76 0 166 19q64 11 167 45q78 27 140 63zM-90 -322q131 0 233 29q93 30 93 76q0 35 -86 35h-23q-7 0 -43 -4l145 274h101l-109 -205q127 -47 127 -153t-123 -205q-125 -96 -329 -154z" />
    <glyph glyph-name="egrave" unicode="&#xe8;" horiz-adv-x="948" 
d="M698 86q-195 -121 -419 -121q-302 0 -302 230q0 98 52 202q51 108 135 201q81 93 190 170q103 73 221 121q113 43 222 43q198 0 198 -166q0 -115 -92 -207q-93 -93 -254 -145q-168 -54 -373 -54q-16 0 -118 5q6 -78 192 -78q152 0 285 39q142 39 227 86zM283 532
q-68 -45 -103 -98q148 3 271 25q119 21 182 55q65 35 65 76q0 47 -92 47q-76 0 -168 -29q-85 -30 -155 -76zM453 1481h311l110 -430h-102z" />
    <glyph glyph-name="eacute" unicode="&#xe9;" horiz-adv-x="948" 
d="M698 86q-195 -121 -419 -121q-302 0 -302 230q0 98 52 202q51 108 135 201q81 93 190 170q103 73 221 121q113 43 222 43q198 0 198 -166q0 -115 -92 -207q-93 -93 -254 -145q-168 -54 -373 -54q-16 0 -118 5q6 -78 192 -78q152 0 285 39q142 39 227 86zM283 532
q-68 -45 -103 -98q148 3 271 25q119 21 182 55q65 35 65 76q0 47 -92 47q-76 0 -168 -29q-85 -30 -155 -76zM1057 1481h332l-521 -430h-133z" />
    <glyph glyph-name="ecircumflex" unicode="&#xea;" horiz-adv-x="948" 
d="M698 86q-195 -121 -419 -121q-302 0 -302 230q0 98 52 202q51 108 135 201q81 93 190 170q103 73 221 121q113 43 222 43q198 0 198 -166q0 -115 -92 -207q-93 -93 -254 -145q-168 -54 -373 -54q-16 0 -118 5q6 -78 192 -78q152 0 285 39q142 39 227 86zM283 532
q-68 -45 -103 -98q148 3 271 25q119 21 182 55q65 35 65 76q0 47 -92 47q-76 0 -168 -29q-85 -30 -155 -76zM1124 1501h45l-26 -450h-72l-108 127l-349 -127h-153z" />
    <glyph glyph-name="edieresis" unicode="&#xeb;" horiz-adv-x="948" 
d="M698 86q-195 -121 -419 -121q-302 0 -302 230q0 98 52 202q51 108 135 201q81 93 190 170q103 73 221 121q113 43 222 43q198 0 198 -166q0 -115 -92 -207q-93 -93 -254 -145q-168 -54 -373 -54q-16 0 -118 5q6 -78 192 -78q152 0 285 39q142 39 227 86zM283 532
q-68 -45 -103 -98q148 3 271 25q119 21 182 55q65 35 65 76q0 47 -92 47q-76 0 -168 -29q-85 -30 -155 -76zM709 1047q-62 -41 -127 -41q-43 0 -66 20q-24 18 -24 61q0 57 40 115q39 54 103 94q59 39 125 39q41 0 65 -18q25 -22 25 -62q0 -56 -39 -112q-37 -53 -102 -96z
M1004 1296q59 39 124 39q42 0 66 -18q25 -22 25 -62q0 -56 -39 -112q-36 -52 -103 -96q-62 -41 -127 -41q-42 0 -65 20q-25 19 -25 61q0 56 41 115q39 54 103 94z" />
    <glyph glyph-name="igrave" unicode="&#xec;" horiz-adv-x="608" 
d="M375 76q-76 -52 -152 -82q-82 -29 -133 -29q-65 0 -65 41q0 17 12 41q16 31 57 94q90 146 131 230q39 79 39 125q0 55 -69 55q-27 0 -64 -6q-15 -4 -41 -11t-31 -8l140 275q27 31 86 63q66 32 118 49q65 19 109 19q70 0 70 -37q0 -11 -11 -37q-1 -1 -17.5 -31.5
t-31.5 -56.5q-63 -104 -114 -215q-41 -90 -41 -127q0 -35 41 -35q40 0 143 33zM143 1481h312l110 -430h-102z" />
    <glyph glyph-name="iacute" unicode="&#xed;" horiz-adv-x="608" 
d="M375 76q-76 -52 -152 -82q-82 -29 -133 -29q-65 0 -65 41q0 17 12 41q16 31 57 94q90 146 131 230q39 79 39 125q0 55 -69 55q-27 0 -64 -6q-15 -4 -41 -11t-31 -8l140 275q27 31 86 63q66 32 118 49q65 19 109 19q70 0 70 -37q0 -11 -11 -37q-1 -1 -17.5 -31.5
t-31.5 -56.5q-63 -104 -114 -215q-41 -90 -41 -127q0 -35 41 -35q40 0 143 33zM748 1481h331l-520 -430h-133z" />
    <glyph glyph-name="icircumflex" unicode="&#xee;" horiz-adv-x="608" 
d="M375 76q-76 -52 -152 -82q-82 -29 -133 -29q-65 0 -65 41q0 17 12 41q16 31 57 94q90 146 131 230q39 79 39 125q0 55 -69 55q-27 0 -64 -6q-15 -4 -41 -11t-31 -8l140 275q27 31 86 63q66 32 118 49q65 19 109 19q70 0 70 -37q0 -11 -11 -37q-1 -1 -17.5 -31.5
t-31.5 -56.5q-63 -104 -114 -215q-41 -90 -41 -127q0 -35 41 -35q40 0 143 33zM815 1501h45l-26 -450h-72l-109 127l-348 -127h-153z" />
    <glyph glyph-name="idieresis" unicode="&#xef;" horiz-adv-x="608" 
d="M375 76q-76 -52 -152 -82q-82 -29 -133 -29q-65 0 -65 41q0 17 12 41q16 31 57 94q90 146 131 230q39 79 39 125q0 55 -69 55q-27 0 -64 -6q-15 -4 -41 -11t-31 -8l140 275q27 31 86 63q66 32 118 49q65 19 109 19q70 0 70 -37q0 -11 -11 -37q-1 -1 -17.5 -31.5
t-31.5 -56.5q-63 -104 -114 -215q-41 -90 -41 -127q0 -35 41 -35q40 0 143 33zM399 1047q-62 -41 -127 -41q-42 0 -65 20q-25 19 -25 61q0 56 41 115q39 54 103 94q59 39 125 39q41 0 65 -18q25 -22 25 -62q0 -56 -39 -112q-36 -52 -103 -96zM694 1296q59 39 125 39
q42 0 66 -18q24 -21 24 -62q0 -56 -39 -112q-37 -53 -102 -96q-62 -41 -127 -41q-43 0 -66 20q-24 18 -24 61q0 56 41 115q40 55 102 94z" />
    <glyph glyph-name="eth" unicode="&#xf0;" horiz-adv-x="1030" 
d="M311 948l209 182q-90 30 -147 44l155 301q124 -77 205 -144l144 144h256l-289 -252q101 -113 147 -232q45 -116 45 -237q0 -133 -45 -246q-44 -114 -127 -217q-81 -100 -180 -172q-101 -73 -211 -113q-105 -41 -219 -41q-124 0 -191 58q-69 54 -69 174q0 97 43 198
q42 99 117 195q70 92 165 168q92 72 199 119q101 43 203 43q91 0 156 -41q64 -40 88 -129q-9 84 -84 168q-79 82 -199 145l-113 -115h-258zM328 315q96 0 200 19q95 18 177 49q75 26 124 66q48 39 48 75q0 30 -43 45q-49 17 -121 17q-95 0 -199 -19q-82 -15 -180 -47
q-82 -30 -131 -67q-49 -40 -49 -76q0 -30 47 -45q53 -17 127 -17z" />
    <glyph glyph-name="ntilde" unicode="&#xf1;" horiz-adv-x="1146" 
d="M397 465q143 237 279 354q131 113 260 113q59 0 96 -29q35 -27 35 -80q0 -65 -66 -176q-98 -165 -98 -217q0 -37 45 -37q42 0 142 33l-177 -350q-77 -53 -151 -82q-82 -29 -135 -29q-66 0 -66 41q0 20 14 45q11 25 52 90q88 144 131 232q39 79 39 125q0 53 -70 53
q-79 0 -186 -64q-111 -66 -205 -163l-137 -324h-195q141 226 193 330q57 114 57 168q0 53 -66 53q-43 0 -129 -25l140 275q27 30 84 61t116 51q65 19 105 19q67 0 67 -39q0 -10 -2 -16q-9 -27 -10 -29zM643 1282q65 127 182 127q42 0 88 -16q13 -4 42 -16t46 -17
q53 -17 95 -17q83 0 166 68l-121 -233q-65 -127 -183 -127q-42 0 -88 16q-13 4 -42 16t-46 17q-50 16 -94 16q-84 0 -166 -67z" />
    <glyph glyph-name="ograve" unicode="&#xf2;" horiz-adv-x="1024" 
d="M-8 201q0 105 45 207q46 104 125 198q74 92 180 168q105 76 213 117q112 41 221 41q258 0 258 -236q0 -105 -45 -207t-123 -198q-82 -97 -180 -168q-105 -76 -213 -115q-113 -43 -223 -43q-258 0 -258 236zM324 313q90 0 194 19q91 17 178 49q78 30 129 68q49 34 49 69
q0 66 -174 66q-90 0 -190 -19q-93 -17 -178 -49q-79 -29 -131 -65q-49 -37 -49 -72q0 -66 172 -66zM438 1481h312l110 -430h-102z" />
    <glyph glyph-name="oacute" unicode="&#xf3;" horiz-adv-x="1024" 
d="M-8 201q0 105 45 207q46 104 125 198q74 92 180 168q105 76 213 117q112 41 221 41q258 0 258 -236q0 -105 -45 -207t-123 -198q-82 -97 -180 -168q-105 -76 -213 -115q-113 -43 -223 -43q-258 0 -258 236zM324 313q90 0 194 19q91 17 178 49q78 30 129 68q49 34 49 69
q0 66 -174 66q-90 0 -190 -19q-93 -17 -178 -49q-79 -29 -131 -65q-49 -37 -49 -72q0 -66 172 -66zM1042 1481h332l-520 -430h-133z" />
    <glyph glyph-name="ocircumflex" unicode="&#xf4;" horiz-adv-x="1024" 
d="M-8 201q0 105 45 207q46 104 125 198q74 92 180 168q105 76 213 117q112 41 221 41q258 0 258 -236q0 -105 -45 -207t-123 -198q-82 -97 -180 -168q-105 -76 -213 -115q-113 -43 -223 -43q-258 0 -258 236zM324 313q90 0 194 19q91 17 178 49q78 30 129 68q49 34 49 69
q0 66 -174 66q-90 0 -190 -19q-93 -17 -178 -49q-79 -29 -131 -65q-49 -37 -49 -72q0 -66 172 -66zM1110 1501h45l-27 -450h-71l-109 127l-348 -127h-154z" />
    <glyph glyph-name="otilde" unicode="&#xf5;" horiz-adv-x="1024" 
d="M-8 201q0 105 45 207q46 104 125 198q74 92 180 168q105 76 213 117q112 41 221 41q258 0 258 -236q0 -105 -45 -207t-123 -198q-82 -97 -180 -168q-105 -76 -213 -115q-113 -43 -223 -43q-258 0 -258 236zM324 313q90 0 194 19q91 17 178 49q78 30 129 68q49 34 49 69
q0 66 -174 66q-90 0 -190 -19q-93 -17 -178 -49q-79 -29 -131 -65q-49 -37 -49 -72q0 -66 172 -66zM590 1282q65 127 182 127q42 0 88 -16q13 -4 42 -16t46 -17q53 -17 94 -17q83 0 166 68l-121 -233q-65 -127 -182 -127q-42 0 -88 16q-13 4 -42 16t-46 17q-50 16 -94 16
q-84 0 -166 -67z" />
    <glyph glyph-name="odieresis" unicode="&#xf6;" horiz-adv-x="1024" 
d="M-8 201q0 105 45 207q46 104 125 198q74 92 180 168q105 76 213 117q112 41 221 41q258 0 258 -236q0 -105 -45 -207t-123 -198q-82 -97 -180 -168q-105 -76 -213 -115q-113 -43 -223 -43q-258 0 -258 236zM324 313q90 0 194 19q91 17 178 49q78 30 129 68q49 34 49 69
q0 66 -174 66q-90 0 -190 -19q-93 -17 -178 -49q-79 -29 -131 -65q-49 -37 -49 -72q0 -66 172 -66zM694 1047q-62 -41 -127 -41q-42 0 -65 20q-25 19 -25 61q0 56 41 115q39 54 103 94q59 39 124 39q42 0 66 -18q25 -22 25 -62q0 -56 -39 -112q-36 -52 -103 -96zM989 1296
q59 39 125 39q42 0 66 -18q24 -21 24 -62q0 -56 -39 -112q-37 -53 -102 -96q-62 -41 -127 -41q-43 0 -66 20q-24 18 -24 61q0 56 41 115q40 55 102 94z" />
    <glyph glyph-name="divide" unicode="&#xf7;" 
d="M483 -37q-70 -43 -143 -43q-98 0 -98 88q0 67 45 129q48 66 114 107q67 43 140 43q100 0 100 -88q0 -63 -45 -125q-47 -66 -113 -111zM279 604h829l-137 -266h-830zM856 700q-68 -45 -143 -45q-99 0 -99 88q0 67 45 129q47 65 115 107q67 43 139 43q101 0 101 -88
q0 -63 -45 -125q-49 -68 -113 -109z" />
    <glyph glyph-name="oslash" unicode="&#xf8;" horiz-adv-x="1019" 
d="M-260 -33l256 180q-4 32 -4 54q0 103 45 205q42 98 121 196q75 93 178 170q105 76 213 117q113 43 225 43q119 0 182 -51l103 92l184 -62l-215 -149q6 -30 6 -66q0 -101 -45 -200q-46 -104 -123 -199q-82 -97 -180 -168q-102 -77 -213 -119q-110 -45 -225 -45
q-125 0 -191 60l-133 -119zM565 324q96 24 156 53q75 37 113 72q40 37 40 77q0 56 -90 74l-395 -303q77 3 176 27zM618 602q-89 -10 -165 -29q-77 -20 -152 -53q-75 -38 -108 -69q-41 -38 -41 -76q0 -52 79 -70z" />
    <glyph glyph-name="ugrave" unicode="&#xf9;" horiz-adv-x="1148" 
d="M915 76q-76 -52 -149 -82q-82 -29 -131 -29q-78 0 -78 45q0 16 10 39q2 5 9.5 23.5t13.5 31.5l168 338q-152 -244 -289 -360q-138 -117 -266 -117q-131 0 -131 109q0 67 65 176q81 126 103 170q24 50 24 74q0 57 -80 57q-48 0 -125 -25l140 275q41 38 94 65q72 33 119 47
q65 19 108 19q34 0 55 -6q19 -10 19 -31q0 -19 -12 -43q-10 -21 -60 -96q-14 -21 -39 -63t-37 -60q-35 -56 -67 -125q-27 -62 -27 -109q0 -53 68 -53q77 0 180 62t201 163l139 326h195q-138 -225 -144 -235q-58 -101 -76 -146q-22 -55 -22 -82q0 -41 49 -41q50 0 150 33z
M459 1481h311l111 -430h-103z" />
    <glyph glyph-name="uacute" unicode="&#xfa;" horiz-adv-x="1148" 
d="M915 76q-76 -52 -149 -82q-82 -29 -131 -29q-78 0 -78 45q0 16 10 39q2 5 9.5 23.5t13.5 31.5l168 338q-152 -244 -289 -360q-138 -117 -266 -117q-131 0 -131 109q0 67 65 176q81 126 103 170q24 50 24 74q0 57 -80 57q-48 0 -125 -25l140 275q41 38 94 65q72 33 119 47
q65 19 108 19q34 0 55 -6q19 -10 19 -31q0 -19 -12 -43q-10 -21 -60 -96q-14 -21 -39 -63t-37 -60q-35 -56 -67 -125q-27 -62 -27 -109q0 -53 68 -53q77 0 180 62t201 163l139 326h195q-138 -225 -144 -235q-58 -101 -76 -146q-22 -55 -22 -82q0 -41 49 -41q50 0 150 33z
M1063 1481h332l-521 -430h-133z" />
    <glyph glyph-name="ucircumflex" unicode="&#xfb;" horiz-adv-x="1148" 
d="M915 76q-76 -52 -149 -82q-82 -29 -131 -29q-78 0 -78 45q0 16 10 39q2 5 9.5 23.5t13.5 31.5l168 338q-152 -244 -289 -360q-138 -117 -266 -117q-131 0 -131 109q0 67 65 176q81 126 103 170q24 50 24 74q0 57 -80 57q-48 0 -125 -25l140 275q41 38 94 65q72 33 119 47
q65 19 108 19q34 0 55 -6q19 -10 19 -31q0 -19 -12 -43q-10 -21 -60 -96q-14 -21 -39 -63t-37 -60q-35 -56 -67 -125q-27 -62 -27 -109q0 -53 68 -53q77 0 180 62t201 163l139 326h195q-138 -225 -144 -235q-58 -101 -76 -146q-22 -55 -22 -82q0 -41 49 -41q50 0 150 33z
M1130 1501h46l-27 -450h-72l-108 127l-348 -127h-154z" />
    <glyph glyph-name="udieresis" unicode="&#xfc;" horiz-adv-x="1148" 
d="M915 76q-76 -52 -149 -82q-82 -29 -131 -29q-78 0 -78 45q0 16 10 39q2 5 9.5 23.5t13.5 31.5l168 338q-152 -244 -289 -360q-138 -117 -266 -117q-131 0 -131 109q0 67 65 176q81 126 103 170q24 50 24 74q0 57 -80 57q-48 0 -125 -25l140 275q41 38 94 65q72 33 119 47
q65 19 108 19q34 0 55 -6q19 -10 19 -31q0 -19 -12 -43q-10 -21 -60 -96q-14 -21 -39 -63t-37 -60q-35 -56 -67 -125q-27 -62 -27 -109q0 -53 68 -53q77 0 180 62t201 163l139 326h195q-138 -225 -144 -235q-58 -101 -76 -146q-22 -55 -22 -82q0 -41 49 -41q50 0 150 33z
M715 1047q-62 -41 -127 -41q-43 0 -66 20q-24 18 -24 61q0 56 41 115q40 55 102 94q59 39 125 39q41 0 65 -18q25 -22 25 -62q0 -56 -39 -112q-37 -53 -102 -96zM1010 1296q59 39 125 39q41 0 65 -18q25 -22 25 -62q0 -56 -39 -112q-36 -52 -103 -96q-62 -41 -127 -41
q-42 0 -65 20q-25 19 -25 61q0 56 41 115q39 54 103 94z" />
    <glyph glyph-name="yacute" unicode="&#xfd;" horiz-adv-x="880" 
d="M160 -268q-278 -169 -590 -178l184 360q143 -47 252 -47q157 0 252 86q94 88 94 233q0 125 -71 252q-71 122 -201 213l330 291q129 -228 129 -461q0 -215 -105 -393q141 157 232 375q89 222 116 469h250q-144 -422 -368 -725q-222 -304 -504 -475zM930 1481h332
l-521 -430h-133z" />
    <glyph glyph-name="thorn" unicode="&#xfe;" horiz-adv-x="1003" 
d="M315 -117l-110 -241q-47 -24 -99 -43q-57 -21 -118 -33q-58 -12 -105 -12q-86 0 -86 51q0 14 2 20q5 18 11 29q78 171 122 262q26 53 148 295q27 52 90 175t100 194q-102 -24 -209 -70l80 330q144 58 291 78q14 41 14 67q0 51 -67 51q-11 0 -47 -4q-45 -10 -76 -18
l137 274q186 131 346 131q76 0 76 -47q0 -15 -12 -45q-23 -46 -58 -110q-18 -32 -47 -88t-34 -66q-51 -97 -68 -129q20 2 59 2q192 0 291 -57q98 -58 98 -172q0 -75 -32 -146q-39 -88 -90 -151q-54 -70 -138 -138q-250 -195 -667 -278q-15 -38 -15 -57q0 -70 93 -70
q15 0 55 4q28 3 65 12zM647 631q-106 0 -229 -21q-39 -67 -56 -104q-21 -43 -73 -156q176 3 303 29q132 24 205 67t73 99q0 42 -59 63q-64 23 -164 23z" />
    <glyph glyph-name="ydieresis" unicode="&#xff;" horiz-adv-x="880" 
d="M160 -268q-278 -169 -590 -178l184 360q143 -47 252 -47q157 0 252 86q94 88 94 233q0 125 -71 252q-71 122 -201 213l330 291q129 -228 129 -461q0 -215 -105 -393q141 157 232 375q89 222 116 469h250q-144 -422 -368 -725q-222 -304 -504 -475zM582 1047
q-62 -41 -127 -41q-43 0 -66 20q-24 18 -24 61q0 56 41 115q40 55 102 94q59 39 125 39q41 0 65 -18q25 -22 25 -62q0 -56 -39 -112q-37 -53 -102 -96zM877 1296q59 39 124 39q42 0 66 -18q25 -22 25 -62q0 -56 -39 -112q-36 -52 -103 -96q-62 -41 -127 -41q-42 0 -65 20
q-25 19 -25 61q0 56 41 115q39 54 103 94z" />
    <glyph glyph-name="Amacron" unicode="&#x100;" horiz-adv-x="3813" 
d="M100 -256l-59 786q236 -71 463 -108q228 -37 459 -37q848 0 1603 358q39 18 121 64q93 55 135 82q22 14 174 119q154 107 240 170q39 29 149 109.5t179 131.5q-189 0 -379 -35q-186 -34 -410 -112l227 448q64 47 193 90q116 39 268 64q154 22 293 22q155 0 240 -26
q86 -27 86 -78q0 -29 -43 -102q-165 -294 -275 -496q-91 -166 -174 -332q-60 -120 -90 -205q-27 -76 -27 -118q0 -84 101 -84q70 0 190 32l-252 -491q-64 -38 -139 -66q-104 -34 -164 -45q-88 -16 -153 -16q-75 0 -123 31q-45 29 -45 86q0 52 37 110l145 238h-899
q-556 -303 -1061 -445q-517 -145 -1010 -145zM3316 733l444 723q-482 -408 -940 -723h496zM3807 2351h764l-199 -391h-763z" />
    <glyph glyph-name="amacron" unicode="&#x101;" horiz-adv-x="1060" 
d="M817 55q-45 -37 -119 -65q-73 -25 -133 -25q-57 0 -57 39t55 137l152 262q-94 -131 -203 -231q-111 -101 -209 -152q-104 -55 -192 -55q-69 0 -109 37q-43 37 -43 123q0 98 51 197q44 91 140 198q101 108 206 180q135 93 256 144q143 61 283 84l23 65h194
q-67 -107 -108 -186q-19 -35 -51 -93.5t-38 -68.5q-69 -132 -69 -194q0 -56 51 -56q36 0 109 31zM207 391q0 -69 106 -69q87 0 172 36q89 36 164 99q77 65 135 147q-64 12 -131 12q-117 0 -219 -30q-109 -37 -164 -84q-63 -51 -63 -111zM770 1417h588l-154 -301h-588z" />
    <glyph glyph-name="Abreve" unicode="&#x102;" horiz-adv-x="3813" 
d="M100 -256l-59 786q236 -71 463 -108q228 -37 459 -37q848 0 1603 358q39 18 121 64q93 55 135 82q22 14 174 119q154 107 240 170q39 29 149 109.5t179 131.5q-189 0 -379 -35q-186 -34 -410 -112l227 448q64 47 193 90q116 39 268 64q154 22 293 22q155 0 240 -26
q86 -27 86 -78q0 -29 -43 -102q-165 -294 -275 -496q-91 -166 -174 -332q-60 -120 -90 -205q-27 -76 -27 -118q0 -84 101 -84q70 0 190 32l-252 -491q-64 -38 -139 -66q-104 -34 -164 -45q-88 -16 -153 -16q-75 0 -123 31q-45 29 -45 86q0 52 37 110l145 238h-899
q-556 -303 -1061 -445q-517 -145 -1010 -145zM3316 733l444 723q-482 -408 -940 -723h496zM4278 2003q-123 -66 -252 -66q-130 0 -206 64q-80 65 -80 170q0 137 118 276h125q-26 -53 -26 -90q0 -114 188 -114q122 0 211 53q86 51 133 151h156q-60 -151 -152 -262
q-95 -117 -215 -182z" />
    <glyph glyph-name="abreve" unicode="&#x103;" horiz-adv-x="1060" 
d="M817 55q-45 -37 -119 -65q-73 -25 -133 -25q-57 0 -57 39t55 137l152 262q-94 -131 -203 -231q-111 -101 -209 -152q-104 -55 -192 -55q-69 0 -109 37q-43 37 -43 123q0 98 51 197q44 91 140 198q101 108 206 180q135 93 256 144q143 61 283 84l23 65h194
q-67 -107 -108 -186q-19 -35 -51 -93.5t-38 -68.5q-69 -132 -69 -194q0 -56 51 -56q36 0 109 31zM207 391q0 -69 106 -69q87 0 172 36q89 36 164 99q77 65 135 147q-64 12 -131 12q-117 0 -219 -30q-109 -37 -164 -84q-63 -51 -63 -111zM1161 1145q-89 -51 -188 -51
q-102 0 -162 51q-61 52 -61 137q0 103 90 219h96q-18 -41 -18 -69q0 -89 143 -89q93 0 164 41q65 39 100 117h121q-46 -122 -121 -215q-72 -89 -164 -141z" />
    <glyph glyph-name="Aogonek" unicode="&#x104;" horiz-adv-x="3813" 
d="M100 -256l-59 786q236 -71 463 -108q228 -37 459 -37q848 0 1603 358q39 18 121 64q93 55 135 82q22 14 174 119q154 107 240 170q39 29 149 109.5t179 131.5q-189 0 -379 -35q-186 -34 -410 -112l227 448q64 47 193 90q116 39 268 64q154 22 293 22q155 0 240 -26
q86 -27 86 -78q0 -29 -43 -102q-165 -294 -275 -496q-91 -166 -174 -332q-60 -120 -90 -205q-27 -76 -27 -118q0 -84 101 -84q70 0 190 32l-252 -491q-64 -38 -139 -66q-104 -34 -164 -45q-88 -16 -153 -16q-75 0 -123 31q-45 29 -45 86q0 52 37 110l145 238h-899
q-556 -303 -1061 -445q-517 -145 -1010 -145zM3316 733l444 723q-482 -408 -940 -723h496zM3123 -791q-54 -34 -135 -55q-86 -22 -145 -22q-150 0 -150 131q0 93 84 221q78 119 236 258q160 141 348 254h151q-213 -131 -329 -238q-123 -114 -123 -178q0 -55 84 -55
q76 0 161 39z" />
    <glyph glyph-name="aogonek" unicode="&#x105;" horiz-adv-x="1060" 
d="M817 55q-45 -37 -119 -65q-73 -25 -133 -25q-57 0 -57 39t55 137l152 262q-94 -131 -203 -231q-111 -101 -209 -152q-104 -55 -192 -55q-69 0 -109 37q-43 37 -43 123q0 98 51 197q44 91 140 198q101 108 206 180q135 93 256 144q143 61 283 84l23 65h194
q-67 -107 -108 -186q-19 -35 -51 -93.5t-38 -68.5q-69 -132 -69 -194q0 -56 51 -56q36 0 109 31zM207 391q0 -69 106 -69q87 0 172 36q89 36 164 99q77 65 135 147q-64 12 -131 12q-117 0 -219 -30q-109 -37 -164 -84q-63 -51 -63 -111zM518 -549q-49 -27 -106 -43
q-69 -16 -111 -16q-115 0 -115 100q0 73 66 170q71 104 180 199q117 102 268 194h117q-163 -99 -252 -182q-96 -87 -96 -137q0 -43 66 -43q52 0 122 31z" />
    <glyph glyph-name="Cacute" unicode="&#x106;" horiz-adv-x="2009" 
d="M1694 -35q-159 -116 -342 -198q-174 -78 -379 -127q-194 -43 -389 -43q-317 0 -465 124q-154 127 -154 379q0 198 82 402q84 206 229 397q144 193 340 365q200 175 416 299q227 130 459 202q239 74 467 74q198 0 297 -57q102 -58 102 -174q0 -105 -76 -215t-202 -215
q-130 -106 -291 -187q-172 -87 -336 -133q-174 -49 -338 -49h-43q-16 0 -22 2l186 375q85 -45 170 -64q91 -24 186 -24q106 0 183 26q76 23 124 68q46 40 46 92t-58 82q-60 31 -205 31q-162 0 -329 -37q-174 -42 -328 -107q-158 -65 -301 -157q-136 -90 -246 -197
q-110 -110 -166 -219q-61 -113 -61 -225q0 -162 127 -242t346 -80q151 0 319 33q171 30 349 86q160 51 329 127q154 71 260 149zM2087 1960h-195l338 450h453z" />
    <glyph glyph-name="cacute" unicode="&#x107;" horiz-adv-x="868" 
d="M614 80q-84 -59 -174 -86q-101 -29 -188 -29q-126 0 -199 58q-73 55 -73 180q0 107 51 209t141 198q87 90 211 166q126 74 256 115q140 41 283 41q52 0 104 -6l-184 -361q-95 15 -109 17q-74 4 -100 4q-111 0 -227 -29q-108 -27 -173 -74t-65 -96q0 -38 41 -53
q43 -19 117 -19q76 0 166 19q64 11 167 45q78 27 140 63zM1057 1481h332l-521 -430h-133z" />
    <glyph glyph-name="Cdotaccent" unicode="&#x10a;" horiz-adv-x="2009" 
d="M1694 -35q-159 -116 -342 -198q-174 -78 -379 -127q-194 -43 -389 -43q-317 0 -465 124q-154 127 -154 379q0 198 82 402q84 206 229 397q144 193 340 365q200 175 416 299q227 130 459 202q239 74 467 74q198 0 297 -57q102 -58 102 -174q0 -105 -76 -215t-202 -215
q-130 -106 -291 -187q-172 -87 -336 -133q-174 -49 -338 -49h-43q-16 0 -22 2l186 375q85 -45 170 -64q91 -24 186 -24q106 0 183 26q76 23 124 68q46 40 46 92t-58 82q-60 31 -205 31q-162 0 -329 -37q-174 -42 -328 -107q-158 -65 -301 -157q-136 -90 -246 -197
q-110 -110 -166 -219q-61 -113 -61 -225q0 -162 127 -242t346 -80q151 0 319 33q171 30 349 86q160 51 329 127q154 71 260 149zM2286 2075q-63 -57 -127 -84q-67 -33 -138 -33q-127 0 -127 115q0 64 35 129q36 68 90 116q58 52 127 86q70 31 138 31q129 0 129 -115
q0 -62 -35 -127q-36 -68 -92 -118z" />
    <glyph glyph-name="cdotaccent" unicode="&#x10b;" horiz-adv-x="868" 
d="M614 80q-84 -59 -174 -86q-101 -29 -188 -29q-126 0 -199 58q-73 55 -73 180q0 107 51 209t141 198q87 90 211 166q126 74 256 115q140 41 283 41q52 0 104 -6l-184 -361q-95 15 -109 17q-74 4 -100 4q-111 0 -227 -29q-108 -27 -173 -74t-65 -96q0 -38 41 -53
q43 -19 117 -19q76 0 166 19q64 11 167 45q78 27 140 63zM913 1051q-65 -41 -135 -41q-92 0 -92 86q0 62 43 123q44 59 109 100t133 41q94 0 94 -84q0 -60 -43 -121q-42 -62 -109 -104z" />
    <glyph glyph-name="Ccaron" unicode="&#x10c;" horiz-adv-x="2009" 
d="M1694 -35q-159 -116 -342 -198q-174 -78 -379 -127q-194 -43 -389 -43q-317 0 -465 124q-154 127 -154 379q0 198 82 402q84 206 229 397q144 193 340 365q200 175 416 299q227 130 459 202q239 74 467 74q198 0 297 -57q102 -58 102 -174q0 -105 -76 -215t-202 -215
q-130 -106 -291 -187q-172 -87 -336 -133q-174 -49 -338 -49h-43q-16 0 -22 2l186 375q85 -45 170 -64q91 -24 186 -24q106 0 183 26q76 23 124 68q46 40 46 92t-58 82q-60 31 -205 31q-162 0 -329 -37q-174 -42 -328 -107q-158 -65 -301 -157q-136 -90 -246 -197
q-110 -110 -166 -219q-61 -113 -61 -225q0 -162 127 -242t346 -80q151 0 319 33q171 30 349 86q160 51 329 127q154 71 260 149zM1976 2546h95l139 -166l459 166h194l-862 -586h-59z" />
    <glyph glyph-name="ccaron" unicode="&#x10d;" horiz-adv-x="868" 
d="M614 80q-84 -59 -174 -86q-101 -29 -188 -29q-126 0 -199 58q-73 55 -73 180q0 107 51 209t141 198q87 90 211 166q126 74 256 115q140 41 283 41q52 0 104 -6l-184 -361q-95 15 -109 17q-74 4 -100 4q-111 0 -227 -29q-108 -27 -173 -74t-65 -96q0 -38 41 -53
q43 -19 117 -19q76 0 166 19q64 11 167 45q78 27 140 63zM754 1051h-45l26 450h72l108 -127l349 127h153z" />
    <glyph glyph-name="Dcaron" unicode="&#x10e;" horiz-adv-x="2990" 
d="M1090 -135q-150 0 -232 16q-78 18 -78 76q0 29 21 70q19 43 55 96q213 315 373 575q219 356 379 629q-293 -37 -590 -121q-281 -83 -569 -213l133 551q128 61 284 111q138 46 340 94q215 48 363 70q182 27 344 36l82 142h297l-127 -135q325 -9 551 -78q228 -69 352 -203
q121 -133 121 -334q0 -195 -92 -393q-89 -194 -269 -377q-177 -177 -432 -315q-253 -137 -584 -217t-722 -80zM2580 573q185 90 285 205q103 118 103 250q0 165 -213 248q-210 82 -672 82q-143 0 -258 -8l-502 -944q165 -19 315 -19q278 0 519 49q241 50 423 137zM2564 2546
h94l140 -166l458 166h195l-862 -586h-60z" />
    <glyph glyph-name="dcaron" unicode="&#x10f;" horiz-adv-x="1257" 
d="M977 647q-54 -107 -66 -137q-18 -47 -18 -72q0 -39 49 -39q34 0 129 27l-176 -350q-82 -52 -164 -82q-89 -29 -137 -29q-84 0 -84 45q0 24 12 51q1 2 41 80l152 262q-94 -131 -203 -231q-111 -101 -209 -152q-104 -55 -192 -55q-69 0 -109 37q-43 37 -43 125q0 98 55 205
t154 209q97 100 227 186q127 81 277 141q145 55 303 70q12 30 12 51q0 49 -69 49q-50 0 -136 -24l138 274q186 131 346 131q75 0 75 -47q0 -11 -10 -41q-5 -11 -59 -114zM207 391q0 -69 106 -69q91 0 179 36q94 39 174 101q81 63 139 145q-65 12 -135 12q-120 0 -228 -30
q-110 -35 -170 -84q-65 -53 -65 -111zM1376 932h-116q35 66 71 158q45 115 64 182q23 79 41 176h293q-85 -158 -179 -291q-97 -137 -174 -225z" />
    <glyph glyph-name="Dcroat" unicode="&#x110;" horiz-adv-x="2990" 
d="M901 696l207 406h367q5 8 133 225q-293 -37 -590 -121q-281 -83 -569 -213l133 551q128 61 284 111q138 46 340 94q215 48 363 70q182 27 344 36l82 142h297l-127 -135q325 -9 551 -78q228 -69 352 -203q121 -133 121 -334q0 -195 -92 -393q-89 -194 -269 -377
q-177 -177 -432 -315q-253 -137 -584 -217t-722 -80q-150 0 -232 16q-78 18 -78 76q0 29 21 70q19 43 55 96q157 232 371 573h-326zM1694 1102h549l-207 -406h-557l-156 -290q165 -19 315 -19q278 0 519 49q241 50 423 137q185 90 285 205q103 118 103 250q0 165 -213 248
q-210 82 -672 82q-143 0 -258 -8z" />
    <glyph glyph-name="dcroat" unicode="&#x111;" horiz-adv-x="1126" 
d="M573 1006l156 301h422l53 112h213l-80 -112h160l-149 -301h-185l-186 -359q-54 -107 -66 -137q-18 -47 -18 -72q0 -39 49 -39q34 0 129 27l-176 -350q-82 -52 -164 -82q-89 -29 -137 -29q-84 0 -84 45q0 24 12 51q1 2 41 80l152 262q-94 -131 -203 -231
q-111 -101 -209 -152q-104 -55 -192 -55q-69 0 -109 37q-43 37 -43 125q0 100 55 207q54 105 156 207q97 100 227 186q127 81 277 141q145 55 301 70l33 68h-435zM207 391q0 -69 106 -69q91 0 179 36q94 39 174 101q81 63 139 145q-65 12 -135 12q-120 0 -228 -30
q-110 -35 -170 -84q-65 -53 -65 -111z" />
    <glyph glyph-name="Emacron" unicode="&#x112;" horiz-adv-x="2934" 
d="M526 492q-239 193 -239 364q0 44 14 90q17 53 55 119q46 80 119 182q82 116 199 219q111 94 252 160t342 113q178 42 463 71q283 26 616 37q433 11 807 11l-254 -498l-969 10q-102 -156 -166 -266h1008l-209 -406h-997l-23 -51q-21 -56 -26 -78q-11 -50 -11 -63
q0 -52 37 -82q32 -32 125 -45q83 -14 252 -14q243 0 483 43q239 40 502 129l-240 -469q-108 -40 -258 -78q-165 -41 -323 -66q-194 -30 -348 -43q-187 -16 -326 -16q-155 0 -244 12q-86 12 -127 41q-39 29 -39 82q0 44 48 152t131 251q130 225 295 502q142 243 274 465
q-277 0 -483 -14q-209 -14 -383 -43q-161 -27 -254 -66q-90 -38 -90 -80q0 -38 79 -84q75 -44 195 -69zM2351 2351h764l-199 -391h-764z" />
    <glyph glyph-name="emacron" unicode="&#x113;" horiz-adv-x="948" 
d="M698 86q-195 -121 -419 -121q-302 0 -302 230q0 98 52 202q51 108 135 201q81 93 190 170q103 73 221 121q113 43 222 43q198 0 198 -166q0 -115 -92 -207q-93 -93 -254 -145q-168 -54 -373 -54q-16 0 -118 5q6 -78 192 -78q152 0 285 39q142 39 227 86zM283 532
q-68 -45 -103 -98q148 3 271 25q119 21 182 55q65 35 65 76q0 47 -92 47q-76 0 -168 -29q-85 -30 -155 -76zM657 1356h588l-153 -301h-588z" />
    <glyph glyph-name="Edotaccent" unicode="&#x116;" horiz-adv-x="2934" 
d="M526 492q-239 193 -239 364q0 44 14 90q17 53 55 119q46 80 119 182q82 116 199 219q111 94 252 160t342 113q178 42 463 71q283 26 616 37q433 11 807 11l-254 -498l-969 10q-102 -156 -166 -266h1008l-209 -406h-997l-23 -51q-21 -56 -26 -78q-11 -50 -11 -63
q0 -52 37 -82q32 -32 125 -45q83 -14 252 -14q243 0 483 43q239 40 502 129l-240 -469q-108 -40 -258 -78q-165 -41 -323 -66q-194 -30 -348 -43q-187 -16 -326 -16q-155 0 -244 12q-86 12 -127 41q-39 29 -39 82q0 44 48 152t131 251q130 225 295 502q142 243 274 465
q-277 0 -483 -14q-209 -14 -383 -43q-161 -27 -254 -66q-90 -38 -90 -80q0 -38 79 -84q75 -44 195 -69zM2832 2075q-63 -57 -127 -84q-67 -33 -137 -33q-127 0 -127 115q0 64 35 129q36 68 90 116q58 52 127 86q70 31 137 31q129 0 129 -115q0 -63 -34 -127
q-36 -66 -93 -118z" />
    <glyph glyph-name="edotaccent" unicode="&#x117;" horiz-adv-x="948" 
d="M698 86q-195 -121 -419 -121q-302 0 -302 230q0 98 52 202q51 108 135 201q81 93 190 170q103 73 221 121q113 43 222 43q198 0 198 -166q0 -115 -92 -207q-93 -93 -254 -145q-168 -54 -373 -54q-16 0 -118 5q6 -78 192 -78q152 0 285 39q142 39 227 86zM283 532
q-68 -45 -103 -98q148 3 271 25q119 21 182 55q65 35 65 76q0 47 -92 47q-76 0 -168 -29q-85 -30 -155 -76zM913 1051q-65 -41 -135 -41q-92 0 -92 86q0 62 43 123q44 59 109 100t133 41q94 0 94 -84q0 -60 -43 -121q-42 -62 -109 -104z" />
    <glyph glyph-name="Eogonek" unicode="&#x118;" horiz-adv-x="2934" 
d="M526 492q-239 193 -239 364q0 44 14 90q17 53 55 119q46 80 119 182q82 116 199 219q111 94 252 160t342 113q178 42 463 71q283 26 616 37q433 11 807 11l-254 -498l-969 10q-102 -156 -166 -266h1008l-209 -406h-997l-23 -51q-21 -56 -26 -78q-11 -50 -11 -63
q0 -52 37 -82q32 -32 125 -45q83 -14 252 -14q243 0 483 43q239 40 502 129l-240 -469q-108 -40 -258 -78q-165 -41 -323 -66q-194 -30 -348 -43q-187 -16 -326 -16q-155 0 -244 12q-86 12 -127 41q-39 29 -39 82q0 44 48 152t131 251q130 225 295 502q142 243 274 465
q-277 0 -483 -14q-209 -14 -383 -43q-161 -27 -254 -66q-90 -38 -90 -80q0 -38 79 -84q75 -44 195 -69zM2277 -719q-54 -34 -135 -55q-90 -23 -145 -23q-150 0 -150 131q0 94 84 222q78 119 236 258q160 141 348 254h151q-213 -131 -329 -238q-123 -114 -123 -178
q0 -55 84 -55q79 0 162 38z" />
    <glyph glyph-name="eogonek" unicode="&#x119;" horiz-adv-x="948" 
d="M698 86q-195 -121 -419 -121q-302 0 -302 230q0 98 52 202q51 108 135 201q81 93 190 170q103 73 221 121q113 43 222 43q198 0 198 -166q0 -115 -92 -207q-93 -93 -254 -145q-168 -54 -373 -54q-16 0 -118 5q6 -78 192 -78q152 0 285 39q142 39 227 86zM283 532
q-68 -45 -103 -98q148 3 271 25q119 21 182 55q65 35 65 76q0 47 -92 47q-76 0 -168 -29q-85 -30 -155 -76zM344 -549q-49 -27 -106 -43q-69 -16 -111 -16q-115 0 -115 100q0 73 66 170q71 104 180 199q117 102 268 194h117q-163 -99 -252 -182q-96 -87 -96 -137
q0 -43 65 -43q53 0 123 31z" />
    <glyph glyph-name="Ecaron" unicode="&#x11a;" horiz-adv-x="2934" 
d="M526 492q-239 193 -239 364q0 44 14 90q17 53 55 119q46 80 119 182q82 116 199 219q111 94 252 160t342 113q178 42 463 71q283 26 616 37q433 11 807 11l-254 -498l-969 10q-102 -156 -166 -266h1008l-209 -406h-997l-23 -51q-21 -56 -26 -78q-11 -50 -11 -63
q0 -52 37 -82q32 -32 125 -45q83 -14 252 -14q243 0 483 43q239 40 502 129l-240 -469q-108 -40 -258 -78q-165 -41 -323 -66q-194 -30 -348 -43q-187 -16 -326 -16q-155 0 -244 12q-86 12 -127 41q-39 29 -39 82q0 44 48 152t131 251q130 225 295 502q142 243 274 465
q-277 0 -483 -14q-209 -14 -383 -43q-161 -27 -254 -66q-90 -38 -90 -80q0 -38 79 -84q75 -44 195 -69zM2523 2546h94l140 -166l458 166h195l-862 -586h-60z" />
    <glyph glyph-name="ecaron" unicode="&#x11b;" horiz-adv-x="948" 
d="M698 86q-195 -121 -419 -121q-302 0 -302 230q0 98 52 202q51 108 135 201q81 93 190 170q103 73 221 121q113 43 222 43q198 0 198 -166q0 -115 -92 -207q-93 -93 -254 -145q-168 -54 -373 -54q-16 0 -118 5q6 -78 192 -78q152 0 285 39q142 39 227 86zM283 532
q-68 -45 -103 -98q148 3 271 25q119 21 182 55q65 35 65 76q0 47 -92 47q-76 0 -168 -29q-85 -30 -155 -76zM754 1051h-45l26 450h72l108 -127l349 127h153z" />
    <glyph glyph-name="Gbreve" unicode="&#x11e;" horiz-adv-x="1990" 
d="M1724 141q-149 -286 -303 -483q-162 -207 -329 -330q-175 -126 -383 -188q-211 -60 -457 -60q-171 0 -383 31q-214 31 -465 94l315 615q152 -59 318 -99q148 -36 334 -59q161 -20 315 -20q167 0 285 26q121 27 223 88q103 67 188 168q105 124 187 260l186 303
q-108 -126 -252 -237q-147 -116 -307 -197q-173 -87 -332 -131q-171 -47 -323 -47q-216 0 -336 105q-121 106 -121 333q0 195 86 387q82 183 244 365q158 175 370 317q217 148 471 254q265 111 547 168q292 60 590 60q90 0 176 -6l-305 -607q-146 45 -291 64
q-156 20 -323 20q-262 0 -492 -53q-220 -51 -397 -143q-169 -91 -264 -209q-97 -123 -97 -250q0 -149 127 -217t389 -68q130 0 295 19q158 15 293 49q139 30 226 76h-777l205 405h989zM2277 2003q-123 -66 -252 -66q-130 0 -206 64q-80 65 -80 170q0 136 119 276h124
q-26 -53 -26 -90q0 -114 188 -114q122 0 211 53q86 51 133 151h156q-60 -151 -152 -262q-95 -117 -215 -182z" />
    <glyph glyph-name="gbreve" unicode="&#x11f;" horiz-adv-x="917" 
d="M-360 -395l167 329q108 -44 195 -67q84 -19 156 -19q84 0 155 27q67 26 140 105q68 73 145 219l84 155q-141 -182 -293 -291q-153 -108 -276 -108q-69 0 -111 31q-43 34 -43 118q0 96 51 195q49 100 137 199q99 106 207 180q126 89 254 143q136 59 281 86l22 66h189
q-13 -21 -26 -43.5t-27.5 -47.5t-22.5 -38q-28 -47 -61 -119q-29 -60 -64 -137q-38 -85 -78 -178l-102 -238q-83 -192 -168 -311q-88 -123 -180 -189q-97 -66 -195 -92t-209 -26q-83 0 -160 12q-81 13 -167 39zM653 596q-114 0 -219 -31q-109 -37 -164 -84q-63 -51 -63 -110
q0 -70 106 -70q85 0 172 37q92 37 164 98q80 67 137 148q-65 12 -133 12zM1161 1145q-89 -51 -188 -51q-102 0 -162 51q-61 52 -61 137q0 103 90 219h96q-18 -41 -18 -69q0 -89 143 -89q93 0 164 41q65 39 100 117h121q-46 -122 -121 -215q-72 -89 -164 -141z" />
    <glyph glyph-name="Gdotaccent" unicode="&#x120;" horiz-adv-x="1990" 
d="M1724 141q-149 -286 -303 -483q-162 -207 -329 -330q-175 -126 -383 -188q-211 -60 -457 -60q-171 0 -383 31q-214 31 -465 94l315 615q152 -59 318 -99q148 -36 334 -59q161 -20 315 -20q167 0 285 26q121 27 223 88q103 67 188 168q105 124 187 260l186 303
q-108 -126 -252 -237q-147 -116 -307 -197q-173 -87 -332 -131q-171 -47 -323 -47q-216 0 -336 105q-121 106 -121 333q0 195 86 387q82 183 244 365q158 175 370 317q217 148 471 254q265 111 547 168q292 60 590 60q90 0 176 -6l-305 -607q-146 45 -291 64
q-156 20 -323 20q-262 0 -492 -53q-220 -51 -397 -143q-169 -91 -264 -209q-97 -123 -97 -250q0 -149 127 -217t389 -68q130 0 295 19q158 15 293 49q139 30 226 76h-777l205 405h989zM2288 2075q-63 -57 -127 -84q-67 -33 -138 -33q-127 0 -127 115q0 64 35 129
q36 68 90 116q58 52 127 86q70 31 138 31q129 0 129 -115q0 -62 -35 -127q-36 -68 -92 -118z" />
    <glyph glyph-name="gdotaccent" unicode="&#x121;" horiz-adv-x="917" 
d="M-360 -395l167 329q108 -44 195 -67q84 -19 156 -19q84 0 155 27q67 26 140 105q68 73 145 219l84 155q-141 -182 -293 -291q-153 -108 -276 -108q-69 0 -111 31q-43 34 -43 118q0 96 51 195q49 100 137 199q99 106 207 180q126 89 254 143q136 59 281 86l22 66h189
q-13 -21 -26 -43.5t-27.5 -47.5t-22.5 -38q-28 -47 -61 -119q-29 -60 -64 -137q-38 -85 -78 -178l-102 -238q-83 -192 -168 -311q-88 -123 -180 -189q-97 -66 -195 -92t-209 -26q-83 0 -160 12q-81 13 -167 39zM653 596q-114 0 -219 -31q-109 -37 -164 -84q-63 -51 -63 -110
q0 -70 106 -70q85 0 172 37q92 37 164 98q80 67 137 148q-65 12 -133 12zM1026 1112q-65 -41 -135 -41q-92 0 -92 86q0 62 43 123q45 60 108 100q65 41 133 41q95 0 95 -84q0 -59 -43 -120q-43 -63 -109 -105z" />
    <glyph glyph-name="uni0122" unicode="&#x122;" horiz-adv-x="1990" 
d="M1724 141q-149 -286 -303 -483q-162 -207 -329 -330q-175 -126 -383 -188q-211 -60 -457 -60q-171 0 -383 31q-214 31 -465 94l315 615q152 -59 318 -99q148 -36 334 -59q161 -20 315 -20q167 0 285 26q121 27 223 88q103 67 188 168q105 124 187 260l186 303
q-108 -126 -252 -237q-147 -116 -307 -197q-173 -87 -332 -131q-171 -47 -323 -47q-216 0 -336 105q-121 106 -121 333q0 195 86 387q82 183 244 365q158 175 370 317q217 148 471 254q265 111 547 168q292 60 590 60q90 0 176 -6l-305 -607q-146 45 -291 64
q-156 20 -323 20q-262 0 -492 -53q-220 -51 -397 -143q-169 -91 -264 -209q-97 -123 -97 -250q0 -149 127 -217t389 -68q130 0 295 19q158 15 293 49q139 30 226 76h-777l205 405h989zM-199 -1810l-39 227q155 27 258 80q101 52 101 110q0 79 -187 125l218 307
q170 -99 170 -253q0 -140 -138 -299q-141 -160 -383 -297z" />
    <glyph glyph-name="uni0123" unicode="&#x123;" horiz-adv-x="917" 
d="M-360 -395l167 329q108 -44 195 -67q84 -19 156 -19q84 0 155 27q67 26 140 105q68 73 145 219l84 155q-141 -182 -293 -291q-153 -108 -276 -108q-69 0 -111 31q-43 34 -43 118q0 96 51 195q49 100 137 199q99 106 207 180q126 89 254 143q136 59 281 86l22 66h189
q-13 -21 -26 -43.5t-27.5 -47.5t-22.5 -38q-28 -47 -61 -119q-29 -60 -64 -137q-38 -85 -78 -178l-102 -238q-83 -192 -168 -311q-88 -123 -180 -189q-97 -66 -195 -92t-209 -26q-83 0 -160 12q-81 13 -167 39zM653 596q-114 0 -219 -31q-109 -37 -164 -84q-63 -51 -63 -110
q0 -70 106 -70q85 0 172 37q92 37 164 98q80 67 137 148q-65 12 -133 12zM1112 1673l29 -174q-128 -22 -197 -59q-78 -41 -78 -88q0 -56 144 -97l-168 -235q-131 76 -131 194q0 109 108 232q109 124 293 227z" />
    <glyph glyph-name="Hbar" unicode="&#x126;" horiz-adv-x="3426" 
d="M1581 -303h-379q155 238 232 364q117 191 225 381q103 178 199 363q95 183 161 317q63 131 101 236q-23 1 -67.5 4t-65.5 4q-45 2 -132 2q-205 0 -380 -14q-162 -13 -353 -41q-158 -26 -291 -62q-136 -37 -198 -73q-72 -41 -72 -80t82 -82q77 -45 195 -70l-291 -526
q-244 191 -244 368q0 46 14 89q11 41 54 120q53 92 118 183q26 37 84 102h-280l176 344h578q248 126 552 199q307 71 629 71q159 0 221 -16q58 -18 58 -68q0 -20 -13 -61q-33 -83 -51 -125h871l245 549h379q-29 -46 -91 -141.5t-93 -143.5q-107 -167 -166 -264h375
l-176 -344h-402q-103 -185 -182 -348q-78 -161 -127 -293q-29 -89 -29 -123q0 -82 101 -82q80 0 237 49l-250 -491q-109 -68 -194 -98q-95 -29 -180 -29q-77 0 -123 24q-45 26 -45 72q0 48 37 129l239 537h-872zM2214 1116h872l74 166h-870z" />
    <glyph glyph-name="hbar" unicode="&#x127;" horiz-adv-x="983" 
d="M264 457q102 149 201 248q99 102 207 167q105 60 188 60q69 0 109 -43q39 -45 39 -123q0 -91 -37 -195q-35 -99 -103 -206q-63 -103 -149 -195q-80 -89 -178 -162q-87 -65 -189 -102l82 375q111 15 203 49q90 33 133 76q49 55 49 102q0 67 -102 67q-88 0 -176 -32
q-102 -37 -183 -88q-93 -62 -159 -133l-138 -322h-194q31 44 82 131q28 45 100 182q41 80 137 277q96 201 197 416h-223l155 301h209q8 18 26.5 55.5t27.5 56.5h213l-80 -112h362l-149 -301h-377z" />
    <glyph glyph-name="Itilde" unicode="&#x128;" horiz-adv-x="1460" 
d="M1526 1356q-85 6 -176 6q-147 0 -301 -16q-141 -14 -265 -43q-123 -28 -186 -60q-70 -34 -70 -72t82 -81q77 -45 195 -70l-291 -526q-121 91 -184 186q-60 91 -60 180q0 40 15 90q12 50 53 121q46 80 119 182q90 124 237 234q140 105 330 190q180 82 389 129
q199 45 418 45q108 0 108 -67q0 -14 -6 -35q-8 -18 -30 -61q-19 -34 -97 -191q-45 -90 -120 -250q-85 -176 -166 -356q-32 -72 -109.5 -240.5t-120.5 -263.5q-208 -461 -313 -690h-379q299 428 535 854q238 429 393 805zM1688 2269q44 84 106 127q56 39 127 39q65 0 121 -20
l112 -43q61 -23 119 -23q106 0 219 88l-165 -299q-45 -85 -105 -127q-56 -39 -131 -39q-58 0 -119 23l-110 43q-53 20 -121 20q-106 0 -219 -88z" />
    <glyph glyph-name="itilde" unicode="&#x129;" horiz-adv-x="608" 
d="M375 76q-76 -52 -152 -82q-82 -29 -133 -29q-65 0 -65 41q0 17 12 41q16 31 57 94q90 146 131 230q39 79 39 125q0 55 -69 55q-27 0 -64 -6q-15 -4 -41 -11t-31 -8l140 275q27 31 86 63q66 32 118 49q65 19 109 19q70 0 70 -37q0 -11 -11 -37q-1 -1 -17.5 -31.5
t-31.5 -56.5q-63 -104 -114 -215q-41 -90 -41 -127q0 -35 41 -35q40 0 143 33zM295 1282q65 127 182 127q42 0 88 -16q13 -4 42 -16t46 -17q53 -17 95 -17q82 0 165 68l-120 -233q-65 -127 -183 -127q-42 0 -88 16q-13 4 -42 16t-46 17q-50 16 -94 16q-84 0 -166 -67z" />
    <glyph glyph-name="Imacron" unicode="&#x12a;" horiz-adv-x="1460" 
d="M1526 1356q-85 6 -176 6q-147 0 -301 -16q-141 -14 -265 -43q-123 -28 -186 -60q-70 -34 -70 -72t82 -81q77 -45 195 -70l-291 -526q-121 91 -184 186q-60 91 -60 180q0 40 15 90q12 50 53 121q46 80 119 182q90 124 237 234q140 105 330 190q180 82 389 129
q199 45 418 45q108 0 108 -67q0 -14 -6 -35q-8 -18 -30 -61q-19 -34 -97 -191q-45 -90 -120 -250q-85 -176 -166 -356q-32 -72 -109.5 -240.5t-120.5 -263.5q-208 -461 -313 -690h-379q299 428 535 854q238 429 393 805zM1700 2351h764l-199 -391h-764z" />
    <glyph glyph-name="imacron" unicode="&#x12b;" horiz-adv-x="608" 
d="M375 76q-76 -52 -152 -82q-82 -29 -133 -29q-65 0 -65 41q0 17 12 41q16 31 57 94q90 146 131 230q39 79 39 125q0 55 -69 55q-27 0 -64 -6q-15 -4 -41 -11t-31 -8l140 275q27 31 86 63q66 32 118 49q65 19 109 19q70 0 70 -37q0 -11 -11 -37q-1 -1 -17.5 -31.5
t-31.5 -56.5q-63 -104 -114 -215q-41 -90 -41 -127q0 -35 41 -35q40 0 143 33zM348 1356h588l-154 -301h-587z" />
    <glyph glyph-name="Iogonek" unicode="&#x12e;" horiz-adv-x="1460" 
d="M1526 1356q-85 6 -176 6q-147 0 -301 -16q-141 -14 -265 -43q-123 -28 -186 -60q-70 -34 -70 -72t82 -81q77 -45 195 -70l-291 -526q-121 91 -184 186q-60 91 -60 180q0 40 15 90q12 50 53 121q46 80 119 182q90 124 237 234q140 105 330 190q180 82 389 129
q199 45 418 45q108 0 108 -67q0 -14 -6 -35q-8 -18 -30 -61q-19 -34 -97 -191q-45 -90 -120 -250q-85 -176 -166 -356q-32 -72 -109.5 -240.5t-120.5 -263.5q-208 -461 -313 -690h-379q299 428 535 854q238 429 393 805zM633 -981q-54 -34 -135 -55q-90 -23 -146 -23
q-149 0 -149 131q0 86 55 180q55 100 154 191q104 99 233 178q148 90 295 150l37 -74q-77 -27 -148 -68q-74 -41 -131 -86q-61 -46 -94 -84q-35 -41 -35 -69q0 -56 84 -56q77 0 162 39z" />
    <glyph glyph-name="iogonek" unicode="&#x12f;" horiz-adv-x="608" 
d="M86 -35q-66 0 -66 41q0 15 13 41q16 31 57 94q90 146 131 230q39 79 39 125q0 55 -70 55q-26 0 -63 -6q-15 -4 -41 -11t-31 -8l140 275q27 31 86 63q66 32 118 49q65 19 109 19q70 0 70 -37q0 -11 -11 -37q-1 -1 -17.5 -31.5t-31.5 -56.5q-67 -111 -115 -215
q-41 -90 -41 -127q0 -35 41 -35t144 33l-176 -350q-76 -52 -152 -82q-82 -29 -133 -29zM485 993q-92 0 -92 86q0 62 43 123q45 61 109 101t133 40q94 0 94 -83q0 -60 -43 -121q-43 -65 -108 -105q-65 -41 -136 -41zM39 -549q-48 -27 -107 -43q-69 -16 -110 -16
q-115 0 -115 100q0 76 64 170q68 100 182 199q117 102 268 194h117q-163 -99 -252 -182q-96 -87 -96 -137q0 -43 65 -43q53 0 123 31z" />
    <glyph glyph-name="Idotaccent" unicode="&#x130;" horiz-adv-x="1460" 
d="M1526 1356q-85 6 -176 6q-147 0 -301 -16q-141 -14 -265 -43q-123 -28 -186 -60q-70 -34 -70 -72t82 -81q77 -45 195 -70l-291 -526q-121 91 -184 186q-60 91 -60 180q0 40 15 90q12 50 53 121q46 80 119 182q90 124 237 234q140 105 330 190q180 82 389 129
q199 45 418 45q108 0 108 -67q0 -14 -6 -35q-8 -18 -30 -61q-19 -34 -97 -191q-45 -90 -120 -250q-85 -176 -166 -356q-32 -72 -109.5 -240.5t-120.5 -263.5q-208 -461 -313 -690h-379q299 428 535 854q238 429 393 805zM2181 2075q-63 -57 -127 -84q-67 -33 -137 -33
q-127 0 -127 115q0 64 35 129q36 68 90 116q58 52 127 86q70 31 137 31q129 0 129 -115q0 -62 -35 -127q-36 -68 -92 -118z" />
    <glyph glyph-name="dotlessi" unicode="&#x131;" horiz-adv-x="608" 
d="M375 76q-76 -52 -152 -82q-82 -29 -133 -29q-65 0 -65 41q0 17 12 41q16 31 57 94q90 146 131 230q39 79 39 125q0 55 -69 55q-27 0 -64 -6q-15 -4 -41 -11t-31 -8l140 275q27 31 86 63q66 32 118 49q65 19 109 19q70 0 70 -37q0 -11 -11 -37q-1 -1 -17.5 -31.5
t-31.5 -56.5q-63 -104 -114 -215q-41 -90 -41 -127q0 -35 41 -35q40 0 143 33z" />
    <glyph glyph-name="IJ" unicode="&#x132;" horiz-adv-x="2920" 
d="M2666 197q-267 -569 -630 -842q-366 -275 -846 -275q-88 0 -244 17q-105 11 -284 45q-128 23 -279 63l315 615q485 -178 861 -178q170 0 286 26q120 27 221 94q103 73 195 193q104 138 213 319q58 102 129 234q91 179 139 278q107 223 140 295q67 149 118 275
q-15 1 -43.5 2t-42.5 2q-31 2 -92 2q-144 0 -301 -16q-139 -14 -264 -43q-115 -26 -189 -62q-71 -35 -71 -70q0 -38 82 -81q78 -46 194 -70l-291 -526q-243 156 -243 362q0 45 14 94q12 48 53 123q48 84 119 180q94 126 240 238q143 107 325 190q177 77 387 125
q199 45 422 45q107 0 107 -67q0 -28 -15 -55zM1149 600q88 151 203 377q96 187 174 379q-85 6 -176 6q-147 0 -301 -16q-141 -14 -265 -43q-123 -28 -186 -60q-70 -34 -70 -72t82 -81q77 -45 195 -70l-291 -526q-121 91 -184 186q-60 91 -60 180q0 79 43 166q38 81 144 227
q92 129 245 242q152 110 334 188q180 77 387 125q200 43 408 43q108 0 108 -67q0 -15 -6 -33q-3 -8 -30 -63q-76 -142 -136 -269q-54 -116 -159 -348q-9 -19 -84.5 -188.5t-120.5 -272.5q-183 -424 -262 -610h-379q65 85 182 264q63 97 205 336z" />
    <glyph glyph-name="ij" unicode="&#x133;" horiz-adv-x="966" 
d="M-299 -395l168 329q97 -42 188 -65q83 -21 150 -21q103 0 182 31q76 34 139 109q60 74 119 211l94 219q-148 -236 -278 -342q-132 -111 -260 -111q-131 0 -131 109q0 67 65 176q81 126 103 170q24 50 24 74q0 57 -80 57q-48 0 -125 -25l140 275q41 38 94 65q72 33 119 47
q65 19 108 19q34 0 55 -6q19 -10 19 -31q0 -19 -12 -43q-10 -21 -60 -96q-14 -21 -39 -63t-37 -60q-35 -56 -67 -125q-27 -62 -27 -109q0 -53 68 -53q77 0 180 62q113 68 199 161l139 322h195q-61 -96 -111 -182q-53 -90 -82 -150q-18 -35 -70 -149l-102 -238
q-138 -319 -319 -469q-180 -149 -433 -149q-145 0 -315 51zM733 1139q-43 -65 -108 -105q-65 -41 -136 -41q-92 0 -92 86q0 62 43 123q45 61 109 101t133 40q94 0 94 -83q0 -60 -43 -121zM1243 1139q-43 -65 -108 -105q-65 -41 -136 -41q-92 0 -92 86q0 62 43 123
q45 61 109 101t133 40q94 0 94 -83q0 -60 -43 -121z" />
    <glyph glyph-name="uni0136" unicode="&#x136;" horiz-adv-x="2740" 
d="M2324 -424q-71 -22 -143 -22q-206 0 -336 219q-36 59 -82 164q-29 68 -69 208q-24 85 -66 293q-41 206 -76 420q-17 -33 -102.5 -205.5t-140.5 -283.5q-240 -486 -332 -672h-379q207 272 399 565q177 269 342 561q159 286 269 533q-92 6 -191 6q-159 0 -325 -16
q-154 -15 -287 -43q-135 -29 -201 -60q-76 -34 -76 -72t82 -81q77 -45 195 -70l-291 -526q-121 91 -184 186q-60 91 -60 180q0 38 13 88q13 51 51 117q42 76 110 170q91 125 248 240q151 109 350 196q203 85 420 133q227 47 451 47q106 0 106 -65q0 -13 -2 -23
q-1 -7 -14 -32q-21 -37 -80 -148q-13 -22 -100 -188q-68 -130 -142 -281q280 6 476 41q188 34 313 107q119 72 170 182q53 115 53 276q0 47 -2 70q-3 40 -6 74h584q-125 -201 -295 -389q-180 -199 -369 -347q-201 -158 -412 -274q-212 -117 -424 -182q45 -144 144 -264
q97 -117 225 -181q127 -65 270 -65q66 0 125 12q57 9 121 37zM1032 -1305l-39 228q155 27 258 80q101 52 101 110q0 79 -187 125l217 307q170 -99 170 -254q0 -141 -137 -299q-141 -160 -383 -297z" />
    <glyph glyph-name="uni0137" unicode="&#x137;" horiz-adv-x="976" 
d="M254 442q119 159 219 256q114 111 221 172q109 62 199 62q67 0 108 -35q41 -38 41 -102q0 -41 -14 -84q-15 -46 -51 -95q-52 -70 -146 -127q-96 -56 -213 -90q-124 -36 -247 -47q86 -51 225 -51q85 0 168 25q79 21 137 61l-178 -350q-62 -42 -121 -57q-58 -15 -106 -15
q-132 0 -209 86q-78 87 -105 240l-123 -291h-194q13 22 54 93.5t61 107.5q18 32 52 94.5t52 93.5q46 88 102 203q18 37 57 115.5t60 121.5q51 102 51 156q0 53 -63 53q-41 0 -127 -24l137 274q186 131 346 131q76 0 76 -47q0 -11 -10 -41q-4 -8 -11.5 -22.5t-22 -42
t-26.5 -49.5zM750 582q0 36 -66 36q-56 0 -121 -26q-57 -22 -139 -76q-68 -45 -123 -106q51 8 127 24q62 13 135 37q34 10 103 35q84 35 84 76zM-82 -731l-29 174q125 22 199 61q76 40 76 86q0 56 -144 97l168 235q131 -76 131 -194q0 -111 -106 -232q-107 -122 -295 -227z
" />
    <glyph glyph-name="kgreenlandic" unicode="&#x138;" horiz-adv-x="1116" 
d="M559 848l-180 -422q113 159 227 270q113 110 225 174q109 62 199 62q70 0 111 -35q41 -38 41 -98q0 -42 -19 -94q-15 -41 -47 -89q-75 -97 -223 -165q-154 -72 -338 -93q80 -57 211 -57q75 0 152 25q70 21 122 61l-178 -350q-49 -29 -123 -53q-68 -19 -118 -19
q-118 0 -195 86t-104 240l-123 -291h-195q141 226 193 330q57 114 57 168q0 53 -66 53q-43 0 -129 -25l140 275q27 30 84 61t116 51q65 19 105 19q67 0 67 -39q0 -15 -12 -45zM823 618q-50 0 -123 -28q-60 -23 -137 -76q-73 -48 -123 -104q171 23 365 96q38 14 61 37
q23 20 23 39q0 16 -19 26q-20 10 -47 10z" />
    <glyph glyph-name="Lacute" unicode="&#x139;" horiz-adv-x="2330" 
d="M801 2009h502q-103 -133 -158 -270q-58 -137 -58 -266q0 -151 78 -261q76 -107 221 -163q280 400 562 598q278 196 573 196q153 0 242 -74q90 -78 90 -215q0 -136 -86 -260q-86 -126 -236 -221q-152 -96 -348 -151q-198 -56 -418 -56q-124 0 -254 19q-25 -34 -79 -113
q-54 -76 -113 -164q-107 -161 -176 -270q-67 -104 -160 -236q214 -11 377 -28q107 -11 430 -54q361 -55 448 -71l-288 -576q-287 117 -396 158q-153 60 -331 125q-156 56 -303 102q-64 21 -170 47q-202 -230 -388 -333q-186 -101 -387 -101q-144 0 -204 51q-62 53 -62 127
q0 102 62 185q64 85 151 149q94 69 178 107q124 59 306 86t380 30q104 151 213 330q35 59 140 226q62 104 86 141q21 32 51 82q28 42 33 49q-275 89 -430 278q-158 193 -158 449q0 177 80 348zM1733 991q134 0 260 27q124 27 231 74q109 50 164 102q59 59 59 117
q0 37 -37 61q-44 23 -98 23q-366 0 -708 -398q62 -6 129 -6zM-78 -287q0 -45 129 -45q139 0 279 41q129 38 262 125q-122 16 -217 16q-131 0 -228 -20q-101 -21 -163 -51t-62 -66zM2611 1960h-194l338 450h452z" />
    <glyph glyph-name="lacute" unicode="&#x13a;" horiz-adv-x="509" 
d="M276 76q-83 -53 -163 -82q-89 -29 -138 -29q-79 0 -79 45q0 38 51 137q35 68 55 103q26 50 53 100q22 41 58 105.5t49 89.5q25 46 67 127q8 17 24 49.5t23 48.5q47 101 62 141q16 50 16 74q0 51 -67 51q-13 0 -49 -4q-31 -7 -74 -18l137 274q186 131 346 131q76 0 76 -47
q0 -17 -14 -45q-10 -24 -56 -110q-148 -282 -178 -338q-71 -136 -102 -199q-10 -19 -29.5 -55.5t-26.5 -49.5q-51 -102 -51 -145q0 -37 45 -37q42 0 142 33zM954 1954h332l-520 -430h-133z" />
    <glyph glyph-name="uni013B" unicode="&#x13b;" horiz-adv-x="2330" 
d="M801 2009h502q-103 -133 -158 -270q-58 -137 -58 -266q0 -151 78 -261q76 -107 221 -163q280 400 562 598q278 196 573 196q153 0 242 -74q90 -78 90 -215q0 -136 -86 -260q-86 -126 -236 -221q-152 -96 -348 -151q-198 -56 -418 -56q-124 0 -254 19q-25 -34 -79 -113
q-54 -76 -113 -164q-107 -161 -176 -270q-67 -104 -160 -236q214 -11 377 -28q107 -11 430 -54q361 -55 448 -71l-288 -576q-287 117 -396 158q-153 60 -331 125q-156 56 -303 102q-64 21 -170 47q-202 -230 -388 -333q-186 -101 -387 -101q-144 0 -204 51q-62 53 -62 127
q0 102 62 185q64 85 151 149q94 69 178 107q124 59 306 86t380 30q104 151 213 330q35 59 140 226q62 104 86 141q21 32 51 82q28 42 33 49q-275 89 -430 278q-158 193 -158 449q0 177 80 348zM1733 991q134 0 260 27q124 27 231 74q109 50 164 102q59 59 59 117
q0 37 -37 61q-44 23 -98 23q-366 0 -708 -398q62 -6 129 -6zM-78 -287q0 -45 129 -45q139 0 279 41q129 38 262 125q-122 16 -217 16q-131 0 -228 -20q-101 -21 -163 -51t-62 -66zM555 -1305l-39 228q155 27 258 80q100 51 100 110q0 79 -186 125l217 307q170 -99 170 -254
q0 -141 -137 -299q-141 -160 -383 -297z" />
    <glyph glyph-name="uni013C" unicode="&#x13c;" horiz-adv-x="509" 
d="M276 76q-83 -53 -163 -82q-89 -29 -138 -29q-79 0 -79 45q0 38 51 137q35 68 55 103q26 50 53 100q22 41 58 105.5t49 89.5q25 46 67 127q8 17 24 49.5t23 48.5q47 101 62 141q16 50 16 74q0 51 -67 51q-13 0 -49 -4q-31 -7 -74 -18l137 274q186 131 346 131q76 0 76 -47
q0 -17 -14 -45q-10 -24 -56 -110q-148 -282 -178 -338q-71 -136 -102 -199q-10 -19 -29.5 -55.5t-26.5 -49.5q-51 -102 -51 -145q0 -37 45 -37q42 0 142 33zM-338 -731l-29 174q122 21 197 61q78 41 78 86q0 56 -144 97l168 235q131 -76 131 -194q0 -111 -106 -232
q-107 -122 -295 -227z" />
    <glyph glyph-name="Lcaron" unicode="&#x13d;" horiz-adv-x="2330" 
d="M801 2009h502q-103 -133 -158 -270q-58 -137 -58 -266q0 -151 78 -261q76 -107 221 -163q280 400 562 598q278 196 573 196q153 0 242 -74q90 -78 90 -215q0 -136 -86 -260q-86 -126 -236 -221q-152 -96 -348 -151q-198 -56 -418 -56q-124 0 -254 19q-25 -34 -79 -113
q-54 -76 -113 -164q-107 -161 -176 -270q-67 -104 -160 -236q214 -11 377 -28q107 -11 430 -54q361 -55 448 -71l-288 -576q-287 117 -396 158q-153 60 -331 125q-156 56 -303 102q-64 21 -170 47q-202 -230 -388 -333q-186 -101 -387 -101q-144 0 -204 51q-62 53 -62 127
q0 102 62 185q64 85 151 149q94 69 178 107q124 59 306 86t380 30q104 151 213 330q35 59 140 226q62 104 86 141q21 32 51 82q28 42 33 49q-275 89 -430 278q-158 193 -158 449q0 177 80 348zM1733 991q134 0 260 27q124 27 231 74q109 50 164 102q59 59 59 117
q0 37 -37 61q-44 23 -98 23q-366 0 -708 -398q62 -6 129 -6zM-78 -287q0 -45 129 -45q139 0 279 41q129 38 262 125q-122 16 -217 16q-131 0 -228 -20q-101 -21 -163 -51t-62 -66zM2996 1184h-149q42 78 94 205q46 121 78 229q38 128 51 221h373q-116 -206 -213 -348
q-113 -167 -234 -307z" />
    <glyph glyph-name="lcaron" unicode="&#x13e;" horiz-adv-x="636" 
d="M276 76q-83 -53 -163 -82q-89 -29 -138 -29q-79 0 -79 45q0 38 51 137q35 68 55 103q26 50 53 100q22 41 58 105.5t49 89.5q25 46 67 127q8 17 24 49.5t23 48.5q47 101 62 141q16 50 16 74q0 51 -67 51q-13 0 -49 -4q-31 -7 -74 -18l137 274q186 131 346 131q76 0 76 -47
q0 -17 -14 -45q-10 -24 -56 -110q-148 -282 -178 -338q-71 -136 -102 -199q-10 -19 -29.5 -55.5t-26.5 -49.5q-51 -102 -51 -145q0 -37 45 -37q42 0 142 33zM756 932h-117q39 73 72 158q41 106 63 182q23 79 41 176h293q-89 -164 -178 -291q-97 -137 -174 -225z" />
    <glyph glyph-name="Lslash" unicode="&#x141;" horiz-adv-x="2330" 
d="M1303 2009q-103 -133 -158 -270q-58 -137 -58 -266q0 -151 78 -261q76 -107 221 -163q280 400 562 598q278 196 573 196q153 0 242 -74q90 -78 90 -215q0 -136 -86 -260q-86 -126 -236 -221q-152 -96 -348 -151q-198 -56 -418 -56q-124 0 -254 19q-19 -24 -69 -94
q-9 -12 -92 -136l551 88l-185 -362l-610 -98q-10 -15 -55 -82t-68 -99q214 -11 377 -28q107 -11 430 -54q361 -55 448 -71l-288 -576q-287 117 -396 158q-153 60 -331 125q-156 56 -303 102q-64 21 -170 47q-202 -230 -388 -333q-186 -101 -387 -101q-144 0 -204 51
q-62 53 -62 127q0 102 62 185q64 85 151 149q94 69 178 107q124 59 306 86t380 30q16 23 48.5 71.5t46.5 68.5l-385 -62l184 363l430 69q65 108 104 168q29 44 60 95q25 41 35 55q-275 89 -430 278q-158 193 -158 449q0 177 80 348h502zM2447 1311q0 37 -37 61
q-44 23 -98 23q-366 0 -708 -398q62 -6 129 -6q134 0 260 27q124 27 231 74q109 50 164 102q59 59 59 117zM330 -291q129 38 262 125q-122 16 -217 16q-131 0 -228 -20q-101 -21 -163 -51t-62 -66q0 -45 129 -45q139 0 279 41z" />
    <glyph glyph-name="lslash" unicode="&#x142;" horiz-adv-x="651" 
d="M393 76q-82 -52 -164 -82q-89 -29 -137 -29q-80 0 -80 45q0 38 51 137q9 17 28 51t28 52q26 50 53 100q45 79 104 191l-280 -125l143 284l279 123q37 93 41 105q12 35 12 57q0 51 -68 51q-13 0 -49 -4q-23 -5 -73 -18l137 274q186 131 346 131q76 0 76 -47q0 -15 -15 -45
q-15 -34 -55 -110l-90 -170q-8 -15 -34.5 -65t-39.5 -75l271 121l-144 -285l-276 -122l-23 -46q-51 -102 -51 -145q0 -37 45 -37q41 0 141 33z" />
    <glyph glyph-name="Nacute" unicode="&#x143;" horiz-adv-x="2650" 
d="M-244 125q232 -64 398 -64q139 0 264 23q114 22 205 72q95 54 186 137q72 65 156 184q88 123 178 277q118 208 174 323q83 168 141 322q-7 1 -37.5 4t-50.5 4q-70 4 -104 4q-141 0 -295 -16q-122 -13 -262 -45q-114 -26 -187 -62q-69 -34 -69 -71q0 -39 82 -82
q78 -46 194 -70l-291 -526q-243 191 -243 368q0 41 12 88q13 49 53 119q47 81 121 184q93 125 229 230q142 111 314 192q174 82 366 131q193 47 377 47q161 0 256 -83t139 -275q41 -193 41 -510q0 -57 -4 -229q-6 -127 -18 -307q180 534 360 856q182 329 393 495
q210 160 453 160q39 0 57 -2q36 -4 50 -6l-285 -559q-8 1 -21 4t-18 4q-14 2 -43 2q-180 0 -346 -172q-169 -172 -328 -526q-68 -153 -133 -322q-75 -186 -162 -428h-366q0 372 -27 694q-27 318 -80 547q-90 -202 -139 -299q-76 -156 -156 -303q-86 -159 -155 -270
q-78 -126 -138 -203q-501 -663 -1304 -752zM2472 1960h-195l338 450h453z" />
    <glyph glyph-name="nacute" unicode="&#x144;" horiz-adv-x="1146" 
d="M397 465q143 237 279 354q131 113 260 113q59 0 96 -29q35 -27 35 -80q0 -65 -66 -176q-98 -165 -98 -217q0 -37 45 -37q42 0 142 33l-177 -350q-77 -53 -151 -82q-82 -29 -135 -29q-66 0 -66 41q0 20 14 45q11 25 52 90q88 144 131 232q39 79 39 125q0 53 -70 53
q-79 0 -186 -64q-111 -66 -205 -163l-137 -324h-195q141 226 193 330q57 114 57 168q0 53 -66 53q-43 0 -129 -25l140 275q27 30 84 61t116 51q65 19 105 19q67 0 67 -39q0 -10 -2 -16q-9 -27 -10 -29zM1096 1481h331l-520 -430h-133z" />
    <glyph glyph-name="uni0145" unicode="&#x145;" horiz-adv-x="2650" 
d="M-244 125q232 -64 398 -64q139 0 264 23q114 22 205 72q95 54 186 137q72 65 156 184q88 123 178 277q118 208 174 323q83 168 141 322q-7 1 -37.5 4t-50.5 4q-70 4 -104 4q-141 0 -295 -16q-122 -13 -262 -45q-114 -26 -187 -62q-69 -34 -69 -71q0 -39 82 -82
q78 -46 194 -70l-291 -526q-243 191 -243 368q0 41 12 88q13 49 53 119q47 81 121 184q93 125 229 230q142 111 314 192q174 82 366 131q193 47 377 47q161 0 256 -83t139 -275q41 -193 41 -510q0 -57 -4 -229q-6 -127 -18 -307q180 534 360 856q182 329 393 495
q210 160 453 160q39 0 57 -2q36 -4 50 -6l-285 -559q-8 1 -21 4t-18 4q-14 2 -43 2q-180 0 -346 -172q-169 -172 -328 -526q-68 -153 -133 -322q-75 -186 -162 -428h-366q0 372 -27 694q-27 318 -80 547q-90 -202 -139 -299q-76 -156 -156 -303q-86 -159 -155 -270
q-78 -126 -138 -203q-501 -663 -1304 -752zM891 -928l-39 228q157 27 258 79q100 51 100 111q0 79 -186 125l217 307q170 -99 170 -254q0 -141 -137 -299q-141 -160 -383 -297z" />
    <glyph glyph-name="uni0146" unicode="&#x146;" horiz-adv-x="1146" 
d="M397 465q143 237 279 354q131 113 260 113q59 0 96 -29q35 -27 35 -80q0 -65 -66 -176q-98 -165 -98 -217q0 -37 45 -37q42 0 142 33l-177 -350q-77 -53 -151 -82q-82 -29 -135 -29q-66 0 -66 41q0 20 14 45q11 25 52 90q88 144 131 232q39 79 39 125q0 53 -70 53
q-79 0 -186 -64q-111 -66 -205 -163l-137 -324h-195q141 226 193 330q57 114 57 168q0 53 -66 53q-43 0 -129 -25l140 275q27 30 84 61t116 51q65 19 105 19q67 0 67 -39q0 -10 -2 -16q-9 -27 -10 -29zM86 -731l-29 174q125 22 199 61q76 40 76 86q0 56 -144 97l168 235
q131 -76 131 -194q0 -111 -106 -232q-107 -122 -295 -227z" />
    <glyph glyph-name="Ncaron" unicode="&#x147;" horiz-adv-x="2650" 
d="M-244 125q232 -64 398 -64q139 0 264 23q114 22 205 72q95 54 186 137q72 65 156 184q88 123 178 277q118 208 174 323q83 168 141 322q-7 1 -37.5 4t-50.5 4q-70 4 -104 4q-141 0 -295 -16q-122 -13 -262 -45q-114 -26 -187 -62q-69 -34 -69 -71q0 -39 82 -82
q78 -46 194 -70l-291 -526q-243 191 -243 368q0 41 12 88q13 49 53 119q47 81 121 184q93 125 229 230q142 111 314 192q174 82 366 131q193 47 377 47q161 0 256 -83t139 -275q41 -193 41 -510q0 -57 -4 -229q-6 -127 -18 -307q180 534 360 856q182 329 393 495
q210 160 453 160q39 0 57 -2q36 -4 50 -6l-285 -559q-8 1 -21 4t-18 4q-14 2 -43 2q-180 0 -346 -172q-169 -172 -328 -526q-68 -153 -133 -322q-75 -186 -162 -428h-366q0 372 -27 694q-27 318 -80 547q-90 -202 -139 -299q-76 -156 -156 -303q-86 -159 -155 -270
q-78 -126 -138 -203q-501 -663 -1304 -752zM2361 2546h95l139 -166l459 166h194l-862 -586h-59z" />
    <glyph glyph-name="ncaron" unicode="&#x148;" horiz-adv-x="1146" 
d="M397 465q143 237 279 354q131 113 260 113q59 0 96 -29q35 -27 35 -80q0 -65 -66 -176q-98 -165 -98 -217q0 -37 45 -37q42 0 142 33l-177 -350q-77 -53 -151 -82q-82 -29 -135 -29q-66 0 -66 41q0 20 14 45q11 25 52 90q88 144 131 232q39 79 39 125q0 53 -70 53
q-79 0 -186 -64q-111 -66 -205 -163l-137 -324h-195q141 226 193 330q57 114 57 168q0 53 -66 53q-43 0 -129 -25l140 275q27 30 84 61t116 51q65 19 105 19q67 0 67 -39q0 -10 -2 -16q-9 -27 -10 -29zM793 1051h-45l26 450h72l108 -127l349 127h153z" />
    <glyph glyph-name="Eng" unicode="&#x14a;" horiz-adv-x="2650" 
d="M1012 0h-400q147 214 179 262q40 62 184 293q140 230 217 363q107 183 276 479q-43 7 -90 10q-78 4 -112 4q-141 0 -295 -16q-122 -13 -262 -45q-114 -26 -187 -62q-69 -34 -69 -71q0 -39 82 -82q78 -46 194 -70l-291 -526q-243 191 -243 368q0 41 12 88q13 49 53 119
q47 81 121 184q93 125 229 230q142 111 314 192q174 82 366 131q193 47 377 47q161 0 256 -83t139 -275q41 -193 41 -510q0 -57 -4 -229q-6 -127 -18 -307q180 534 360 856q182 329 393 495q210 160 453 160q39 0 57 -2q36 -4 50 -6l-285 -559q-8 1 -21 4t-18 4q-14 2 -43 2
q-180 0 -346 -172q-169 -172 -328 -526q-4 -8 -65 -154q-29 -69 -90 -231q-74 -198 -160 -385q-75 -160 -152 -281q-71 -112 -160 -207q-81 -84 -182 -156q-188 -134 -407 -194q-216 -55 -443 -55q-210 0 -395 32q-215 37 -395 86l315 615q279 -99 473 -137q208 -41 402 -41
q186 0 311 32q129 33 242 113q102 75 190 213h-145q0 362 -29 715q-30 326 -86 557z" />
    <glyph glyph-name="eng" unicode="&#x14b;" horiz-adv-x="985" 
d="M709 10q-65 -145 -154 -254q-85 -102 -199 -172q-110 -65 -268 -110l27 383q135 14 227 37q81 21 139 63q54 40 109 113q32 43 65 102q23 41 68 129q25 49 53 123q21 53 21 78q0 49 -72 49q-77 0 -184 -64q-111 -66 -205 -163l-137 -324h-195q141 226 193 330
q57 114 57 168q0 53 -66 53q-43 0 -129 -25l140 275q27 30 84 61t116 51q65 19 105 19q67 0 67 -39q0 -10 -2 -16q-9 -27 -10 -29l-153 -363q143 225 272 334q131 113 258 113q125 0 125 -96q0 -54 -60 -189z" />
    <glyph glyph-name="Omacron" unicode="&#x14c;" horiz-adv-x="2080" 
d="M1919 1368q117 -54 180 -154q66 -104 66 -233q0 -125 -62 -258q-66 -136 -172 -256q-101 -115 -256 -231q-150 -110 -313 -191q-171 -83 -344 -129q-173 -45 -350 -45q-279 0 -428 125q-152 131 -152 358q0 148 57 297q58 161 162 305q109 152 256 281q170 147 385 266
q210 114 465 199q249 80 516 123q264 43 539 43q90 0 125 -2q54 -3 80 -6l-306 -584q-113 36 -219 59q-143 26 -229 33zM1569 1333q-169 0 -332 -39q-181 -43 -326 -106q-152 -66 -282 -154q-127 -86 -197 -180q-74 -95 -74 -186q0 -105 107 -160q102 -57 315 -57
q178 0 346 36q172 34 328 99q161 65 275 143q121 83 190 176q70 91 70 187q0 114 -107 178q-105 63 -313 63zM1909 2351h764l-199 -391h-764z" />
    <glyph glyph-name="omacron" unicode="&#x14d;" horiz-adv-x="1024" 
d="M-8 201q0 105 45 207q46 104 125 198q74 92 180 168q105 76 213 117q112 41 221 41q258 0 258 -236q0 -105 -45 -207t-123 -198q-82 -97 -180 -168q-105 -76 -213 -115q-113 -43 -223 -43q-258 0 -258 236zM324 313q90 0 194 19q91 17 178 49q78 30 129 68q49 34 49 69
q0 66 -174 66q-90 0 -190 -19q-93 -17 -178 -49q-79 -29 -131 -65q-49 -37 -49 -72q0 -66 172 -66zM643 1356h588l-154 -301h-588z" />
    <glyph glyph-name="Ohungarumlaut" unicode="&#x150;" horiz-adv-x="2080" 
d="M1919 1368q117 -54 180 -154q66 -104 66 -233q0 -125 -62 -258q-66 -136 -172 -256q-101 -115 -256 -231q-150 -110 -313 -191q-171 -83 -344 -129q-173 -45 -350 -45q-279 0 -428 125q-152 131 -152 358q0 148 57 297q58 161 162 305q109 152 256 281q170 147 385 266
q210 114 465 199q249 80 516 123q264 43 539 43q90 0 125 -2q54 -3 80 -6l-306 -584q-113 36 -219 59q-143 26 -229 33zM1569 1333q-169 0 -332 -39q-181 -43 -326 -106q-152 -66 -282 -154q-127 -86 -197 -180q-74 -95 -74 -186q0 -105 107 -160q102 -57 315 -57
q178 0 346 36q172 34 328 99q161 65 275 143q121 83 190 176q70 91 70 187q0 114 -107 178q-105 63 -313 63zM2540 2410h452l-678 -450h-194zM2085 2410h354l-426 -450h-168z" />
    <glyph glyph-name="ohungarumlaut" unicode="&#x151;" horiz-adv-x="1024" 
d="M-8 201q0 105 45 207q46 104 125 198q74 92 180 168q105 76 213 117q112 41 221 41q258 0 258 -236q0 -105 -45 -207t-123 -198q-82 -97 -180 -168q-105 -76 -213 -115q-113 -43 -223 -43q-258 0 -258 236zM324 313q90 0 194 19q91 17 178 49q78 30 129 68q49 34 49 69
q0 66 -174 66q-90 0 -190 -19q-93 -17 -178 -49q-79 -29 -131 -65q-49 -37 -49 -72q0 -66 172 -66zM1163 1481h359l-592 -432h-133zM784 1481h291l-370 -432h-121z" />
    <glyph glyph-name="OE" unicode="&#x152;" horiz-adv-x="3393" 
d="M664 -129q-578 0 -578 446q0 219 98 428q94 207 277 396q186 189 428 332q255 148 547 237q166 50 370 86q172 31 420 47q225 15 500 15h887l-254 -498l-989 10q-88 -134 -89 -135q-41 -63 -77 -131h1028l-209 -406h-1018l-23 -51q-22 -65 -26 -80q-10 -42 -10 -61
q0 -79 96 -109q88 -32 338 -32q243 0 483 43q239 40 502 129l-240 -469q-108 -40 -258 -78q-171 -42 -325 -66q-192 -30 -347 -43q-187 -16 -325 -16q-156 0 -244 12q-86 12 -127 41q-39 29 -39 82q0 31 29 113q-125 -73 -264 -127q-150 -55 -291 -84q-149 -31 -270 -31z
M1884 1268q-109 65 -301 65q-176 0 -342 -39q-186 -43 -332 -106q-155 -66 -282 -154q-127 -86 -197 -180q-72 -97 -72 -188q0 -103 107 -158q105 -57 301 -57q184 0 352 36q180 35 334 99q162 64 277 143q116 77 190 170q70 88 70 182q0 123 -105 187zM2208 1370
q-146 0 -281 -6q118 -54 180 -164z" />
    <glyph glyph-name="oe" unicode="&#x153;" horiz-adv-x="1726" 
d="M-8 201q0 105 45 207q46 104 125 198q74 92 180 168q105 76 213 117q112 41 221 41q258 0 258 -236q0 -105 -45 -207t-123 -198q-82 -97 -180 -168q-105 -76 -213 -115q-113 -43 -223 -43q-258 0 -258 236zM324 313q90 0 194 19q91 17 178 49q78 30 129 68q49 34 49 69
q0 66 -174 66q-90 0 -190 -19q-93 -17 -178 -49q-79 -29 -131 -65q-49 -37 -49 -72q0 -66 172 -66zM1477 86q-195 -121 -420 -121q-301 0 -301 230q0 100 51 202q51 108 135 201q79 91 191 170q103 73 221 121q113 43 221 43q199 0 199 -166q0 -114 -93 -207t-254 -145
q-168 -54 -372 -54q-17 0 -119 5q6 -78 192 -78q152 0 285 39q142 39 227 86zM1061 532q-68 -45 -103 -98q148 3 271 25q119 21 182 55q66 35 66 76q0 47 -93 47q-75 0 -167 -29q-87 -31 -156 -76z" />
    <glyph glyph-name="Racute" unicode="&#x154;" horiz-adv-x="2750" 
d="M2177 -446q-167 0 -287 159q-121 161 -215 518q-32 126 -47 201q-30 131 -43 205q-26 146 -31 182l-505 -1124h-400q34 48 109 158q20 31 58 91t50 79q6 9 125 202q92 149 160 264q30 50 98 168.5t107 184.5q104 178 270 467q-156 -22 -389 -76q-180 -44 -395 -109
q-203 -65 -353 -131l134 553q320 136 643 207q339 75 667 84l92 160h297l-151 -162q330 -18 512 -135q180 -116 180 -316q0 -190 -123 -366q-124 -177 -352 -316q-231 -141 -549 -235q100 -158 246 -240q148 -86 325 -86q117 0 230 43l-316 -608q-58 -22 -147 -22zM2148 944
q231 35 355 92q123 58 123 140q0 80 -154 124q-154 43 -444 43q-74 0 -191 -10l-240 -426q324 3 551 37zM2650 1960h-194l337 450h453z" />
    <glyph glyph-name="racute" unicode="&#x155;" horiz-adv-x="800" 
d="M741 502q-32 4 -61 4q-94 0 -178 -41q-83 -44 -166 -133l-141 -332h-195q141 220 193 326q57 117 57 172q0 53 -66 53q-43 0 -129 -25l140 275q24 30 84 63q66 32 118 49q65 19 107 19q63 0 63 -39q0 -18 -12 -45l-162 -379q143 241 281 358q139 118 301 136zM926 1481
h331l-520 -430h-133z" />
    <glyph glyph-name="Rcaron" unicode="&#x158;" horiz-adv-x="2750" 
d="M2177 -446q-167 0 -287 159q-121 161 -215 518q-32 126 -47 201q-30 131 -43 205q-26 146 -31 182l-505 -1124h-400q34 48 109 158q20 31 58 91t50 79q6 9 125 202q92 149 160 264q30 50 98 168.5t107 184.5q104 178 270 467q-156 -22 -389 -76q-180 -44 -395 -109
q-203 -65 -353 -131l134 553q320 136 643 207q339 75 667 84l92 160h297l-151 -162q330 -18 512 -135q180 -116 180 -316q0 -190 -123 -366q-124 -177 -352 -316q-231 -141 -549 -235q100 -158 246 -240q148 -86 325 -86q117 0 230 43l-316 -608q-58 -22 -147 -22zM2148 944
q231 35 355 92q123 58 123 140q0 80 -154 124q-154 43 -444 43q-74 0 -191 -10l-240 -426q324 3 551 37zM2540 2546h94l139 -166l459 166h194l-862 -586h-59z" />
    <glyph glyph-name="rcaron" unicode="&#x159;" horiz-adv-x="800" 
d="M741 502q-32 4 -61 4q-94 0 -178 -41q-83 -44 -166 -133l-141 -332h-195q141 220 193 326q57 117 57 172q0 53 -66 53q-43 0 -129 -25l140 275q24 30 84 63q66 32 118 49q65 19 107 19q63 0 63 -39q0 -18 -12 -45l-162 -379q143 241 281 358q139 118 301 136zM623 1051
h-45l26 450h72l108 -127l349 127h153z" />
    <glyph glyph-name="Sacute" unicode="&#x15a;" horiz-adv-x="2215" 
d="M2568 1253q-357 127 -540 127q-256 0 -256 -239q0 -53 12 -117q9 -48 35 -143l65 -217q48 -160 62 -213q23 -86 36 -154q15 -82 19 -125q4 -78 4 -123q0 -206 -94 -375q-91 -164 -273 -288q-180 -121 -424 -185q-243 -63 -552 -63q-229 0 -414 37q-199 43 -326 108
q-137 70 -213 164q-74 95 -74 211q0 121 82 225q79 104 234 189q152 82 356 131q208 50 449 59l-187 -350q-113 21 -186 27q-113 10 -199 10q-92 0 -157 -10q-60 -9 -60 -29q0 -23 56 -47q60 -28 145 -47q113 -27 203 -41q133 -21 233 -31q133 -10 234 -10q347 0 555 51
q214 53 315 160q100 109 100 282q0 55 -8 107q-4 24 -33 139q-18 61 -65 199l-51 153q-54 160 -72 248q-25 106 -25 158q0 194 109 336q108 142 305 217q198 76 473 76q85 0 207 -7q137 -12 211 -22zM2558 1960h-195l338 450h453z" />
    <glyph glyph-name="sacute" unicode="&#x15b;" horiz-adv-x="761" 
d="M8 381q68 -46 142 -72q76 -30 145 -30q102 0 102 55q0 19 -16 45q-14 20 -76 88q-41 47 -63 92q-23 48 -23 92q0 125 141 201q141 78 381 78q57 0 109 -6q20 -2 46 -6t30 -5l-185 -364q-100 38 -157 51q-72 16 -111 16q-86 0 -86 -57q0 -26 21 -53q60 -77 71 -90
q49 -55 72 -99q18 -40 18 -88q0 -78 -39 -129q-41 -53 -102 -80q-68 -32 -135 -43q-70 -12 -137 -12q-82 0 -170 12q-94 13 -156 33zM922 1481h331l-520 -430h-133z" />
    <glyph glyph-name="Scedilla" unicode="&#x15e;" horiz-adv-x="2215" 
d="M2568 1253q-357 127 -540 127q-256 0 -256 -239q0 -53 12 -117q9 -48 35 -143l65 -217q48 -160 62 -213q23 -86 36 -154q15 -82 19 -125q4 -78 4 -123q0 -206 -94 -375q-91 -164 -273 -288q-180 -121 -424 -185q-243 -63 -552 -63q-229 0 -414 37q-199 43 -326 108
q-137 70 -213 164q-74 95 -74 211q0 121 82 225q79 104 234 189q152 82 356 131q208 50 449 59l-187 -350q-113 21 -186 27q-113 10 -199 10q-92 0 -157 -10q-60 -9 -60 -29q0 -23 56 -47q60 -28 145 -47q113 -27 203 -41q133 -21 233 -31q133 -10 234 -10q347 0 555 51
q214 53 315 160q100 109 100 282q0 55 -8 107q-4 24 -33 139q-18 61 -65 199l-51 153q-54 160 -72 248q-25 106 -25 158q0 194 109 336q108 142 305 217q198 76 473 76q85 0 207 -7q137 -12 211 -22zM238 -1255q124 0 219 18q90 17 149 49q56 30 56 70q0 45 -113 45
q-37 0 -86 -6l190 356h129l-139 -264q164 -59 164 -201q0 -90 -72 -180q-74 -89 -205 -162t-311 -125z" />
    <glyph glyph-name="scedilla" unicode="&#x15f;" horiz-adv-x="761" 
d="M8 381q68 -46 142 -72q76 -30 145 -30q102 0 102 55q0 19 -16 45q-14 20 -76 88q-41 47 -63 92q-23 48 -23 92q0 125 141 201q141 78 381 78q57 0 109 -6q20 -2 46 -6t30 -5l-185 -364q-100 38 -157 51q-72 16 -111 16q-86 0 -86 -57q0 -26 21 -53q60 -77 71 -90
q49 -55 72 -99q18 -40 18 -88q0 -78 -39 -129q-41 -53 -102 -80q-68 -32 -135 -43q-70 -12 -137 -12q-82 0 -170 12q-94 13 -156 33zM-117 -322q132 0 234 29q92 30 92 76q0 35 -86 35h-23q-7 0 -43 -4l146 274h100l-108 -205q127 -47 127 -153t-123 -205
q-124 -95 -330 -154z" />
    <glyph glyph-name="Scaron" unicode="&#x160;" horiz-adv-x="2215" 
d="M2568 1253q-357 127 -540 127q-256 0 -256 -239q0 -53 12 -117q9 -48 35 -143l65 -217q48 -160 62 -213q23 -86 36 -154q15 -82 19 -125q4 -78 4 -123q0 -206 -94 -375q-91 -164 -273 -288q-180 -121 -424 -185q-243 -63 -552 -63q-229 0 -414 37q-199 43 -326 108
q-137 70 -213 164q-74 95 -74 211q0 121 82 225q79 104 234 189q152 82 356 131q208 50 449 59l-187 -350q-113 21 -186 27q-113 10 -199 10q-92 0 -157 -10q-60 -9 -60 -29q0 -23 56 -47q60 -28 145 -47q113 -27 203 -41q133 -21 233 -31q133 -10 234 -10q347 0 555 51
q214 53 315 160q100 109 100 282q0 55 -8 107q-4 24 -33 139q-18 61 -65 199l-51 153q-54 160 -72 248q-25 106 -25 158q0 194 109 336q108 142 305 217q198 76 473 76q85 0 207 -7q137 -12 211 -22zM2447 2546h95l139 -166l459 166h194l-862 -586h-59z" />
    <glyph glyph-name="scaron" unicode="&#x161;" horiz-adv-x="761" 
d="M8 381q68 -46 142 -72q76 -30 145 -30q102 0 102 55q0 19 -16 45q-14 20 -76 88q-41 47 -63 92q-23 48 -23 92q0 125 141 201q141 78 381 78q57 0 109 -6q20 -2 46 -6t30 -5l-185 -364q-100 38 -157 51q-72 16 -111 16q-86 0 -86 -57q0 -26 21 -53q60 -77 71 -90
q49 -55 72 -99q18 -40 18 -88q0 -78 -39 -129q-41 -53 -102 -80q-68 -32 -135 -43q-70 -12 -137 -12q-82 0 -170 12q-94 13 -156 33zM618 1051h-45l27 450h72l108 -127l348 127h154z" />
    <glyph glyph-name="uni0162" unicode="&#x162;" horiz-adv-x="2514" 
d="M1976 -389q-103 -103 -231 -182q-137 -79 -266 -121q-133 -43 -256 -43q-150 0 -228 84q-80 86 -80 245q0 152 78 381q76 225 226 506q111 213 227 414q112 199 274 467q-247 0 -479 -16q-212 -15 -379 -43q-162 -27 -250 -64q-90 -38 -90 -80q0 -39 80 -80t195 -65
l-287 -522q-240 194 -240 364q0 40 15 90q17 53 55 119q46 80 119 182q83 119 198 219q111 94 252 160t342 113q178 42 463 71q282 26 617 37q433 11 807 11l-259 -506l-960 10q-143 -220 -262 -442q-140 -257 -232 -463q-102 -234 -102 -351q0 -96 57 -135q56 -41 185 -41
q104 0 229 45q129 47 264 123q130 75 246 176zM840 -1128q124 0 219 18q90 17 149 49q56 30 56 70q0 45 -113 45q-37 0 -86 -6l190 356h129l-139 -264q164 -59 164 -201q0 -90 -72 -180q-75 -90 -204 -162q-130 -72 -312 -125z" />
    <glyph glyph-name="uni0163" unicode="&#x163;" horiz-adv-x="786" 
d="M492 59q-41 -33 -140 -67q-88 -27 -172 -27q-188 0 -188 150q0 57 41 157q47 110 141 277h-102l178 342h106l131 256h215l-182 -256h406l-172 -342h-451q-33 -68 -45 -100q-14 -38 -14 -68q0 -68 110 -68q62 0 148 27q96 30 170 72zM-102 -322q131 0 233 29q92 30 92 76
q0 35 -86 35h-22q-7 0 -43 -4l145 274h100l-108 -205q127 -47 127 -153t-123 -205q-124 -95 -330 -154z" />
    <glyph glyph-name="Tcaron" unicode="&#x164;" horiz-adv-x="2514" 
d="M1976 -389q-103 -103 -231 -182q-137 -79 -266 -121q-133 -43 -256 -43q-150 0 -228 84q-80 86 -80 245q0 152 78 381q76 225 226 506q111 213 227 414q112 199 274 467q-247 0 -479 -16q-212 -15 -379 -43q-162 -27 -250 -64q-90 -38 -90 -80q0 -39 80 -80t195 -65
l-287 -522q-240 194 -240 364q0 40 15 90q17 53 55 119q46 80 119 182q83 119 198 219q111 94 252 160t342 113q178 42 463 71q282 26 617 37q433 11 807 11l-259 -506l-960 10q-143 -220 -262 -442q-140 -257 -232 -463q-102 -234 -102 -351q0 -96 57 -135q56 -41 185 -41
q104 0 229 45q129 47 264 123q130 75 246 176zM2179 2546h94l140 -166l458 166h195l-862 -586h-60z" />
    <glyph glyph-name="tcaron" unicode="&#x165;" horiz-adv-x="786" 
d="M492 59q-41 -33 -140 -67q-88 -27 -172 -27q-188 0 -188 150q0 57 41 157q47 110 141 277h-102l178 342h106l131 256h215l-182 -256h406l-172 -342h-451q-33 -68 -45 -100q-14 -38 -14 -68q0 -68 110 -68q62 0 148 27q96 30 170 72zM891 1448h283q-144 -246 -338 -455
h-113q55 99 100 221q48 129 68 234z" />
    <glyph glyph-name="Tbar" unicode="&#x166;" horiz-adv-x="2514" 
d="M1976 -389q-103 -103 -231 -182q-137 -79 -266 -121q-133 -43 -256 -43q-150 0 -228 84q-80 86 -80 245q0 152 78 381q76 225 226 506q65 123 116 215h-364l186 365h385q76 132 178 301q-247 0 -479 -16q-212 -15 -379 -43q-162 -27 -250 -64q-90 -38 -90 -80
q0 -39 80 -80t195 -65l-287 -522q-240 194 -240 364q0 40 15 90q17 53 55 119q46 80 119 182q83 119 198 219q111 94 252 160t342 113q178 42 463 71q282 26 617 37q433 11 807 11l-259 -506l-960 10q-105 -165 -182 -301h424l-187 -365h-434q-76 -151 -115 -239
q-102 -234 -102 -351q0 -96 57 -135q56 -41 185 -41q104 0 229 45q129 47 264 123q130 75 246 176z" />
    <glyph glyph-name="tbar" unicode="&#x167;" horiz-adv-x="796" 
d="M492 59q-41 -33 -140 -67q-88 -27 -174 -27q-186 0 -186 146q0 53 22 112q18 55 74 164h-94l92 178h98q15 29 37 66h-108l137 260h106l131 256h215l-182 -256h406l-131 -260h-449q-22 -37 -37 -66h453l-90 -178h-445q-14 -41 -14 -74q0 -82 106 -82q67 0 152 27
q96 30 170 72z" />
    <glyph glyph-name="Utilde" unicode="&#x168;" horiz-adv-x="2803" 
d="M2443 641q-12 -33 -20 -72q-8 -27 -8 -51q0 -82 100 -82q35 0 98 13q57 9 140 36l-250 -491q-112 -68 -197 -98q-95 -29 -178 -29q-78 0 -125 24q-47 27 -47 72q0 48 37 129l258 576q-157 -276 -332 -471q-172 -195 -358 -306q-180 -104 -357 -104q-137 0 -217 80
q-80 83 -80 219q0 89 37 201q32 104 115 268q86 166 211 363q160 254 315 483q-15 1 -45.5 4t-46.5 4q-33 2 -102 2q-140 0 -297 -16q-132 -16 -269 -47q-120 -26 -196 -62q-74 -35 -74 -69q0 -39 82 -82q78 -46 194 -70l-290 -526q-244 191 -244 368q0 44 14 90
q11 47 54 121q52 90 118 180q94 128 254 246q159 117 363 203q198 84 424 119q122 18 170 22q68 6 116 6q92 0 132 -18q38 -20 38 -66q0 -32 -20 -73q-24 -53 -72 -123q-158 -236 -268 -432q-106 -188 -150 -314q-47 -133 -47 -229q0 -100 54 -154q52 -55 151 -55
q124 0 264 88q145 91 291 250q154 171 285 385l409 913h357q-597 -923 -791 -1425zM2152 2269q44 83 107 127q56 39 127 39q65 0 121 -20l112 -43q61 -23 119 -23q106 0 219 88l-166 -299q-45 -86 -104 -127q-56 -39 -131 -39q-58 0 -119 23l-110 43q-53 20 -121 20
q-106 0 -219 -88z" />
    <glyph glyph-name="utilde" unicode="&#x169;" horiz-adv-x="1148" 
d="M915 76q-76 -52 -149 -82q-82 -29 -131 -29q-78 0 -78 45q0 16 10 39q2 5 9.5 23.5t13.5 31.5l168 338q-152 -244 -289 -360q-138 -117 -266 -117q-131 0 -131 109q0 67 65 176q81 126 103 170q24 50 24 74q0 57 -80 57q-48 0 -125 -25l140 275q41 38 94 65q72 33 119 47
q65 19 108 19q34 0 55 -6q19 -10 19 -31q0 -19 -12 -43q-10 -21 -60 -96q-14 -21 -39 -63t-37 -60q-35 -56 -67 -125q-27 -62 -27 -109q0 -53 68 -53q77 0 180 62t201 163l139 326h195q-138 -225 -144 -235q-58 -101 -76 -146q-22 -55 -22 -82q0 -41 49 -41q50 0 150 33z
M610 1282q65 127 183 127q42 0 88 -16q13 -4 42 -16t46 -17q53 -17 94 -17q83 0 166 68l-121 -233q-65 -127 -182 -127q-42 0 -88 16q-13 4 -42 16t-46 17q-50 16 -95 16q-84 0 -166 -67z" />
    <glyph glyph-name="Umacron" unicode="&#x16a;" horiz-adv-x="2803" 
d="M2443 641q-12 -33 -20 -72q-8 -27 -8 -51q0 -82 100 -82q35 0 98 13q57 9 140 36l-250 -491q-112 -68 -197 -98q-95 -29 -178 -29q-78 0 -125 24q-47 27 -47 72q0 48 37 129l258 576q-157 -276 -332 -471q-172 -195 -358 -306q-180 -104 -357 -104q-137 0 -217 80
q-80 83 -80 219q0 89 37 201q32 104 115 268q86 166 211 363q160 254 315 483q-15 1 -45.5 4t-46.5 4q-33 2 -102 2q-140 0 -297 -16q-132 -16 -269 -47q-120 -26 -196 -62q-74 -35 -74 -69q0 -39 82 -82q78 -46 194 -70l-290 -526q-244 191 -244 368q0 44 14 90
q11 47 54 121q52 90 118 180q94 128 254 246q159 117 363 203q198 84 424 119q122 18 170 22q68 6 116 6q92 0 132 -18q38 -20 38 -66q0 -32 -20 -73q-24 -53 -72 -123q-158 -236 -268 -432q-106 -188 -150 -314q-47 -133 -47 -229q0 -100 54 -154q52 -55 151 -55
q124 0 264 88q145 91 291 250q154 171 285 385l409 913h357q-597 -923 -791 -1425zM2165 2351h764l-199 -391h-764z" />
    <glyph glyph-name="umacron" unicode="&#x16b;" horiz-adv-x="1148" 
d="M915 76q-76 -52 -149 -82q-82 -29 -131 -29q-78 0 -78 45q0 16 10 39q2 5 9.5 23.5t13.5 31.5l168 338q-152 -244 -289 -360q-138 -117 -266 -117q-131 0 -131 109q0 67 65 176q81 126 103 170q24 50 24 74q0 57 -80 57q-48 0 -125 -25l140 275q41 38 94 65q72 33 119 47
q65 19 108 19q34 0 55 -6q19 -10 19 -31q0 -19 -12 -43q-10 -21 -60 -96q-14 -21 -39 -63t-37 -60q-35 -56 -67 -125q-27 -62 -27 -109q0 -53 68 -53q77 0 180 62t201 163l139 326h195q-138 -225 -144 -235q-58 -101 -76 -146q-22 -55 -22 -82q0 -41 49 -41q50 0 150 33z
M664 1356h587l-153 -301h-588z" />
    <glyph glyph-name="Uring" unicode="&#x16e;" horiz-adv-x="2803" 
d="M2443 641q-12 -33 -20 -72q-8 -27 -8 -51q0 -82 100 -82q35 0 98 13q57 9 140 36l-250 -491q-112 -68 -197 -98q-95 -29 -178 -29q-78 0 -125 24q-47 27 -47 72q0 48 37 129l258 576q-157 -276 -332 -471q-172 -195 -358 -306q-180 -104 -357 -104q-137 0 -217 80
q-80 83 -80 219q0 89 37 201q32 104 115 268q86 166 211 363q160 254 315 483q-15 1 -45.5 4t-46.5 4q-33 2 -102 2q-140 0 -297 -16q-132 -16 -269 -47q-120 -26 -196 -62q-74 -35 -74 -69q0 -39 82 -82q78 -46 194 -70l-290 -526q-244 191 -244 368q0 44 14 90
q11 47 54 121q52 90 118 180q94 128 254 246q159 117 363 203q198 84 424 119q122 18 170 22q68 6 116 6q92 0 132 -18q38 -20 38 -66q0 -32 -20 -73q-24 -53 -72 -123q-158 -236 -268 -432q-106 -188 -150 -314q-47 -133 -47 -229q0 -100 54 -154q52 -55 151 -55
q124 0 264 88q145 91 291 250q154 171 285 385l409 913h357q-597 -923 -791 -1425zM2314 2335q54 48 119 78q67 28 133 28q76 0 119 -37q41 -41 41 -106t-33 -121q-37 -63 -86 -109q-54 -51 -121 -79q-67 -31 -133 -31q-76 0 -115 39q-43 40 -43 106q0 64 33 123
q31 60 86 109zM2410 2093q38 0 82 23q38 19 66 59q27 35 27 72q0 61 -72 61q-40 0 -82 -22q-40 -21 -66 -58q-26 -33 -26 -71q0 -64 71 -64z" />
    <glyph glyph-name="uring" unicode="&#x16f;" horiz-adv-x="1148" 
d="M915 76q-76 -52 -149 -82q-82 -29 -131 -29q-78 0 -78 45q0 16 10 39q2 5 9.5 23.5t13.5 31.5l168 338q-152 -244 -289 -360q-138 -117 -266 -117q-131 0 -131 109q0 67 65 176q81 126 103 170q24 50 24 74q0 57 -80 57q-48 0 -125 -25l140 275q41 38 94 65q72 33 119 47
q65 19 108 19q34 0 55 -6q19 -10 19 -31q0 -19 -12 -43q-10 -21 -60 -96q-14 -21 -39 -63t-37 -60q-35 -56 -67 -125q-27 -62 -27 -109q0 -53 68 -53q77 0 180 62t201 163l139 326h195q-138 -225 -144 -235q-58 -101 -76 -146q-22 -55 -22 -82q0 -41 49 -41q50 0 150 33z
M872 1040q-65 -41 -135 -41q-57 0 -88 31q-33 29 -33 82q0 65 43 123q41 55 109 98q62 39 133 39q53 0 90 -29q33 -26 33 -81q0 -63 -43 -121q-41 -59 -109 -101zM782 1104q48 0 90 39q43 40 43 80q0 47 -55 47q-47 0 -90 -37t-43 -80q0 -49 55 -49z" />
    <glyph glyph-name="Uhungarumlaut" unicode="&#x170;" horiz-adv-x="2803" 
d="M2443 641q-12 -33 -20 -72q-8 -27 -8 -51q0 -82 100 -82q35 0 98 13q57 9 140 36l-250 -491q-112 -68 -197 -98q-95 -29 -178 -29q-78 0 -125 24q-47 27 -47 72q0 48 37 129l258 576q-157 -276 -332 -471q-172 -195 -358 -306q-180 -104 -357 -104q-137 0 -217 80
q-80 83 -80 219q0 89 37 201q32 104 115 268q86 166 211 363q160 254 315 483q-15 1 -45.5 4t-46.5 4q-33 2 -102 2q-140 0 -297 -16q-132 -16 -269 -47q-120 -26 -196 -62q-74 -35 -74 -69q0 -39 82 -82q78 -46 194 -70l-290 -526q-244 191 -244 368q0 44 14 90
q11 47 54 121q52 90 118 180q94 128 254 246q159 117 363 203q198 84 424 119q122 18 170 22q68 6 116 6q92 0 132 -18q38 -20 38 -66q0 -32 -20 -73q-24 -53 -72 -123q-158 -236 -268 -432q-106 -188 -150 -314q-47 -133 -47 -229q0 -100 54 -154q52 -55 151 -55
q124 0 264 88q145 91 291 250q154 171 285 385l409 913h357q-597 -923 -791 -1425zM2796 2410h452l-678 -450h-194zM2341 2410h354l-426 -450h-168z" />
    <glyph glyph-name="uhungarumlaut" unicode="&#x171;" horiz-adv-x="1148" 
d="M915 76q-76 -52 -149 -82q-82 -29 -131 -29q-78 0 -78 45q0 16 10 39q2 5 9.5 23.5t13.5 31.5l168 338q-152 -244 -289 -360q-138 -117 -266 -117q-131 0 -131 109q0 67 65 176q81 126 103 170q24 50 24 74q0 57 -80 57q-48 0 -125 -25l140 275q41 38 94 65q72 33 119 47
q65 19 108 19q34 0 55 -6q19 -10 19 -31q0 -19 -12 -43q-10 -21 -60 -96q-14 -21 -39 -63t-37 -60q-35 -56 -67 -125q-27 -62 -27 -109q0 -53 68 -53q77 0 180 62t201 163l139 326h195q-138 -225 -144 -235q-58 -101 -76 -146q-22 -55 -22 -82q0 -41 49 -41q50 0 150 33z
M1184 1481h358l-592 -432h-133zM805 1481h291l-371 -432h-121z" />
    <glyph glyph-name="Uogonek" unicode="&#x172;" horiz-adv-x="2803" 
d="M2443 641q-12 -33 -20 -72q-8 -27 -8 -51q0 -82 100 -82q35 0 98 13q57 9 140 36l-250 -491q-112 -68 -197 -98q-95 -29 -178 -29q-78 0 -125 24q-47 27 -47 72q0 48 37 129l258 576q-157 -276 -332 -471q-172 -195 -358 -306q-180 -104 -357 -104q-137 0 -217 80
q-80 83 -80 219q0 89 37 201q32 104 115 268q86 166 211 363q160 254 315 483q-15 1 -45.5 4t-46.5 4q-33 2 -102 2q-140 0 -297 -16q-132 -16 -269 -47q-120 -26 -196 -62q-74 -35 -74 -69q0 -39 82 -82q78 -46 194 -70l-290 -526q-244 191 -244 368q0 44 14 90
q11 47 54 121q52 90 118 180q94 128 254 246q159 117 363 203q198 84 424 119q122 18 170 22q68 6 116 6q92 0 132 -18q38 -20 38 -66q0 -32 -20 -73q-24 -53 -72 -123q-158 -236 -268 -432q-106 -188 -150 -314q-47 -133 -47 -229q0 -100 54 -154q52 -55 151 -55
q124 0 264 88q145 91 291 250q154 171 285 385l409 913h357q-597 -923 -791 -1425zM2114 -793q-53 -33 -136 -55q-86 -22 -145 -22q-150 0 -150 131q0 93 84 221q78 119 236 258q160 141 348 254h152q-216 -133 -330 -238q-123 -114 -123 -178q0 -55 84 -55q77 0 162 39z
" />
    <glyph glyph-name="uogonek" unicode="&#x173;" horiz-adv-x="1148" 
d="M915 76q-76 -52 -149 -82q-82 -29 -131 -29q-78 0 -78 45q0 16 10 39q2 5 9.5 23.5t13.5 31.5l168 338q-152 -244 -289 -360q-138 -117 -266 -117q-131 0 -131 109q0 67 65 176q81 126 103 170q24 50 24 74q0 57 -80 57q-48 0 -125 -25l140 275q41 38 94 65q72 33 119 47
q65 19 108 19q34 0 55 -6q19 -10 19 -31q0 -19 -12 -43q-10 -21 -60 -96q-14 -21 -39 -63t-37 -60q-35 -56 -67 -125q-27 -62 -27 -109q0 -53 68 -53q77 0 180 62t201 163l139 326h195q-138 -225 -144 -235q-58 -101 -76 -146q-22 -55 -22 -82q0 -41 49 -41q50 0 150 33z
M584 -549q-48 -27 -107 -43q-69 -16 -110 -16q-115 0 -115 100q0 75 65 170q69 102 181 199q117 102 268 194h117q-163 -99 -252 -182q-96 -87 -96 -137q0 -43 65 -43q53 0 123 31z" />
    <glyph glyph-name="Wcircumflex" unicode="&#x174;" horiz-adv-x="3510" 
d="M524 494q-243 190 -243 368q0 52 18 105q12 41 57 120q43 75 111 166q94 131 244 242q151 111 333 188q180 77 390 125q200 43 407 43q103 0 103 -69q0 -26 -27 -103q-37 -102 -102 -252q-39 -88 -152 -323q-59 -125 -176 -346q-90 -172 -180 -322q77 -14 161 -14
q232 0 418 57q192 56 330 158q141 104 217 244q76 137 76 305q0 261 -160 583h305q168 0 168 -188q0 -141 -65 -330q-64 -188 -185 -399q-125 -217 -278 -412q28 -6 86 -10q62 -4 104 -4q294 0 520 86q219 80 349 238q122 149 122 354q0 147 -73 321q-77 177 -213 344h432
q78 -251 78 -444q0 -182 -64 -356q-63 -174 -180 -342q-118 -165 -272 -301q-160 -141 -342 -242q-178 -101 -385 -162q-197 -57 -410 -57q-86 0 -121 14q-39 14 -39 53q0 23 23 74q25 52 71 119q50 71 105 160q-247 -203 -524 -312q-285 -108 -564 -108q-97 0 -135 12
q-39 12 -39 45q0 23 19 66q22 50 76 137q138 230 227 393q102 183 166 311q54 105 125 267q49 119 102 262q-15 1 -33.5 1.5t-30.5 1t-20 1.5h-41h-35q-149 0 -309 -16q-138 -14 -268 -43q-127 -28 -191 -60q-71 -35 -71 -72q0 -38 82 -81q78 -46 194 -70zM3090 2546h60
l-35 -586h-94l-139 166l-459 -166h-195z" />
    <glyph glyph-name="wcircumflex" unicode="&#x175;" horiz-adv-x="1497" 
d="M197 817q59 47 143 82q79 33 192 33q71 0 101 -12q31 -16 31 -43q0 -11 -11 -37q-8 -23 -51 -84q-166 -242 -166 -344q0 -72 123 -72q86 0 160 45q81 49 119 115q34 58 34 149q0 79 -20 152q-20 74 -59 131h245q101 0 101 -55q0 -25 -21 -72q-7 -17 -33 -66
q-7 -13 -24.5 -42t-22.5 -38q-38 -65 -43 -77q-21 -41 -34 -70q-27 -58 -27 -100q0 -40 29 -56t98 -16q87 0 162 35q70 34 116 92q43 58 43 125q0 77 -43 170q-45 96 -114 170h237q56 -112 56 -227q0 -129 -54 -265q-50 -126 -141 -237q-89 -109 -195 -172
q-106 -66 -217 -66q-151 0 -151 205q0 35 2 51q-85 -110 -199 -184q-109 -72 -201 -72q-86 0 -131 45q-47 44 -47 125q0 95 62 213q58 116 166 230q-45 0 -131 -11q-66 -8 -136 -28q-54 -15 -104 -41zM1350 1501h45l-27 -450h-72l-108 127l-348 -127h-154z" />
    <glyph glyph-name="Ycircumflex" unicode="&#x176;" horiz-adv-x="2504" 
d="M2210 141q-136 -293 -281 -489q-153 -204 -332 -328q-187 -130 -403 -186q-223 -58 -504 -58q-187 0 -395 33q-224 36 -447 92l316 615q132 -46 325 -94q175 -43 342 -70q177 -25 297 -25q144 0 273 29q120 27 223 92q108 68 197 170q94 107 192 262q34 52 62 103
q37 68 63 121q31 62 86 186q57 125 135 301q-227 -358 -450 -535q-232 -182 -453 -182q-139 0 -221 82q-82 79 -82 217q0 99 45 221q42 122 139 299q77 141 248 404q-10 1 -38.5 4t-45.5 4q-31 2 -110 2q-140 0 -297 -16q-133 -16 -271 -47q-122 -27 -194 -62
q-74 -35 -74 -69q0 -39 82 -82q78 -46 194 -70l-290 -526q-244 191 -244 368q0 75 43 162q39 82 143 229q67 96 187 193q116 93 254 168q129 72 293 131q164 56 307 76q26 4 166 22q71 6 122 6q86 0 127 -18q39 -20 39 -64q0 -61 -90 -198q-190 -284 -280 -469
q-88 -180 -88 -285q0 -87 57 -135q55 -49 152 -49q190 0 413 186q226 192 434 527l301 677h357q-205 -295 -465 -780q-241 -449 -559 -1145zM2757 2546h59l-35 -586h-94l-139 166l-459 -166h-195z" />
    <glyph glyph-name="ycircumflex" unicode="&#x177;" horiz-adv-x="880" 
d="M160 -268q-278 -169 -590 -178l184 360q143 -47 252 -47q157 0 252 86q94 88 94 233q0 125 -71 252q-71 122 -201 213l330 291q129 -228 129 -461q0 -215 -105 -393q141 157 232 375q89 222 116 469h250q-144 -422 -368 -725q-222 -304 -504 -475zM997 1501h45l-26 -450
h-72l-108 127l-349 -127h-153z" />
    <glyph glyph-name="Ydieresis" unicode="&#x178;" horiz-adv-x="2504" 
d="M2210 141q-136 -293 -281 -489q-153 -204 -332 -328q-187 -130 -403 -186q-223 -58 -504 -58q-187 0 -395 33q-224 36 -447 92l316 615q132 -46 325 -94q175 -43 342 -70q177 -25 297 -25q144 0 273 29q120 27 223 92q108 68 197 170q94 107 192 262q34 52 62 103
q37 68 63 121q31 62 86 186q57 125 135 301q-227 -358 -450 -535q-232 -182 -453 -182q-139 0 -221 82q-82 79 -82 217q0 99 45 221q42 122 139 299q77 141 248 404q-10 1 -38.5 4t-45.5 4q-31 2 -110 2q-140 0 -297 -16q-133 -16 -271 -47q-122 -27 -194 -62
q-74 -35 -74 -69q0 -39 82 -82q78 -46 194 -70l-290 -526q-244 191 -244 368q0 75 43 162q39 82 143 229q67 96 187 193q116 93 254 168q129 72 293 131q164 56 307 76q26 4 166 22q71 6 122 6q86 0 127 -18q39 -20 39 -64q0 -61 -90 -198q-190 -284 -280 -469
q-88 -180 -88 -285q0 -87 57 -135q55 -49 152 -49q190 0 413 186q226 192 434 527l301 677h357q-205 -295 -465 -780q-241 -449 -559 -1145zM2050 2281q60 53 115 76q66 29 123 29q114 0 114 -102q0 -56 -30 -115q-38 -64 -84 -105q-53 -50 -115 -77q-69 -29 -125 -29
q-111 0 -111 104q0 55 31 115q29 57 82 104zM2546 2281q61 54 114 76q66 29 123 29q115 0 115 -102q0 -55 -31 -115q-38 -64 -84 -105q-53 -50 -114 -77q-69 -29 -125 -29q-111 0 -111 104q0 55 31 115q29 57 82 104z" />
    <glyph glyph-name="Zacute" unicode="&#x179;" horiz-adv-x="1597" 
d="M289 215q111 -129 254 -223q147 -93 305 -144q162 -49 328 -49q196 0 358 70l-291 -565q-193 -99 -389 -99q-289 0 -573 211q-281 209 -551 627l1786 1288h-969l260 508h1460l-158 -307zM1616 1960h-195l338 450h453z" />
    <glyph glyph-name="zacute" unicode="&#x17a;" horiz-adv-x="897" 
d="M541 569h-435l168 322h744l-92 -180l-604 -420q191 6 321 43q128 34 205 78l-180 -353q-70 -52 -183 -73q-114 -21 -235 -21q-131 0 -227 8q-86 7 -183 27l31 61zM958 1481h332l-520 -430h-133z" />
    <glyph glyph-name="Zdotaccent" unicode="&#x17b;" horiz-adv-x="1597" 
d="M289 215q111 -129 254 -223q147 -93 305 -144q162 -49 328 -49q196 0 358 70l-291 -565q-193 -99 -389 -99q-289 0 -573 211q-281 209 -551 627l1786 1288h-969l260 508h1460l-158 -307zM1815 2075q-63 -57 -127 -84q-67 -33 -138 -33q-127 0 -127 115q0 64 35 129
q36 68 90 116q58 52 127 86q70 31 137 31q130 0 130 -115q0 -62 -35 -127q-36 -68 -92 -118z" />
    <glyph glyph-name="zdotaccent" unicode="&#x17c;" horiz-adv-x="897" 
d="M541 569h-435l168 322h744l-92 -180l-604 -420q191 6 321 43q128 34 205 78l-180 -353q-70 -52 -183 -73q-114 -21 -235 -21q-131 0 -227 8q-86 7 -183 27l31 61zM815 1051q-65 -41 -135 -41q-92 0 -92 86q0 62 43 123q45 60 108 100q65 41 133 41q95 0 95 -84
q0 -60 -43 -121q-42 -62 -109 -104z" />
    <glyph glyph-name="Zcaron" unicode="&#x17d;" horiz-adv-x="1597" 
d="M289 215q111 -129 254 -223q147 -93 305 -144q162 -49 328 -49q196 0 358 70l-291 -565q-193 -99 -389 -99q-289 0 -573 211q-281 209 -551 627l1786 1288h-969l260 508h1460l-158 -307zM1505 2546h94l140 -166l459 166h194l-862 -586h-60z" />
    <glyph glyph-name="zcaron" unicode="&#x17e;" horiz-adv-x="897" 
d="M541 569h-435l168 322h744l-92 -180l-604 -420q191 6 321 43q128 34 205 78l-180 -353q-70 -52 -183 -73q-114 -21 -235 -21q-131 0 -227 8q-86 7 -183 27l31 61zM655 1051h-45l27 450h72l108 -127l348 127h154z" />
    <glyph glyph-name="florin" unicode="&#x192;" horiz-adv-x="573" 
d="M1020 1419q47 0 74 -2q73 -6 94 -8l-213 -377q-186 86 -289 86q-181 0 -227 -227h272l-174 -342h-174q-57 -224 -94 -338q-48 -148 -94 -246q-49 -101 -107 -174q-63 -76 -127 -129q-74 -56 -172 -111q-95 -50 -190 -77l26 403q189 0 285 41q73 29 137 105q59 74 111 202
q49 124 96 324h-191l173 342h90q123 528 694 528z" />
    <glyph glyph-name="uni0218" unicode="&#x218;" horiz-adv-x="2215" 
d="M2568 1253q-357 127 -540 127q-256 0 -256 -239q0 -53 12 -117q9 -48 35 -143l65 -217q48 -160 62 -213q23 -86 36 -154q15 -82 19 -125q4 -78 4 -123q0 -206 -94 -375q-91 -164 -273 -288q-180 -121 -424 -185q-243 -63 -552 -63q-229 0 -414 37q-199 43 -326 108
q-137 70 -213 164q-74 95 -74 211q0 121 82 225q79 104 234 189q152 82 356 131q208 50 449 59l-187 -350q-113 21 -186 27q-113 10 -199 10q-92 0 -157 -10q-60 -9 -60 -29q0 -23 56 -47q60 -28 145 -47q113 -27 203 -41q133 -21 233 -31q133 -10 234 -10q347 0 555 51
q214 53 315 160q100 109 100 282q0 55 -8 107q-4 24 -33 139q-18 61 -65 199l-51 153q-54 160 -72 248q-25 106 -25 158q0 194 109 336q108 142 305 217q198 76 473 76q85 0 207 -7q137 -12 211 -22zM174 -1755l-39 227q155 27 258 80q101 52 101 111q0 79 -187 125l217 307
q170 -99 170 -254q0 -141 -137 -299q-141 -160 -383 -297z" />
    <glyph glyph-name="uni0219" unicode="&#x219;" horiz-adv-x="761" 
d="M8 381q68 -46 142 -72q76 -30 145 -30q102 0 102 55q0 19 -16 45q-14 20 -76 88q-41 47 -63 92q-23 48 -23 92q0 125 141 201q141 78 381 78q57 0 109 -6q20 -2 46 -6t30 -5l-185 -364q-100 38 -157 51q-72 16 -111 16q-86 0 -86 -57q0 -26 21 -53q60 -77 71 -90
q49 -55 72 -99q18 -40 18 -88q0 -78 -39 -129q-41 -53 -102 -80q-68 -32 -135 -43q-70 -12 -137 -12q-82 0 -170 12q-94 13 -156 33zM-176 -731l-29 174q122 21 197 61q78 40 78 86q0 56 -144 97l168 235q131 -76 131 -194q0 -111 -106 -232q-107 -122 -295 -227z" />
    <glyph glyph-name="uni021A" unicode="&#x21a;" horiz-adv-x="2514" 
d="M1976 -389q-103 -103 -231 -182q-137 -79 -266 -121q-133 -43 -256 -43q-150 0 -228 84q-80 86 -80 245q0 152 78 381q76 225 226 506q111 213 227 414q112 199 274 467q-247 0 -479 -16q-212 -15 -379 -43q-162 -27 -250 -64q-90 -38 -90 -80q0 -39 80 -80t195 -65
l-287 -522q-240 194 -240 364q0 40 15 90q17 53 55 119q46 80 119 182q83 119 198 219q111 94 252 160t342 113q178 42 463 71q282 26 617 37q433 11 807 11l-259 -506l-960 10q-143 -220 -262 -442q-140 -257 -232 -463q-102 -234 -102 -351q0 -96 57 -135q56 -41 185 -41
q104 0 229 45q129 47 264 123q130 75 246 176zM776 -1628l-39 227q155 27 258 80q101 52 101 111q0 79 -187 125l217 307q170 -99 170 -254q0 -141 -137 -299q-141 -160 -383 -297z" />
    <glyph glyph-name="uni021B" unicode="&#x21b;" horiz-adv-x="786" 
d="M492 59q-41 -33 -140 -67q-88 -27 -172 -27q-188 0 -188 150q0 57 41 157q47 110 141 277h-102l178 342h106l131 256h215l-182 -256h406l-172 -342h-451q-33 -68 -45 -100q-14 -38 -14 -68q0 -68 110 -68q62 0 148 27q96 30 170 72zM-162 -731l-28 174q119 21 198 61
q76 40 76 86q0 57 -143 97l168 235q131 -76 131 -194q0 -110 -107 -232t-295 -227z" />
    <glyph glyph-name="uni0237" unicode="&#x237;" horiz-adv-x="454" 
d="M180 10q-66 -144 -151 -252q-79 -98 -199 -172q-107 -63 -270 -112l26 383q135 12 228 37q96 29 151 71q61 47 111 123q20 27 37 66q10 22 49 98q28 61 43 100q29 73 37 99q8 24 8 45q0 55 -68 55q-13 0 -49 -4q-33 -7 -78 -21l140 275q27 30 84 61t116 51q65 19 105 19
q69 0 69 -43q0 -18 -10 -41z" />
    <glyph glyph-name="circumflex" unicode="&#x2c6;" horiz-adv-x="430" 
d="M696 1501h45l-26 -450h-72l-108 127l-349 -127h-153z" />
    <glyph glyph-name="caron" unicode="&#x2c7;" horiz-adv-x="430" 
d="M326 1051h-45l26 450h72l108 -127l349 127h153z" />
    <glyph glyph-name="uni02C9" unicode="&#x2c9;" horiz-adv-x="634" 
d="M377 1356h588l-154 -301h-588z" />
    <glyph glyph-name="uni02CB" unicode="&#x2cb;" horiz-adv-x="430" 
d="M291 1481h311l111 -430h-103z" />
    <glyph glyph-name="breve" unicode="&#x2d8;" horiz-adv-x="634" 
d="M377 1356h588l-154 -301h-588z" />
    <glyph glyph-name="dotaccent" unicode="&#x2d9;" horiz-adv-x="430" 
d="M530 1051q-65 -41 -135 -41q-92 0 -92 86q0 62 43 123q44 59 109 100t133 41q94 0 94 -84q0 -60 -43 -121q-42 -62 -109 -104z" />
    <glyph glyph-name="ring" unicode="&#x2da;" horiz-adv-x="430" 
d="M565 1202q-65 -41 -135 -41q-57 0 -88 31q-33 29 -33 82q0 65 43 123q41 55 109 98q62 39 133 39q53 0 90 -29q33 -26 33 -82q0 -62 -43 -120q-41 -59 -109 -101zM475 1266q48 0 90 39q43 40 43 79q0 48 -55 48q-47 0 -90 -37t-43 -80q0 -49 55 -49z" />
    <glyph glyph-name="ogonek" unicode="&#x2db;" horiz-adv-x="430" 
d="M12 -549q-49 -27 -106 -43q-69 -16 -111 -16q-114 0 -114 100q0 78 63 170q68 100 182 199q114 100 269 194h116q-163 -99 -252 -182q-96 -83 -96 -137q0 -43 66 -43q53 0 123 31z" />
    <glyph glyph-name="tilde" unicode="&#x2dc;" horiz-adv-x="634" 
d="M324 1282q65 127 182 127q42 0 88 -16q13 -4 42 -16t46 -17q53 -17 94 -17q83 0 166 68l-121 -233q-65 -127 -182 -127q-42 0 -88 16q-13 4 -42 16t-46 17q-50 16 -94 16q-84 0 -166 -67z" />
    <glyph glyph-name="hungarumlaut" unicode="&#x2dd;" horiz-adv-x="430" 
d="M606 1481h359l-592 -432h-133zM227 1481h291l-371 -432h-120z" />
    <glyph glyph-name="gravecomb" unicode="&#x300;" horiz-adv-x="0" 
d="M-360 1481h311l110 -430h-102z" />
    <glyph glyph-name="acutecomb" unicode="&#x301;" horiz-adv-x="0" 
d="M244 1481h331l-520 -430h-133z" />
    <glyph glyph-name="uni0302" unicode="&#x302;" horiz-adv-x="0" 
d="M311 1501h45l-26 -450h-72l-108 127l-349 -127h-153z" />
    <glyph glyph-name="tildecomb" unicode="&#x303;" horiz-adv-x="0" 
d="M-209 1282q65 127 182 127q42 0 88 -16q12 -4 42 -16t47 -17q53 -17 94 -17q83 0 166 68l-121 -233q-65 -127 -183 -127q-42 0 -88 16q-13 4 -42 16t-46 17q-50 16 -94 16q-84 0 -166 -67z" />
    <glyph glyph-name="uni0304" unicode="&#x304;" horiz-adv-x="0" 
d="M-156 1356h588l-153 -301h-588z" />
    <glyph glyph-name="uni0306" unicode="&#x306;" horiz-adv-x="0" 
d="M236 1083q-89 -51 -189 -51q-102 0 -162 51q-61 52 -61 138q0 103 90 219h96q-18 -40 -18 -70q0 -88 143 -88q93 0 164 41q65 39 100 117h121q-46 -122 -121 -215q-74 -92 -163 -142z" />
    <glyph glyph-name="uni0307" unicode="&#x307;" horiz-adv-x="0" 
d="M100 1051q-65 -41 -135 -41q-92 0 -92 86q0 62 43 123q44 59 109 100t133 41q94 0 94 -84q0 -60 -43 -121q-42 -62 -109 -104z" />
    <glyph glyph-name="uni0308" unicode="&#x308;" horiz-adv-x="0" 
d="M-104 1047q-62 -41 -127 -41q-43 0 -66 20q-25 19 -25 61q0 59 39 115q37 50 103 94q62 39 127 39q41 0 65 -18q25 -22 25 -62q0 -57 -41 -112q-38 -55 -100 -96zM190 1296q59 39 125 39q42 0 66 -18q25 -22 25 -62q0 -56 -39 -112q-36 -52 -103 -96q-62 -41 -127 -41
q-42 0 -65 20q-25 19 -25 61q0 56 41 115q40 55 102 94z" />
    <glyph glyph-name="uni030A" unicode="&#x30a;" horiz-adv-x="0" 
d="M53 1202q-65 -41 -135 -41q-54 0 -90 31q-31 31 -31 82q0 65 43 123q41 55 109 98q62 39 133 39q53 0 90 -29q33 -26 33 -82q0 -62 -43 -120q-41 -59 -109 -101zM-37 1266q48 0 90 39q43 40 43 79q0 48 -55 48q-47 0 -90 -37t-43 -80q0 -49 55 -49z" />
    <glyph glyph-name="uni030B" unicode="&#x30b;" horiz-adv-x="0" 
d="M365 1481h358l-592 -432h-133zM-14 1481h290l-370 -432h-121z" />
    <glyph glyph-name="uni030C" unicode="&#x30c;" horiz-adv-x="0" 
d="M-59 1051h-45l26 450h72l108 -127l349 127h153z" />
    <glyph glyph-name="uni0312" unicode="&#x312;" horiz-adv-x="0" 
d="M186 1612l29 -174q-125 -22 -197 -60q-77 -39 -77 -88q0 -56 143 -96l-168 -236q-131 76 -131 195q0 110 106 231q108 124 295 228z" />
    <glyph glyph-name="uni0315" unicode="&#x315;" horiz-adv-x="0" 
d="M53 932h-116q35 66 71 158q45 115 64 182q23 79 41 176h293q-85 -158 -179 -291q-97 -137 -174 -225z" />
    <glyph glyph-name="dotbelowcomb" unicode="&#x323;" horiz-adv-x="0" 
d="M-653 -414q-65 -41 -135 -41q-93 0 -93 86q0 63 43 121q44 62 109 103t133 41q94 0 94 -84q0 -59 -43 -123q-45 -63 -108 -103z" />
    <glyph glyph-name="uni0326" unicode="&#x326;" horiz-adv-x="0" 
d="M-381 -731l-29 174q122 21 197 61q78 41 78 86q0 56 -144 97l168 235q131 -76 131 -194q0 -111 -106 -232q-107 -122 -295 -227z" />
    <glyph glyph-name="uni0327" unicode="&#x327;" horiz-adv-x="0" 
d="M-322 -322q134 0 232 29q94 30 94 76q0 35 -86 35h-24q-5 0 -41 -4l145 274h100l-108 -205q127 -47 127 -153t-123 -205q-124 -95 -330 -154z" />
    <glyph glyph-name="uni0328" unicode="&#x328;" horiz-adv-x="0" 
d="M-152 -549q-49 -27 -106 -43q-69 -16 -111 -16q-114 0 -114 100q0 78 63 170q68 100 182 199q114 100 269 194h116q-166 -101 -253 -182q-95 -86 -95 -137q0 -43 66 -43q53 0 123 31z" />
    <glyph glyph-name="uni1E24" unicode="&#x1e24;" horiz-adv-x="3426" 
d="M3559 2175h379q-318 -483 -544 -881q-223 -393 -318 -653q-29 -89 -29 -123q0 -82 101 -82q80 0 237 49l-250 -491q-109 -68 -194 -98q-95 -29 -180 -29q-77 0 -123 24q-45 26 -45 72q0 48 37 129l239 537h-872l-416 -932h-379q155 238 232 364q117 191 225 381
q103 178 199 363q95 183 161 317q63 131 101 236q-23 1 -67.5 4t-65.5 4q-45 2 -132 2q-205 0 -380 -14q-162 -13 -353 -41q-158 -26 -291 -62q-136 -37 -198 -73q-72 -41 -72 -80t82 -82q77 -45 195 -70l-291 -526q-244 191 -244 368q0 46 14 89q11 41 54 120
q53 92 118 183q111 153 291 284q182 135 410 228q238 97 493 151q267 53 545 53q159 0 221 -16q58 -18 58 -68q0 -26 -15 -63q-18 -49 -55 -135l-223 -498h872zM2214 -449q-58 -52 -127 -86q-71 -30 -137 -30q-127 0 -127 114q0 64 35 129q37 70 90 117q63 57 127 84
q65 33 137 33q129 0 129 -115q0 -64 -35 -129q-35 -66 -92 -117z" />
    <glyph glyph-name="uni1E25" unicode="&#x1e25;" horiz-adv-x="980" 
d="M262 457q102 149 201 248q103 103 209 167q105 60 186 60q69 0 109 -43q39 -45 39 -123q0 -91 -37 -195q-35 -99 -103 -206q-63 -103 -149 -195q-80 -89 -178 -162q-87 -65 -189 -102l82 375q111 15 203 49q90 33 133 76q49 55 49 102q0 67 -102 67q-88 0 -176 -32
q-102 -37 -183 -88q-93 -62 -159 -133l-138 -322h-194q30 46 106 176q39 61 88 160l244 493q53 106 53 156q0 53 -65 53q-47 0 -127 -24l137 274q186 131 346 131q76 0 76 -47q0 -16 -12 -43q-5 -9 -24 -46.5t-34 -65.5zM137 -414q-65 -41 -135 -41q-92 0 -92 86
q0 63 43 121q45 63 108 103q65 41 134 41q94 0 94 -84q0 -59 -43 -123q-44 -62 -109 -103z" />
    <glyph glyph-name="uni1E36" unicode="&#x1e36;" horiz-adv-x="2330" 
d="M801 2009h502q-103 -133 -158 -270q-58 -137 -58 -266q0 -151 78 -261q76 -107 221 -163q280 400 562 598q278 196 573 196q153 0 242 -74q90 -78 90 -215q0 -136 -86 -260q-86 -126 -236 -221q-152 -96 -348 -151q-198 -56 -418 -56q-124 0 -254 19q-25 -34 -79 -113
q-54 -76 -113 -164q-107 -161 -176 -270q-67 -104 -160 -236q214 -11 377 -28q107 -11 430 -54q361 -55 448 -71l-288 -576q-287 117 -396 158q-153 60 -331 125q-156 56 -303 102q-64 21 -170 47q-202 -230 -388 -333q-186 -101 -387 -101q-144 0 -204 51q-62 53 -62 127
q0 102 62 185q64 85 151 149q94 69 178 107q124 59 306 86t380 30q104 151 213 330q35 59 140 226q62 104 86 141q21 32 51 82q28 42 33 49q-275 89 -430 278q-158 193 -158 449q0 177 80 348zM1733 991q134 0 260 27q124 27 231 74q109 50 164 102q59 59 59 117
q0 37 -37 61q-44 23 -98 23q-366 0 -708 -398q62 -6 129 -6zM-78 -287q0 -45 129 -45q139 0 279 41q129 38 262 125q-122 16 -217 16q-131 0 -228 -20q-101 -21 -163 -51t-62 -66zM1006 -825q-58 -52 -127 -86q-73 -31 -138 -31q-127 0 -127 115q0 64 35 129q36 68 90 116
q63 57 127 84q65 33 138 33q129 0 129 -115q0 -64 -35 -129q-34 -64 -92 -116z" />
    <glyph glyph-name="uni1E37" unicode="&#x1e37;" horiz-adv-x="509" 
d="M276 76q-83 -53 -163 -82q-89 -29 -138 -29q-79 0 -79 45q0 38 51 137q35 68 55 103q26 50 53 100q22 41 58 105.5t49 89.5q25 46 67 127q8 17 24 49.5t23 48.5q47 101 62 141q16 50 16 74q0 51 -67 51q-13 0 -49 -4q-31 -7 -74 -18l137 274q186 131 346 131q76 0 76 -47
q0 -17 -14 -45q-10 -24 -56 -110q-148 -282 -178 -338q-71 -136 -102 -199q-10 -19 -29.5 -55.5t-26.5 -49.5q-51 -102 -51 -145q0 -37 45 -37q42 0 142 33zM-57 -414q-65 -41 -136 -41q-92 0 -92 86q0 63 43 121q44 62 109 103t133 41q94 0 94 -84q0 -59 -43 -123
q-45 -63 -108 -103z" />
    <glyph glyph-name="Wgrave" unicode="&#x1e80;" horiz-adv-x="3510" 
d="M524 494q-243 190 -243 368q0 52 18 105q12 41 57 120q43 75 111 166q94 131 244 242q151 111 333 188q180 77 390 125q200 43 407 43q103 0 103 -69q0 -26 -27 -103q-37 -102 -102 -252q-39 -88 -152 -323q-59 -125 -176 -346q-90 -172 -180 -322q77 -14 161 -14
q232 0 418 57q192 56 330 158q141 104 217 244q76 137 76 305q0 261 -160 583h305q168 0 168 -188q0 -141 -65 -330q-64 -188 -185 -399q-125 -217 -278 -412q28 -6 86 -10q62 -4 104 -4q294 0 520 86q219 80 349 238q122 149 122 354q0 147 -73 321q-77 177 -213 344h432
q78 -251 78 -444q0 -182 -64 -356q-63 -174 -180 -342q-118 -165 -272 -301q-160 -141 -342 -242q-178 -101 -385 -162q-197 -57 -410 -57q-86 0 -121 14q-39 14 -39 53q0 23 23 74q25 52 71 119q50 71 105 160q-247 -203 -524 -312q-285 -108 -564 -108q-97 0 -135 12
q-39 12 -39 45q0 23 19 66q22 50 76 137q138 230 227 393q102 183 166 311q54 105 125 267q49 119 102 262q-15 1 -33.5 1.5t-30.5 1t-20 1.5h-41h-35q-149 0 -309 -16q-138 -14 -268 -43q-127 -28 -191 -60q-71 -35 -71 -72q0 -38 82 -81q78 -46 194 -70zM2165 2410h426
l116 -450h-133z" />
    <glyph glyph-name="wgrave" unicode="&#x1e81;" horiz-adv-x="1497" 
d="M197 817q59 47 143 82q79 33 192 33q71 0 101 -12q31 -16 31 -43q0 -11 -11 -37q-8 -23 -51 -84q-166 -242 -166 -344q0 -72 123 -72q86 0 160 45q81 49 119 115q34 58 34 149q0 79 -20 152q-20 74 -59 131h245q101 0 101 -55q0 -25 -21 -72q-7 -17 -33 -66
q-7 -13 -24.5 -42t-22.5 -38q-38 -65 -43 -77q-21 -41 -34 -70q-27 -58 -27 -100q0 -40 29 -56t98 -16q87 0 162 35q70 34 116 92q43 58 43 125q0 77 -43 170q-45 96 -114 170h237q56 -112 56 -227q0 -129 -54 -265q-50 -126 -141 -237q-89 -109 -195 -172
q-106 -66 -217 -66q-151 0 -151 205q0 35 2 51q-85 -110 -199 -184q-109 -72 -201 -72q-86 0 -131 45q-47 44 -47 125q0 95 62 213q58 116 166 230q-45 0 -131 -11q-66 -8 -136 -28q-54 -15 -104 -41zM678 1481h311l111 -430h-103z" />
    <glyph glyph-name="Wacute" unicode="&#x1e82;" horiz-adv-x="3510" 
d="M524 494q-243 190 -243 368q0 52 18 105q12 41 57 120q43 75 111 166q94 131 244 242q151 111 333 188q180 77 390 125q200 43 407 43q103 0 103 -69q0 -26 -27 -103q-37 -102 -102 -252q-39 -88 -152 -323q-59 -125 -176 -346q-90 -172 -180 -322q77 -14 161 -14
q232 0 418 57q192 56 330 158q141 104 217 244q76 137 76 305q0 261 -160 583h305q168 0 168 -188q0 -141 -65 -330q-64 -188 -185 -399q-125 -217 -278 -412q28 -6 86 -10q62 -4 104 -4q294 0 520 86q219 80 349 238q122 149 122 354q0 147 -73 321q-77 177 -213 344h432
q78 -251 78 -444q0 -182 -64 -356q-63 -174 -180 -342q-118 -165 -272 -301q-160 -141 -342 -242q-178 -101 -385 -162q-197 -57 -410 -57q-86 0 -121 14q-39 14 -39 53q0 23 23 74q25 52 71 119q50 71 105 160q-247 -203 -524 -312q-285 -108 -564 -108q-97 0 -135 12
q-39 12 -39 45q0 23 19 66q22 50 76 137q138 230 227 393q102 183 166 311q54 105 125 267q49 119 102 262q-15 1 -33.5 1.5t-30.5 1t-20 1.5h-41h-35q-149 0 -309 -16q-138 -14 -268 -43q-127 -28 -191 -60q-71 -35 -71 -72q0 -38 82 -81q78 -46 194 -70zM2744 1960h-194
l338 450h452z" />
    <glyph glyph-name="wacute" unicode="&#x1e83;" horiz-adv-x="1497" 
d="M197 817q59 47 143 82q79 33 192 33q71 0 101 -12q31 -16 31 -43q0 -11 -11 -37q-8 -23 -51 -84q-166 -242 -166 -344q0 -72 123 -72q86 0 160 45q81 49 119 115q34 58 34 149q0 79 -20 152q-20 74 -59 131h245q101 0 101 -55q0 -25 -21 -72q-7 -17 -33 -66
q-7 -13 -24.5 -42t-22.5 -38q-38 -65 -43 -77q-21 -41 -34 -70q-27 -58 -27 -100q0 -40 29 -56t98 -16q87 0 162 35q70 34 116 92q43 58 43 125q0 77 -43 170q-45 96 -114 170h237q56 -112 56 -227q0 -129 -54 -265q-50 -126 -141 -237q-89 -109 -195 -172
q-106 -66 -217 -66q-151 0 -151 205q0 35 2 51q-85 -110 -199 -184q-109 -72 -201 -72q-86 0 -131 45q-47 44 -47 125q0 95 62 213q58 116 166 230q-45 0 -131 -11q-66 -8 -136 -28q-54 -15 -104 -41zM1282 1481h332l-520 -430h-133z" />
    <glyph glyph-name="Wdieresis" unicode="&#x1e84;" horiz-adv-x="3510" 
d="M524 494q-243 190 -243 368q0 52 18 105q12 41 57 120q43 75 111 166q94 131 244 242q151 111 333 188q180 77 390 125q200 43 407 43q103 0 103 -69q0 -26 -27 -103q-37 -102 -102 -252q-39 -88 -152 -323q-59 -125 -176 -346q-90 -172 -180 -322q77 -14 161 -14
q232 0 418 57q192 56 330 158q141 104 217 244q76 137 76 305q0 261 -160 583h305q168 0 168 -188q0 -141 -65 -330q-64 -188 -185 -399q-125 -217 -278 -412q28 -6 86 -10q62 -4 104 -4q294 0 520 86q219 80 349 238q122 149 122 354q0 147 -73 321q-77 177 -213 344h432
q78 -251 78 -444q0 -182 -64 -356q-63 -174 -180 -342q-118 -165 -272 -301q-160 -141 -342 -242q-178 -101 -385 -162q-197 -57 -410 -57q-86 0 -121 14q-39 14 -39 53q0 23 23 74q25 52 71 119q50 71 105 160q-247 -203 -524 -312q-285 -108 -564 -108q-97 0 -135 12
q-39 12 -39 45q0 23 19 66q22 50 76 137q138 230 227 393q102 183 166 311q54 105 125 267q49 119 102 262q-15 1 -33.5 1.5t-30.5 1t-20 1.5h-41h-35q-149 0 -309 -16q-138 -14 -268 -43q-127 -28 -191 -60q-71 -35 -71 -72q0 -38 82 -81q78 -46 194 -70zM2384 2281
q60 53 115 76q66 29 122 29q115 0 115 -102q0 -55 -31 -115q-38 -64 -84 -105q-53 -50 -114 -77q-69 -29 -125 -29q-111 0 -111 104q0 55 31 115q29 57 82 104zM2879 2281q60 53 115 76q66 29 123 29q115 0 115 -102q0 -55 -31 -115q-38 -64 -84 -105q-53 -50 -115 -77
q-69 -29 -125 -29q-110 0 -110 104q0 55 31 115q30 59 81 104z" />
    <glyph glyph-name="wdieresis" unicode="&#x1e85;" horiz-adv-x="1497" 
d="M197 817q59 47 143 82q79 33 192 33q71 0 101 -12q31 -16 31 -43q0 -11 -11 -37q-8 -23 -51 -84q-166 -242 -166 -344q0 -72 123 -72q86 0 160 45q81 49 119 115q34 58 34 149q0 79 -20 152q-20 74 -59 131h245q101 0 101 -55q0 -25 -21 -72q-7 -17 -33 -66
q-7 -13 -24.5 -42t-22.5 -38q-38 -65 -43 -77q-21 -41 -34 -70q-27 -58 -27 -100q0 -40 29 -56t98 -16q87 0 162 35q70 34 116 92q43 58 43 125q0 77 -43 170q-45 96 -114 170h237q56 -112 56 -227q0 -129 -54 -265q-50 -126 -141 -237q-89 -109 -195 -172
q-106 -66 -217 -66q-151 0 -151 205q0 35 2 51q-85 -110 -199 -184q-109 -72 -201 -72q-86 0 -131 45q-47 44 -47 125q0 95 62 213q58 116 166 230q-45 0 -131 -11q-66 -8 -136 -28q-54 -15 -104 -41zM934 1047q-62 -41 -127 -41q-43 0 -66 20q-24 18 -24 61q0 56 41 115
q40 55 102 94q59 39 125 39q42 0 66 -18q24 -21 24 -62q0 -56 -39 -112q-37 -53 -102 -96zM1229 1296q59 39 125 39q41 0 65 -18q25 -22 25 -62q0 -56 -39 -112q-37 -53 -102 -96q-62 -41 -127 -41q-43 0 -66 20q-25 19 -25 61q0 56 41 115q39 54 103 94z" />
    <glyph glyph-name="uni1E9E" unicode="&#x1e9e;" horiz-adv-x="1841" 
d="M225 -35h-368q88 118 182 254q91 133 164 248q79 126 168 276h-221l251 488h244q37 65 78 141q105 191 233 307q129 116 301 168q168 51 410 51q80 0 164 -8q96 -9 203 -24q44 -6 202 -35q83 -18 172 -43l-223 -432l-692 -426q178 -281 178 -524q0 -262 -153 -400
q-156 -141 -445 -141q-109 0 -235 12q-127 12 -248 33q-119 21 -205 49l326 641q87 -71 190 -129q100 -56 207 -92q103 -35 182 -35q180 0 180 152q0 90 -77 217q-75 118 -232 282l801 396q-186 30 -307 45q-123 12 -219 12q-271 0 -451 -115q-179 -117 -299 -379z" />
    <glyph glyph-name="Ygrave" unicode="&#x1ef2;" horiz-adv-x="2504" 
d="M2210 141q-136 -293 -281 -489q-153 -204 -332 -328q-187 -130 -403 -186q-223 -58 -504 -58q-187 0 -395 33q-224 36 -447 92l316 615q132 -46 325 -94q175 -43 342 -70q177 -25 297 -25q144 0 273 29q120 27 223 92q108 68 197 170q94 107 192 262q34 52 62 103
q37 68 63 121q31 62 86 186q57 125 135 301q-227 -358 -450 -535q-232 -182 -453 -182q-139 0 -221 82q-82 79 -82 217q0 99 45 221q42 122 139 299q77 141 248 404q-10 1 -38.5 4t-45.5 4q-31 2 -110 2q-140 0 -297 -16q-133 -16 -271 -47q-122 -27 -194 -62
q-74 -35 -74 -69q0 -39 82 -82q78 -46 194 -70l-290 -526q-244 191 -244 368q0 75 43 162q39 82 143 229q67 96 187 193q116 93 254 168q129 72 293 131q164 56 307 76q26 4 166 22q71 6 122 6q86 0 127 -18q39 -20 39 -64q0 -61 -90 -198q-190 -284 -280 -469
q-88 -180 -88 -285q0 -87 57 -135q55 -49 152 -49q190 0 413 186q226 192 434 527l301 677h357q-205 -295 -465 -780q-241 -449 -559 -1145zM1831 2410h426l117 -450h-133z" />
    <glyph glyph-name="ygrave" unicode="&#x1ef3;" horiz-adv-x="880" 
d="M160 -268q-278 -169 -590 -178l184 360q143 -47 252 -47q157 0 252 86q94 88 94 233q0 125 -71 252q-71 122 -201 213l330 291q129 -228 129 -461q0 -215 -105 -393q141 157 232 375q89 222 116 469h250q-144 -422 -368 -725q-222 -304 -504 -475zM326 1481h311l111 -430
h-103z" />
    <glyph glyph-name="uni2000" unicode="&#x2000;" horiz-adv-x="1024" 
 />
    <glyph glyph-name="uni2001" unicode="&#x2001;" horiz-adv-x="2048" 
 />
    <glyph glyph-name="uni2002" unicode="&#x2002;" horiz-adv-x="1024" 
 />
    <glyph glyph-name="uni2003" unicode="&#x2003;" horiz-adv-x="2048" 
 />
    <glyph glyph-name="uni2004" unicode="&#x2004;" horiz-adv-x="681" 
 />
    <glyph glyph-name="uni2005" unicode="&#x2005;" horiz-adv-x="512" 
 />
    <glyph glyph-name="uni2006" unicode="&#x2006;" horiz-adv-x="342" 
 />
    <glyph glyph-name="uni2007" unicode="&#x2007;" 
 />
    <glyph glyph-name="uni2008" unicode="&#x2008;" horiz-adv-x="471" 
 />
    <glyph glyph-name="uni2009" unicode="&#x2009;" horiz-adv-x="409" 
 />
    <glyph glyph-name="uni200A" unicode="&#x200a;" horiz-adv-x="102" 
 />
    <glyph glyph-name="uni200B" unicode="&#x200b;" horiz-adv-x="0" 
 />
    <glyph glyph-name="uni2010" unicode="&#x2010;" horiz-adv-x="608" 
d="M209 666l432 61l-176 -344l-432 -61z" />
    <glyph glyph-name="uni2011" unicode="&#x2011;" horiz-adv-x="608" 
d="M209 666l432 61l-176 -344l-432 -61z" />
    <glyph glyph-name="figuredash" unicode="&#x2012;" 
d="M311 666l848 61l-176 -344l-848 -61z" />
    <glyph glyph-name="endash" unicode="&#x2013;" horiz-adv-x="1024" 
d="M209 666l848 61l-176 -344l-848 -61z" />
    <glyph glyph-name="emdash" unicode="&#x2014;" horiz-adv-x="2048" 
d="M209 666l1872 61l-176 -344l-1872 -61z" />
    </font>
</defs>
</svg>
