<?xml version="1.0" standalone="no"?>
<!DOCTYPE svg PUBLIC "-//W3C//DTD SVG 1.1//EN" "http://www.w3.org/Graphics/SVG/1.1/DTD/svg11.dtd" >
<svg xmlns="http://www.w3.org/2000/svg" xmlns:xlink="http://www.w3.org/1999/xlink" version="1.1">
<metadata>
Created by FontForge 20170731 at Sun Mar 19 00:55:18 2023
 By Aleksey,,,
Copyright 1990-1999 as an unpublished work by Bitstream Inc.  All rights reserved.  Confidential.
</metadata>
<defs>
<font id="ZurichBT-RomanCondensed" horiz-adv-x="1024" >
  <font-face 
    font-family="Zurich Condensed"
    font-weight="500"
    font-stretch="condensed"
    units-per-em="2048"
    panose-1="0 0 0 0 0 0 0 0 0 0"
    ascent="1638"
    descent="-410"
    x-height="1028"
    cap-height="1475"
    bbox="-342 -483 2048 1972"
    underline-thickness="118"
    underline-position="-312"
    unicode-range="U+0020-FB02"
  />
<missing-glyph horiz-adv-x="491" 
 />
    <glyph glyph-name=".notdef" horiz-adv-x="491" 
 />
    <glyph glyph-name=".null" horiz-adv-x="0" 
 />
    <glyph glyph-name="nonmarkingreturn" horiz-adv-x="682" 
 />
    <glyph glyph-name="space" unicode=" " horiz-adv-x="491" 
 />
    <glyph glyph-name="exclam" unicode="!" horiz-adv-x="616" 
d="M238 350l-41 1125h223l-39 -1125h-143zM215 0v199h191v-199h-191z" />
    <glyph glyph-name="quotedbl" unicode="&#x22;" horiz-adv-x="589" 
d="M211 1434v-553h-117v553h117zM496 1434v-553h-119v553h119z" />
    <glyph glyph-name="numbersign" unicode="#" horiz-adv-x="1574" 
d="M922 1456l-166 -471h260l168 471h143l-164 -471h307l-43 -123h-311l-94 -272h330l-43 -123h-332l-166 -469h-145l168 469h-265l-168 -469h-143l166 469h-320l43 123h320l96 272h-342l43 123h344l168 471h146zM973 862h-264l-95 -272h263z" />
    <glyph glyph-name="dollar" unicode="$" horiz-adv-x="980" 
d="M446 887v399q-75 -12 -114 -59t-39 -125q0 -67 36 -115t117 -100zM446 -162v162q-183 13 -276.5 118.5t-93.5 297.5q0 8 1 24.5t1 24.5h178q-2 -20 -2 -59q0 -131 47 -196.5t145 -66.5v541q-176 100 -254.5 194t-78.5 218q0 147 87.5 235.5t245.5 100.5v131h95v-131
q164 -7 247.5 -95.5t83.5 -253.5v-28h-178v8q0 219 -153 219v-438q192 -105 277 -203.5t85 -232.5q0 -174 -95.5 -281.5t-266.5 -126.5v-162h-95zM541 643v-500q89 10 135.5 73.5t46.5 172.5q0 77 -43.5 136.5t-138.5 117.5z" />
    <glyph glyph-name="percent" unicode="%" horiz-adv-x="1314" 
d="M993 596q-129 0 -129 -244q0 -258 129 -258t129 258q0 118 -34 181t-95 63zM993 715q273 0 273 -383q0 -175 -69.5 -266t-203.5 -91q-137 0 -203.5 92t-66.5 279t66 278t204 91zM594 1067q0 -175 -69 -265.5t-203 -90.5q-273 0 -273 370q0 186 67.5 277.5t205.5 91.5
q272 0 272 -383zM322 1331q-129 0 -129 -244q0 -258 129 -258t129 258q0 118 -34 181t-95 63zM293 -25l612 1475h119l-621 -1475h-110z" />
    <glyph glyph-name="ampersand" unicode="&#x26;" horiz-adv-x="1208" 
d="M715 1309h-111q-141 0 -207.5 -55.5t-66.5 -180.5q0 -119 70 -185.5t198 -66.5h195v234h190v-234h180v-155h-180v-666h-395q-75 0 -112 1t-90 7t-91 20t-70 38q-145 108 -145 321q0 155 74 250.5t208 114.5q-110 28 -171.5 115t-61.5 216q0 186 119 290t338 104h129v-168
zM793 168v498h-191q-163 0 -238 -56t-75 -190q0 -146 68.5 -199t234.5 -53h201z" />
    <glyph glyph-name="quotesingle" unicode="'" horiz-adv-x="305" 
d="M211 1434v-553h-117v553h117z" />
    <glyph glyph-name="parenleft" unicode="(" horiz-adv-x="591" 
d="M322 -307q-209 587 -209 905q0 314 215 899h127q-138 -505 -138 -899q0 -407 125 -905h-120z" />
    <glyph glyph-name="parenright" unicode=")" horiz-adv-x="591" 
d="M270 -307h-120q124 494 124 905q0 398 -137 899h129q213 -580 213 -899q0 -318 -209 -905z" />
    <glyph glyph-name="asterisk" unicode="*" horiz-adv-x="980" 
d="M492 1069l-134 -281l-108 64l176 254l-309 -25v127l309 -26l-176 252l108 63l134 -278l131 278l110 -63l-176 -252l307 24v-127l-307 27l176 -254l-110 -64z" />
    <glyph glyph-name="plus" unicode="+" horiz-adv-x="1705" 
d="M913 1221v-551h539v-117h-539v-553h-118v553h-541v117h541v551h118z" />
    <glyph glyph-name="comma" unicode="," horiz-adv-x="491" 
d="M66 -240l104 467h195l-160 -467h-139z" />
    <glyph glyph-name="hyphen" unicode="-" horiz-adv-x="569" 
d="M68 442v150h434v-150h-434z" />
    <glyph glyph-name="period" unicode="." horiz-adv-x="491" 
d="M147 0v227h195v-227h-195z" />
    <glyph glyph-name="slash" unicode="/" horiz-adv-x="569" 
d="M629 1497l-598 -1687h-125l598 1687h125z" />
    <glyph glyph-name="zero" unicode="0" horiz-adv-x="980" 
d="M272 713q0 -120 1.5 -183.5t8 -142t20 -116t37.5 -74.5t61 -50.5t89 -13.5q31 0 56.5 5t46 17.5t36.5 26.5t28 40t20.5 50t14 64t9 74t5 89t2 100t0.5 114q0 118 -1.5 184t-8.5 142.5t-20.5 115t-38 74.5t-61 49.5t-88.5 13.5q-32 0 -57.5 -5t-46 -17.5t-36.5 -26.5
t-27.5 -40.5t-20 -49.5t-14 -64.5t-8.5 -74t-4.5 -88.5t-2 -99t-0.5 -114zM492 1452q210 0 313 -143q57 -78 71.5 -199.5t14.5 -359.5v-74q0 -237 -14.5 -358t-71.5 -199q-104 -144 -313 -144t-316 144q-25 35 -42 83t-25.5 92t-13 124t-5 132.5t-0.5 162.5t0.5 162.5
t5 132.5t13 124t25.5 92t42 83q108 145 316 145z" />
    <glyph glyph-name="one" unicode="1" horiz-adv-x="980" 
d="M612 0h-184v1208q-37 -35 -213 -151v196q84 41 256 174h141v-1427z" />
    <glyph glyph-name="two" unicode="2" horiz-adv-x="980" 
d="M109 0v182l438 627q66 95 99.5 177.5t33.5 135.5q0 79 -50 127.5t-134 48.5q-92 0 -134.5 -55.5t-48.5 -177.5h-198q0 6 -1 19.5t-1 19.5q0 167 100 256.5t289 89.5q173 0 269.5 -84t96.5 -233q0 -205 -204 -492l-338 -471h548v-170h-765z" />
    <glyph glyph-name="three" unicode="3" horiz-adv-x="980" 
d="M82 377h197q6 -242 188 -242q213 0 213 264q0 135 -65.5 200t-200.5 65h-31v170q143 0 211 57t68 180q0 219 -185 219q-88 0 -134 -52.5t-46 -152.5h-193v23q0 157 96 249.5t259 92.5q187 0 286 -92t99 -266q0 -155 -64.5 -245t-183.5 -102q136 -6 198 -89.5t62 -256.5
q0 -424 -381 -424q-190 0 -291.5 96.5t-101.5 278.5v27z" />
    <glyph glyph-name="four" unicode="4" horiz-adv-x="980" 
d="M555 512l18 766l-350 -766h332zM553 0v358h-467v207l401 862h250v-913h158v-156h-158v-358h-184z" />
    <glyph glyph-name="five" unicode="5" horiz-adv-x="980" 
d="M117 332h188q8 -106 52.5 -156.5t131.5 -50.5q100 0 145.5 82t45.5 256q0 172 -41.5 246.5t-151.5 74.5q-72 0 -114.5 -39t-53.5 -114h-188l14 796h660v-161h-471l-19 -432q85 104 236 104q162 0 237.5 -113t75.5 -348q0 -254 -98 -379t-297 -125q-169 0 -260.5 93.5
t-91.5 265.5z" />
    <glyph glyph-name="six" unicode="6" horiz-adv-x="980" 
d="M504 137q95 0 139.5 81.5t44.5 248.5q0 151 -45.5 223t-142.5 72q-94 0 -143.5 -71t-49.5 -208q0 -180 46.5 -263t150.5 -83zM842 1124h-191q-12 172 -151 172q-113 0 -156 -96t-43 -319q0 -13 1 -41.5t1 -44.5q34 60 90.5 92.5t128.5 32.5q171 0 259.5 -115.5
t88.5 -341.5q0 -251 -88 -367t-284 -116q-82 0 -142.5 18t-103.5 59t-70.5 96t-43 140t-21.5 179.5t-6 225.5q0 222 13.5 354.5t57.5 221.5q86 176 316 176q160 0 252 -83.5t92 -229.5v-13z" />
    <glyph glyph-name="seven" unicode="7" horiz-adv-x="980" 
d="M469 0h-207l383 1270h-545v157h736v-163z" />
    <glyph glyph-name="eight" unicode="8" horiz-adv-x="980" 
d="M344 758q-221 62 -221 327q0 172 98 268.5t271 96.5t269.5 -96t96.5 -267q0 -267 -221 -329q118 -28 179 -120.5t61 -244.5q0 -197 -102 -307.5t-283 -110.5q-182 0 -285 111.5t-103 310.5q0 148 62 240.5t178 120.5zM692 389q0 145 -49 214t-154 69q-202 0 -202 -271
q0 -131 53 -201.5t149 -70.5q95 0 149 68.5t54 191.5zM682 1065q0 112 -49.5 171.5t-140.5 59.5q-93 0 -142 -59t-49 -172q0 -112 53 -178t140 -66q82 0 135 68t53 176z" />
    <glyph glyph-name="nine" unicode="9" horiz-adv-x="980" 
d="M477 1288q-95 0 -139.5 -81.5t-44.5 -248.5q0 -150 45 -222t143 -72q191 0 191 278q0 180 -46 263t-149 83zM330 301q12 -174 151 -174q113 0 156 96.5t43 321.5q0 13 -1 41.5t-1 44.5q-34 -60 -90.5 -92.5t-128.5 -32.5q-171 0 -259.5 115.5t-88.5 341.5q0 251 88 367
t284 116q98 0 166.5 -28.5t111.5 -81t67 -144.5t33 -199.5t9 -265.5q0 -222 -13.5 -354t-57.5 -221q-86 -177 -316 -177q-160 0 -252 84t-92 230v12h191z" />
    <glyph glyph-name="colon" unicode=":" horiz-adv-x="518" 
d="M162 0v227h194v-227h-194zM162 801v227h194v-227h-194z" />
    <glyph glyph-name="semicolon" unicode=";" horiz-adv-x="518" 
d="M66 -240l104 467h195l-160 -467h-139zM170 801v227h195v-227h-195z" />
    <glyph glyph-name="less" unicode="&#x3c;" horiz-adv-x="1705" 
d="M1442 1018l-1000 -408l1000 -405v-129l-1178 483v103l1178 483v-127z" />
    <glyph glyph-name="equal" unicode="=" horiz-adv-x="1705" 
d="M1452 860v-117h-1198v117h1198zM1452 477v-117h-1198v117h1198z" />
    <glyph glyph-name="greater" unicode="&#x3e;" horiz-adv-x="1705" 
d="M1442 662v-103l-1178 -483v129l1000 405l-1000 408v127z" />
    <glyph glyph-name="question" unicode="?" horiz-adv-x="806" 
d="M305 375v227q0 89 27 129q24 38 67.5 95t55.5 75q45 68 66.5 128t21.5 130q0 95 -38.5 146t-109.5 51q-76 0 -111 -67t-38 -208h-183q-6 43 -6 80q0 162 94 251t265 89q159 0 244 -93t85 -271q0 -94 -29.5 -164.5t-92.5 -157.5q-15 -20 -62.5 -82t-68.5 -96
q-23 -40 -23 -117v-145h-164zM293 0v205h192v-205h-192z" />
    <glyph glyph-name="at" unicode="@" horiz-adv-x="2048" 
d="M1202 473l60 242q-17 90 -72 140t-135 50q-147 0 -244.5 -132t-97.5 -327q0 -110 51 -169.5t145 -59.5q101 0 182.5 70t110.5 186zM1292 844l58 121h110l-141 -568q-12 -49 -12 -80q0 -90 110 -90q42 0 97.5 23t105.5 65q87 74 138.5 194.5t51.5 256.5q0 173 -86.5 306.5
t-249 208.5t-378.5 75q-338 0 -572 -205q-282 -246 -282 -637q0 -173 60 -304t187 -230q100 -79 239 -123.5t296 -44.5q171 0 334 48t297 140l45 -66q-296 -221 -660 -221q-383 0 -624 185q-303 233 -303 624q0 331 200 578q145 176 348.5 267t454.5 91q167 0 312.5 -44.5
t246.5 -123.5q129 -99 195.5 -230t66.5 -282q0 -171 -63 -310t-182 -235q-139 -112 -312 -112q-198 0 -198 155q0 3 1 11t1 12q-103 -178 -297 -178q-153 0 -233.5 85t-80.5 247q0 232 137.5 390t331.5 158q182 0 250 -157z" />
    <glyph glyph-name="A" unicode="A" horiz-adv-x="1208" 
d="M965 0l-99 358h-522l-102 -358h-211l463 1475h233l451 -1475h-213zM393 532h422l-207 713z" />
    <glyph glyph-name="B" unicode="B" horiz-adv-x="1138" 
d="M328 860h198q149 0 217 58t68 190q0 118 -65.5 169.5t-208.5 51.5h-209v-469zM328 168h219q161 0 236 62t75 200q0 135 -73.5 199.5t-225.5 64.5h-231v-526zM565 1475q221 0 328.5 -87t107.5 -268q0 -146 -63.5 -236.5t-183.5 -115.5q140 -20 215 -111.5t75 -242.5
q0 -218 -109.5 -316t-342.5 -98h-447v1475h420z" />
    <glyph glyph-name="C" unicode="C" horiz-adv-x="1097" 
d="M989 455v-33q0 -210 -111.5 -327.5t-308.5 -117.5q-96 0 -177 27.5t-130 73.5q-94 87 -123.5 244t-29.5 448q0 205 19 334t75 219q50 81 144 125.5t220 44.5q203 0 307.5 -113t104.5 -327h-207v22q0 262 -211 262q-137 0 -199 -102q-38 -60 -47.5 -177.5t-9.5 -359.5
q0 -102 4 -175t14 -140.5t28 -110.5t46.5 -75.5t68.5 -47t95 -14.5q114 0 168.5 74.5t54.5 228.5v17h205z" />
    <glyph glyph-name="D" unicode="D" horiz-adv-x="1155" 
d="M332 168h207q104 0 166.5 23t95.5 79q34 57 46.5 170.5t12.5 307.5q0 161 -9 268t-20 135q-34 93 -101 128.5t-191 35.5h-207v-1147zM135 0v1475h354q168 0 261.5 -18t164.5 -85q32 -30 55.5 -66.5t38 -86.5t23.5 -95.5t13 -118.5t5 -130t1 -154q0 -218 -17 -344.5
t-71 -206.5q-39 -58 -85.5 -93.5t-111 -51.5t-122.5 -20.5t-155 -4.5h-354z" />
    <glyph glyph-name="E" unicode="E" horiz-adv-x="950" 
d="M135 0v1475h737v-162h-542v-473h526v-166h-526v-512h542v-162h-737z" />
    <glyph glyph-name="F" unicode="F" horiz-adv-x="933" 
d="M135 0v1475h709v-162h-514v-473h489v-166h-489v-674h-195z" />
    <glyph glyph-name="G" unicode="G" horiz-adv-x="1163" 
d="M829 1073q-1 130 -63.5 198t-179.5 68q-54 0 -94.5 -12t-70.5 -33t-50.5 -59.5t-33.5 -82t-20 -110.5t-9.5 -135.5t-2.5 -165.5q0 -133 6.5 -221.5t25 -166.5t52 -121t87.5 -67t132 -24q79 0 234 29v436h-205v170h397v-739q-261 -62 -428 -62q-255 0 -368 125
q-78 86 -106 241t-28 423q0 204 20.5 335.5t78.5 223.5q111 174 389 174q208 0 323 -110t115 -310v-4h-201z" />
    <glyph glyph-name="H" unicode="H" horiz-adv-x="1165" 
d="M135 0v1475h195v-631h506v631h194v-1475h-194v674h-506v-674h-195z" />
    <glyph glyph-name="I" unicode="I" horiz-adv-x="464" 
d="M133 0v1475h199v-1475h-199z" />
    <glyph glyph-name="J" unicode="J" horiz-adv-x="978" 
d="M272 463q-2 -23 -2 -64q0 -131 44 -193.5t137 -62.5q33 0 59.5 5.5t47 15t36 27.5t26 35.5t18 48t12 57.5t6.5 70t2.5 78.5t0.5 90.5v904h193v-1026q0 -119 -12 -194t-54 -138q-98 -142 -333 -142q-200 0 -293.5 103.5t-93.5 324.5q0 10 1 30t1 30h204z" />
    <glyph glyph-name="K" unicode="K" horiz-adv-x="989" 
d="M137 0v1475h189v-621l438 621h213l-471 -662l506 -813h-221l-465 766v-766h-189z" />
    <glyph glyph-name="L" unicode="L" horiz-adv-x="868" 
d="M135 0v1475h193v-1305h503v-170h-696z" />
    <glyph glyph-name="M" unicode="M" horiz-adv-x="1630" 
d="M135 0v1475h314l317 -1014q12 -42 61 -234q28 139 56 236l309 1012h303v-1475h-180v1055q0 162 4 309l-416 -1364h-166l-426 1378q6 -159 6 -364v-1014h-182z" />
    <glyph glyph-name="N" unicode="N" horiz-adv-x="1261" 
d="M954 170q-8 141 -8 270v1035h180v-1475h-264l-567 1341q16 -187 16 -278v-1063h-176v1475h277z" />
    <glyph glyph-name="O" unicode="O" horiz-adv-x="1167" 
d="M854 737q0 95 -2 159t-8 131.5t-18 110.5t-32 83.5t-49 62t-69.5 34.5t-93.5 13q-136 0 -201 -96q-25 -37 -39.5 -83.5t-20.5 -120t-7 -127.5t-1 -167q0 -189 7 -289t34 -161q64 -146 228 -146q62 0 107 15.5t75 52t48 80.5t27 118.5t12 146.5t3 183zM1053 721
q0 -212 -16 -341.5t-60 -207.5q-115 -197 -393 -197q-227 0 -348 134q-78 87 -99.5 226t-21.5 402q0 228 14 356.5t61 209.5q54 95 155 144.5t239 49.5q228 0 348 -133q78 -89 99.5 -230.5t21.5 -412.5z" />
    <glyph glyph-name="P" unicode="P" horiz-adv-x="1028" 
d="M537 1475q232 0 328 -89.5t96 -316.5q0 -213 -92 -311.5t-289 -98.5h-250v-659h-195v1475h402zM330 1309v-484h153q161 0 221 49t60 197q0 134 -51.5 186t-177.5 52h-205z" />
    <glyph glyph-name="Q" unicode="Q" horiz-adv-x="1167" 
d="M936 150q106 20 184 20h68v-170h-340q-15 0 -100 -12.5t-156 -12.5q-242 0 -361 134q-33 37 -55.5 87t-35 100t-18.5 128.5t-7.5 141.5t-1.5 171q0 232 13 359t60 207q54 95 155 144.5t239 49.5q228 0 348 -133q77 -86 99 -219t22 -377v-55q0 -119 -2.5 -185t-13 -145.5
t-34 -134t-63.5 -98.5zM850 737q0 191 -7 290t-34 159q-64 145 -229 145q-141 0 -203 -96q-43 -66 -54.5 -166.5t-11.5 -292.5v-39q0 -134 1.5 -197t10.5 -136.5t27 -116.5q64 -146 230 -146q139 0 204 97q43 66 54.5 167t11.5 293v39z" />
    <glyph glyph-name="R" unicode="R" horiz-adv-x="1110" 
d="M518 1475q233 0 342 -84.5t109 -270.5q0 -147 -62 -235t-192 -125q123 -13 171 -84.5t48 -224.5q0 -30 -1 -80t-1 -70q0 -168 39 -301h-201q-14 47 -21.5 106.5t-9 104.5t-2 124t-2.5 122q-3 118 -41.5 167.5t-134.5 49.5h-233v-674h-195v1475h387zM326 834h143
q158 0 231.5 61.5t73.5 200.5q0 225 -229 225h-219v-487z" />
    <glyph glyph-name="S" unicode="S" horiz-adv-x="1079" 
d="M78 426h215v-27q0 -141 51 -205.5t166 -64.5q108 0 178 64t70 161q0 21 -4.5 40.5t-10 35.5t-19 34t-23.5 31t-33 31.5t-36.5 29t-44.5 31t-48 31.5t-56 35t-59 37q-77 49 -119 79t-89 71.5t-69.5 79t-37.5 89t-15 113.5q0 167 119.5 272t316.5 105q200 0 306 -100
t106 -287v-37h-203v31q0 119 -55 179.5t-162 60.5q-101 0 -165 -58t-64 -143q0 -30 7.5 -57.5t17 -48.5t33.5 -46.5t41 -41.5t56 -43.5t62.5 -42.5t77 -49.5t82.5 -53.5q62 -41 102.5 -70.5t78.5 -66t59 -71t33.5 -77.5t12.5 -94q0 -194 -117 -301t-333 -107
q-430 0 -430 406q0 7 1 22t1 23z" />
    <glyph glyph-name="T" unicode="T" horiz-adv-x="958" 
d="M387 0v1323h-362v152h909v-152h-352v-1323h-195z" />
    <glyph glyph-name="U" unicode="U" horiz-adv-x="1185" 
d="M319 1475v-953q0 -101 7.5 -159.5t35.5 -104.5q72 -121 230 -121q159 0 231 121q27 45 34 103.5t7 158.5v955h187v-924q0 -302 -105 -439t-354 -137q-129 0 -219 39.5t-152 126.5q-56 78 -71 167.5t-15 232.5v934h184z" />
    <glyph glyph-name="V" unicode="V" horiz-adv-x="1069" 
d="M418 0l-418 1475h221l264 -1100q45 -195 50 -225q10 45 26.5 121.5t22.5 101.5l280 1102h205l-418 -1475h-233z" />
    <glyph glyph-name="W" unicode="W" horiz-adv-x="1820" 
d="M377 0l-359 1475h197l252 -1115q16 -70 35 -231q15 78 45 225l266 1121h205l254 -1102q26 -115 37 -244q10 79 45 233l256 1113h190l-377 -1475h-231l-217 924q-36 146 -64 397q-18 -172 -75 -399l-224 -922h-235z" />
    <glyph glyph-name="X" unicode="X" horiz-adv-x="1099" 
d="M12 0l414 772l-381 703h223l281 -560l297 560h209l-385 -699l417 -776h-227l-313 631l-314 -631h-221z" />
    <glyph glyph-name="Y" unicode="Y" horiz-adv-x="976" 
d="M377 0v618l-387 857h223l281 -695l294 695h197l-410 -875v-600h-198z" />
    <glyph glyph-name="Z" unicode="Z" horiz-adv-x="929" 
d="M35 0v201l672 1112h-627v162h829v-185l-676 -1120h676v-170h-874z" />
    <glyph glyph-name="bracketleft" unicode="[" horiz-adv-x="591" 
d="M512 -324h-324v1799h324v-119h-166v-1561h166v-119z" />
    <glyph glyph-name="backslash" unicode="\" horiz-adv-x="569" 
d="M-70 1497h125l598 -1687h-125z" />
    <glyph glyph-name="bracketright" unicode="]" horiz-adv-x="591" 
d="M80 -324v119h166v1561h-166v119h323v-1799h-323z" />
    <glyph glyph-name="asciicircum" unicode="^" horiz-adv-x="2048" 
d="M1104 1458l520 -557h-158l-442 438l-442 -438h-160l520 557h162z" />
    <glyph glyph-name="underscore" unicode="_" 
d="M1024 -365v-118h-1024v118h1024z" />
    <glyph glyph-name="grave" unicode="`" 
d="M655 1163h-120l-285 348h201z" />
    <glyph glyph-name="a" unicode="a" horiz-adv-x="919" 
d="M633 539q-205 0 -293 -47t-88 -170q0 -75 46 -126t116 -51q102 0 160.5 80.5t58.5 233.5v80zM285 760h-189v20q0 134 92.5 203.5t272.5 69.5q179 0 262.5 -72.5t83.5 -226.5v-480q0 -142 18 -274h-176l-12 129q-52 -67 -121.5 -103t-144.5 -36q-129 0 -212 86t-83 229
q0 357 456 357h99v51q0 115 -33 164t-125 49q-188 0 -188 -156v-10z" />
    <glyph glyph-name="b" unicode="b" horiz-adv-x="960" 
d="M100 0q11 76 11 184v1291h178v-560q88 140 246 140q173 0 254 -136t81 -417q0 -268 -83 -398.5t-261 -130.5q-164 0 -235 121l-23 -94h-168zM496 905q-111 0 -160 -93t-49 -290q0 -215 45.5 -314t152.5 -99q117 0 160 93.5t43 309.5q0 201 -45.5 297t-146.5 96z" />
    <glyph glyph-name="c" unicode="c" horiz-adv-x="923" 
d="M668 348h178q-3 -177 -101 -275t-270 -98q-206 0 -295.5 128t-89.5 409t89.5 410t295.5 129q165 0 265 -88t100 -230v-22h-174q0 90 -48 140t-133 50q-122 0 -168.5 -90.5t-46.5 -298.5q0 -204 45.5 -295.5t159.5 -91.5q85 0 137.5 59.5t55.5 163.5z" />
    <glyph glyph-name="d" unicode="d" horiz-adv-x="960" 
d="M461 905q-99 0 -147 -95.5t-48 -291.5q0 -219 44 -314t161 -95q105 0 151 97.5t46 305.5q0 204 -47 298.5t-160 94.5zM668 915v560h178v-1291q0 -127 8 -182h-174l-10 100q-94 -125 -246 -125q-176 0 -257 129t-81 396q0 281 81.5 417t254.5 136q158 0 246 -140z" />
    <glyph glyph-name="e" unicode="e" horiz-adv-x="923" 
d="M844 322q-8 -163 -105.5 -255t-263.5 -92q-212 0 -298.5 130t-86.5 417q0 273 91 401t294 128q193 0 281 -102t88 -316v-160h-572v-59q0 -150 48 -219.5t155 -69.5q80 0 130.5 51t62.5 146h176zM272 606h398v88q0 117 -48 176.5t-141 59.5q-105 0 -155.5 -79.5
t-53.5 -244.5z" />
    <glyph glyph-name="f" unicode="f" horiz-adv-x="526" 
d="M152 1204v66q0 64 13 103.5t58 70.5q77 53 250 53h45v-139q-47 -1 -78.5 -5.5t-53 -16.5t-33.5 -24.5t-18 -39.5t-7.5 -51.5t-1.5 -69.5v-123h192v-127h-192v-901h-174v901h-144v127h144v176z" />
    <glyph glyph-name="g" unicode="g" horiz-adv-x="966" 
d="M150 -115h200q1 -71 42 -112t106 -41q105 0 140.5 55t35.5 182v148q-109 -142 -246 -142q-179 0 -260.5 135t-81.5 418q0 268 81 397.5t259 129.5q154 0 248 -125l10 98h178q-10 -69 -10 -182v-901q0 -83 -11.5 -138t-47.5 -100q-46 -58 -117.5 -83t-179.5 -25
q-161 0 -250.5 74.5t-95.5 211.5zM268 518q0 -204 46 -298.5t153 -94.5q114 0 164.5 96t50.5 297q0 211 -47.5 308.5t-161.5 97.5q-118 0 -161.5 -94.5t-43.5 -311.5z" />
    <glyph glyph-name="h" unicode="h" horiz-adv-x="948" 
d="M662 0v657q0 140 -35 200.5t-135 60.5q-107 0 -154 -79.5t-47 -244.5v-594h-176v1475h176v-566q57 75 122 109.5t152 34.5q127 0 201 -74.5t74 -202.5v-776h-178z" />
    <glyph glyph-name="i" unicode="i" horiz-adv-x="428" 
d="M129 0v1028h170v-1028h-170zM129 1286v189h170v-189h-170z" />
    <glyph glyph-name="j" unicode="j" horiz-adv-x="438" 
d="M307 -117v-51q0 -73 -10.5 -114t-48.5 -72q-58 -49 -168 -49q-34 0 -72 6v143h23q64 0 85 23t21 88v1171h170v-1145zM137 1286v189h170v-189h-170z" />
    <glyph glyph-name="k" unicode="k" horiz-adv-x="872" 
d="M293 0h-176v1475h176v-854l313 407h197l-348 -426l417 -602h-215l-364 553v-553z" />
    <glyph glyph-name="l" unicode="l" horiz-adv-x="399" 
d="M287 0h-176v1475h176v-1475z" />
    <glyph glyph-name="m" unicode="m" horiz-adv-x="1497" 
d="M293 909q54 74 119.5 109t152.5 35q97 0 166 -45t98 -127q88 172 285 172q127 0 199.5 -74.5t72.5 -202.5v-776h-176v657q0 140 -35 200.5t-135 60.5q-105 0 -152.5 -80t-47.5 -244v-594h-178v657q0 140 -35 200.5t-135 60.5q-107 0 -154 -79.5t-47 -244.5v-594h-176v866
q0 58 -11 162h181z" />
    <glyph glyph-name="n" unicode="n" horiz-adv-x="948" 
d="M662 0v657q0 140 -35 200.5t-135 60.5q-107 0 -154 -79.5t-47 -244.5v-594h-176v866q0 58 -11 162h181l8 -119q54 74 119.5 109t152.5 35q127 0 201 -74.5t74 -202.5v-776h-178z" />
    <glyph glyph-name="o" unicode="o" horiz-adv-x="950" 
d="M475 901q-113 0 -159 -92.5t-46 -294.5q0 -206 45.5 -297.5t159.5 -91.5q113 0 159 92t46 295q0 204 -45.5 296.5t-159.5 92.5zM88 516q0 277 91 406t296 129q206 0 295.5 -128.5t89.5 -408.5t-89.5 -409.5t-295.5 -129.5q-208 0 -297.5 129t-89.5 412z" />
    <glyph glyph-name="p" unicode="p" horiz-adv-x="960" 
d="M113 -389v1235q0 120 -9 182h181l10 -98q94 125 242 125q176 0 255.5 -129.5t79.5 -397.5q0 -281 -81 -417t-254 -136q-157 0 -246 142v-506h-178zM289 510q0 -197 50 -291t161 -94q101 0 145.5 95.5t44.5 297.5q0 217 -43 311.5t-160 94.5q-107 0 -152.5 -99.5
t-45.5 -314.5z" />
    <glyph glyph-name="q" unicode="q" horiz-adv-x="960" 
d="M461 125q111 0 160 94t49 291q0 215 -46 314.5t-153 99.5q-117 0 -160 -94.5t-43 -311.5q0 -201 46 -297t147 -96zM668 -389v506q-89 -142 -246 -142q-173 0 -254.5 136t-81.5 417q0 268 81 397.5t257 129.5q150 0 244 -125l10 98h176q-8 -55 -8 -182v-1235h-178z" />
    <glyph glyph-name="r" unicode="r" horiz-adv-x="591" 
d="M274 1030l17 -135q28 77 94 118.5t164 41.5q5 0 16 -1t17 -1v-181q-8 0 -23 1t-22 1q-134 0 -190 -58t-56 -193v-623h-176v856q0 1 -17 174h176z" />
    <glyph glyph-name="s" unicode="s" horiz-adv-x="876" 
d="M76 313h192q6 -192 174 -192q76 0 122 37.5t46 99.5q0 47 -35.5 85.5t-113.5 78.5l-185 96q-100 51 -143 105t-43 137q0 132 97 213.5t259 81.5q156 0 247 -74.5t91 -200.5v-18h-188q0 76 -44.5 119t-121.5 43q-70 0 -113 -36.5t-43 -92.5q0 -40 25.5 -69t79.5 -56
l170 -84q137 -68 194.5 -132t57.5 -165q0 -142 -99.5 -228t-265.5 -86q-177 0 -267.5 85.5t-92.5 252.5z" />
    <glyph glyph-name="t" unicode="t" horiz-adv-x="583" 
d="M346 1319v-291h205v-127h-205v-616q0 -84 26 -115t93 -31q24 0 86 4v-133q-83 -18 -145 -18q-133 0 -184.5 53t-51.5 178v678h-156v127h156v207z" />
    <glyph glyph-name="u" unicode="u" horiz-adv-x="948" 
d="M285 1028v-655q0 -140 35 -200t135 -60q107 0 153.5 78t46.5 243v594h176v-866q0 -58 11 -162h-180l-9 121q-55 -75 -120 -110.5t-152 -35.5q-127 0 -201 74.5t-74 202.5v776h179z" />
    <glyph glyph-name="v" unicode="v" horiz-adv-x="901" 
d="M340 0l-322 1028h205l162 -592q42 -151 64 -311q18 79 36 147t31 113t14 49l166 594h185l-322 -1028h-219z" />
    <glyph glyph-name="w" unicode="w" horiz-adv-x="1470" 
d="M287 0l-267 1028h183l139 -592q37 -151 55 -289q15 62 31 131.5t24.5 105.5t12.5 52l166 592h211l162 -604q2 -6 59 -277q14 103 59 285l146 596h180l-272 -1028h-222l-170 659q-12 45 -53 254q-32 -173 -53 -254l-174 -659h-217z" />
    <glyph glyph-name="x" unicode="x" horiz-adv-x="915" 
d="M207 0h-195l328 549l-297 479h203l209 -362l215 362h192l-311 -487l350 -541h-207l-254 424z" />
    <glyph glyph-name="y" unicode="y" horiz-adv-x="929" 
d="M434 -389h-174l113 389l-353 1028h207l246 -813l244 813h190z" />
    <glyph glyph-name="z" unicode="z" horiz-adv-x="696" 
d="M25 0v164l450 731h-424v133h623v-133l-469 -758h469v-137h-649z" />
    <glyph glyph-name="braceleft" unicode="{" 
d="M858 1350q-8 0 -23 1t-22 1q-67 0 -107 -12t-62.5 -42.5t-30 -73.5t-7.5 -116v-242q0 -156 -39.5 -230t-158.5 -106q119 -32 158.5 -105.5t39.5 -229.5v-242q0 -73 8 -116t31.5 -73.5t64.5 -41.5t109 -11h39v-125h-35q-182 0 -262 52q-63 41 -81.5 111t-18.5 202v244
q0 150 -54 212t-190 62q-7 0 -22 -1t-23 -1v127q8 0 23 -1t22 -1q136 0 190 62t54 214v244q0 134 18 203t82 110q80 52 262 52h35v-127z" />
    <glyph glyph-name="bar" unicode="|" 
d="M575 1565v-2048h-126v2048h126z" />
    <glyph glyph-name="braceright" unicode="}" 
d="M563 1112v-244q0 -151 55 -213.5t191 -62.5q7 0 22 1t23 1v-127q-8 0 -23 1t-22 1q-136 0 -191 -62.5t-55 -213.5v-242q0 -134 -18 -204.5t-80 -111.5q-43 -29 -103.5 -39t-154.5 -10h-41v125q8 0 23 -1t22 -1q66 0 106.5 12t63 43.5t30 74.5t7.5 116v240
q0 156 39.5 229.5t158.5 105.5q-119 32 -158.5 106t-39.5 230v242q0 73 -8 116.5t-31.5 74t-64.5 42t-109 11.5h-39v125h35q184 0 264 -52q62 -41 80 -110t18 -203z" />
    <glyph glyph-name="asciitilde" unicode="~" horiz-adv-x="1705" 
d="M1530 627q-202 -144 -387 -144q-88 0 -191 35q-29 10 -99 35t-104.5 35.5t-87.5 21.5t-98 11q-87 0 -178.5 -39.5t-206.5 -120.5v133q210 145 387 145q50 0 104.5 -10.5t91 -22t95.5 -32.5q13 -5 47 -17.5t49.5 -18t45.5 -14.5t49.5 -13t46 -7.5t51.5 -3.5q88 0 179.5 39
t205.5 119v-131z" />
    <glyph glyph-name="exclamdown" unicode="&#xa1;" horiz-adv-x="616" 
d="M215 1475h191v-199h-191v199zM238 1124h143l39 -1124h-223z" />
    <glyph glyph-name="cent" unicode="&#xa2;" horiz-adv-x="980" 
d="M868 348q-3 -177 -100.5 -275t-269.5 -98q-100 0 -179 33l-63 -153h-92l84 196q-74 67 -105.5 177.5t-31.5 283.5q0 281 90 410t297 129q74 0 157 -25l60 148h92l-78 -187q135 -101 135 -248q0 -5 -1 -14t-1 -14h-157q-3 102 -37 131l-285 -682q46 -35 115 -35
q91 0 145 59.5t57 163.5h168zM322 233l272 654q-41 14 -86 14q-126 0 -174.5 -88.5t-48.5 -292.5q0 -206 37 -287z" />
    <glyph glyph-name="sterling" unicode="&#xa3;" horiz-adv-x="980" 
d="M84 0v166h145v516h-145v158h145v149q0 119 10.5 191t47.5 129q94 145 303 145q148 0 232.5 -86t84.5 -238v-6h-198q-6 88 -40 128t-104 40q-153 0 -153 -217v-235h284v-158h-284v-516h493v-166h-821z" />
    <glyph glyph-name="currency" unicode="&#xa4;" horiz-adv-x="980" 
d="M926 428v-16q0 -204 -102 -319.5t-275 -115.5q-204 0 -305.5 139t-106.5 421h-133l53 118h78v160h-153l51 119h104q0 4 1 13t1 14q0 261 104 396.5t304 135.5q175 0 270 -106t101 -310h-189q0 260 -188 260q-120 0 -174 -98t-54 -305h402l-51 -119h-351v-160h277
l-51 -118h-226q2 -204 57 -303t171 -99q197 0 200 293h185z" />
    <glyph glyph-name="yen" unicode="&#xa5;" horiz-adv-x="956" 
d="M961 1427l-203 -432h174v-108h-225l-95 -182h320v-109h-365v-596h-186v596h-358v109h311l-84 182h-227v108h176l-193 432h207l274 -673l287 673h187z" />
    <glyph glyph-name="brokenbar" unicode="&#xa6;" 
d="M575 1432v-758h-126v758h126zM575 408v-758h-126v758h126z" />
    <glyph glyph-name="section" unicode="&#xa7;" horiz-adv-x="980" 
d="M188 31v147q146 -57 275 -57q100 0 155.5 36.5t55.5 98.5q0 58 -59.5 102t-211.5 119q-71 35 -110 58.5t-75.5 55.5t-51 68.5t-14.5 85.5q0 65 53 127.5t162 131.5q-172 96 -172 245q0 111 90.5 179.5t242.5 68.5q150 0 234 -37v-129q-139 45 -240 45q-81 0 -125.5 -31
t-44.5 -85q0 -23 6 -42t20.5 -36t28 -29.5t41 -27.5t46.5 -25t57 -28t61 -30q111 -57 159 -110.5t48 -126.5q0 -152 -207 -264q118 -70 165.5 -128t47.5 -147q0 -133 -93.5 -211t-258.5 -78q-167 0 -285 54zM494 602q80 44 122.5 91.5t42.5 86.5q0 78 -180 152
q-82 -49 -121 -89.5t-39 -80.5q0 -81 175 -160z" />
    <glyph glyph-name="dieresis" unicode="&#xa8;" 
d="M256 1223v209h182v-209h-182zM586 1223v209h182v-209h-182z" />
    <glyph glyph-name="copyright" unicode="&#xa9;" horiz-adv-x="1705" 
d="M852 1460q150 0 284.5 -55t239.5 -160q103 -103 157 -236.5t54 -283.5q0 -308 -211 -516q-109 -106 -244 -162.5t-280 -56.5q-299 0 -516 217q-106 106 -161.5 239t-55.5 279t56.5 280t162.5 242q102 103 233.5 158t280.5 55zM1501 725q0 131 -48.5 249.5t-139.5 209.5
q-188 188 -461 188q-270 0 -453 -186q-93 -95 -142.5 -214t-49.5 -247q0 -127 49 -244t141 -211q92 -92 209 -141t246 -49q128 0 248 49.5t215 142.5q186 183 186 453zM1065 911q-15 77 -71 120.5t-138 43.5q-117 0 -182.5 -91.5t-65.5 -260.5q0 -162 67 -253t181 -91
q87 0 145.5 48t73.5 134h129q-11 -128 -108.5 -207.5t-245.5 -79.5q-174 0 -279.5 120.5t-105.5 326.5q0 210 108 333.5t287 123.5q137 0 230 -75t104 -192h-129z" />
    <glyph glyph-name="ordfeminine" unicode="&#xaa;" horiz-adv-x="690" 
d="M475 1130q-155 0 -221 -32.5t-66 -118.5q0 -53 34.5 -88t88.5 -35q76 0 120 56t44 163v55zM213 1286h-141v14q0 94 69.5 142.5t204.5 48.5t197.5 -50.5t62.5 -158.5v-336q0 -100 12 -192h-131l-10 90q-78 -96 -198 -96q-97 0 -159.5 59.5t-62.5 159.5q0 250 342 250h74
v36q0 80 -25 114t-94 34q-141 0 -141 -109v-6z" />
    <glyph glyph-name="guillemotleft" unicode="&#xab;" horiz-adv-x="825" 
d="M758 119h-164l-184 393l184 397h164l-164 -397zM410 119h-158l-186 393l186 397h158l-158 -397z" />
    <glyph glyph-name="logicalnot" unicode="&#xac;" horiz-adv-x="1705" 
d="M1452 858v-502h-115v385h-1083v117h1198z" />
    <glyph glyph-name="registered" unicode="&#xae;" horiz-adv-x="1705" 
d="M852 1460q307 0 524 -217q102 -102 156.5 -236t54.5 -282q0 -309 -213 -516q-109 -106 -243.5 -162.5t-278.5 -56.5q-146 0 -279 56.5t-239 162.5q-104 104 -159.5 237t-55.5 279t57 281.5t164 242.5q208 211 512 211zM1501 721q0 133 -48 252t-138 209
q-190 190 -463 190q-270 0 -451 -184q-95 -95 -144.5 -214t-49.5 -249q0 -127 49 -244t141 -211q91 -93 208.5 -141.5t244.5 -48.5q270 0 463 190q188 185 188 451zM872 1157q351 0 351 -231q0 -88 -52.5 -148.5t-144.5 -75.5l188 -385h-157l-176 365h-179v-365h-141v840
h311zM846 1065h-144v-291h148q120 0 173.5 31.5t53.5 109.5q0 81 -55.5 115.5t-175.5 34.5z" />
    <glyph glyph-name="macron" unicode="&#xaf;" 
d="M264 1262v133h498v-133h-498z" />
    <glyph glyph-name="degree" unicode="&#xb0;" horiz-adv-x="673" 
d="M338 1454q117 0 200 -83t83 -200q0 -116 -83 -199t-202 -83q-118 0 -199.5 81.5t-81.5 200.5t82.5 201t200.5 82zM539 1171q0 84 -58.5 142.5t-142.5 58.5t-143.5 -58.5t-59.5 -142.5q0 -85 59.5 -143.5t143.5 -58.5q85 0 143 59t58 143z" />
    <glyph glyph-name="plusminus" unicode="&#xb1;" horiz-adv-x="1705" 
d="M913 1180v-344h539v-117h-539v-344h-118v344h-541v117h541v344h118zM1452 158v-117h-1198v117h1198z" />
    <glyph glyph-name="twosuperior" unicode="&#xb2;" horiz-adv-x="647" 
d="M72 571v109l288 377q89 117 89 188q0 46 -33 75.5t-88 29.5q-61 0 -88.5 -33.5t-32.5 -106.5h-131q0 4 -1 12t-1 11q0 101 66.5 155t191.5 54q114 0 177.5 -50.5t63.5 -140.5q0 -119 -135 -295l-223 -282h363v-103h-506z" />
    <glyph glyph-name="threesuperior" unicode="&#xb3;" horiz-adv-x="647" 
d="M53 797h131q1 -70 32.5 -107t90.5 -37q142 0 142 158q0 81 -43.5 119.5t-133.5 38.5h-20v102q95 0 139.5 34.5t44.5 108.5q0 132 -121 132q-118 0 -118 -123h-127v14q0 94 63 149.5t170 55.5q123 0 188.5 -55.5t65.5 -159.5q0 -93 -43 -147t-121 -62q90 -3 131 -53
t41 -154q0 -254 -252 -254q-126 0 -193 58t-67 167v15z" />
    <glyph glyph-name="acute" unicode="&#xb4;" 
d="M369 1163l204 348h201l-285 -348h-120z" />
    <glyph glyph-name="mu" unicode="&#xb5;" horiz-adv-x="1128" 
d="M362 1069l-126 -596q-15 -68 -15 -137q0 -108 56.5 -167.5t160.5 -59.5q126 0 209 101.5t127 307.5l121 551h156l-162 -754q-23 -103 -23 -135q0 -65 72 -65q17 0 35 2l-27 -125q-44 -10 -92 -10q-70 0 -104.5 35t-40.5 112q-40 -69 -116 -108t-173 -39q-174 0 -262 137
l-113 -545h-156l316 1495h157z" />
    <glyph glyph-name="paragraph" unicode="&#xb6;" 
d="M948 1401h-125v-1401h-94v1401h-184v-1401h-94v782q-173 7 -274 102t-101 246q0 156 106.5 252.5t286.5 96.5h479v-78z" />
    <glyph glyph-name="periodcentered" unicode="&#xb7;" horiz-adv-x="491" 
d="M127 713q0 47 33 80.5t80 33.5q50 0 82 -32.5t32 -81.5t-32 -81t-82 -32q-49 0 -81 32.5t-32 80.5z" />
    <glyph glyph-name="cedilla" unicode="&#xb8;" 
d="M258 -426v100q163 -39 248 -39q119 0 119 82q0 86 -131 86q-34 0 -54 -2v199h76v-102h29q110 0 166.5 -46.5t56.5 -134.5q0 -91 -64 -139.5t-186 -48.5q-106 0 -260 45z" />
    <glyph glyph-name="onesuperior" unicode="&#xb9;" horiz-adv-x="647" 
d="M406 571h-123v725q-30 -26 -142 -90v117q45 19 170 104h95v-856z" />
    <glyph glyph-name="ordmasculine" unicode="&#xba;" horiz-adv-x="712" 
d="M356 1384q-84 0 -118.5 -64.5t-34.5 -205.5q0 -144 34 -208t119 -64q84 0 119 64t35 206q0 143 -34.5 207.5t-119.5 64.5zM66 1114q0 194 68 284.5t222 90.5q155 0 222 -90t67 -285q0 -196 -67 -286.5t-222 -90.5q-156 0 -223 90t-67 287z" />
    <glyph glyph-name="guillemotright" unicode="&#xbb;" horiz-adv-x="825" 
d="M66 119l163 393l-163 397h163l187 -397l-187 -393h-163zM416 119l155 393l-155 397h155l187 -397l-187 -393h-155z" />
    <glyph glyph-name="onequarter" unicode="&#xbc;" horiz-adv-x="1579" 
d="M385 627h-117v676q-28 -22 -133 -84v110q52 21 160 96h90v-798zM276 -25l904 1475h120l-903 -1475h-121zM1311 287l10 428l-219 -428h209zM1309 0v201h-295v116l254 482h157v-510h99v-88h-99v-201h-116z" />
    <glyph glyph-name="onehalf" unicode="&#xbd;" horiz-adv-x="1579" 
d="M385 627h-117v676q-28 -22 -133 -84v110q52 21 160 96h90v-798zM276 -25l904 1475h120l-903 -1475h-121zM1028 0v102l277 351q84 108 84 176q0 43 -32 70.5t-85 27.5q-56 0 -83 -31.5t-32 -99.5h-125v22q0 94 62.5 143.5t181.5 49.5q110 0 170.5 -46.5t60.5 -129.5
q0 -118 -129 -277l-213 -264h346v-94h-483z" />
    <glyph glyph-name="threequarters" unicode="&#xbe;" horiz-adv-x="1579" 
d="M51 838h125q3 -136 119 -136q133 0 133 148q0 75 -41 111t-127 36h-18v97q90 0 132 32t42 101q0 123 -115 123q-55 0 -85 -30t-30 -85h-120v12q0 88 60 139.5t163 51.5q119 0 181 -51.5t62 -149.5q0 -86 -41 -136.5t-116 -56.5q86 -3 125 -50t39 -144q0 -238 -240 -238
q-120 0 -184 55t-64 156v15zM276 -25l904 1475h120l-903 -1475h-121zM1311 287l10 428l-219 -428h209zM1309 0v201h-295v116l254 482h157v-510h99v-88h-99v-201h-116z" />
    <glyph glyph-name="questiondown" unicode="&#xbf;" horiz-adv-x="806" 
d="M530 1475v-205h-194v205h194zM516 1100v-228q0 -89 -27 -129q-25 -39 -67 -96.5t-53 -73.5q-46 -69 -68 -128.5t-22 -129.5q0 -95 38 -145.5t109 -50.5q76 0 111 66.5t38 207.5h185q6 -43 6 -80q0 -162 -93.5 -251t-264.5 -89q-159 0 -245.5 94t-86.5 271q0 94 30 163.5
t93 157.5q16 22 64 84t69 95q20 34 20 100v162h164z" />
    <glyph glyph-name="Agrave" unicode="&#xc0;" horiz-adv-x="1208" 
d="M965 0l-99 358h-522l-102 -358h-211l463 1475h233l451 -1475h-213zM393 532h422l-207 713zM748 1610h-121l-285 348h201z" />
    <glyph glyph-name="Aacute" unicode="&#xc1;" horiz-adv-x="1208" 
d="M965 0l-99 358h-522l-102 -358h-211l463 1475h233l451 -1475h-213zM393 532h422l-207 713zM461 1610l205 348h200l-284 -348h-121z" />
    <glyph glyph-name="Acircumflex" unicode="&#xc2;" horiz-adv-x="1208" 
d="M965 0l-99 358h-522l-102 -358h-211l463 1475h233l451 -1475h-213zM393 532h422l-207 713zM309 1610l197 348h196l197 -348h-123l-172 229l-174 -229h-121z" />
    <glyph glyph-name="Atilde" unicode="&#xc3;" horiz-adv-x="1208" 
d="M965 0l-99 358h-522l-102 -358h-211l463 1475h233l451 -1475h-213zM393 532h422l-207 713zM877 1888q-19 -102 -65.5 -155.5t-117.5 -53.5q-24 0 -61 11l-88 26q-28 8 -47 8q-60 0 -84 -67h-82q37 203 188 203q22 0 47 -7l90 -28q33 -10 48 -10q66 0 90 73h82z" />
    <glyph glyph-name="Adieresis" unicode="&#xc4;" horiz-adv-x="1208" 
d="M965 0l-99 358h-522l-102 -358h-211l463 1475h233l451 -1475h-213zM393 532h422l-207 713zM348 1669v209h182v-209h-182zM678 1669v209h182v-209h-182z" />
    <glyph glyph-name="Aring" unicode="&#xc5;" horiz-adv-x="1208" 
d="M965 0l-99 358h-522l-102 -358h-211l461 1462h237l449 -1462h-213zM393 532h422l-207 713zM385 1747q0 94 64.5 159.5t158.5 65.5q95 0 160.5 -65t65.5 -160t-65 -159t-161 -64q-94 0 -158.5 64t-64.5 159zM487 1747q0 -51 35.5 -87t85.5 -36q51 0 87 36t36 87
q0 52 -36 87.5t-87 35.5t-86 -35.5t-35 -87.5z" />
    <glyph glyph-name="AE" unicode="&#xc6;" horiz-adv-x="1548" 
d="M1470 1475v-162h-632l69 -473h563v-166h-542l78 -512h464v-162h-624l-49 356h-506l-129 -356h-174l547 1475h935zM657 1329l-307 -813h422z" />
    <glyph glyph-name="Ccedilla" unicode="&#xc7;" horiz-adv-x="1097" 
d="M989 455v-33q0 -210 -111.5 -327.5t-308.5 -117.5q-96 0 -177 27.5t-130 73.5q-94 87 -123.5 244t-29.5 448q0 205 19 334t75 219q50 81 144 125.5t220 44.5q203 0 307.5 -113t104.5 -327h-207v22q0 262 -211 262q-137 0 -199 -102q-38 -60 -47.5 -177.5t-9.5 -359.5
q0 -102 4 -175t14 -140.5t28 -110.5t46.5 -75.5t68.5 -47t95 -14.5q114 0 168.5 74.5t54.5 228.5v17h205zM295 -426v100q163 -39 248 -39q119 0 119 82q0 86 -132 86q-33 0 -53 -2v199h76v-102h29q110 0 166.5 -46.5t56.5 -134.5q0 -91 -64 -139.5t-186 -48.5
q-106 0 -260 45z" />
    <glyph glyph-name="Egrave" unicode="&#xc8;" horiz-adv-x="950" 
d="M135 0v1475h737v-162h-542v-473h526v-166h-526v-512h542v-162h-737zM647 1610h-121l-284 348h200z" />
    <glyph glyph-name="Eacute" unicode="&#xc9;" horiz-adv-x="950" 
d="M135 0v1475h737v-162h-542v-473h526v-166h-526v-512h542v-162h-737zM360 1610l205 348h201l-285 -348h-121z" />
    <glyph glyph-name="Ecircumflex" unicode="&#xca;" horiz-adv-x="950" 
d="M135 0v1475h737v-162h-542v-473h526v-166h-526v-512h542v-162h-737zM209 1610l197 348h196l197 -348h-123l-172 229l-174 -229h-121z" />
    <glyph glyph-name="Edieresis" unicode="&#xcb;" horiz-adv-x="950" 
d="M135 0v1475h737v-162h-542v-473h526v-166h-526v-512h542v-162h-737zM248 1669v209h182v-209h-182zM578 1669v209h182v-209h-182z" />
    <glyph glyph-name="Igrave" unicode="&#xcc;" horiz-adv-x="464" 
d="M133 0v1475h199v-1475h-199zM377 1610h-121l-285 348h201z" />
    <glyph glyph-name="Iacute" unicode="&#xcd;" horiz-adv-x="464" 
d="M133 0v1475h199v-1475h-199zM90 1610l205 348h201l-285 -348h-121z" />
    <glyph glyph-name="Icircumflex" unicode="&#xce;" horiz-adv-x="464" 
d="M133 0v1475h199v-1475h-199zM-61 1610l196 348h197l196 -348h-122l-173 229l-174 -229h-120z" />
    <glyph glyph-name="Idieresis" unicode="&#xcf;" horiz-adv-x="464" 
d="M133 0v1475h199v-1475h-199zM-23 1669v209h183v-209h-183zM307 1669v209h182v-209h-182z" />
    <glyph glyph-name="Eth" unicode="&#xd0;" horiz-adv-x="1169" 
d="M150 0v682h-158v152h158v641h354q168 0 261.5 -18t164.5 -85q32 -30 55.5 -66.5t38 -86.5t23 -95t12.5 -119t5 -130t1 -154q0 -218 -17 -344.5t-71 -206.5q-31 -47 -70 -79t-77.5 -50t-95.5 -27t-105 -11.5t-125 -2.5h-354zM346 168h207q104 0 166.5 23t95.5 79
q34 57 46.5 170.5t12.5 307.5q0 160 -9.5 267.5t-20.5 135.5q-34 94 -101 129t-190 35h-207v-481h262v-152h-262v-514z" />
    <glyph glyph-name="Ntilde" unicode="&#xd1;" horiz-adv-x="1261" 
d="M954 170q-8 141 -8 270v1035h180v-1475h-264l-567 1341q16 -187 16 -278v-1063h-176v1475h277zM903 1888q-19 -103 -65 -156t-117 -53q-25 0 -62 11l-88 26q-28 8 -47 8q-60 0 -84 -67h-82q37 203 189 203q23 0 47 -7l90 -28q33 -10 47 -10q66 0 90 73h82z" />
    <glyph glyph-name="Ograve" unicode="&#xd2;" horiz-adv-x="1167" 
d="M854 737q0 95 -2 159t-8 131.5t-18 110.5t-32 83.5t-49 62t-69.5 34.5t-93.5 13q-136 0 -201 -96q-25 -37 -39.5 -83.5t-20.5 -120t-7 -127.5t-1 -167q0 -189 7 -289t34 -161q64 -146 228 -146q62 0 107 15.5t75 52t48 80.5t27 118.5t12 146.5t3 183zM1053 721
q0 -212 -16 -341.5t-60 -207.5q-115 -197 -393 -197q-227 0 -348 134q-78 87 -99.5 226t-21.5 402q0 228 14 356.5t61 209.5q54 95 155 144.5t239 49.5q228 0 348 -133q78 -89 99.5 -230.5t21.5 -412.5zM727 1610h-121l-284 348h200z" />
    <glyph glyph-name="Oacute" unicode="&#xd3;" horiz-adv-x="1167" 
d="M854 737q0 95 -2 159t-8 131.5t-18 110.5t-32 83.5t-49 62t-69.5 34.5t-93.5 13q-136 0 -201 -96q-25 -37 -39.5 -83.5t-20.5 -120t-7 -127.5t-1 -167q0 -189 7 -289t34 -161q64 -146 228 -146q62 0 107 15.5t75 52t48 80.5t27 118.5t12 146.5t3 183zM1053 721
q0 -212 -16 -341.5t-60 -207.5q-115 -197 -393 -197q-227 0 -348 134q-78 87 -99.5 226t-21.5 402q0 228 14 356.5t61 209.5q54 95 155 144.5t239 49.5q228 0 348 -133q78 -89 99.5 -230.5t21.5 -412.5zM440 1610l205 348h201l-285 -348h-121z" />
    <glyph glyph-name="Ocircumflex" unicode="&#xd4;" horiz-adv-x="1167" 
d="M854 737q0 95 -2 159t-8 131.5t-18 110.5t-32 83.5t-49 62t-69.5 34.5t-93.5 13q-136 0 -201 -96q-25 -37 -39.5 -83.5t-20.5 -120t-7 -127.5t-1 -167q0 -189 7 -289t34 -161q64 -146 228 -146q62 0 107 15.5t75 52t48 80.5t27 118.5t12 146.5t3 183zM1053 721
q0 -212 -16 -341.5t-60 -207.5q-115 -197 -393 -197q-227 0 -348 134q-78 87 -99.5 226t-21.5 402q0 228 14 356.5t61 209.5q54 95 155 144.5t239 49.5q228 0 348 -133q78 -89 99.5 -230.5t21.5 -412.5zM289 1610l196 348h197l197 -348h-123l-172 229l-174 -229h-121z" />
    <glyph glyph-name="Otilde" unicode="&#xd5;" horiz-adv-x="1167" 
d="M854 737q0 95 -2 159t-8 131.5t-18 110.5t-32 83.5t-49 62t-69.5 34.5t-93.5 13q-136 0 -201 -96q-25 -37 -39.5 -83.5t-20.5 -120t-7 -127.5t-1 -167q0 -189 7 -289t34 -161q64 -146 228 -146q62 0 107 15.5t75 52t48 80.5t27 118.5t12 146.5t3 183zM1053 721
q0 -212 -16 -341.5t-60 -207.5q-115 -197 -393 -197q-227 0 -348 134q-78 87 -99.5 226t-21.5 402q0 228 14 356.5t61 209.5q54 95 155 144.5t239 49.5q228 0 348 -133q78 -89 99.5 -230.5t21.5 -412.5zM856 1888q-19 -103 -65 -156t-117 -53q-25 0 -62 11l-88 26
q-28 8 -47 8q-60 0 -84 -67h-82q37 203 189 203q22 0 47 -7l90 -28q33 -10 47 -10q66 0 90 73h82z" />
    <glyph glyph-name="Odieresis" unicode="&#xd6;" horiz-adv-x="1167" 
d="M854 737q0 95 -2 159t-8 131.5t-18 110.5t-32 83.5t-49 62t-69.5 34.5t-93.5 13q-136 0 -201 -96q-25 -37 -39.5 -83.5t-20.5 -120t-7 -127.5t-1 -167q0 -189 7 -289t34 -161q64 -146 228 -146q62 0 107 15.5t75 52t48 80.5t27 118.5t12 146.5t3 183zM1053 721
q0 -212 -16 -341.5t-60 -207.5q-115 -197 -393 -197q-227 0 -348 134q-78 87 -99.5 226t-21.5 402q0 228 14 356.5t61 209.5q54 95 155 144.5t239 49.5q228 0 348 -133q78 -89 99.5 -230.5t21.5 -412.5zM328 1669v209h182v-209h-182zM657 1669v209h183v-209h-183z" />
    <glyph glyph-name="multiply" unicode="&#xd7;" horiz-adv-x="1705" 
d="M858 692l475 477l82 -82l-475 -477l475 -475l-82 -82l-475 475l-477 -475l-80 82l475 475l-475 477l80 82z" />
    <glyph glyph-name="Oslash" unicode="&#xd8;" horiz-adv-x="1167" 
d="M319 395l510 787q-20 72 -82 110.5t-159 38.5q-48 0 -86 -8.5t-67 -28.5t-50 -45t-35.5 -65.5t-23 -82t-13.5 -103t-6.5 -120t-1.5 -141.5q0 -187 14 -342zM860 1057l-510 -776q67 -140 238 -140q55 0 97 12.5t72 34.5t51 62t33.5 83.5t19.5 111t9 132.5t2 160
q0 170 -12 320zM39 -39l143 223q-42 66 -54.5 195.5t-12.5 374.5q0 218 14 343t61 206q113 194 394 194q235 0 358 -141l121 174l70 -53l-138 -213q35 -58 45.5 -168.5t10.5 -317.5v-104q0 -190 -15 -307t-59 -195q-54 -96 -154.5 -146.5t-238.5 -50.5q-223 0 -348 131
l-130 -192z" />
    <glyph glyph-name="Ugrave" unicode="&#xd9;" horiz-adv-x="1185" 
d="M319 1475v-953q0 -101 7.5 -159.5t35.5 -104.5q72 -121 230 -121q159 0 231 121q27 45 34 103.5t7 158.5v955h187v-924q0 -302 -105 -439t-354 -137q-129 0 -219 39.5t-152 126.5q-56 78 -71 167.5t-15 232.5v934h184zM737 1610h-121l-284 348h200z" />
    <glyph glyph-name="Uacute" unicode="&#xda;" horiz-adv-x="1185" 
d="M319 1475v-953q0 -101 7.5 -159.5t35.5 -104.5q72 -121 230 -121q159 0 231 121q27 45 34 103.5t7 158.5v955h187v-924q0 -302 -105 -439t-354 -137q-129 0 -219 39.5t-152 126.5q-56 78 -71 167.5t-15 232.5v934h184zM451 1610l204 348h201l-285 -348h-120z" />
    <glyph glyph-name="Ucircumflex" unicode="&#xdb;" horiz-adv-x="1185" 
d="M319 1475v-953q0 -101 7.5 -159.5t35.5 -104.5q72 -121 230 -121q159 0 231 121q27 45 34 103.5t7 158.5v955h187v-924q0 -302 -105 -439t-354 -137q-129 0 -219 39.5t-152 126.5q-56 78 -71 167.5t-15 232.5v934h184zM299 1610l197 348h196l197 -348h-123l-172 229
l-174 -229h-121z" />
    <glyph glyph-name="Udieresis" unicode="&#xdc;" horiz-adv-x="1185" 
d="M319 1475v-953q0 -101 7.5 -159.5t35.5 -104.5q72 -121 230 -121q159 0 231 121q27 45 34 103.5t7 158.5v955h187v-924q0 -302 -105 -439t-354 -137q-129 0 -219 39.5t-152 126.5q-56 78 -71 167.5t-15 232.5v934h184zM338 1669v209h182v-209h-182zM668 1669v209h182
v-209h-182z" />
    <glyph glyph-name="Yacute" unicode="&#xdd;" horiz-adv-x="976" 
d="M377 0v618l-387 857h223l281 -695l294 695h197l-410 -875v-600h-198zM346 1610l205 348h201l-285 -348h-121z" />
    <glyph glyph-name="Thorn" unicode="&#xde;" horiz-adv-x="1028" 
d="M537 1180q232 0 328 -88.5t96 -315.5q0 -213 -92 -312t-289 -99h-250v-365h-195v1475h195v-295h207zM330 1014v-484h153q81 0 131.5 10t86 38t49.5 75.5t14 124.5q0 133 -52 184.5t-177 51.5h-205z" />
    <glyph glyph-name="germandbls" unicode="&#xdf;" horiz-adv-x="1067" 
d="M113 0v1063q0 134 13.5 205t61.5 121q105 108 330 108q175 0 272 -74t97 -206q0 -116 -96 -232q-18 -22 -52 -57.5t-48.5 -56.5t-14.5 -42q0 -20 8 -38.5t29.5 -43t38 -40.5t56.5 -52.5t62 -56.5q73 -69 107.5 -137.5t34.5 -149.5q0 -149 -86 -236t-236 -87
q-151 0 -229 65.5t-78 194.5v18h176q2 -69 33 -106t88 -37q71 0 113.5 46t42.5 124q0 67 -36 116.5t-120 122.5q-49 44 -68.5 61.5t-52.5 51t-45.5 53.5t-23.5 47.5t-11 53.5q0 38 27.5 83t87.5 117q6 8 24.5 29.5t25.5 30.5t19.5 28.5t18 33.5t10 34.5t4.5 42.5
q0 74 -50 116t-140 42q-116 0 -166 -53q-27 -27 -35 -63.5t-8 -94.5v-1145h-184z" />
    <glyph glyph-name="agrave" unicode="&#xe0;" horiz-adv-x="919" 
d="M633 539q-205 0 -293 -47t-88 -170q0 -75 46 -126t116 -51q102 0 160.5 80.5t58.5 233.5v80zM285 760h-189v20q0 134 92.5 203.5t272.5 69.5q179 0 262.5 -72.5t83.5 -226.5v-480q0 -142 18 -274h-176l-12 129q-52 -67 -121.5 -103t-144.5 -36q-129 0 -212 86t-83 229
q0 357 456 357h99v51q0 115 -33 164t-125 49q-188 0 -188 -156v-10zM625 1163h-121l-285 348h201z" />
    <glyph glyph-name="aacute" unicode="&#xe1;" horiz-adv-x="919" 
d="M633 539q-205 0 -293 -47t-88 -170q0 -75 46 -126t116 -51q102 0 160.5 80.5t58.5 233.5v80zM285 760h-189v20q0 134 92.5 203.5t272.5 69.5q179 0 262.5 -72.5t83.5 -226.5v-480q0 -142 18 -274h-176l-12 129q-52 -67 -121.5 -103t-144.5 -36q-129 0 -212 86t-83 229
q0 357 456 357h99v51q0 115 -33 164t-125 49q-188 0 -188 -156v-10zM338 1163l205 348h200l-284 -348h-121z" />
    <glyph glyph-name="acircumflex" unicode="&#xe2;" horiz-adv-x="919" 
d="M633 539q-205 0 -293 -47t-88 -170q0 -75 46 -126t116 -51q102 0 160.5 80.5t58.5 233.5v80zM285 760h-189v20q0 134 92.5 203.5t272.5 69.5q179 0 262.5 -72.5t83.5 -226.5v-480q0 -142 18 -274h-176l-12 129q-52 -67 -121.5 -103t-144.5 -36q-129 0 -212 86t-83 229
q0 357 456 357h99v51q0 115 -33 164t-125 49q-188 0 -188 -156v-10zM186 1163l197 348h197l196 -348h-123l-172 230l-174 -230h-121z" />
    <glyph glyph-name="atilde" unicode="&#xe3;" horiz-adv-x="919" 
d="M633 539q-205 0 -293 -47t-88 -170q0 -75 46 -126t116 -51q102 0 160.5 80.5t58.5 233.5v80zM285 760h-189v20q0 134 92.5 203.5t272.5 69.5q179 0 262.5 -72.5t83.5 -226.5v-480q0 -142 18 -274h-176l-12 129q-52 -67 -121.5 -103t-144.5 -36q-129 0 -212 86t-83 229
q0 357 456 357h99v51q0 115 -33 164t-125 49q-188 0 -188 -156v-10zM754 1442q-19 -102 -65.5 -155.5t-117.5 -53.5q-28 0 -61 10l-88 27q-28 8 -47 8q-60 0 -84 -68h-82q37 203 188 203q26 0 47 -6l91 -29q33 -10 47 -10q66 0 90 74h82z" />
    <glyph glyph-name="adieresis" unicode="&#xe4;" horiz-adv-x="919" 
d="M633 539q-205 0 -293 -47t-88 -170q0 -75 46 -126t116 -51q102 0 160.5 80.5t58.5 233.5v80zM285 760h-189v20q0 134 92.5 203.5t272.5 69.5q179 0 262.5 -72.5t83.5 -226.5v-480q0 -142 18 -274h-176l-12 129q-52 -67 -121.5 -103t-144.5 -36q-129 0 -212 86t-83 229
q0 357 456 357h99v51q0 115 -33 164t-125 49q-188 0 -188 -156v-10zM225 1223v209h183v-209h-183zM555 1223v209h182v-209h-182z" />
    <glyph glyph-name="aring" unicode="&#xe5;" horiz-adv-x="919" 
d="M285 760h-189v20q0 134 92.5 203.5t272.5 69.5q179 0 262.5 -72.5t83.5 -226.5v-480q0 -142 18 -274h-176l-12 129q-52 -67 -121.5 -103t-144.5 -36q-129 0 -212 86t-83 229q0 357 456 357h99v51q0 115 -33 164t-125 49q-188 0 -188 -156v-10zM633 539q-206 0 -294.5 -47
t-88.5 -170q0 -75 47 -126t117 -51q102 0 160.5 80.5t58.5 233.5v80zM252 1337q0 94 64.5 159t158.5 65q95 0 160 -64.5t65 -159.5t-65 -160t-160 -65q-94 0 -158.5 65t-64.5 160zM354 1335q0 -51 35.5 -86t85.5 -35q51 0 87 35t36 86q0 52 -36 87.5t-87 35.5t-86 -35.5
t-35 -87.5z" />
    <glyph glyph-name="ae" unicode="&#xe6;" horiz-adv-x="1470" 
d="M641 662v51q0 114 -32 163.5t-126 49.5q-190 0 -190 -156v-10h-187v20q0 134 92.5 203.5t272.5 69.5q208 0 287 -113q70 111 264 111q191 0 280 -102t89 -316v-94h-572v-125q0 -153 46 -221t157 -68q80 0 130 51t62 146h177q-8 -163 -105.5 -255t-263.5 -92
q-249 0 -336 191q-109 -176 -301 -176q-136 0 -218.5 84.5t-82.5 226.5q0 361 459 361h98zM643 539q-205 0 -293 -47t-88 -170q0 -78 43.5 -127.5t112.5 -49.5q107 0 166 79.5t59 234.5v80zM819 662h398v63q0 207 -195 207q-91 0 -147 -57.5t-56 -153.5v-59z" />
    <glyph glyph-name="ccedilla" unicode="&#xe7;" horiz-adv-x="923" 
d="M668 348h178q-3 -177 -101 -275t-270 -98q-206 0 -295.5 128t-89.5 409t89.5 410t295.5 129q165 0 265 -88t100 -230v-22h-174q0 90 -48 140t-133 50q-122 0 -168.5 -90.5t-46.5 -298.5q0 -204 45.5 -295.5t159.5 -91.5q85 0 137.5 59.5t55.5 163.5zM217 -426v100
q163 -39 248 -39q119 0 119 82q0 86 -131 86q-34 0 -54 -2v199h76v-102h29q110 0 166.5 -46.5t56.5 -134.5q0 -91 -64 -139.5t-186 -48.5q-106 0 -260 45z" />
    <glyph glyph-name="egrave" unicode="&#xe8;" horiz-adv-x="923" 
d="M844 322q-8 -163 -105.5 -255t-263.5 -92q-212 0 -298.5 130t-86.5 417q0 273 91 401t294 128q193 0 281 -102t88 -316v-160h-572v-59q0 -150 48 -219.5t155 -69.5q80 0 130.5 51t62.5 146h176zM272 606h398v88q0 117 -48 176.5t-141 59.5q-105 0 -155.5 -79.5
t-53.5 -244.5zM623 1163h-121l-285 348h201z" />
    <glyph glyph-name="eacute" unicode="&#xe9;" horiz-adv-x="923" 
d="M844 322q-8 -163 -105.5 -255t-263.5 -92q-212 0 -298.5 130t-86.5 417q0 273 91 401t294 128q193 0 281 -102t88 -316v-160h-572v-59q0 -150 48 -219.5t155 -69.5q80 0 130.5 51t62.5 146h176zM272 606h398v88q0 117 -48 176.5t-141 59.5q-105 0 -155.5 -79.5
t-53.5 -244.5zM336 1163l205 348h200l-284 -348h-121z" />
    <glyph glyph-name="ecircumflex" unicode="&#xea;" horiz-adv-x="923" 
d="M844 322q-8 -163 -105.5 -255t-263.5 -92q-212 0 -298.5 130t-86.5 417q0 273 91 401t294 128q193 0 281 -102t88 -316v-160h-572v-59q0 -150 48 -219.5t155 -69.5q80 0 130.5 51t62.5 146h176zM272 606h398v88q0 117 -48 176.5t-141 59.5q-105 0 -155.5 -79.5
t-53.5 -244.5zM184 1163l197 348h197l196 -348h-123l-172 230l-174 -230h-121z" />
    <glyph glyph-name="edieresis" unicode="&#xeb;" horiz-adv-x="923" 
d="M844 322q-8 -163 -105.5 -255t-263.5 -92q-212 0 -298.5 130t-86.5 417q0 273 91 401t294 128q193 0 281 -102t88 -316v-160h-572v-59q0 -150 48 -219.5t155 -69.5q80 0 130.5 51t62.5 146h176zM272 606h398v88q0 117 -48 176.5t-141 59.5q-105 0 -155.5 -79.5
t-53.5 -244.5zM223 1223v209h183v-209h-183zM553 1223v209h182v-209h-182z" />
    <glyph glyph-name="igrave" unicode="&#xec;" horiz-adv-x="428" 
d="M129 0v1028h170v-1028h-170zM358 1163h-120l-285 348h201z" />
    <glyph glyph-name="iacute" unicode="&#xed;" horiz-adv-x="428" 
d="M129 0v1028h170v-1028h-170zM72 1163l204 348h201l-284 -348h-121z" />
    <glyph glyph-name="icircumflex" unicode="&#xee;" horiz-adv-x="428" 
d="M129 0v1028h170v-1028h-170zM-80 1163l197 348h196l197 -348h-123l-172 230l-174 -230h-121z" />
    <glyph glyph-name="idieresis" unicode="&#xef;" horiz-adv-x="428" 
d="M129 0v1028h170v-1028h-170zM-41 1223v209h182v-209h-182zM289 1223v209h182v-209h-182z" />
    <glyph glyph-name="eth" unicode="&#xf0;" horiz-adv-x="872" 
d="M436 850q-101 0 -142.5 -87.5t-41.5 -279.5q0 -193 41 -279.5t143 -86.5t143.5 86.5t41.5 279.5q0 192 -41.5 279.5t-143.5 87.5zM575 952q-42 124 -83 195l-283 -90l-31 94l250 84q-86 103 -205 197l86 77q121 -79 254 -233l248 80l31 -94l-219 -70q89 -154 127 -334
t38 -409q0 -241 -85 -357.5t-267 -116.5q-188 0 -270 122t-82 386q0 259 81.5 383.5t256.5 124.5q79 0 153 -39z" />
    <glyph glyph-name="ntilde" unicode="&#xf1;" horiz-adv-x="948" 
d="M662 0v657q0 140 -35 200.5t-135 60.5q-107 0 -154 -79.5t-47 -244.5v-594h-176v866q0 58 -11 162h181l8 -119q54 74 119.5 109t152.5 35q127 0 201 -74.5t74 -202.5v-776h-178zM748 1442q-19 -102 -65.5 -155.5t-117.5 -53.5q-28 0 -61 10l-88 27q-28 8 -47 8
q-60 0 -84 -68h-82q37 203 188 203q26 0 47 -6l90 -29q33 -10 47 -10q67 0 91 74h82z" />
    <glyph glyph-name="ograve" unicode="&#xf2;" horiz-adv-x="950" 
d="M475 901q-113 0 -159 -92.5t-46 -294.5q0 -206 45.5 -297.5t159.5 -91.5q113 0 159 92t46 295q0 204 -45.5 296.5t-159.5 92.5zM88 516q0 277 91 406t296 129q206 0 295.5 -128.5t89.5 -408.5t-89.5 -409.5t-295.5 -129.5q-208 0 -297.5 129t-89.5 412zM618 1163h-120
l-285 348h201z" />
    <glyph glyph-name="oacute" unicode="&#xf3;" horiz-adv-x="950" 
d="M475 901q-113 0 -159 -92.5t-46 -294.5q0 -206 45.5 -297.5t159.5 -91.5q113 0 159 92t46 295q0 204 -45.5 296.5t-159.5 92.5zM88 516q0 277 91 406t296 129q206 0 295.5 -128.5t89.5 -408.5t-89.5 -409.5t-295.5 -129.5q-208 0 -297.5 129t-89.5 412zM332 1163l205 348
h200l-284 -348h-121z" />
    <glyph glyph-name="ocircumflex" unicode="&#xf4;" horiz-adv-x="950" 
d="M475 901q-113 0 -159 -92.5t-46 -294.5q0 -206 45.5 -297.5t159.5 -91.5q113 0 159 92t46 295q0 204 -45.5 296.5t-159.5 92.5zM88 516q0 277 91 406t296 129q206 0 295.5 -128.5t89.5 -408.5t-89.5 -409.5t-295.5 -129.5q-208 0 -297.5 129t-89.5 412zM180 1163l197 348
h196l197 -348h-123l-172 230l-174 -230h-121z" />
    <glyph glyph-name="otilde" unicode="&#xf5;" horiz-adv-x="950" 
d="M475 901q-113 0 -159 -92.5t-46 -294.5q0 -206 45.5 -297.5t159.5 -91.5q113 0 159 92t46 295q0 204 -45.5 296.5t-159.5 92.5zM88 516q0 277 91 406t296 129q206 0 295.5 -128.5t89.5 -408.5t-89.5 -409.5t-295.5 -129.5q-208 0 -297.5 129t-89.5 412zM748 1442
q-19 -102 -65.5 -155.5t-117.5 -53.5q-28 0 -61 10l-88 27q-28 8 -47 8q-60 0 -84 -68h-82q37 203 188 203q26 0 47 -6l90 -29q33 -10 47 -10q67 0 91 74h82z" />
    <glyph glyph-name="odieresis" unicode="&#xf6;" horiz-adv-x="950" 
d="M475 901q-113 0 -159 -92.5t-46 -294.5q0 -206 45.5 -297.5t159.5 -91.5q113 0 159 92t46 295q0 204 -45.5 296.5t-159.5 92.5zM88 516q0 277 91 406t296 129q206 0 295.5 -128.5t89.5 -408.5t-89.5 -409.5t-295.5 -129.5q-208 0 -297.5 129t-89.5 412zM219 1223v209h182
v-209h-182zM549 1223v209h182v-209h-182z" />
    <glyph glyph-name="divide" unicode="&#xf7;" horiz-adv-x="1705" 
d="M854 1085q47 0 81 -33.5t34 -80.5t-33 -81t-82 -34t-82 33.5t-33 81.5q0 47 34.5 80.5t80.5 33.5zM1452 670v-117h-1198v117h1198zM854 365q46 0 80.5 -34t34.5 -81t-33 -81t-82 -34q-47 0 -81 34t-34 81q0 49 34 82t81 33z" />
    <glyph glyph-name="oslash" unicode="&#xf8;" horiz-adv-x="950" 
d="M338 190q48 -65 137 -65q114 0 159.5 93t45.5 302q0 79 -12 178zM92 -45l94 141q-96 110 -96 416q0 286 90 412.5t305 126.5q179 0 260 -99l74 111l62 -45l-88 -127q67 -123 67 -381q0 -281 -90.5 -408t-302.5 -127q-133 0 -227 64l-86 -131zM295 264l350 535
q-35 104 -166 104q-41 0 -72 -10t-53.5 -27t-37.5 -49t-24.5 -65.5t-14 -88.5t-6 -106t-1.5 -129q0 -108 25 -164z" />
    <glyph glyph-name="ugrave" unicode="&#xf9;" horiz-adv-x="948" 
d="M285 1028v-655q0 -140 35 -200t135 -60q107 0 153.5 78t46.5 243v594h176v-866q0 -58 11 -162h-180l-9 121q-55 -75 -120 -110.5t-152 -35.5q-127 0 -201 74.5t-74 202.5v776h179zM618 1163h-120l-285 348h201z" />
    <glyph glyph-name="uacute" unicode="&#xfa;" horiz-adv-x="948" 
d="M285 1028v-655q0 -140 35 -200t135 -60q107 0 153.5 78t46.5 243v594h176v-866q0 -58 11 -162h-180l-9 121q-55 -75 -120 -110.5t-152 -35.5q-127 0 -201 74.5t-74 202.5v776h179zM332 1163l205 348h200l-284 -348h-121z" />
    <glyph glyph-name="ucircumflex" unicode="&#xfb;" horiz-adv-x="948" 
d="M285 1028v-655q0 -140 35 -200t135 -60q107 0 153.5 78t46.5 243v594h176v-866q0 -58 11 -162h-180l-9 121q-55 -75 -120 -110.5t-152 -35.5q-127 0 -201 74.5t-74 202.5v776h179zM180 1163l197 348h196l197 -348h-123l-172 230l-174 -230h-121z" />
    <glyph glyph-name="udieresis" unicode="&#xfc;" horiz-adv-x="948" 
d="M285 1028v-655q0 -140 35 -200t135 -60q107 0 153.5 78t46.5 243v594h176v-866q0 -58 11 -162h-180l-9 121q-55 -75 -120 -110.5t-152 -35.5q-127 0 -201 74.5t-74 202.5v776h179zM219 1223v209h182v-209h-182zM549 1223v209h182v-209h-182z" />
    <glyph glyph-name="yacute" unicode="&#xfd;" horiz-adv-x="929" 
d="M434 -389h-174l113 389l-353 1028h207l246 -813l244 813h190zM322 1163l204 348h201l-285 -348h-120z" />
    <glyph glyph-name="thorn" unicode="&#xfe;" horiz-adv-x="960" 
d="M113 -389v1864h178v-555q47 71 108 103t148 32q134 0 223 -103q61 -70 81.5 -167.5t20.5 -256.5q0 -283 -81.5 -418t-260.5 -135q-148 0 -239 142v-506h-178zM289 510q0 -197 50 -291t161 -94q101 0 145.5 95.5t44.5 297.5q0 217 -43 311.5t-160 94.5
q-107 0 -152.5 -99.5t-45.5 -314.5z" />
    <glyph glyph-name="ydieresis" unicode="&#xff;" horiz-adv-x="929" 
d="M434 -389h-174l113 389l-353 1028h207l246 -813l244 813h190zM209 1223v209h182v-209h-182zM539 1223v209h182v-209h-182z" />
    <glyph glyph-name="dotlessi" unicode="&#x131;" horiz-adv-x="428" 
d="M129 0v1028h170v-1028h-170z" />
    <glyph glyph-name="Lslash" unicode="&#x141;" horiz-adv-x="882" 
d="M147 0v627l-159 -115v162l159 112v689h195v-592l246 172v-160l-246 -172v-553h504v-170h-699z" />
    <glyph glyph-name="lslash" unicode="&#x142;" horiz-adv-x="428" 
d="M301 848l127 88v-135l-127 -86v-715h-176v643l-125 -88v135l125 86v699h176v-627z" />
    <glyph glyph-name="OE" unicode="&#x152;" horiz-adv-x="1632" 
d="M573 1313q-40 0 -72 -4.5t-58 -16t-45.5 -24.5t-35 -38t-25.5 -47.5t-17.5 -62.5t-11.5 -73.5t-6 -89.5t-2.5 -101.5t-0.5 -118.5q0 -92 2 -155.5t9 -128.5t19 -107t32 -80t49 -59t69.5 -33t93.5 -12h246v1151h-246zM1554 1475v-162h-540v-473h540v-166h-540v-512h540
v-162h-823q-23 0 -58.5 -1t-49.5 -1q-141 0 -237 30t-159 99q-76 83 -97 218t-21 392t21 391.5t97 217.5q63 70 160.5 100.5t241.5 30.5q17 0 51 -1t51 -1h823z" />
    <glyph glyph-name="oe" unicode="&#x153;" horiz-adv-x="1509" 
d="M475 901q-113 0 -159 -92.5t-46 -294.5q0 -206 45.5 -297.5t159.5 -91.5t159.5 91t45.5 296q0 204 -46 296.5t-159 92.5zM1255 694q0 122 -47.5 180t-148.5 58q-94 0 -147.5 -62t-53.5 -176v-88h397v88zM766 115q-91 -140 -291 -140q-206 0 -295.5 128t-89.5 409
t89.5 410t295.5 129q207 0 293 -138q100 138 289 138q196 0 284.5 -101.5t88.5 -316.5v-160h-572v-70q0 -144 47.5 -211t155.5 -67q80 0 130 51t62 146h177q-8 -163 -105.5 -255t-263.5 -92q-208 0 -295 140z" />
    <glyph glyph-name="Scaron" unicode="&#x160;" horiz-adv-x="1079" 
d="M78 426h215v-27q0 -141 51 -205.5t166 -64.5q108 0 178 64t70 161q0 21 -4.5 40.5t-10 35.5t-19 34t-23.5 31t-33 31.5t-36.5 29t-44.5 31t-48 31.5t-56 35t-59 37q-77 49 -119 79t-89 71.5t-69.5 79t-37.5 89t-15 113.5q0 167 119.5 272t316.5 105q200 0 306 -100
t106 -287v-37h-203v31q0 119 -55 179.5t-162 60.5q-101 0 -165 -58t-64 -143q0 -30 7.5 -57.5t17 -48.5t33.5 -46.5t41 -41.5t56 -43.5t62.5 -42.5t77 -49.5t82.5 -53.5q62 -41 102.5 -70.5t78.5 -66t59 -71t33.5 -77.5t12.5 -94q0 -194 -117 -301t-333 -107
q-430 0 -430 406q0 7 1 22t1 23zM246 1958h121l174 -227l172 227h123l-197 -348h-197z" />
    <glyph glyph-name="scaron" unicode="&#x161;" horiz-adv-x="876" 
d="M76 313h192q6 -192 174 -192q76 0 122 37.5t46 99.5q0 47 -35.5 85.5t-113.5 78.5l-185 96q-100 51 -143 105t-43 137q0 132 97 213.5t259 81.5q156 0 247 -74.5t91 -200.5v-18h-188q0 76 -44.5 119t-121.5 43q-70 0 -113 -36.5t-43 -92.5q0 -40 25.5 -69t79.5 -56
l170 -84q137 -68 194.5 -132t57.5 -165q0 -142 -99.5 -228t-265.5 -86q-177 0 -267.5 85.5t-92.5 252.5zM143 1511h121l174 -227l172 227h123l-196 -348h-197z" />
    <glyph glyph-name="Ydieresis" unicode="&#x178;" horiz-adv-x="976" 
d="M377 0v618l-387 857h223l281 -695l294 695h197l-410 -875v-600h-198zM233 1669v209h183v-209h-183zM563 1669v209h182v-209h-182z" />
    <glyph glyph-name="Zcaron" unicode="&#x17d;" horiz-adv-x="929" 
d="M35 0v201l672 1112h-627v162h829v-185l-676 -1120h676v-170h-874zM170 1958h121l174 -227l172 227h123l-197 -348h-196z" />
    <glyph glyph-name="zcaron" unicode="&#x17e;" horiz-adv-x="696" 
d="M25 0v164l450 731h-424v133h623v-133l-469 -758h469v-137h-649zM53 1511h121l174 -227l172 227h123l-197 -348h-196z" />
    <glyph glyph-name="florin" unicode="&#x192;" horiz-adv-x="980" 
d="M449 1028q34 163 73 254.5t96 128.5q58 39 201 39q47 0 74 -2l-29 -137q-36 4 -51 4q-19 0 -34.5 -2t-29.5 -8.5t-24 -11t-20 -18.5t-16 -22t-14 -29.5t-12 -33.5t-11.5 -42t-11 -45.5t-11.5 -53.5l-41 -197h178l-25 -121h-178l-147 -688q-58 -274 -135 -356
q-34 -37 -88 -51.5t-138 -14.5q-40 0 -73 2l28 137q36 -4 47 -4q30 0 51.5 5.5t39 23t28 33.5t22.5 53t18.5 65.5t19.5 86.5l149 708h-168l25 121h168z" />
    <glyph glyph-name="circumflex" unicode="&#x2c6;" 
d="M217 1163l197 348h196l197 -348h-123l-172 230l-174 -230h-121z" />
    <glyph glyph-name="caron" unicode="&#x2c7;" 
d="M217 1511h121l174 -227l172 227h123l-197 -348h-196z" />
    <glyph glyph-name="breve" unicode="&#x2d8;" 
d="M242 1477h102q12 -74 51 -107t117 -33q76 0 116 33t52 107h102q-9 -145 -74 -212t-196 -67t-196 67t-74 212z" />
    <glyph glyph-name="dotaccent" unicode="&#x2d9;" 
d="M416 1217v221h192v-221h-192z" />
    <glyph glyph-name="ring" unicode="&#x2da;" 
d="M260 1397q0 106 73 180t179 74t180 -74t74 -180t-74 -179t-180 -73t-179 73t-73 179zM377 1397q0 -57 39 -96t96 -39q56 0 95.5 39t39.5 96q0 55 -39.5 95t-95.5 40q-57 0 -96 -39t-39 -96z" />
    <glyph glyph-name="ogonek" unicode="&#x2db;" 
d="M594 0q-137 -122 -137 -221q0 -44 21.5 -61t74.5 -17h84v-143h-86q-225 0 -225 168q0 68 45.5 133t140.5 141h82z" />
    <glyph glyph-name="tilde" unicode="&#x2dc;" 
d="M784 1442q-19 -103 -65 -156t-117 -53q-28 0 -61 10l-88 27q-28 8 -47 8q-60 0 -84 -68h-82q37 203 188 203q26 0 47 -6l90 -29q33 -10 47 -10q66 0 90 74h82z" />
    <glyph glyph-name="hungarumlaut" unicode="&#x2dd;" 
d="M311 1163l138 348h178l-219 -348h-97zM569 1163l166 348h176l-245 -348h-97z" />
    <glyph glyph-name="endash" unicode="&#x2013;" 
d="M0 455v118h1024v-118h-1024z" />
    <glyph glyph-name="emdash" unicode="&#x2014;" horiz-adv-x="2048" 
d="M2048 573v-118h-2048v118h2048z" />
    <glyph glyph-name="quoteleft" unicode="&#x2018;" horiz-adv-x="425" 
d="M362 1475l-88 -402h-211l156 402h143z" />
    <glyph glyph-name="quoteright" unicode="&#x2019;" horiz-adv-x="425" 
d="M63 1073l89 402h210l-155 -402h-144z" />
    <glyph glyph-name="quotesinglbase" unicode="&#x201a;" horiz-adv-x="425" 
d="M16 -211l90 401h213l-157 -401h-146z" />
    <glyph glyph-name="quotedblleft" unicode="&#x201c;" horiz-adv-x="753" 
d="M369 1475l-90 -402h-216l158 402h148zM696 1475l-90 -402h-215l158 402h147z" />
    <glyph glyph-name="quotedblright" unicode="&#x201d;" horiz-adv-x="753" 
d="M391 1073l88 402h217l-159 -402h-146zM63 1073l91 402h215l-158 -402h-148z" />
    <glyph glyph-name="quotedblbase" unicode="&#x201e;" horiz-adv-x="753" 
d="M391 -211l88 401h217l-159 -401h-146zM63 -211l91 401h215l-158 -401h-148z" />
    <glyph glyph-name="dagger" unicode="&#x2020;" horiz-adv-x="980" 
d="M403 0v999h-282v158h282v318h166v-318h289v-158h-289v-999h-166z" />
    <glyph glyph-name="daggerdbl" unicode="&#x2021;" horiz-adv-x="980" 
d="M403 0v324h-282v137h282v559h-282v137h282v318h166v-318h289v-137h-289v-559h289v-137h-289v-324h-166z" />
    <glyph glyph-name="bullet" unicode="&#x2022;" horiz-adv-x="1208" 
d="M307 762q0 123 87 209t210 86q122 0 208.5 -86t86.5 -209q0 -122 -87 -209.5t-210 -87.5t-209 87t-86 210z" />
    <glyph glyph-name="ellipsis" unicode="&#x2026;" horiz-adv-x="2048" 
d="M244 0v227h194v-227h-194zM926 0v227h194v-227h-194zM1610 0v227h194v-227h-194z" />
    <glyph glyph-name="perthousand" unicode="&#x2030;" horiz-adv-x="1974" 
d="M993 596q-129 0 -129 -244q0 -258 129 -258t129 258q0 118 -34 181t-95 63zM993 715q273 0 273 -383q0 -175 -69.5 -266t-203.5 -91q-137 0 -203.5 92t-66.5 279t66 278t204 91zM594 1067q0 -175 -69 -265.5t-203 -90.5q-273 0 -273 370q0 186 67.5 277.5t205.5 91.5
q272 0 272 -383zM322 1331q-129 0 -129 -244q0 -258 129 -258t129 258q0 118 -34 181t-95 63zM293 -25l612 1475h119l-621 -1475h-110zM1653 715q272 0 272 -383q0 -175 -69.5 -266t-202.5 -91q-273 0 -273 371q0 186 67.5 277.5t205.5 91.5zM1653 596q-129 0 -129 -244
q0 -258 129 -258t129 258q0 118 -34 181t-95 63z" />
    <glyph glyph-name="guilsinglleft" unicode="&#x2039;" horiz-adv-x="497" 
d="M420 119h-156l-186 393l186 397h156l-156 -397z" />
    <glyph glyph-name="guilsinglright" unicode="&#x203a;" horiz-adv-x="497" 
d="M78 119l155 393l-155 397h155l187 -397l-187 -393h-155z" />
    <glyph glyph-name="fraction" unicode="&#x2044;" horiz-adv-x="342" 
d="M-342 -25l903 1475h121l-903 -1475h-121z" />
    <glyph glyph-name="Euro" unicode="&#x20ac;" horiz-adv-x="980" 
d="M926 428v-16q0 -204 -102 -319.5t-275 -115.5q-204 0 -305.5 139t-106.5 421h-133l53 118h78v160h-153l51 119h104q0 4 1 13t1 14q0 261 104 396.5t304 135.5q175 0 270 -106t101 -310h-189q0 260 -188 260q-120 0 -174 -98t-54 -305h402l-51 -119h-351v-160h277
l-51 -118h-226q2 -204 57 -303t171 -99q197 0 200 293h185z" />
    <glyph glyph-name="trademark" unicode="&#x2122;" horiz-adv-x="1705" 
d="M694 1456v-67h-172v-467h-94v467h-174v67h440zM948 1456l160 -405l149 405h132v-534h-82v458l-172 -458h-54l-180 458v-458h-82v534h129z" />
    <glyph glyph-name="minus" unicode="&#x2212;" horiz-adv-x="1705" 
d="M1452 670v-119h-1198v119h1198z" />
    <glyph glyph-name="fi" unicode="&#xfb01;" horiz-adv-x="923" 
d="M625 1286v189h170v-189h-170zM625 0v1028h170v-1028h-170zM152 1204v66q0 64 13 103.5t58 70.5q77 53 250 53h45v-139q-47 -1 -78.5 -5.5t-53 -16.5t-33.5 -24.5t-18 -39.5t-7.5 -51.5t-1.5 -69.5v-123h192v-127h-192v-901h-174v901h-144v127h144v176z" />
    <glyph glyph-name="fl" unicode="&#xfb02;" horiz-adv-x="919" 
d="M625 0v1475h170v-1475h-170zM152 1204v66q0 64 13 103.5t58 70.5q77 53 250 53h45v-139q-47 -1 -78.5 -5.5t-53 -16.5t-33.5 -24.5t-18 -39.5t-7.5 -51.5t-1.5 -69.5v-123h192v-127h-192v-901h-174v901h-144v127h144v176z" />
    </font>
</defs>
</svg>
